<svg xmlns="http://www.w3.org/2000/svg" viewBox="0 0 24 24" class="icon icon-compose" aria-hidden="true"><path fill="currentColor" d="M23.591,1.27l-.9-.9a1.289,1.289,0,0,0-1.807,0l-.762.863,2.6,2.587.868-.751a1.24,1.24,0,0,0,.248-.373,1.255,1.255,0,0,0,0-1.052A1.232,1.232,0,0,0,23.591,1.27ZM19.5,20.5H3.5V4.5H15.4l1.4-1.431H2.751A1,1,0,0,0,2,4.07V20.939a1,1,0,0,0,1,1H20.011a1,1,0,0,0,1-1V7L19.5,8.445ZM21.364,3.449l-9.875,9.8-.867-.861,9.874-9.8-.867-.863-4.938,4.9-4.938,4.9L8.74,15.167l3.617-1.055,9.875-9.8Z"></path></svg>