<svg width="120" height="100" viewBox="0 0 120 100" fill="none" xmlns="http://www.w3.org/2000/svg">
<rect x="22.4443" y="31.3334" width="25.037" height="3.85185" fill="#ADB2BB"/>
<rect x="8.96289" y="14" width="25.037" height="3.85185" fill="#ADB2BB"/>
<rect x="37" y="39.0371" width="46.2222" height="1.92593" fill="#ADB2BB"/>
<rect x="86.9629" y="39.037" width="23.1111" height="1.92593" fill="#ADB2BB"/>
<rect x="88" y="63" width="16" height="2" fill="#ADB2BB"/>
<rect x="84" y="87" width="23" height="2" fill="#ADB2BB"/>
<path d="M8.27083 24.1111H111.729" stroke="#ADB2BB" stroke-width="0.5" stroke-linecap="square"/>
<rect x="22.4443" y="55.4073" width="25.037" height="3.85185" fill="#ADB2BB"/>
<rect x="37" y="63" width="15" height="2" fill="#ADB2BB"/>
<rect x="55.1851" y="63.1111" width="29.8519" height="1.92593" fill="#ADB2BB"/>
<path d="M8.27083 48.1852H111.729" stroke="#ADB2BB" stroke-width="0.5" stroke-linecap="square"/>
<rect x="22.4443" y="79.4814" width="25.037" height="3.85185" fill="#ADB2BB"/>
<rect x="37" y="87" width="44" height="2" fill="#ADB2BB"/>
<path d="M8.27083 72.2593H111.729" stroke="#ADB2BB" stroke-width="0.5" stroke-linecap="square"/>
<rect x="22" y="38" width="12.5185" height="3.85185" rx="1.92593" fill="#EEEEEF" stroke="#979797" stroke-width="0.4"/>
<rect x="22" y="62" width="12.5185" height="3.85185" rx="1.92593" fill="#EEEEEF" stroke="#979797" stroke-width="0.4"/>
<rect x="22" y="86" width="12.5185" height="3.85185" rx="1.92593" fill="#EEEEEF" stroke="#979797" stroke-width="0.4"/>
<circle cx="14" cy="36" r="4.65" stroke="#555A62" stroke-width="0.7"/>
<circle cx="14" cy="35.5" r="1.65" stroke="#555A62" stroke-width="0.7"/>
<path d="M10.75 39.25C11.0833 38.9167 12.4 38.25 14 38.25C15.6 38.25 16.75 38.9167 17.25 39.25" stroke="#555A62" stroke-width="0.7"/>
<circle cx="14" cy="60" r="4.65" stroke="#555A62" stroke-width="0.7"/>
<circle cx="14" cy="59.5" r="1.65" stroke="#555A62" stroke-width="0.7"/>
<path d="M10.75 63.25C11.0833 62.9167 12.4 62.25 14 62.25C15.6 62.25 16.75 62.9167 17.25 63.25" stroke="#555A62" stroke-width="0.7"/>
<circle cx="14" cy="84" r="4.65" stroke="#555A62" stroke-width="0.7"/>
<circle cx="14" cy="83.5" r="1.65" stroke="#555A62" stroke-width="0.7"/>
<path d="M10.75 87.25C11.0833 86.9167 12.4 86.25 14 86.25C15.6 86.25 16.75 86.9167 17.25 87.25" stroke="#555A62" stroke-width="0.7"/>
<circle cx="100" cy="21" r="13" fill="#EEEEEF"/>
<path d="M95.4993 27.2009L94.8781 23.6295L95.7047 23.415L97.4241 24.1566C97.4241 24.1566 97.6684 25.4253 97.9838 26.6412C98.52 28.7077 96.0354 29.2675 95.4993 27.2009Z" stroke="#555A62"/>
<path d="M92.1937 19.3176C92.1477 19.0453 92.3312 18.7873 92.6035 18.7414L95.0686 18.3252L95.9009 23.2555L93.4358 23.6716C93.1635 23.7176 92.9055 23.5341 92.8595 23.2618L92.1937 19.3176Z" stroke="#555A62"/>
<path d="M95.9324 23.4437L95.0365 18.1369L100.703 13.9977C101.003 13.7784 101.429 13.9517 101.491 14.3182L103.283 24.932C103.345 25.2985 102.999 25.6019 102.644 25.4934L95.9324 23.4437Z" stroke="#555A62"/>
<path d="M104.359 19.2922C104.497 20.1091 103.946 20.883 103.129 21.0209C102.92 21.0563 102.825 21.0286 102.786 21.0103C102.753 20.9948 102.71 20.9628 102.66 20.8633C102.606 20.7553 102.559 20.5994 102.514 20.3773C102.484 20.2282 102.46 20.0739 102.432 19.9025C102.418 19.815 102.403 19.7231 102.387 19.6251C102.37 19.5271 102.354 19.4354 102.338 19.3483C102.308 19.1772 102.281 19.0234 102.26 18.8727C102.23 18.6483 102.222 18.4857 102.238 18.3657C102.253 18.2554 102.283 18.211 102.309 18.1856C102.34 18.1556 102.421 18.0981 102.63 18.0628C103.447 17.9249 104.221 18.4753 104.359 19.2922Z" stroke="#555A62"/>
<path fill-rule="evenodd" clip-rule="evenodd" d="M106.327 15.0518C106.487 14.8268 106.799 14.7741 107.024 14.9341C107.249 15.0942 107.302 15.4063 107.142 15.6314L106.323 16.7839C106.163 17.0089 105.85 17.0616 105.625 16.9016C105.4 16.7415 105.348 16.4294 105.508 16.2043L106.327 15.0518Z" fill="#555A62"/>
<path fill-rule="evenodd" clip-rule="evenodd" d="M107.44 18.2678C107.713 18.223 107.97 18.4075 108.015 18.68C108.06 18.9524 107.875 19.2097 107.603 19.2545L106.207 19.4842C105.935 19.5291 105.678 19.3446 105.633 19.0721C105.588 18.7996 105.773 18.5424 106.045 18.4975L107.44 18.2678Z" fill="#555A62"/>
<path fill-rule="evenodd" clip-rule="evenodd" d="M108.137 21.4487C108.384 21.5721 108.484 21.8724 108.36 22.1194C108.237 22.3665 107.937 22.4667 107.69 22.3432L106.424 21.7111C106.177 21.5877 106.077 21.2874 106.201 21.0403C106.324 20.7933 106.624 20.6931 106.871 20.8166L108.137 21.4487Z" fill="#555A62"/>
</svg>
