<!--
  - @author Adam Charron <adam.c@vanillaforums.com>
  - @copyright 2009-2024 Vanilla Forums Inc.
  - @license Proprietary
  -->

<svg width="120" height="100" viewBox="0 0 120 100" fill="none" xmlns="http://www.w3.org/2000/svg">
<rect x="8.5" y="30.5" width="103" height="39" rx="1.5" fill="white" stroke="#BCBEC1"/>
<rect x="35" y="52" width="35" height="3" fill="#979797"/>
<rect x="35" y="40" width="26" height="2" fill="#979797"/>
<rect x="97.017" y="38" width="10.5763" height="2" fill="#979797"/>
<rect x="35" y="49" width="10" height="2" fill="#979797"/>
<rect x="72.339" y="49" width="10.5763" height="2" fill="#979797"/>
<rect x="35" y="59" width="10" height="2" fill="#979797"/>
<rect x="97.017" y="35" width="10.5763" height="2" fill="#979797"/>
<rect x="72.339" y="52" width="35.2542" height="3" fill="#979797"/>
<rect x="35" y="62" width="35" height="3" fill="#979797"/>
<rect x="35" y="34" width="32" height="4" fill="#979797"/>
<rect x="9" y="31" width="23" height="38" fill="#BCBEC1"/>
<circle cx="20" cy="41" r="7" fill="white"/>
<rect x="68.1323" y="34.2" width="9.29492" height="3.6" rx="0.8" stroke="#979797" stroke-width="0.4"/>
<path d="M35 44H107" stroke="#E3E3E3" stroke-linecap="square"/>
</svg>
