<svg width="120" height="100" viewBox="0 0 120 100" fill="none" xmlns="http://www.w3.org/2000/svg">
<rect x="10" y="47" width="24.9333" height="4" fill="#ADB2BB"/>
<rect x="52" y="47" width="18" height="4" fill="#ADB2BB"/>
<rect x="87" y="47" width="21" height="4" fill="#ADB2BB"/>
<path fill-rule="evenodd" clip-rule="evenodd" d="M43.7433 49L41.2623 51.5205C41.0792 51.7064 41.0792 52.0079 41.2623 52.1939C41.4454 52.3799 41.7421 52.3799 41.9252 52.1939L44.7377 49.3368C44.9208 49.1508 44.9208 48.8493 44.7377 48.6633L41.9252 45.8062C41.7421 45.6202 41.4454 45.6202 41.2623 45.8062C41.0792 45.9921 41.0792 46.2937 41.2623 46.4796L43.7433 49Z" fill="#555A62"/>
<path fill-rule="evenodd" clip-rule="evenodd" d="M79.7433 49L77.2623 51.5205C77.0792 51.7064 77.0792 52.0079 77.2623 52.1939C77.4454 52.3799 77.7421 52.3799 77.9252 52.1939L80.7377 49.3368C80.9208 49.1508 80.9208 48.8493 80.7377 48.6633L77.9252 45.8062C77.7421 45.6202 77.4454 45.6202 77.2623 45.8062C77.0792 45.9921 77.0792 46.2937 77.2623 46.4796L79.7433 49Z" fill="#555A62"/>
</svg>
