<svg width="120" height="100" viewBox="0 0 120 100" fill="none" xmlns="http://www.w3.org/2000/svg">
<rect x="22.4443" y="31.3334" width="25.037" height="3.85185" fill="#ADB2BB"/>
<rect x="8.96289" y="14" width="25.037" height="3.85185" fill="#ADB2BB"/>
<rect x="22.4443" y="39.037" width="46.2222" height="1.92593" fill="#ADB2BB"/>
<rect x="86.9629" y="39.037" width="23.1111" height="1.92593" fill="#ADB2BB"/>
<rect x="87.926" y="63.1111" width="22.1481" height="1.92593" fill="#ADB2BB"/>
<rect x="84.074" y="87.1852" width="26" height="1.92593" fill="#ADB2BB"/>
<path d="M8.27083 24.1111H111.729" stroke="#ADB2BB" stroke-width="0.5" stroke-linecap="square"/>
<rect x="22.4443" y="55.4073" width="25.037" height="3.85185" fill="#ADB2BB"/>
<rect x="22.4443" y="63.1111" width="29.8519" height="1.92593" fill="#ADB2BB"/>
<rect x="55.1853" y="63.1111" width="29.8519" height="1.92593" fill="#ADB2BB"/>
<path d="M8.27083 48.1852H111.729" stroke="#ADB2BB" stroke-width="0.5" stroke-linecap="square"/>
<rect x="22.4443" y="79.4814" width="25.037" height="3.85185" fill="#ADB2BB"/>
<rect x="22.4443" y="87.1852" width="58.7407" height="1.92593" fill="#ADB2BB"/>
<path d="M8.27083 72.2593H111.729" stroke="#ADB2BB" stroke-width="0.5" stroke-linecap="square"/>
<rect x="71.5557" y="38.0741" width="12.5185" height="3.85185" rx="1" stroke="#979797" stroke-width="0.4"/>
<circle cx="14" cy="36" r="4.65" stroke="#555A62" stroke-width="0.7"/>
<circle cx="14" cy="35.5" r="1.65" stroke="#555A62" stroke-width="0.7"/>
<path d="M10.75 39.25C11.0833 38.9167 12.4 38.25 14 38.25C15.6 38.25 16.75 38.9167 17.25 39.25" stroke="#555A62" stroke-width="0.7"/>
<circle cx="14" cy="60" r="4.65" stroke="#555A62" stroke-width="0.7"/>
<circle cx="14" cy="59.5" r="1.65" stroke="#555A62" stroke-width="0.7"/>
<path d="M10.75 63.25C11.0833 62.9167 12.4 62.25 14 62.25C15.6 62.25 16.75 62.9167 17.25 63.25" stroke="#555A62" stroke-width="0.7"/>
<circle cx="14" cy="84" r="4.65" stroke="#555A62" stroke-width="0.7"/>
<circle cx="14" cy="83.5" r="1.65" stroke="#555A62" stroke-width="0.7"/>
<path d="M10.75 87.25C11.0833 86.9167 12.4 86.25 14 86.25C15.6 86.25 16.75 86.9167 17.25 87.25" stroke="#555A62" stroke-width="0.7"/>
</svg>
