<svg width="120" height="100" viewBox="0 0 120 100" fill="none" xmlns="http://www.w3.org/2000/svg">
<rect x="26.4443" y="31.3334" width="25.037" height="3.85185" fill="#ADB2BB"/>
<rect x="8.96289" y="14" width="25.037" height="3.85185" fill="#ADB2BB"/>
<rect x="26.4443" y="39.037" width="46.2222" height="1.92593" fill="#ADB2BB"/>
<path d="M8.27083 24.1111H111.729" stroke="#ADB2BB" stroke-width="0.5" stroke-linecap="square"/>
<rect x="26.4443" y="55.4073" width="25.037" height="3.85185" fill="#ADB2BB"/>
<rect x="26.4443" y="63.1111" width="29.8519" height="1.92593" fill="#ADB2BB"/>
<rect x="59.1851" y="63.1111" width="29.8519" height="1.92593" fill="#ADB2BB"/>
<path d="M8.27083 48.1852H111.729" stroke="#ADB2BB" stroke-width="0.5" stroke-linecap="square"/>
<rect x="26.4443" y="79.4814" width="25.037" height="3.85185" fill="#ADB2BB"/>
<rect x="26.4443" y="87.1852" width="58.7407" height="1.92593" fill="#ADB2BB"/>
<path d="M8.27083 72.2593H111.729" stroke="#ADB2BB" stroke-width="0.5" stroke-linecap="square"/>
<rect x="10.5" y="55.5" width="9" height="9" rx="1.5" fill="#D8D8D8" stroke="#555A62"/>
<rect x="12.5" y="59.5" width="5" height="3" fill="#555A62"/>
<rect x="12.5" y="57.5" width="5" height="1" fill="#555A62"/>
<rect x="10.5" y="31.5" width="9" height="9" rx="1.5" fill="#D8D8D8" stroke="#555A62"/>
<rect x="12.5" y="35.5" width="5" height="3" fill="#555A62"/>
<rect x="12.5" y="33.5" width="5" height="1" fill="#555A62"/>
<rect x="10.5" y="79.5" width="9" height="9" rx="1.5" fill="#D8D8D8" stroke="#555A62"/>
<rect x="12.5" y="83.5" width="5" height="3" fill="#555A62"/>
<rect x="12.5" y="81.5" width="5" height="1" fill="#555A62"/>
</svg>
