<svg width="120" height="100" viewBox="0 0 120 100" fill="none" xmlns="http://www.w3.org/2000/svg">
<rect x="35" y="29" width="50.037" height="16" rx="2" stroke="#555A62" stroke-width="2"/>
<path d="M49.4175 39.43C48.4725 38.62 48 37.81 48 37V35.5C48 34.135 47.1675 32.7625 45.5025 32.5375V32.4775C45.5025 32.215 45.3525 31.9975 45.165 31.9975H44.8425C44.655 31.9975 44.505 32.215 44.505 32.4775V32.5375C42.8325 32.7625 42 34.135 42 35.5V37C42 37.81 41.5275 38.62 40.59 39.43C40.53 39.475 40.5 39.5425 40.5 39.6175V40.75C40.5 40.8925 40.6125 40.9975 40.755 40.9975H44.0025C44.0025 41.5525 44.4525 42.0025 45 42.0025C45.5475 42.0025 46.005 41.5525 46.005 40.9975H49.2525C49.3875 40.9975 49.5 40.8925 49.5 40.75V39.6175C49.5 39.5425 49.47 39.475 49.4175 39.43ZM42.0525 39.7525C42.8475 38.875 43.2525 37.9525 43.2525 37V35.5C43.2525 34.5625 43.785 33.91 44.64 33.775H45.3675C46.2225 33.91 46.755 34.5625 46.755 35.5V37C46.755 37.9525 47.1525 38.875 47.955 39.7525H42.0525Z" fill="#555A62"/>
<rect x="56" y="35.0741" width="25.037" height="3.85185" fill="#ADB2BB"/>
<rect x="35" y="55" width="50.037" height="16" rx="2" stroke="#555A62" stroke-width="2"/>
<path d="M49.4175 65.43C48.4725 64.62 48 63.81 48 63V61.5C48 60.135 47.1675 58.7625 45.5025 58.5375V58.4775C45.5025 58.215 45.3525 57.9975 45.165 57.9975H44.8425C44.655 57.9975 44.505 58.215 44.505 58.4775V58.5375C42.8325 58.7625 42 60.135 42 61.5V63C42 63.81 41.5275 64.62 40.59 65.43C40.53 65.475 40.5 65.5425 40.5 65.6175V66.75C40.5 66.8925 40.6125 66.9975 40.755 66.9975H44.0025C44.0025 67.5525 44.4525 68.0025 45 68.0025C45.5475 68.0025 46.005 67.5525 46.005 66.9975H49.2525C49.3875 66.9975 49.5 66.8925 49.5 66.75V65.6175C49.5 65.5425 49.47 65.475 49.4175 65.43Z" fill="#555A62"/>
<rect x="56" y="61.0741" width="25.037" height="3.85185" fill="#ADB2BB"/>
</svg>
