<svg width="120" height="100" viewBox="0 0 120 100" fill="none" xmlns="http://www.w3.org/2000/svg">
<rect x="12.8599" y="40" width="14.5794" height="2" fill="#555A62"/>
<rect x="12.8599" y="32" width="24.2991" height="2" fill="#ADB2BB"/>
<rect x="12.8599" y="26" width="41.7944" height="2" fill="#ADB2BB"/>
<rect x="12.8599" y="20" width="35.9626" height="2" fill="#ADB2BB"/>
<rect x="12.8599" y="12" width="30.1308" height="4" fill="#ADB2BB"/>
<rect x="12.8599" y="86" width="14.5794" height="2" fill="#555A62"/>
<rect x="12.8599" y="78" width="24.2991" height="2" fill="#ADB2BB"/>
<rect x="12.8599" y="72" width="36.9346" height="2" fill="#ADB2BB"/>
<rect x="12.8599" y="66" width="35.9626" height="2" fill="#ADB2BB"/>
<rect x="12.8599" y="58" width="30.1308" height="4" fill="#ADB2BB"/>
<rect x="66.3179" y="40" width="14.5794" height="2" fill="#555A62"/>
<rect x="66.3179" y="32" width="24.2991" height="2" fill="#ADB2BB"/>
<rect x="66.3179" y="26" width="36.9346" height="2" fill="#ADB2BB"/>
<rect x="66.3179" y="20" width="33.0467" height="2" fill="#ADB2BB"/>
<rect x="66.3179" y="12" width="30.1308" height="4" fill="#ADB2BB"/>
<rect x="66.3179" y="86" width="14.5794" height="2" fill="#555A62"/>
<rect x="66.3179" y="78" width="24.2991" height="2" fill="#ADB2BB"/>
<rect x="66.3179" y="72" width="29.1589" height="2" fill="#ADB2BB"/>
<rect x="66.3179" y="66" width="35.9626" height="2" fill="#ADB2BB"/>
<rect x="66.3179" y="58" width="30.1308" height="4" fill="#ADB2BB"/>
<line x1="8" y1="51.75" x2="112" y2="51.75" stroke="#ADB2BB" stroke-width="0.5"/>
</svg>
