<svg width="120" height="100" viewBox="0 0 120 100" fill="none" xmlns="http://www.w3.org/2000/svg">
<rect x="22.4443" y="31.3334" width="25.037" height="3.85185" fill="#ADB2BB"/>
<rect x="8.96289" y="14" width="25.037" height="3.85185" fill="#ADB2BB"/>
<rect x="22.4443" y="39.037" width="46.2222" height="1.92593" fill="#ADB2BB"/>
<rect x="86.9629" y="39.037" width="23.1111" height="1.92593" fill="#ADB2BB"/>
<rect x="87.926" y="63.1111" width="22.1481" height="1.92593" fill="#ADB2BB"/>
<rect x="84.074" y="87.1852" width="26" height="1.92593" fill="#ADB2BB"/>
<path d="M8.27083 24.1111H111.729" stroke="#ADB2BB" stroke-width="0.5" stroke-linecap="square"/>
<rect x="22.4443" y="55.4073" width="25.037" height="3.85185" fill="#ADB2BB"/>
<rect x="22.4443" y="63.1111" width="29.8519" height="1.92593" fill="#ADB2BB"/>
<rect x="55.1853" y="63.1111" width="29.8519" height="1.92593" fill="#ADB2BB"/>
<path d="M8.27083 48.1852H111.729" stroke="#ADB2BB" stroke-width="0.5" stroke-linecap="square"/>
<rect x="22.4443" y="79.4814" width="25.037" height="3.85185" fill="#ADB2BB"/>
<rect x="22.4443" y="87.1852" width="58.7407" height="1.92593" fill="#ADB2BB"/>
<path d="M8.27083 72.2593H111.729" stroke="#ADB2BB" stroke-width="0.5" stroke-linecap="square"/>
<rect x="71.5557" y="38.0741" width="12.5185" height="3.85185" rx="1" stroke="#979797" stroke-width="0.4"/>
<circle cx="14" cy="36" r="4.65" stroke="#555A62" stroke-width="0.7"/>
<circle cx="14" cy="35.5" r="1.65" stroke="#555A62" stroke-width="0.7"/>
<path d="M10.75 39.25C11.0833 38.9167 12.4 38.25 14 38.25C15.6 38.25 16.75 38.9167 17.25 39.25" stroke="#555A62" stroke-width="0.7"/>
<circle cx="14" cy="60" r="4.65" stroke="#555A62" stroke-width="0.7"/>
<circle cx="14" cy="59.5" r="1.65" stroke="#555A62" stroke-width="0.7"/>
<path d="M10.75 63.25C11.0833 62.9167 12.4 62.25 14 62.25C15.6 62.25 16.75 62.9167 17.25 63.25" stroke="#555A62" stroke-width="0.7"/>
<circle cx="14" cy="84" r="4.65" stroke="#555A62" stroke-width="0.7"/>
<circle cx="14" cy="83.5" r="1.65" stroke="#555A62" stroke-width="0.7"/>
<path d="M10.75 87.25C11.0833 86.9167 12.4 86.25 14 86.25C15.6 86.25 16.75 86.9167 17.25 87.25" stroke="#555A62" stroke-width="0.7"/>
<circle cx="100" cy="21" r="13" fill="#EEEEEF"/>
<path fill-rule="evenodd" clip-rule="evenodd" d="M105.19 18.7687C105.19 20.1763 104.556 21.5298 103.473 22.4863L103.417 22.5404C102.618 23.3119 102.684 24.9354 102.688 25.0433L102.689 25.0488C102.689 25.139 102.651 25.2293 102.595 25.2834C102.539 25.3376 102.464 25.3736 102.371 25.3736H97.6102C97.5355 25.3736 97.4421 25.3376 97.3861 25.2834C97.3114 25.2113 97.2928 25.139 97.2928 25.0488C97.3114 25.0308 97.3861 23.3344 96.5646 22.5404C95.463 21.602 94.8096 20.2125 94.8096 18.7687C94.8096 16.0077 97.1434 13.752 100 13.752C102.857 13.752 105.19 16.0077 105.19 18.7687ZM102.931 22.1434C102.931 22.1253 102.969 22.0892 102.987 22.0712C103.977 21.2411 104.537 20.032 104.537 18.7507C104.537 16.3145 102.502 14.3474 99.9813 14.3474C97.4608 14.3474 95.4257 16.3145 95.4257 18.7507C95.4257 20.032 96.0044 21.2411 96.994 22.0712C97.7781 22.8472 97.9089 24.1465 97.9276 24.742H102.054C102.072 24.1465 102.203 22.9013 102.931 22.1434ZM97.4262 26.7875C97.4262 26.9794 97.5837 27.135 97.7779 27.135H102.222C102.416 27.135 102.574 26.9794 102.574 26.7875C102.574 26.5956 102.416 26.44 102.222 26.44H97.7779C97.5837 26.44 97.4262 26.5956 97.4262 26.7875ZM98.2337 28.4425C98.2337 28.6344 98.3558 28.79 98.5064 28.79H101.493C101.644 28.79 101.766 28.6344 101.766 28.4425C101.766 28.2506 101.644 28.095 101.493 28.095H98.5064C98.3558 28.095 98.2337 28.2506 98.2337 28.4425ZM99.2169 15.3634C99.2169 15.2024 99.3715 15.0592 99.5455 15.0592C101.865 15.0592 103.74 16.7947 103.72 18.9237C103.72 19.0848 103.566 19.2279 103.392 19.2279C103.218 19.2279 103.063 19.0848 103.063 18.9237C103.063 17.1346 101.498 15.6675 99.5455 15.6675C99.3715 15.6675 99.2169 15.5244 99.2169 15.3634Z" fill="#555A62"/>
<path d="M103.473 22.4863L103.307 22.2987L103.299 22.3065L103.473 22.4863ZM103.417 22.5404L103.243 22.3606L103.243 22.3606L103.417 22.5404ZM102.688 25.0433L102.938 25.0342L102.938 25.0332L102.688 25.0433ZM102.689 25.0488H102.939L102.938 25.0397L102.689 25.0488ZM102.595 25.2834L102.769 25.4632L102.769 25.4632L102.595 25.2834ZM97.3861 25.2834L97.5599 25.1037L97.5597 25.1035L97.3861 25.2834ZM97.2928 25.0488L97.119 24.8691L97.0428 24.9428V25.0488H97.2928ZM96.5646 22.5404L96.7383 22.3606L96.7327 22.3552L96.7267 22.3501L96.5646 22.5404ZM102.987 22.0712L102.827 21.8797L102.82 21.8853L102.814 21.8914L102.987 22.0712ZM102.931 22.1434L103.112 22.3166L103.181 22.2441V22.1434H102.931ZM96.994 22.0712L97.1699 21.8935L97.1626 21.8863L97.1547 21.8797L96.994 22.0712ZM97.9276 24.742L97.6777 24.7499L97.6853 24.992H97.9276V24.742ZM102.054 24.742V24.992H102.296L102.304 24.7498L102.054 24.742ZM103.72 18.9237L103.47 18.9215V18.9237H103.72ZM103.638 22.6736C104.772 21.6724 105.44 20.2519 105.44 18.7687H104.94C104.94 20.1008 104.339 21.3873 103.307 22.2989L103.638 22.6736ZM103.59 22.7202L103.646 22.666L103.299 22.3065L103.243 22.3606L103.59 22.7202ZM102.938 25.0332C102.936 24.9854 102.919 24.5718 102.998 24.0803C103.079 23.5795 103.251 23.0482 103.59 22.7201L103.243 22.3606C102.784 22.8041 102.59 23.4703 102.505 24.001C102.418 24.5411 102.436 24.9933 102.439 25.0534L102.938 25.0332ZM102.938 25.0397L102.938 25.0342L102.439 25.0524L102.439 25.0579L102.938 25.0397ZM102.769 25.4632C102.878 25.3573 102.939 25.1999 102.939 25.0488H102.439C102.439 25.0602 102.436 25.0738 102.431 25.0863C102.426 25.0994 102.421 25.1045 102.421 25.1037L102.769 25.4632ZM102.371 25.6236C102.535 25.6236 102.67 25.5583 102.769 25.4632L102.422 25.1036C102.414 25.1113 102.406 25.1158 102.4 25.1186C102.394 25.1212 102.385 25.1236 102.371 25.1236V25.6236ZM97.6102 25.6236H102.371V25.1236H97.6102V25.6236ZM97.2124 25.4632C97.3164 25.5637 97.4726 25.6236 97.6102 25.6236V25.1236C97.6111 25.1236 97.6087 25.1237 97.6029 25.1225C97.5974 25.1213 97.5907 25.1194 97.5836 25.1166C97.5765 25.1137 97.5703 25.1106 97.5657 25.1077C97.5608 25.1047 97.5592 25.103 97.5599 25.1037L97.2124 25.4632ZM97.0428 25.0488C97.0428 25.1104 97.0489 25.1829 97.0766 25.2586C97.105 25.3366 97.1511 25.404 97.2125 25.4633L97.5597 25.1035C97.5524 25.0965 97.5491 25.0919 97.5478 25.09C97.5467 25.0883 97.5464 25.0876 97.5463 25.0872C97.5459 25.0862 97.5428 25.0775 97.5428 25.0488H97.0428ZM96.3908 22.7202C96.7412 23.0588 96.9173 23.6132 96.9967 24.124C97.0355 24.3736 97.0494 24.6007 97.0524 24.7656C97.0539 24.848 97.0527 24.9135 97.0508 24.9573C97.0498 24.9795 97.0487 24.994 97.0479 25.0014C97.0475 25.0056 97.0475 25.004 97.0484 24.9989C97.0488 24.997 97.0502 24.9886 97.0535 24.9774C97.055 24.972 97.0584 24.9608 97.0645 24.9472C97.0681 24.939 97.0837 24.9032 97.119 24.8691L97.4665 25.2286C97.5021 25.1941 97.518 25.1578 97.5219 25.149C97.5283 25.1346 97.532 25.1226 97.5339 25.1161C97.5377 25.1027 97.5398 25.0913 97.5408 25.0856C97.5431 25.0731 97.5445 25.0608 97.5454 25.0514C97.5474 25.0315 97.549 25.007 97.5503 24.9796C97.5527 24.924 97.554 24.8479 97.5523 24.7563C97.5489 24.5733 97.5336 24.3232 97.4908 24.0472C97.4068 23.5069 97.2094 22.816 96.7383 22.3606L96.3908 22.7202ZM94.5596 18.7687C94.5596 20.2872 95.2463 21.7458 96.4024 22.7307L96.7267 22.3501C95.6798 21.4583 95.0596 20.1378 95.0596 18.7687H94.5596ZM100 13.502C97.0134 13.502 94.5596 15.8617 94.5596 18.7687H95.0596C95.0596 16.1537 97.2734 14.002 100 14.002V13.502ZM105.44 18.7687C105.44 15.8617 102.987 13.502 100 13.502V14.002C102.727 14.002 104.94 16.1537 104.94 18.7687H105.44ZM102.814 21.8914C102.805 21.8993 102.783 21.9205 102.763 21.9441C102.753 21.9557 102.738 21.974 102.724 21.9967C102.716 22.0104 102.681 22.0662 102.681 22.1434H103.181C103.181 22.1821 103.172 22.2112 103.166 22.2255C103.16 22.241 103.154 22.252 103.151 22.2573C103.144 22.2676 103.14 22.2725 103.142 22.2705C103.145 22.267 103.151 22.2611 103.161 22.251L102.814 21.8914ZM104.287 18.7507C104.287 19.9583 103.759 21.0972 102.827 21.8797L103.148 22.2627C104.194 21.385 104.787 20.1057 104.787 18.7507H104.287ZM99.9813 14.5974C102.372 14.5974 104.287 16.4605 104.287 18.7507H104.787C104.787 16.1684 102.632 14.0974 99.9813 14.0974V14.5974ZM95.6757 18.7507C95.6757 16.4605 97.5908 14.5974 99.9813 14.5974V14.0974C97.3308 14.0974 95.1757 16.1684 95.1757 18.7507H95.6757ZM97.1547 21.8797C96.22 21.0956 95.6757 19.9558 95.6757 18.7507H95.1757C95.1757 20.1082 95.7889 21.3866 96.8334 22.2627L97.1547 21.8797ZM98.1774 24.7342C98.1678 24.4255 98.1291 23.931 97.9893 23.4096C97.8501 22.8901 97.6053 22.3244 97.1699 21.8935L96.8182 22.2489C97.1669 22.594 97.3795 23.0659 97.5064 23.539C97.6326 24.0101 97.6687 24.463 97.6777 24.7499L98.1774 24.7342ZM102.054 24.492H97.9276V24.992H102.054V24.492ZM102.751 21.9702C102.346 22.3915 102.116 22.9375 101.985 23.4402C101.852 23.945 101.814 24.4253 101.804 24.7342L102.304 24.7498C102.313 24.4632 102.349 24.0232 102.468 23.567C102.588 23.1088 102.788 22.6532 103.112 22.3166L102.751 21.9702ZM97.7779 26.885C97.7189 26.885 97.6762 26.8386 97.6762 26.7875H97.1762C97.1762 27.1203 97.4484 27.385 97.7779 27.385V26.885ZM102.222 26.885H97.7779V27.385H102.222V26.885ZM102.324 26.7875C102.324 26.8386 102.281 26.885 102.222 26.885V27.385C102.552 27.385 102.824 27.1203 102.824 26.7875H102.324ZM102.222 26.69C102.281 26.69 102.324 26.7365 102.324 26.7875H102.824C102.824 26.4548 102.552 26.19 102.222 26.19V26.69ZM97.7779 26.69H102.222V26.19H97.7779V26.69ZM97.6762 26.7875C97.6762 26.7365 97.7189 26.69 97.7779 26.69V26.19C97.4484 26.19 97.1762 26.4548 97.1762 26.7875H97.6762ZM98.5064 28.54C98.5227 28.54 98.5222 28.549 98.5103 28.5339C98.4981 28.5183 98.4837 28.4869 98.4837 28.4425H97.9837C97.9837 28.7126 98.1647 29.04 98.5064 29.04V28.54ZM101.493 28.54H98.5064V29.04H101.493V28.54ZM101.516 28.4425C101.516 28.4869 101.502 28.5183 101.49 28.5339C101.478 28.549 101.477 28.54 101.493 28.54V29.04C101.835 29.04 102.016 28.7126 102.016 28.4425H101.516ZM101.493 28.345C101.477 28.345 101.478 28.336 101.49 28.3511C101.502 28.3667 101.516 28.3981 101.516 28.4425H102.016C102.016 28.1723 101.835 27.845 101.493 27.845V28.345ZM98.5064 28.345H101.493V27.845H98.5064V28.345ZM98.4837 28.4425C98.4837 28.3981 98.4981 28.3667 98.5103 28.3511C98.5222 28.336 98.5227 28.345 98.5064 28.345V27.845C98.1647 27.845 97.9837 28.1723 97.9837 28.4425H98.4837ZM99.5455 14.8092C99.252 14.8092 98.9669 15.0465 98.9669 15.3634H99.4669C99.4669 15.3633 99.4669 15.3628 99.4672 15.3616C99.4675 15.3604 99.4681 15.3584 99.4694 15.3556C99.4721 15.35 99.4773 15.3423 99.4858 15.3344C99.504 15.3176 99.5267 15.3092 99.5455 15.3092V14.8092ZM103.97 18.926C103.991 16.638 101.983 14.8092 99.5455 14.8092V15.3092C101.747 15.3092 103.488 16.9513 103.47 18.9215L103.97 18.926ZM103.392 19.4779C103.685 19.4779 103.97 19.2407 103.97 18.9237H103.47C103.47 18.9238 103.47 18.9244 103.47 18.9255C103.47 18.9268 103.469 18.9288 103.468 18.9315C103.465 18.9372 103.46 18.9449 103.451 18.9527C103.433 18.9696 103.41 18.9779 103.392 18.9779V19.4779ZM102.813 18.9237C102.813 19.2407 103.098 19.4779 103.392 19.4779V18.9779C103.373 18.9779 103.35 18.9696 103.332 18.9527C103.323 18.9449 103.318 18.9372 103.316 18.9315C103.314 18.9288 103.314 18.9268 103.313 18.9255C103.313 18.9244 103.313 18.9238 103.313 18.9237H102.813ZM99.5455 15.9175C101.377 15.9175 102.813 17.2897 102.813 18.9237H103.313C103.313 16.9796 101.618 15.4175 99.5455 15.4175V15.9175ZM98.9669 15.3634C98.9669 15.6803 99.252 15.9175 99.5455 15.9175V15.4175C99.5267 15.4175 99.504 15.4092 99.4858 15.3924C99.4773 15.3845 99.4721 15.3768 99.4694 15.3712C99.4681 15.3684 99.4675 15.3664 99.4672 15.3652C99.4669 15.364 99.4669 15.3634 99.4669 15.3634H98.9669Z" fill="#555A62"/>
<mask id="mask0_1263_64324" style="mask-type:alpha" maskUnits="userSpaceOnUse" x="94" y="13" width="12" height="17">
<path fill-rule="evenodd" clip-rule="evenodd" d="M105.19 18.7687C105.19 20.1763 104.556 21.5298 103.473 22.4863L103.417 22.5404C102.618 23.3119 102.684 24.9354 102.688 25.0433L102.689 25.0488C102.689 25.139 102.651 25.2293 102.595 25.2834C102.539 25.3376 102.464 25.3736 102.371 25.3736H97.6102C97.5355 25.3736 97.4421 25.3376 97.3861 25.2834C97.3114 25.2113 97.2928 25.139 97.2928 25.0488C97.3114 25.0308 97.3861 23.3344 96.5646 22.5404C95.463 21.602 94.8096 20.2125 94.8096 18.7687C94.8096 16.0077 97.1434 13.752 100 13.752C102.857 13.752 105.19 16.0077 105.19 18.7687ZM102.931 22.1434C102.931 22.1253 102.969 22.0892 102.987 22.0712C103.977 21.2411 104.537 20.032 104.537 18.7507C104.537 16.3145 102.502 14.3474 99.9813 14.3474C97.4608 14.3474 95.4257 16.3145 95.4257 18.7507C95.4257 20.032 96.0044 21.2411 96.994 22.0712C97.7781 22.8472 97.9089 24.1465 97.9276 24.742H102.054C102.072 24.1465 102.203 22.9013 102.931 22.1434ZM97.4262 26.7875C97.4262 26.9794 97.5837 27.135 97.7779 27.135H102.222C102.416 27.135 102.574 26.9794 102.574 26.7875C102.574 26.5956 102.416 26.44 102.222 26.44H97.7779C97.5837 26.44 97.4262 26.5956 97.4262 26.7875ZM98.2337 28.4425C98.2337 28.6344 98.3558 28.79 98.5064 28.79H101.493C101.644 28.79 101.766 28.6344 101.766 28.4425C101.766 28.2506 101.644 28.095 101.493 28.095H98.5064C98.3558 28.095 98.2337 28.2506 98.2337 28.4425ZM99.2169 15.3634C99.2169 15.2024 99.3715 15.0592 99.5455 15.0592C101.865 15.0592 103.74 16.7947 103.72 18.9237C103.72 19.0848 103.566 19.2279 103.392 19.2279C103.218 19.2279 103.063 19.0848 103.063 18.9237C103.063 17.1346 101.498 15.6675 99.5455 15.6675C99.3715 15.6675 99.2169 15.5244 99.2169 15.3634Z" fill="white"/>
<path d="M103.473 22.4863L103.307 22.2987L103.299 22.3065L103.473 22.4863ZM103.417 22.5404L103.243 22.3606L103.243 22.3606L103.417 22.5404ZM102.688 25.0433L102.938 25.0342L102.938 25.0332L102.688 25.0433ZM102.689 25.0488H102.939L102.938 25.0397L102.689 25.0488ZM102.595 25.2834L102.769 25.4632L102.769 25.4632L102.595 25.2834ZM97.3861 25.2834L97.5599 25.1037L97.5597 25.1035L97.3861 25.2834ZM97.2928 25.0488L97.119 24.8691L97.0428 24.9428V25.0488H97.2928ZM96.5646 22.5404L96.7383 22.3606L96.7327 22.3552L96.7267 22.3501L96.5646 22.5404ZM102.987 22.0712L102.827 21.8797L102.82 21.8853L102.814 21.8914L102.987 22.0712ZM102.931 22.1434L103.112 22.3166L103.181 22.2441V22.1434H102.931ZM96.994 22.0712L97.1699 21.8935L97.1626 21.8863L97.1547 21.8797L96.994 22.0712ZM97.9276 24.742L97.6777 24.7499L97.6853 24.992H97.9276V24.742ZM102.054 24.742V24.992H102.296L102.304 24.7498L102.054 24.742ZM103.72 18.9237L103.47 18.9215V18.9237H103.72ZM103.638 22.6736C104.772 21.6724 105.44 20.2519 105.44 18.7687H104.94C104.94 20.1008 104.339 21.3873 103.307 22.2989L103.638 22.6736ZM103.59 22.7202L103.646 22.666L103.299 22.3065L103.243 22.3606L103.59 22.7202ZM102.938 25.0332C102.936 24.9854 102.919 24.5718 102.998 24.0803C103.079 23.5795 103.251 23.0482 103.59 22.7201L103.243 22.3606C102.784 22.8041 102.59 23.4703 102.505 24.001C102.418 24.5411 102.436 24.9933 102.439 25.0534L102.938 25.0332ZM102.938 25.0397L102.938 25.0342L102.439 25.0524L102.439 25.0579L102.938 25.0397ZM102.769 25.4632C102.878 25.3573 102.939 25.1999 102.939 25.0488H102.439C102.439 25.0602 102.436 25.0738 102.431 25.0863C102.426 25.0994 102.421 25.1045 102.421 25.1037L102.769 25.4632ZM102.371 25.6236C102.535 25.6236 102.67 25.5583 102.769 25.4632L102.422 25.1036C102.414 25.1113 102.406 25.1158 102.4 25.1186C102.394 25.1212 102.385 25.1236 102.371 25.1236V25.6236ZM97.6102 25.6236H102.371V25.1236H97.6102V25.6236ZM97.2124 25.4632C97.3164 25.5637 97.4726 25.6236 97.6102 25.6236V25.1236C97.6111 25.1236 97.6087 25.1237 97.6029 25.1225C97.5974 25.1213 97.5907 25.1194 97.5836 25.1166C97.5765 25.1137 97.5703 25.1106 97.5657 25.1077C97.5608 25.1047 97.5592 25.103 97.5599 25.1037L97.2124 25.4632ZM97.0428 25.0488C97.0428 25.1104 97.0489 25.1829 97.0766 25.2586C97.105 25.3366 97.1511 25.404 97.2125 25.4633L97.5597 25.1035C97.5524 25.0965 97.5491 25.0919 97.5478 25.09C97.5467 25.0883 97.5464 25.0876 97.5463 25.0872C97.5459 25.0862 97.5428 25.0775 97.5428 25.0488H97.0428ZM96.3908 22.7202C96.7412 23.0588 96.9173 23.6132 96.9967 24.124C97.0355 24.3736 97.0494 24.6007 97.0524 24.7656C97.0539 24.848 97.0527 24.9135 97.0508 24.9573C97.0498 24.9795 97.0487 24.994 97.0479 25.0014C97.0475 25.0056 97.0475 25.004 97.0484 24.9989C97.0488 24.997 97.0502 24.9886 97.0535 24.9774C97.055 24.972 97.0584 24.9608 97.0645 24.9472C97.0681 24.939 97.0837 24.9032 97.119 24.8691L97.4665 25.2286C97.5021 25.1941 97.518 25.1578 97.5219 25.149C97.5283 25.1346 97.532 25.1226 97.5339 25.1161C97.5377 25.1027 97.5398 25.0913 97.5408 25.0856C97.5431 25.0731 97.5445 25.0608 97.5454 25.0514C97.5474 25.0315 97.549 25.007 97.5503 24.9796C97.5527 24.924 97.554 24.8479 97.5523 24.7563C97.5489 24.5733 97.5336 24.3232 97.4908 24.0472C97.4068 23.5069 97.2094 22.816 96.7383 22.3606L96.3908 22.7202ZM94.5596 18.7687C94.5596 20.2872 95.2463 21.7458 96.4024 22.7307L96.7267 22.3501C95.6798 21.4583 95.0596 20.1378 95.0596 18.7687H94.5596ZM100 13.502C97.0134 13.502 94.5596 15.8617 94.5596 18.7687H95.0596C95.0596 16.1537 97.2734 14.002 100 14.002V13.502ZM105.44 18.7687C105.44 15.8617 102.987 13.502 100 13.502V14.002C102.727 14.002 104.94 16.1537 104.94 18.7687H105.44ZM102.814 21.8914C102.805 21.8993 102.783 21.9205 102.763 21.9441C102.753 21.9557 102.738 21.974 102.724 21.9967C102.716 22.0104 102.681 22.0662 102.681 22.1434H103.181C103.181 22.1821 103.172 22.2112 103.166 22.2255C103.16 22.241 103.154 22.252 103.151 22.2573C103.144 22.2676 103.14 22.2725 103.142 22.2705C103.145 22.267 103.151 22.2611 103.161 22.251L102.814 21.8914ZM104.287 18.7507C104.287 19.9583 103.759 21.0972 102.827 21.8797L103.148 22.2627C104.194 21.385 104.787 20.1057 104.787 18.7507H104.287ZM99.9813 14.5974C102.372 14.5974 104.287 16.4605 104.287 18.7507H104.787C104.787 16.1684 102.632 14.0974 99.9813 14.0974V14.5974ZM95.6757 18.7507C95.6757 16.4605 97.5908 14.5974 99.9813 14.5974V14.0974C97.3308 14.0974 95.1757 16.1684 95.1757 18.7507H95.6757ZM97.1547 21.8797C96.22 21.0956 95.6757 19.9558 95.6757 18.7507H95.1757C95.1757 20.1082 95.7889 21.3866 96.8334 22.2627L97.1547 21.8797ZM98.1774 24.7342C98.1678 24.4255 98.1291 23.931 97.9893 23.4096C97.8501 22.8901 97.6053 22.3244 97.1699 21.8935L96.8182 22.2489C97.1669 22.594 97.3795 23.0659 97.5064 23.539C97.6326 24.0101 97.6687 24.463 97.6777 24.7499L98.1774 24.7342ZM102.054 24.492H97.9276V24.992H102.054V24.492ZM102.751 21.9702C102.346 22.3915 102.116 22.9375 101.985 23.4402C101.852 23.945 101.814 24.4253 101.804 24.7342L102.304 24.7498C102.313 24.4632 102.349 24.0232 102.468 23.567C102.588 23.1088 102.788 22.6532 103.112 22.3166L102.751 21.9702ZM97.7779 26.885C97.7189 26.885 97.6762 26.8386 97.6762 26.7875H97.1762C97.1762 27.1203 97.4484 27.385 97.7779 27.385V26.885ZM102.222 26.885H97.7779V27.385H102.222V26.885ZM102.324 26.7875C102.324 26.8386 102.281 26.885 102.222 26.885V27.385C102.552 27.385 102.824 27.1203 102.824 26.7875H102.324ZM102.222 26.69C102.281 26.69 102.324 26.7365 102.324 26.7875H102.824C102.824 26.4548 102.552 26.19 102.222 26.19V26.69ZM97.7779 26.69H102.222V26.19H97.7779V26.69ZM97.6762 26.7875C97.6762 26.7365 97.7189 26.69 97.7779 26.69V26.19C97.4484 26.19 97.1762 26.4548 97.1762 26.7875H97.6762ZM98.5064 28.54C98.5227 28.54 98.5222 28.549 98.5103 28.5339C98.4981 28.5183 98.4837 28.4869 98.4837 28.4425H97.9837C97.9837 28.7126 98.1647 29.04 98.5064 29.04V28.54ZM101.493 28.54H98.5064V29.04H101.493V28.54ZM101.516 28.4425C101.516 28.4869 101.502 28.5183 101.49 28.5339C101.478 28.549 101.477 28.54 101.493 28.54V29.04C101.835 29.04 102.016 28.7126 102.016 28.4425H101.516ZM101.493 28.345C101.477 28.345 101.478 28.336 101.49 28.3511C101.502 28.3667 101.516 28.3981 101.516 28.4425H102.016C102.016 28.1723 101.835 27.845 101.493 27.845V28.345ZM98.5064 28.345H101.493V27.845H98.5064V28.345ZM98.4837 28.4425C98.4837 28.3981 98.4981 28.3667 98.5103 28.3511C98.5222 28.336 98.5227 28.345 98.5064 28.345V27.845C98.1647 27.845 97.9837 28.1723 97.9837 28.4425H98.4837ZM99.5455 14.8092C99.252 14.8092 98.9669 15.0465 98.9669 15.3634H99.4669C99.4669 15.3633 99.4669 15.3628 99.4672 15.3616C99.4675 15.3604 99.4681 15.3584 99.4694 15.3556C99.4721 15.35 99.4773 15.3423 99.4858 15.3344C99.504 15.3176 99.5267 15.3092 99.5455 15.3092V14.8092ZM103.97 18.926C103.991 16.638 101.983 14.8092 99.5455 14.8092V15.3092C101.747 15.3092 103.488 16.9513 103.47 18.9215L103.97 18.926ZM103.392 19.4779C103.685 19.4779 103.97 19.2407 103.97 18.9237H103.47C103.47 18.9238 103.47 18.9244 103.47 18.9255C103.47 18.9268 103.469 18.9288 103.468 18.9315C103.465 18.9372 103.46 18.9449 103.451 18.9527C103.433 18.9696 103.41 18.9779 103.392 18.9779V19.4779ZM102.813 18.9237C102.813 19.2407 103.098 19.4779 103.392 19.4779V18.9779C103.373 18.9779 103.35 18.9696 103.332 18.9527C103.323 18.9449 103.318 18.9372 103.316 18.9315C103.314 18.9288 103.314 18.9268 103.313 18.9255C103.313 18.9244 103.313 18.9238 103.313 18.9237H102.813ZM99.5455 15.9175C101.377 15.9175 102.813 17.2897 102.813 18.9237H103.313C103.313 16.9796 101.618 15.4175 99.5455 15.4175V15.9175ZM98.9669 15.3634C98.9669 15.6803 99.252 15.9175 99.5455 15.9175V15.4175C99.5267 15.4175 99.504 15.4092 99.4858 15.3924C99.4773 15.3845 99.4721 15.3768 99.4694 15.3712C99.4681 15.3684 99.4675 15.3664 99.4672 15.3652C99.4669 15.364 99.4669 15.3634 99.4669 15.3634H98.9669Z" fill="white"/>
</mask>
<g mask="url(#mask0_1263_64324)">
</g>
<path fill-rule="evenodd" clip-rule="evenodd" d="M106.146 13.8132C106.342 13.6179 106.658 13.6179 106.854 13.8132C107.049 14.0085 107.049 14.325 106.854 14.5203L105.854 15.5203C105.658 15.7156 105.342 15.7156 105.146 15.5203C104.951 15.325 104.951 15.0085 105.146 14.8132L106.146 13.8132Z" fill="#555A62"/>
<path fill-rule="evenodd" clip-rule="evenodd" d="M108.567 18.2117C108.6 18.4858 108.405 18.7353 108.131 18.7689L106.728 18.9413C106.454 18.9749 106.204 18.78 106.171 18.5059C106.137 18.2318 106.332 17.9824 106.606 17.9487L108.01 17.7764C108.284 17.7427 108.533 17.9376 108.567 18.2117Z" fill="#555A62"/>
<path fill-rule="evenodd" clip-rule="evenodd" d="M92.0974 17.6588L93.5038 17.8066C93.7785 17.8355 93.9777 18.0815 93.9488 18.3561C93.92 18.6308 93.6739 18.83 93.3993 18.8011L91.9928 18.6533C91.7182 18.6245 91.519 18.3784 91.5478 18.1038C91.5767 17.8292 91.8227 17.6299 92.0974 17.6588Z" fill="#555A62"/>
<path fill-rule="evenodd" clip-rule="evenodd" d="M93.0972 13.907C93.271 13.6924 93.5858 13.6593 93.8004 13.8331L94.8995 14.7231C95.1141 14.8969 95.1472 15.2117 94.9734 15.4263C94.7996 15.6409 94.4847 15.674 94.2701 15.5003L93.1711 14.6103C92.9565 14.4365 92.9234 14.1216 93.0972 13.907Z" fill="#555A62"/>
</svg>
