<svg width="120" height="100" viewBox="0 0 120 100" fill="none" xmlns="http://www.w3.org/2000/svg">
<rect x="28" y="47" width="24" height="6" fill="#ADB2BB"/>
<path fill-rule="evenodd" clip-rule="evenodd" d="M17.662 50L22.1279 45.4632C22.4574 45.1285 22.4574 44.5858 22.1279 44.2511C21.7984 43.9163 21.2641 43.9163 20.9346 44.2511L15.8721 49.3939C15.5426 49.7286 15.5426 50.2714 15.8721 50.6061L20.9346 55.7489C21.2641 56.0837 21.7984 56.0837 22.1279 55.7489C22.4574 55.4142 22.4574 54.8715 22.1279 54.5368L17.662 50Z" fill="#555A62"/>
<rect x="91" y="53" width="24" height="6" transform="rotate(-180 91 53)" fill="#ADB2BB"/>
<path fill-rule="evenodd" clip-rule="evenodd" d="M101.338 50L96.8721 54.5368C96.5426 54.8715 96.5426 55.4142 96.8721 55.7489C97.2016 56.0837 97.7359 56.0837 98.0654 55.7489L103.128 50.6061C103.457 50.2714 103.457 49.7286 103.128 49.3939L98.0654 44.2511C97.7359 43.9163 97.2016 43.9163 96.8721 44.2511C96.5426 44.5858 96.5426 45.1285 96.8721 45.4632L101.338 50Z" fill="#555A62"/>
</svg>
