<svg width="120" height="100" viewBox="0 0 120 100" fill="none" xmlns="http://www.w3.org/2000/svg">
<rect x="76" y="32" width="9.06667" height="3" rx="1" stroke="#979797" stroke-width="0.4"/>
<rect x="69" y="46" width="9.06667" height="3" rx="1" stroke="#979797" stroke-width="0.4"/>
<rect x="75" y="60" width="9.06667" height="3" rx="1" stroke="#979797" stroke-width="0.4"/>
<rect x="75" y="74" width="9.06667" height="3" rx="1" stroke="#979797" stroke-width="0.4"/>
<rect x="33" y="18" width="24.9333" height="4.53333" fill="#ADB2BB"/>
<rect x="47" y="33" width="24.9333" height="2" fill="#ADB2BB"/>
<rect x="47" y="47" width="17" height="2" fill="#ADB2BB"/>
<rect x="47" y="61" width="22" height="2" fill="#ADB2BB"/>
<rect x="47" y="75" width="22" height="2" fill="#ADB2BB"/>
<circle cx="38" cy="34" r="4.65" stroke="#555A62" stroke-width="0.7"/>
<circle cx="38" cy="33.5" r="1.65" stroke="#555A62" stroke-width="0.7"/>
<path d="M34.75 37.25C35.0833 36.9167 36.4 36.25 38 36.25C39.6 36.25 40.75 36.9167 41.25 37.25" stroke="#555A62" stroke-width="0.7"/>
<circle cx="38" cy="48" r="4.65" stroke="#555A62" stroke-width="0.7"/>
<circle cx="38" cy="47.5" r="1.65" stroke="#555A62" stroke-width="0.7"/>
<path d="M34.75 51.25C35.0833 50.9167 36.4 50.25 38 50.25C39.6 50.25 40.75 50.9167 41.25 51.25" stroke="#555A62" stroke-width="0.7"/>
<circle cx="38" cy="62" r="4.65" stroke="#555A62" stroke-width="0.7"/>
<circle cx="38" cy="61.5" r="1.65" stroke="#555A62" stroke-width="0.7"/>
<path d="M34.75 65.25C35.0833 64.9167 36.4 64.25 38 64.25C39.6 64.25 40.75 64.9167 41.25 65.25" stroke="#555A62" stroke-width="0.7"/>
<circle cx="38" cy="76" r="4.65" stroke="#555A62" stroke-width="0.7"/>
<circle cx="38" cy="75.5" r="1.65" stroke="#555A62" stroke-width="0.7"/>
<path d="M34.75 79.25C35.0833 78.9167 36.4 78.25 38 78.25C39.6 78.25 40.75 78.9167 41.25 79.25" stroke="#555A62" stroke-width="0.7"/>
</svg>
