<svg width="120" height="100" viewBox="0 0 120 100" fill="none" xmlns="http://www.w3.org/2000/svg">
<rect x="10" y="21" width="100" height="14" rx="2" stroke="#D8D8D8"/>
<rect x="25.4546" y="27" width="75.4546" height="3" fill="#ADB2BB"/>
<path fill-rule="evenodd" clip-rule="evenodd" d="M18.7142 28.5855H19.2952L19.4166 26.125H18.5928L18.7142 28.5855ZM18.6904 29.127C18.619 29.1992 18.5833 29.3058 18.5833 29.4469C18.5833 29.5829 18.6198 29.6882 18.6928 29.7629C18.7658 29.8376 18.869 29.875 19.0023 29.875C19.1325 29.875 19.234 29.8368 19.3071 29.7604C19.3801 29.684 19.4166 29.5795 19.4166 29.4469C19.4166 29.3092 19.3805 29.2034 19.3083 29.1295C19.236 29.0557 19.134 29.0187 19.0023 29.0187C18.8658 29.0187 18.7618 29.0548 18.6904 29.127Z" fill="#555A62"/>
<circle cx="19.0001" cy="28" r="3.08333" stroke="#555A62" stroke-width="0.5"/>
<rect x="10" y="65" width="100" height="14" rx="2" stroke="#D8D8D8"/>
<rect x="25.4546" y="71" width="75.4546" height="3" fill="#ADB2BB"/>
<circle cx="19.0001" cy="72" r="3.08333" stroke="#555A62" stroke-width="0.5"/>
<rect x="18.5833" y="71.375" width="0.833333" height="2.5" fill="#555A62"/>
<circle cx="18.9999" cy="70.5417" r="0.416667" fill="#555A62"/>
<rect x="10" y="43" width="100" height="14" rx="2" stroke="#D8D8D8"/>
<rect x="25.4546" y="49" width="66.3636" height="3" fill="#ADB2BB"/>
<path fill-rule="evenodd" clip-rule="evenodd" d="M18.625 49.6314V48.7843H19.375V49.6314L19.3 50.9019H18.7375L18.625 49.6314Z" fill="#555A62"/>
<path fill-rule="evenodd" clip-rule="evenodd" d="M18.625 51.2549H19.375V51.9608H18.625V51.2549Z" fill="#555A62"/>
<path fill-rule="evenodd" clip-rule="evenodd" d="M22.2968 52.5572L19.2765 46.8339C19.2472 46.7784 19.202 46.7329 19.1468 46.7034C18.9941 46.6219 18.8047 46.6803 18.7236 46.8339L15.7033 52.5572C15.6793 52.6026 15.6667 52.6533 15.6667 52.7048C15.6667 52.8786 15.8069 53.0196 15.9797 53.0196H22.0204C22.0715 53.0196 22.1219 53.0069 22.1671 52.9828C22.3198 52.9013 22.3779 52.7107 22.2968 52.5572ZM16.1503 52.6029L19.0001 47.2028L21.8498 52.6029H16.1503Z" fill="#555A62"/>
</svg>
