<svg width="120" height="100" viewBox="0 0 120 100" fill="none" xmlns="http://www.w3.org/2000/svg">
<path fill-rule="evenodd" clip-rule="evenodd" d="M96 50C96 53.8669 92.8669 57 89 57C85.1331 57 82 53.8669 82 50C82 46.1331 85.1331 43 89 43C92.8669 43 96 46.1331 96 50ZM92.2732 50.7904C92.4608 50.7904 92.6125 50.6387 92.6125 50.4511V49.5489C92.6125 49.3613 92.4608 49.2096 92.2732 49.2096H89.7904V46.7268C89.7904 46.5392 89.6387 46.3875 89.4511 46.3875H88.5489C88.3613 46.3875 88.2096 46.5392 88.2096 46.7268V49.2096H85.7268C85.5392 49.2096 85.3875 49.3613 85.3875 49.5489V50.4511C85.3875 50.6387 85.5392 50.7904 85.7268 50.7904H88.2096V53.2732C88.2096 53.4608 88.3613 53.6125 88.5489 53.6125H89.4511C89.6387 53.6125 89.7904 53.4608 89.7904 53.2732V50.7904H92.2732Z" fill="#555A62"/>
<path d="M36 43H58.5C62.366 43 65.5 46.134 65.5 50C65.5 53.866 62.366 57 58.5 57H36V43Z" fill="#555A62"/>
<path fill-rule="evenodd" clip-rule="evenodd" d="M65.5 50C65.5 58.5 33.8669 57 30 57C26.1331 57 23 53.867 23 50C23 46.1331 26.1331 43 30 43C33.8669 43 65.5 41.5001 65.5 50ZM35.2732 50.7904C35.4608 50.7904 35.6125 50.6387 35.6125 50.4511V49.549C35.6125 49.3613 35.4608 49.2097 35.2732 49.2097H32.7903V46.7268C32.7903 46.5392 32.6386 46.3875 32.451 46.3875H31.5489C31.3613 46.3875 31.2096 46.5392 31.2096 46.7268V49.2097H28.7267C28.5391 49.2097 28.3875 49.3613 28.3875 49.549V50.4511C28.3875 50.6387 28.5391 50.7904 28.7267 50.7904H31.2096V53.2732C31.2096 53.4609 31.3613 53.6125 31.5489 53.6125H32.451C32.6386 53.6125 32.7903 53.4609 32.7903 53.2732V50.7904H35.2732Z" fill="#555A62"/>
</svg>
