<svg width="120" height="100" viewBox="0 0 120 100" fill="none" xmlns="http://www.w3.org/2000/svg">
<rect x="22.4443" y="31.3334" width="25.037" height="3.85185" fill="#ADB2BB"/>
<rect x="8.96289" y="14" width="25.037" height="3.85185" fill="#ADB2BB"/>
<rect x="22.4443" y="39.037" width="46.2222" height="1.92593" fill="#ADB2BB"/>
<rect x="86.9629" y="39.037" width="23.1111" height="1.92593" fill="#ADB2BB"/>
<rect x="87.9258" y="63.1111" width="22.1481" height="1.92593" fill="#ADB2BB"/>
<rect x="84.0742" y="87.1852" width="26" height="1.92593" fill="#ADB2BB"/>
<path d="M8.27083 24.1111H111.729" stroke="#ADB2BB" stroke-width="0.5" stroke-linecap="square"/>
<rect x="22.4443" y="55.4073" width="25.037" height="3.85185" fill="#ADB2BB"/>
<rect x="22.4443" y="63.1111" width="29.8519" height="1.92593" fill="#ADB2BB"/>
<rect x="55.1851" y="63.1111" width="29.8519" height="1.92593" fill="#ADB2BB"/>
<path d="M8.27083 48.1852H111.729" stroke="#ADB2BB" stroke-width="0.5" stroke-linecap="square"/>
<rect x="22.4443" y="79.4814" width="25.037" height="3.85185" fill="#ADB2BB"/>
<rect x="22.4443" y="87.1852" width="58.7407" height="1.92593" fill="#ADB2BB"/>
<path d="M8.27083 72.2593H111.729" stroke="#ADB2BB" stroke-width="0.5" stroke-linecap="square"/>
<rect x="71.5557" y="38.0741" width="12.5185" height="3.85185" rx="1" stroke="#979797" stroke-width="0.4"/>
<circle cx="14" cy="36" r="4.65" stroke="#555A62" stroke-width="0.7"/>
<circle cx="14" cy="35.5" r="1.65" stroke="#555A62" stroke-width="0.7"/>
<path d="M10.75 39.25C11.0833 38.9167 12.4 38.25 14 38.25C15.6 38.25 16.75 38.9167 17.25 39.25" stroke="#555A62" stroke-width="0.7"/>
<circle cx="14" cy="60" r="4.65" stroke="#555A62" stroke-width="0.7"/>
<circle cx="14" cy="59.5" r="1.65" stroke="#555A62" stroke-width="0.7"/>
<path d="M10.75 63.25C11.0833 62.9167 12.4 62.25 14 62.25C15.6 62.25 16.75 62.9167 17.25 63.25" stroke="#555A62" stroke-width="0.7"/>
<circle cx="14" cy="84" r="4.65" stroke="#555A62" stroke-width="0.7"/>
<circle cx="14" cy="83.5" r="1.65" stroke="#555A62" stroke-width="0.7"/>
<path d="M10.75 87.25C11.0833 86.9167 12.4 86.25 14 86.25C15.6 86.25 16.75 86.9167 17.25 87.25" stroke="#555A62" stroke-width="0.7"/>
<circle cx="100" cy="21" r="13" fill="#EEEEEF"/>
<path fill-rule="evenodd" clip-rule="evenodd" d="M100.226 22.9268V23.2404H98.8606V22.7944C98.8606 22.2834 98.9535 21.8583 99.1394 21.5192C99.3252 21.18 99.6504 20.8293 100.115 20.4669C100.668 20.0302 101.024 19.6911 101.185 19.4495C101.345 19.2079 101.425 18.9199 101.425 18.5854C101.425 18.1951 101.295 17.8955 101.035 17.6864C100.775 17.4774 100.401 17.3728 99.9129 17.3728C99.4715 17.3728 99.0627 17.4355 98.6864 17.561C98.3101 17.6864 97.9431 17.8374 97.5854 18.0139L97 16.7875C97.9431 16.2625 98.9535 16 100.031 16C100.942 16 101.664 16.223 102.199 16.669C102.733 17.115 103 17.7305 103 18.5157C103 18.8641 102.949 19.1742 102.847 19.446C102.744 19.7178 102.59 19.9768 102.383 20.223C102.177 20.4692 101.82 20.7898 101.314 21.1847C100.882 21.5238 100.592 21.8049 100.446 22.0279C100.3 22.2509 100.226 22.5505 100.226 22.9268ZM100.362 26.2474C100.184 26.4402 99.9292 26.5366 99.5993 26.5366C99.2695 26.5366 99.0163 26.4425 98.8397 26.2544C98.6632 26.0662 98.5749 25.8026 98.5749 25.4634C98.5749 24.7619 98.9164 24.4111 99.5993 24.4111C99.9338 24.4111 100.189 24.5029 100.366 24.6864C100.542 24.8699 100.631 25.1289 100.631 25.4634C100.631 25.7933 100.541 26.0546 100.362 26.2474Z" fill="#555A62"/>
<circle cx="100" cy="21" r="8" stroke="#555A62"/>
</svg>
