<svg width="120" height="100" viewBox="0 0 120 100" fill="none" xmlns="http://www.w3.org/2000/svg">
<rect x="22.4445" y="31.3334" width="25.037" height="3.85185" fill="#ADB2BB"/>
<rect x="8.96301" y="14" width="25.037" height="3.85185" fill="#ADB2BB"/>
<rect x="22.4445" y="39.037" width="46.2222" height="1.92593" fill="#ADB2BB"/>
<rect x="86.963" y="39.037" width="23.1111" height="1.92593" fill="#ADB2BB"/>
<rect x="87.9259" y="63.1111" width="22.1481" height="1.92593" fill="#ADB2BB"/>
<rect x="84.0741" y="87.1852" width="26" height="1.92593" fill="#ADB2BB"/>
<path d="M8.27083 24.1111H111.729" stroke="#ADB2BB" stroke-width="0.5" stroke-linecap="square"/>
<rect x="22.4445" y="55.4073" width="25.037" height="3.85185" fill="#ADB2BB"/>
<rect x="22.4445" y="63.1111" width="29.8519" height="1.92593" fill="#ADB2BB"/>
<rect x="55.1852" y="63.1111" width="29.8519" height="1.92593" fill="#ADB2BB"/>
<path d="M8.27083 48.1852H111.729" stroke="#ADB2BB" stroke-width="0.5" stroke-linecap="square"/>
<rect x="22.4445" y="79.4814" width="25.037" height="3.85185" fill="#ADB2BB"/>
<rect x="22.4445" y="87.1852" width="58.7407" height="1.92593" fill="#ADB2BB"/>
<path d="M8.27083 72.2593H111.729" stroke="#ADB2BB" stroke-width="0.5" stroke-linecap="square"/>
<rect x="71.5555" y="38.0741" width="12.5185" height="3.85185" rx="1" stroke="#979797" stroke-width="0.4"/>
<circle cx="14" cy="36" r="4.65" stroke="#555A62" stroke-width="0.7"/>
<circle cx="13.9999" cy="35.5" r="1.65" stroke="#555A62" stroke-width="0.7"/>
<path d="M10.7499 39.25C11.0832 38.9167 12.3999 38.25 13.9999 38.25C15.5999 38.25 16.7499 38.9167 17.2499 39.25" stroke="#555A62" stroke-width="0.7"/>
<circle cx="14" cy="60" r="4.65" stroke="#555A62" stroke-width="0.7"/>
<circle cx="13.9999" cy="59.5" r="1.65" stroke="#555A62" stroke-width="0.7"/>
<path d="M10.7499 63.25C11.0832 62.9167 12.3999 62.25 13.9999 62.25C15.5999 62.25 16.7499 62.9167 17.2499 63.25" stroke="#555A62" stroke-width="0.7"/>
<circle cx="14" cy="84" r="4.65" stroke="#555A62" stroke-width="0.7"/>
<circle cx="13.9999" cy="83.5" r="1.65" stroke="#555A62" stroke-width="0.7"/>
<path d="M10.7499 87.25C11.0832 86.9167 12.3999 86.25 13.9999 86.25C15.5999 86.25 16.7499 86.9167 17.2499 87.25" stroke="#555A62" stroke-width="0.7"/>
<circle cx="100" cy="21" r="13" fill="#EEEEEF"/>
<path d="M98.125 19.875C99.0547 19.875 99.9023 19.3828 100.395 18.5625C100.859 17.7695 100.859 16.7578 100.395 15.9375C99.9023 15.1445 99.0547 14.625 98.125 14.625C97.168 14.625 96.3203 15.1445 95.8281 15.9375C95.3633 16.7578 95.3633 17.7695 95.8281 18.5625C96.3203 19.3828 97.168 19.875 98.125 19.875ZM92.875 26.875H102.609C102.883 27.2031 103.211 27.4766 103.566 27.75C103.512 27.75 103.484 27.75 103.43 27.75H92.793C92.3555 27.75 92 27.3945 92 26.957C92 24.25 94.1602 22.0625 96.8672 22.0625H99.3555C99.8477 22.0625 100.312 22.1445 100.75 22.2812C100.777 22.582 100.805 22.9102 100.859 23.2383C100.395 23.0469 99.9023 22.9375 99.3555 22.9375H96.8672C94.6797 22.9375 92.9023 24.7148 92.875 26.875ZM94.625 17.25C94.625 16.0195 95.2812 14.8711 96.375 14.2422C97.4414 13.6133 98.7812 13.6133 99.875 14.2422C100.941 14.8711 101.625 16.0195 101.625 17.25C101.625 18.5078 100.941 19.6562 99.875 20.2852C98.7812 20.9141 97.4414 20.9141 96.375 20.2852C95.2812 19.6562 94.625 18.5078 94.625 17.25ZM102.5 22.0078C102.527 23.457 103.102 25.5352 105.125 26.6562V20.9414L102.5 22.0078ZM108.625 22.0078L106 20.9414V26.6562C107.996 25.5352 108.57 23.457 108.598 22.0078H108.625ZM105.809 19.9297L109.09 21.2422C109.336 21.3516 109.5 21.5977 109.5 21.8438C109.5 23.5938 108.789 26.4648 105.809 27.7227C105.645 27.7773 105.453 27.7773 105.289 27.7227C102.309 26.4648 101.625 23.5938 101.625 21.8438C101.625 21.5977 101.789 21.3516 102.035 21.2422L105.316 19.9297C105.453 19.875 105.645 19.875 105.781 19.9297H105.809Z" fill="#555A62"/>
</svg>
