<svg width="120" height="100" viewBox="0 0 120 100" fill="none" xmlns="http://www.w3.org/2000/svg">
<rect x="1" y="40" width="118" height="20" rx="1.8" stroke="#D8D8D8"/>
<rect x="19" y="48" width="20" height="3" fill="#ADB2BB"/>
<rect x="54" y="48" width="21" height="3" fill="#ADB2BB"/>
<rect x="92" y="48" width="19" height="3" fill="#ADB2BB"/>
<path d="M11.8122 47.7982H11.5622V47.7982L11.8122 47.7982ZM15.6358 50.5142L15.8496 50.3848L15.841 50.3706L15.8306 50.3576L15.6358 50.5142ZM14.1844 49.4765L14.0953 49.7101L14.1079 49.7149L14.1208 49.7183L14.1844 49.4765ZM15.6244 51.5663L15.8116 51.7321L15.8116 51.7321L15.6244 51.5663ZM15.3724 51.6666L15.3724 51.9166H15.3724V51.6666ZM10.6201 51.6666L10.6201 51.4166H10.6201V51.6666ZM10.3681 51.5663L10.5552 51.4005L10.5552 51.4005L10.3681 51.5663ZM10.3722 50.5142L10.1671 50.3713L10.1625 50.3779L10.1583 50.3848L10.3722 50.5142ZM11.8235 49.4765L11.7345 49.2429L11.7291 49.2451L11.8235 49.4765ZM11.8876 49.4805L12.0089 49.2619L12.0087 49.2618L11.8876 49.4805ZM11.9843 49.5352L12.1083 49.3181L12.1083 49.3181L11.9843 49.5352ZM14.0406 49.5253L14.1637 49.7429L14.1637 49.7429L14.0406 49.5253ZM14.1204 49.4805L14.2417 49.6991L14.2418 49.699L14.1204 49.4805ZM13.004 49.5131C13.846 49.5131 14.4458 48.6946 14.4458 47.7982H13.9458C13.9458 48.5198 13.4784 49.0131 13.004 49.0131V49.5131ZM11.5622 47.7982C11.5622 48.6946 12.162 49.5131 13.004 49.5131V49.0131C12.5296 49.0131 12.0622 48.5198 12.0622 47.7982L11.5622 47.7982ZM13.004 46.0833C12.6336 46.0833 12.2591 46.1804 11.9804 46.4724C11.7038 46.7623 11.5622 47.2018 11.5622 47.7982H12.0622C12.0622 47.2727 12.1874 46.9798 12.3421 46.8176C12.4947 46.6577 12.7162 46.5833 13.004 46.5833V46.0833ZM14.4458 47.7982C14.4458 47.2018 14.3042 46.7622 14.0276 46.4724C13.7488 46.1804 13.3744 46.0833 13.004 46.0833V46.5833C13.2918 46.5833 13.5133 46.6577 13.6659 46.8176C13.8206 46.9798 13.9458 47.2727 13.9458 47.7982H14.4458ZM15.8306 50.3576C15.4727 49.9121 15.083 49.6331 14.781 49.465C14.63 49.381 14.5005 49.3244 14.407 49.2884C14.3603 49.2704 14.3225 49.2575 14.2954 49.2489C14.2818 49.2445 14.271 49.2413 14.263 49.239C14.259 49.2378 14.2557 49.2369 14.2532 49.2362C14.252 49.2358 14.2509 49.2355 14.25 49.2353C14.2496 49.2352 14.2492 49.2351 14.2488 49.235C14.2487 49.2349 14.2485 49.2349 14.2484 49.2349C14.2483 49.2348 14.2482 49.2348 14.2482 49.2348C14.2481 49.2348 14.248 49.2348 14.1844 49.4765C14.1208 49.7183 14.1207 49.7183 14.1206 49.7183C14.1206 49.7183 14.1205 49.7182 14.1205 49.7182C14.1204 49.7182 14.1203 49.7182 14.1202 49.7182C14.1201 49.7181 14.1199 49.7181 14.1199 49.7181C14.1198 49.718 14.1198 49.7181 14.1201 49.7181C14.1206 49.7183 14.1218 49.7186 14.1237 49.7192C14.1275 49.7203 14.1341 49.7222 14.1433 49.7252C14.1616 49.731 14.1902 49.7407 14.2273 49.755C14.3016 49.7836 14.4096 49.8305 14.5379 49.9019C14.7944 50.0447 15.1305 50.2845 15.4409 50.6708L15.8306 50.3576ZM15.8116 51.7321C15.8543 51.6839 15.8698 51.6299 15.8739 51.6159C15.8811 51.5918 15.8858 51.5673 15.8893 51.5466C15.8963 51.5043 15.9012 51.4542 15.9049 51.403C15.9123 51.2991 15.916 51.1699 15.9165 51.0435C15.9171 50.9167 15.9145 50.7882 15.9089 50.6852C15.9062 50.6341 15.9025 50.5859 15.8976 50.5458C15.8951 50.5261 15.8919 50.5044 15.8874 50.4836C15.8848 50.4717 15.8756 50.4278 15.8496 50.3848L15.4219 50.6437C15.409 50.6225 15.4033 50.6051 15.4018 50.6004C15.4006 50.5968 15.3999 50.5941 15.3994 50.5925C15.399 50.5909 15.3988 50.5899 15.3988 50.5897C15.3987 50.5894 15.399 50.5907 15.3995 50.594C15.4 50.5972 15.4006 50.6015 15.4013 50.6072C15.4043 50.6309 15.4072 50.6663 15.4097 50.7121C15.4146 50.803 15.417 50.9214 15.4165 51.0413C15.416 51.1615 15.4125 51.2785 15.4062 51.3671C15.4029 51.4121 15.3993 51.4448 15.3959 51.4652C15.3942 51.4757 15.3934 51.4776 15.3945 51.4739C15.3951 51.4719 15.3973 51.4648 15.4018 51.4548C15.4055 51.4466 15.416 51.4246 15.4373 51.4005L15.8116 51.7321ZM15.3724 51.9166C15.5292 51.9166 15.6983 51.8599 15.8116 51.7321L15.4373 51.4005C15.4393 51.3983 15.4361 51.4027 15.4234 51.4078C15.411 51.4127 15.3934 51.4166 15.3724 51.4166V51.9166ZM10.6201 51.9166L15.3724 51.9166L15.3724 51.4166L10.6201 51.4166L10.6201 51.9166ZM10.181 51.7321C10.2942 51.8599 10.4633 51.9166 10.6201 51.9166V51.4166C10.5991 51.4166 10.5815 51.4127 10.5691 51.4078C10.5564 51.4027 10.5533 51.3984 10.5552 51.4005L10.181 51.7321ZM10.1583 50.3848C10.1331 50.4266 10.1237 50.4692 10.121 50.4811C10.1163 50.5016 10.1129 50.523 10.1102 50.5426C10.1047 50.5824 10.1004 50.6305 10.0969 50.6815C10.0898 50.7844 10.0852 50.9128 10.0837 51.0395C10.0823 51.166 10.0839 51.2952 10.0898 51.3992C10.0927 51.4505 10.097 51.5008 10.1034 51.5433C10.1066 51.5642 10.1111 51.589 10.1181 51.6135C10.1221 51.6276 10.1374 51.6829 10.181 51.7321L10.5552 51.4005C10.577 51.4251 10.5876 51.4477 10.5915 51.4563C10.5961 51.4667 10.5983 51.4741 10.5989 51.4763C10.6001 51.4804 10.5993 51.4789 10.5978 51.4684C10.5947 51.4483 10.5916 51.4158 10.589 51.3709C10.584 51.2824 10.5823 51.1654 10.5837 51.0453C10.5851 50.9254 10.5894 50.8069 10.5957 50.7159C10.5988 50.6699 10.6023 50.6344 10.6056 50.6104C10.6063 50.6047 10.607 50.6003 10.6076 50.5969C10.6082 50.5935 10.6085 50.5921 10.6085 50.5922C10.6085 50.5923 10.6083 50.5932 10.6079 50.5947C10.6075 50.5961 10.6068 50.5986 10.6056 50.602C10.6042 50.6064 10.5985 50.6231 10.5861 50.6436L10.1583 50.3848ZM11.8235 49.4765C11.7291 49.2451 11.729 49.2451 11.729 49.2451C11.729 49.2451 11.7289 49.2451 11.7289 49.2452C11.7288 49.2452 11.7287 49.2452 11.7285 49.2453C11.7283 49.2454 11.728 49.2455 11.7277 49.2457C11.7269 49.246 11.726 49.2464 11.7248 49.2469C11.7223 49.2479 11.719 49.2493 11.7147 49.2511C11.7062 49.2547 11.694 49.2599 11.6786 49.2666C11.6478 49.2801 11.604 49.2999 11.5503 49.3254C11.4432 49.3764 11.2958 49.4512 11.1338 49.5465C10.8169 49.733 10.4157 50.0146 10.1671 50.3713L10.5773 50.6572C10.7626 50.3913 11.0871 50.1541 11.3874 49.9774C11.534 49.8911 11.6681 49.8231 11.7653 49.7769C11.8138 49.7538 11.8528 49.7362 11.8794 49.7246C11.8926 49.7187 11.9027 49.7144 11.9093 49.7116C11.9126 49.7103 11.915 49.7093 11.9165 49.7086C11.9172 49.7083 11.9177 49.7081 11.9179 49.708C11.9181 49.708 11.9181 49.7079 11.9182 49.7079C11.9182 49.7079 11.9182 49.7079 11.9181 49.708C11.9181 49.708 11.9181 49.708 11.9181 49.708C11.918 49.708 11.918 49.708 11.8235 49.4765ZM12.0087 49.2618C11.9228 49.2142 11.8207 49.2101 11.7345 49.2429L11.9126 49.7101C11.8873 49.7198 11.8628 49.7226 11.8409 49.7212C11.8193 49.7199 11.7933 49.714 11.7665 49.6992L12.0087 49.2618ZM12.1083 49.3181C12.0746 49.2989 12.0409 49.2796 12.0089 49.2619L11.7663 49.6991C11.7951 49.7151 11.826 49.7327 11.8604 49.7523L12.1083 49.3181ZM12.9963 49.6418C12.6859 49.6418 12.3801 49.4733 12.1083 49.3181L11.8604 49.7523C12.1112 49.8956 12.5315 50.1418 12.9963 50.1418V49.6418ZM13.9176 49.3077C13.6415 49.4638 13.3157 49.6418 12.9963 49.6418V50.1418C13.4693 50.1418 13.91 49.8864 14.1637 49.7429L13.9176 49.3077ZM13.9991 49.2619C13.9729 49.2764 13.9453 49.292 13.9176 49.3077L14.1637 49.7429C14.1918 49.727 14.2175 49.7125 14.2417 49.6991L13.9991 49.2619ZM14.2734 49.2429C14.1873 49.2101 14.0851 49.2141 13.999 49.2619L14.2418 49.699C14.2148 49.714 14.1887 49.7199 14.167 49.7212C14.1451 49.7226 14.1207 49.7198 14.0953 49.7101L14.2734 49.2429Z" fill="#555A62"/>
<path d="M82 48.3334C82 48.3334 83.3333 46.6667 85 46.6667C86.6667 46.6667 88 48.3334 88 48.3334" stroke="#555A62" stroke-width="0.5" stroke-linecap="round"/>
<path d="M83 49C83 49 83.8889 48 85 48C86.1111 48 87 49 87 49" stroke="#555A62" stroke-width="0.5" stroke-linecap="round"/>
<path d="M83.6667 50C83.6667 50 84.2593 49.3333 85.0001 49.3333C85.7408 49.3333 86.3334 50 86.3334 50" stroke="#555A62" stroke-width="0.5" stroke-linecap="round"/>
<circle cx="85" cy="50.8333" r="0.5" fill="#555A62"/>
<path d="M50.233 50.8235L50.2081 50.7054L50.2852 50.6125C50.5835 50.2526 50.75 49.8088 50.75 49.3382C50.75 48.1823 49.7479 47.25 48.5 47.25C47.2521 47.25 46.25 48.1823 46.25 49.3382C46.25 50.4942 47.2521 51.4265 48.5 51.4265C48.8008 51.4265 49.0927 51.372 49.3631 51.2682L49.4742 51.2256L49.5774 51.285L50.3818 51.748C50.3827 51.7473 50.3837 51.7465 50.3849 51.7454C50.399 51.7322 50.4173 51.6989 50.4069 51.6498L50.233 50.8235Z" stroke="#555A62" stroke-width="0.5"/>
</svg>
