<svg width="124" height="100" viewBox="0 0 124 100" fill="none" xmlns="http://www.w3.org/2000/svg">
<g filter="url(#filter0_d_353_50937)">
<rect x="3" y="40" width="118" height="20" rx="1.8" fill="white"/>
</g>
<rect x="21" y="48" width="20" height="3" fill="#ADB2BB"/>
<rect x="56" y="48" width="21" height="3" fill="#ADB2BB"/>
<rect x="94" y="48" width="19" height="3" fill="#ADB2BB"/>
<path d="M13.812 47.7988H13.562V47.7989L13.812 47.7988ZM17.6355 50.5149L17.8494 50.3854L17.8408 50.3712L17.8304 50.3583L17.6355 50.5149ZM16.1841 49.4772L16.0951 49.7108L16.1076 49.7156L16.1206 49.719L16.1841 49.4772ZM17.6242 51.567L17.8113 51.7328L17.8113 51.7328L17.6242 51.567ZM17.3721 51.6673L17.3721 51.9173H17.3721V51.6673ZM12.6199 51.6673L12.6199 51.4173H12.6199V51.6673ZM12.3678 51.567L12.555 51.4012L12.5549 51.4012L12.3678 51.567ZM12.372 50.5149L12.1669 50.3719L12.1623 50.3786L12.1581 50.3855L12.372 50.5149ZM13.8233 49.4772L13.7342 49.2435L13.7288 49.2457L13.8233 49.4772ZM13.8873 49.4812L14.0086 49.2626L14.0085 49.2625L13.8873 49.4812ZM13.9841 49.5359L14.108 49.3188L14.108 49.3188L13.9841 49.5359ZM16.0404 49.526L16.1634 49.7436L16.1634 49.7436L16.0404 49.526ZM16.1201 49.4812L16.2414 49.6998L16.2415 49.6997L16.1201 49.4812ZM15.0038 49.5137C15.8457 49.5137 16.4456 48.6953 16.4456 47.7988H15.9456C15.9456 48.5205 15.4781 49.0137 15.0038 49.0137V49.5137ZM13.562 47.7989C13.562 48.6953 14.1617 49.5137 15.0038 49.5137V49.0137C14.5293 49.0137 14.062 48.5205 14.062 47.7988L13.562 47.7989ZM15.0038 46.084C14.6334 46.084 14.2589 46.181 13.9802 46.4731C13.7036 46.7629 13.562 47.2024 13.562 47.7988H14.062C14.062 47.2734 14.1871 46.9804 14.3419 46.8183C14.4945 46.6584 14.7159 46.584 15.0038 46.584V46.084ZM16.4456 47.7988C16.4456 47.2024 16.3039 46.7629 16.0273 46.4731C15.7486 46.1811 15.3741 46.084 15.0038 46.084V46.584C15.2916 46.584 15.513 46.6584 15.6656 46.8183C15.8204 46.9804 15.9456 47.2734 15.9456 47.7988H16.4456ZM17.8304 50.3583C17.4724 49.9128 17.0828 49.6338 16.7808 49.4657C16.6297 49.3816 16.5002 49.3251 16.4068 49.2891C16.36 49.2711 16.3222 49.2582 16.2951 49.2495C16.2816 49.2452 16.2707 49.2419 16.2628 49.2396C16.2588 49.2385 16.2555 49.2375 16.253 49.2369C16.2517 49.2365 16.2507 49.2362 16.2498 49.236C16.2493 49.2359 16.2489 49.2358 16.2486 49.2357C16.2484 49.2356 16.2483 49.2356 16.2481 49.2355C16.248 49.2355 16.2479 49.2355 16.2479 49.2355C16.2478 49.2355 16.2477 49.2354 16.1841 49.4772C16.1206 49.719 16.1205 49.719 16.1204 49.7189C16.1204 49.7189 16.1203 49.7189 16.1202 49.7189C16.1201 49.7189 16.12 49.7189 16.12 49.7188C16.1198 49.7188 16.1197 49.7188 16.1196 49.7187C16.1195 49.7187 16.1196 49.7187 16.1198 49.7188C16.1203 49.7189 16.1215 49.7193 16.1234 49.7198C16.1273 49.7209 16.1339 49.7229 16.143 49.7258C16.1614 49.7317 16.19 49.7414 16.2271 49.7557C16.3013 49.7843 16.4093 49.8312 16.5376 49.9026C16.7942 50.0454 17.1302 50.2852 17.4406 50.6715L17.8304 50.3583ZM17.8113 51.7328C17.854 51.6846 17.8695 51.6305 17.8736 51.6166C17.8808 51.5924 17.8856 51.568 17.889 51.5472C17.896 51.5049 17.901 51.4549 17.9046 51.4036C17.9121 51.2998 17.9157 51.1706 17.9163 51.0441C17.9168 50.9174 17.9143 50.7889 17.9087 50.6859C17.9059 50.6348 17.9023 50.5865 17.8973 50.5465C17.8949 50.5268 17.8917 50.5051 17.8871 50.4843C17.8845 50.4723 17.8754 50.4284 17.8494 50.3854L17.4216 50.6444C17.4088 50.6231 17.4031 50.6057 17.4015 50.601C17.4004 50.5975 17.3996 50.5947 17.3992 50.5932C17.3988 50.5916 17.3986 50.5906 17.3985 50.5904C17.3984 50.59 17.3987 50.5913 17.3993 50.5946C17.3998 50.5979 17.4004 50.6022 17.4011 50.6079C17.404 50.6315 17.4069 50.6669 17.4094 50.7128C17.4143 50.8037 17.4168 50.9221 17.4163 51.042C17.4158 51.1621 17.4123 51.2792 17.4059 51.3678C17.4027 51.4128 17.3991 51.4455 17.3957 51.4659C17.394 51.4764 17.3931 51.4783 17.3943 51.4745C17.3948 51.4726 17.397 51.4654 17.4015 51.4554C17.4053 51.4472 17.4158 51.4252 17.4371 51.4012L17.8113 51.7328ZM17.3721 51.9173C17.529 51.9173 17.698 51.8606 17.8113 51.7328L17.4371 51.4012C17.439 51.399 17.4359 51.4034 17.4231 51.4084C17.4107 51.4134 17.3931 51.4173 17.3721 51.4173V51.9173ZM12.6199 51.9173L17.3721 51.9173L17.3721 51.4173L12.6199 51.4173L12.6199 51.9173ZM12.1807 51.7328C12.294 51.8606 12.4631 51.9173 12.6199 51.9173V51.4173C12.5989 51.4173 12.5813 51.4134 12.5689 51.4084C12.5561 51.4034 12.553 51.399 12.555 51.4012L12.1807 51.7328ZM12.1581 50.3855C12.1328 50.4272 12.1235 50.4699 12.1207 50.4818C12.1161 50.5023 12.1126 50.5237 12.1099 50.5433C12.1045 50.5831 12.1001 50.6312 12.0966 50.6822C12.0895 50.785 12.085 50.9135 12.0835 51.0402C12.0821 51.1666 12.0837 51.2959 12.0896 51.3999C12.0925 51.4512 12.0967 51.5014 12.1032 51.544C12.1063 51.5649 12.1109 51.5896 12.1179 51.6142C12.1219 51.6283 12.1371 51.6836 12.1808 51.7328L12.5549 51.4012C12.5767 51.4257 12.5874 51.4484 12.5912 51.4569C12.5959 51.4673 12.598 51.4748 12.5987 51.477C12.5998 51.4811 12.5991 51.4795 12.5975 51.4691C12.5945 51.449 12.5913 51.4165 12.5888 51.3716C12.5837 51.2831 12.5821 51.1661 12.5835 51.0459C12.5848 50.9261 12.5892 50.8075 12.5954 50.7165C12.5986 50.6706 12.602 50.635 12.6053 50.6111C12.6061 50.6054 12.6068 50.6009 12.6074 50.5976C12.608 50.5942 12.6083 50.5927 12.6082 50.5929C12.6082 50.593 12.608 50.5939 12.6076 50.5953C12.6072 50.5968 12.6065 50.5993 12.6054 50.6027C12.6039 50.6071 12.5983 50.6238 12.5859 50.6443L12.1581 50.3855ZM13.8233 49.4772C13.7288 49.2457 13.7288 49.2458 13.7287 49.2458C13.7287 49.2458 13.7287 49.2458 13.7286 49.2458C13.7285 49.2459 13.7284 49.2459 13.7283 49.246C13.7281 49.2461 13.7278 49.2462 13.7274 49.2463C13.7267 49.2466 13.7257 49.247 13.7245 49.2475C13.7221 49.2485 13.7187 49.2499 13.7145 49.2517C13.7059 49.2553 13.6938 49.2605 13.6783 49.2673C13.6475 49.2808 13.6037 49.3005 13.5501 49.3261C13.4429 49.3771 13.2955 49.4519 13.1335 49.5472C12.8167 49.7337 12.4155 50.0153 12.1669 50.3719L12.5771 50.6579C12.7624 50.392 13.0868 50.1548 13.3872 49.9781C13.5338 49.8918 13.6678 49.8238 13.765 49.7775C13.8135 49.7544 13.8526 49.7369 13.8791 49.7252C13.8924 49.7194 13.9025 49.7151 13.9091 49.7123C13.9123 49.7109 13.9147 49.7099 13.9162 49.7093C13.9169 49.709 13.9174 49.7088 13.9177 49.7087C13.9178 49.7086 13.9179 49.7086 13.9179 49.7086C13.9179 49.7086 13.9179 49.7086 13.9179 49.7086C13.9179 49.7086 13.9178 49.7086 13.9178 49.7086C13.9178 49.7087 13.9178 49.7087 13.8233 49.4772ZM14.0085 49.2625C13.9225 49.2149 13.8204 49.2107 13.7342 49.2436L13.9123 49.7108C13.887 49.7205 13.8625 49.7233 13.8407 49.7219C13.819 49.7206 13.793 49.7147 13.7662 49.6999L14.0085 49.2625ZM14.108 49.3188C14.0743 49.2996 14.0406 49.2803 14.0086 49.2626L13.766 49.6998C13.7949 49.7158 13.8258 49.7334 13.8601 49.753L14.108 49.3188ZM14.996 49.6424C14.6856 49.6424 14.3798 49.474 14.108 49.3188L13.8601 49.753C14.111 49.8962 14.5313 50.1424 14.996 50.1424V49.6424ZM15.9174 49.3084C15.6413 49.4645 15.3154 49.6424 14.996 49.6424V50.1424C15.4691 50.1424 15.9097 49.887 16.1634 49.7436L15.9174 49.3084ZM15.9988 49.2626C15.9726 49.2771 15.9451 49.2927 15.9174 49.3084L16.1634 49.7436C16.1916 49.7277 16.2173 49.7132 16.2414 49.6998L15.9988 49.2626ZM16.2732 49.2436C16.1871 49.2108 16.0849 49.2148 15.9988 49.2626L16.2415 49.6997C16.2146 49.7147 16.1884 49.7206 16.1667 49.7219C16.1449 49.7233 16.1204 49.7205 16.0951 49.7108L16.2732 49.2436Z" fill="#555A62"/>
<path d="M84 48.3327C84 48.3327 85.3333 46.666 87 46.666C88.6667 46.666 90 48.3327 90 48.3327" stroke="#555A62" stroke-width="0.5" stroke-linecap="round"/>
<path d="M85 49C85 49 85.8889 48 87 48C88.1111 48 89 49 89 49" stroke="#555A62" stroke-width="0.5" stroke-linecap="round"/>
<path d="M85.667 50.0007C85.667 50.0007 86.2596 49.334 87.0003 49.334C87.7411 49.334 88.3337 50.0007 88.3337 50.0007" stroke="#555A62" stroke-width="0.5" stroke-linecap="round"/>
<circle cx="87" cy="50.834" r="0.5" fill="#555A62"/>
<path d="M52.233 50.8235L52.2081 50.7054L52.2852 50.6125C52.5835 50.2526 52.75 49.8088 52.75 49.3382C52.75 48.1823 51.7479 47.25 50.5 47.25C49.2521 47.25 48.25 48.1823 48.25 49.3382C48.25 50.4942 49.2521 51.4265 50.5 51.4265C50.8008 51.4265 51.0927 51.372 51.3631 51.2682L51.4742 51.2256L51.5774 51.285L52.3818 51.748C52.3827 51.7473 52.3837 51.7465 52.3849 51.7454C52.399 51.7322 52.4173 51.6989 52.4069 51.6498L52.233 50.8235Z" stroke="#555A62" stroke-width="0.5"/>
<defs>
<filter id="filter0_d_353_50937" x="0" y="38" width="124" height="26" filterUnits="userSpaceOnUse" color-interpolation-filters="sRGB">
<feFlood flood-opacity="0" result="BackgroundImageFix"/>
<feColorMatrix in="SourceAlpha" type="matrix" values="0 0 0 0 0 0 0 0 0 0 0 0 0 0 0 0 0 0 127 0" result="hardAlpha"/>
<feOffset dy="1"/>
<feGaussianBlur stdDeviation="1.5"/>
<feColorMatrix type="matrix" values="0 0 0 0 0.333333 0 0 0 0 0.352941 0 0 0 0 0.384314 0 0 0 0.30466 0"/>
<feBlend mode="normal" in2="BackgroundImageFix" result="effect1_dropShadow_353_50937"/>
<feBlend mode="normal" in="SourceGraphic" in2="effect1_dropShadow_353_50937" result="shape"/>
</filter>
</defs>
</svg>
