<svg width="120" height="100" viewBox="0 0 120 100" fill="none" xmlns="http://www.w3.org/2000/svg">
<rect x="19" y="20" width="82" height="60" rx="2" stroke="#D8D8D8"/>
<path d="M56.4453 65L53.6523 57.0703H42.7344L39.9414 65H35L45.625 36.3281H50.8203L61.4258 65H56.4453ZM52.4414 53.0469L49.7266 45.2344C49.6224 44.8958 49.4727 44.4206 49.2773 43.8086C49.082 43.1836 48.8867 42.5521 48.6914 41.9141C48.4961 41.263 48.3333 40.7161 48.2031 40.2734C48.0729 40.8073 47.9102 41.4062 47.7148 42.0703C47.5326 42.7214 47.3503 43.3333 47.168 43.9062C46.9987 44.4792 46.8685 44.9219 46.7773 45.2344L44.043 53.0469H52.4414ZM73.2031 42.9688C75.9375 42.9688 78.0013 43.5742 79.3945 44.7852C80.8008 45.9961 81.5039 47.8841 81.5039 50.4492V65H78.2422L77.3633 61.9336H77.207C76.5951 62.7148 75.9635 63.3594 75.3125 63.8672C74.6615 64.375 73.9062 64.7526 73.0469 65C72.2005 65.2604 71.1654 65.3906 69.9414 65.3906C68.6523 65.3906 67.5 65.1562 66.4844 64.6875C65.4688 64.2057 64.668 63.4766 64.082 62.5C63.4961 61.5234 63.2031 60.2865 63.2031 58.7891C63.2031 56.5625 64.0299 54.8893 65.6836 53.7695C67.3503 52.6497 69.8633 52.0312 73.2227 51.9141L76.9727 51.7773V50.6445C76.9727 49.1471 76.6211 48.0794 75.918 47.4414C75.2279 46.8034 74.2513 46.4844 72.9883 46.4844C71.9076 46.4844 70.8594 46.6406 69.8438 46.9531C68.8281 47.2656 67.8385 47.6497 66.875 48.1055L65.3906 44.8633C66.4453 44.3034 67.6432 43.8477 68.9844 43.4961C70.3385 43.1445 71.7448 42.9688 73.2031 42.9688ZM76.9531 54.668L74.1602 54.7656C71.8685 54.8438 70.2604 55.2344 69.3359 55.9375C68.4115 56.6406 67.9492 57.6042 67.9492 58.8281C67.9492 59.8958 68.2682 60.6771 68.9062 61.1719C69.5443 61.6536 70.3841 61.8945 71.4258 61.8945C73.0143 61.8945 74.3294 61.4453 75.3711 60.5469C76.4258 59.6354 76.9531 58.3008 76.9531 56.543V54.668Z" fill="#BCBEC1"/>
</svg>
