<svg width="120" height="100" viewBox="0 0 120 100" fill="none" xmlns="http://www.w3.org/2000/svg">
    <g clip-path="url(#clip0_1_3)">
        <rect x="-58" y="40" width="194" height="17" fill="#CED1D6" />
        <path
            d="M5 46.2854C5 45.5755 5.57551 45 6.28544 45H16.71C17.4224 45 18 45.5776 18 46.29V50.71C18 51.4224 17.4224 52 16.71 52H6.28544C5.57551 52 5 51.4245 5 50.7146V46.2854Z"
            fill="white" />
        <path
            d="M20 47.2854C20 46.5755 20.5755 46 21.2854 46H31.71C32.4224 46 33 46.5776 33 47.29V49.71C33 50.4224 32.4224 51 31.71 51H21.2854C20.5755 51 20 50.4245 20 49.7146V47.2854Z"
            fill="white" />
        <path
            d="M35 47.2854C35 46.5755 35.5755 46 36.2854 46H46.71C47.4224 46 48 46.5776 48 47.29V49.71C48 50.4224 47.4224 51 46.71 51H36.2854C35.5755 51 35 50.4245 35 49.7146V47.2854Z"
            fill="white" />
        <path
            d="M50 47.2854C50 46.5755 50.5755 46 51.2854 46H61.71C62.4224 46 63 46.5776 63 47.29V49.71C63 50.4224 62.4224 51 61.71 51H51.2854C50.5755 51 50 50.4245 50 49.7146V47.2854Z"
            fill="white" />
        <circle cx="108.5" cy="48.5" r="4.25" stroke="#555A62" stroke-width="0.5" />
        <circle cx="108.5" cy="48.05" r="1.55" stroke="#555A62" stroke-width="0.5" />
        <path d="M105.575 51.425C105.875 51.125 107.06 50.525 108.5 50.525C109.94 50.525 110.975 51.125 111.425 51.425"
            stroke="#555A62" stroke-width="0.5" />
    </g>
    <path
        d="M94.29 44.15H100.715C101.342 44.15 101.85 44.6584 101.85 45.2854V51.7146C101.85 52.3416 101.342 52.85 100.715 52.85H94.29C93.6604 52.85 93.15 52.3396 93.15 51.71V45.29C93.15 44.6604 93.6604 44.15 94.29 44.15Z"
        fill="black" fill-opacity="0.1" stroke="white" stroke-width="0.3" />
    <defs>
        <clipPath id="clip0_1_3">
            <rect width="118" height="23" fill="white" transform="translate(1 37)" />
        </clipPath>
    </defs>
</svg>