<svg width="120" height="100" viewBox="0 0 120 100" fill="none" xmlns="http://www.w3.org/2000/svg">
<rect x="34" y="37" width="24.9333" height="4.53333" fill="#ADB2BB"/>
<circle cx="39" cy="53" r="4.65" stroke="#555A62" stroke-width="0.7"/>
<circle cx="39" cy="52.5" r="1.65" stroke="#555A62" stroke-width="0.7"/>
<path d="M35.75 56.25C36.0833 55.9167 37.4 55.25 39 55.25C40.6 55.25 41.75 55.9167 42.25 56.25" stroke="#555A62" stroke-width="0.7"/>
<circle cx="53" cy="53" r="4.65" stroke="#555A62" stroke-width="0.7"/>
<circle cx="53" cy="52.5" r="1.65" stroke="#555A62" stroke-width="0.7"/>
<path d="M49.75 56.25C50.0833 55.9167 51.4 55.25 53 55.25C54.6 55.25 55.75 55.9167 56.25 56.25" stroke="#555A62" stroke-width="0.7"/>
<circle cx="67" cy="53" r="4.65" stroke="#555A62" stroke-width="0.7"/>
<circle cx="67" cy="52.5" r="1.65" stroke="#555A62" stroke-width="0.7"/>
<path d="M63.75 56.25C64.0833 55.9167 65.4 55.25 67 55.25C68.6 55.25 69.75 55.9167 70.25 56.25" stroke="#555A62" stroke-width="0.7"/>
<circle cx="81" cy="53" r="4.65" stroke="#555A62" stroke-width="0.7"/>
<circle cx="81" cy="52.5" r="1.65" stroke="#555A62" stroke-width="0.7"/>
<path d="M77.75 56.25C78.0833 55.9167 79.4 55.25 81 55.25C82.6 55.25 83.75 55.9167 84.25 56.25" stroke="#555A62" stroke-width="0.7"/>
</svg>
