<?xml version="1.0" encoding="UTF-8" standalone="no"?>
<svg width="252px" height="165px" viewBox="0 0 252 165" version="1.1" xmlns="http://www.w3.org/2000/svg" xmlns:xlink="http://www.w3.org/1999/xlink">
    <!-- Generator: Sketch 39 (31667) - http://www.bohemiancoding.com/sketch -->
    <title>Theme_Place_Holder</title>
    <desc>Created with Sketch.</desc>
    <defs></defs>
    <g id="-Styles" stroke="none" stroke-width="1" fill="none" fill-rule="evenodd">
        <g id="Theme_Place_Holder">
            <path d="M0,28 L1,27 L1,164.007167 C1,164.000201 250.997813,164 250.997813,164 C251.003825,164 251,27 251,27 L252,28 L0,28 Z M252,27 L252,164.007167 C252,164.555494 251.556723,165 250.997813,165 L1.00218723,165 C0.448694507,165 0,164.55369 0,164.007167 L0,27 L252,27 Z" id="Rectangle-2" fill="#555A62" opacity="0.35"></path>
            <rect id="Rectangle-43" fill="#555A62" opacity="0.347714552" x="221" y="41" width="11" height="1"></rect>
            <path d="M194.383988,43.0088349 C195.595209,43.0088349 196.577098,42.0298738 196.577098,40.822264 C196.577098,39.6146543 195.595209,38.6356932 194.383988,38.6356932 C193.172766,38.6356932 192.190877,39.6146543 192.190877,40.822264 C192.190877,42.0298738 193.172766,43.0088349 194.383988,43.0088349 Z M194.383988,42.7376087 C195.444967,42.7376087 196.30506,41.8800797 196.30506,40.822264 C196.30506,39.7644484 195.444967,38.9069194 194.383988,38.9069194 C193.323008,38.9069194 192.462915,39.7644484 192.462915,40.822264 C192.462915,41.8800797 193.323008,42.7376087 194.383988,42.7376087 Z" id="Combined-Shape" fill="#747474" opacity="0.347714552"></path>
            <path d="M195.541946,40.822264 C195.541946,40.1858062 195.023844,39.6692489 194.383988,39.6692489 C193.744131,39.6692489 193.226029,40.1858062 193.226029,40.822264 C193.226029,41.4587219 193.744131,41.9752792 194.383988,41.9752792 C195.023844,41.9752792 195.541946,41.4587219 195.541946,40.822264 Z M192.726029,40.822264 C192.726029,39.909329 193.468322,39.1692489 194.383988,39.1692489 C195.299653,39.1692489 196.041946,39.909329 196.041946,40.822264 C196.041946,41.7351991 195.299653,42.4752792 194.383988,42.4752792 C193.468322,42.4752792 192.726029,41.7351991 192.726029,40.822264 Z" id="Oval-11" fill="#747474" opacity="0.347714552"></path>
            <path d="M195.812533,42.6716008 L197.333512,44.1925796 C197.429067,44.2881344 197.575321,44.2870383 197.666204,44.1961554 L197.741667,44.1206919 C197.828218,44.0341409 197.830949,43.8808578 197.738091,43.788 L196.217113,42.2670212 L195.812533,42.6716008 Z M195.45898,42.3180474 L195.863559,41.9134678 L196.217113,41.5599145 L196.570666,41.9134678 L198.091645,43.4344466 C198.377989,43.7207905 198.378806,44.1906603 198.095221,44.4742452 L198.019757,44.5497088 C197.731866,44.8376 197.269029,44.8352036 196.979958,44.5461329 L195.45898,43.0251542 L195.105426,42.6716008 L195.45898,42.3180474 Z" id="Rectangle-11" fill="#747474" opacity="0.347714552"></path>
            <rect id="background" fill="#D4D4D4" x="0" y="0" width="252" height="14" rx="1.74136229"></rect>
            <ellipse id="object" fill="#E1E1E1" cx="6.34353406" cy="6.85471976" rx="1.86574531" ry="1.86946903"></ellipse>
            <path d="M12.065153,8.72418879 C13.0955757,8.72418879 13.9308983,7.887199 13.9308983,6.85471976 C13.9308983,5.82224053 13.0955757,4.98525074 12.065153,4.98525074 C11.0347303,4.98525074 10.1994077,5.82224053 10.1994077,6.85471976 C10.1994077,7.887199 11.0347303,8.72418879 12.065153,8.72418879 Z" id="object" fill="#E1E1E1"></path>
            <ellipse id="object" fill="#E1E1E1" cx="17.786772" cy="6.85471976" rx="1.86574531" ry="1.86946903"></ellipse>
            <rect id="search" fill="#FFFFFF" opacity="0.85" x="24.130306" y="3.48967552" width="224.386969" height="6.7300885"></rect>
            <rect id="Rectangle-42" fill="#555A62" opacity="0.347714552" transform="translate(126.000000, 20.500000) scale(1, -1) translate(-126.000000, -20.500000) " x="0" y="14" width="252" height="13"></rect>
            <ellipse id="Oval-97" fill="#555A62" opacity="0.347714552" cx="246.029615" cy="20.6887906" rx="1.99012833" ry="1.99410029"></ellipse>
            <rect id="Rectangle-44" fill="#555A62" opacity="0.347714552" x="3.73149062" y="16.70059" width="7.71174729" height="7.72713864" rx="1"></rect>
            <rect id="Rectangle-43" fill="#555A62" opacity="0.347714552" x="14.6771964" y="18.6946903" width="28.1105627" height="3.73893805"></rect>
            <rect id="Rectangle-43" fill="#555A62" opacity="0.347714552" x="233.093781" y="20.1902655" width="9.45310958" height="1.24631268"></rect>
            <rect id="Rectangle-46" fill="#555A62" opacity="0.192397388" x="7.71174729" y="34.6474926" width="42.290227" height="65.0575221" rx="1"></rect>
            <rect id="Rectangle-43" fill="#555A62" opacity="0.347714552" x="14.6771964" y="43.620944" width="28.1105627" height="2.24336283"></rect>
            <rect id="Rectangle-43" fill="#555A62" opacity="0.347714552" x="14.6771964" y="51.0988201" width="23.3840079" height="2.24336283"></rect>
            <rect id="Rectangle-43" fill="#555A62" opacity="0.347714552" x="14.6771964" y="58.5766962" width="17.911155" height="2.24336283"></rect>
            <path d="M7.71174729,104.93528 C7.71174729,104.386971 8.15807207,103.942478 8.71541767,103.942478 L48.9983039,103.942478 C49.5526158,103.942478 50.0019743,104.385766 50.0019743,104.93528 L50.0019743,138.009677 C50.0019743,138.557987 49.5556495,139.002479 48.9983039,139.002479 L8.71541767,139.002479 C8.16110582,139.002479 7.71174729,138.559191 7.71174729,138.009677 L7.71174729,104.93528 Z" id="Rectangle-46" fill="#555A62" opacity="0.192397388"></path>
            <rect id="Rectangle-43" fill="#555A62" opacity="0.347714552" x="14.6771964" y="112.915929" width="28.1105627" height="2.24336283"></rect>
            <rect id="Rectangle-43" fill="#555A62" opacity="0.347714552" x="14.6771964" y="120.393805" width="23.3840079" height="2.24336283"></rect>
            <rect id="Rectangle-43" fill="#555A62" opacity="0.347714552" x="14.6771964" y="127.871681" width="17.911155" height="2.24336283"></rect>
            <rect id="Rectangle-43" fill="#555A62" opacity="0.347714552" x="14.6771964" y="66.0545723" width="28.1105627" height="2.24336283"></rect>
            <rect id="Rectangle-43" fill="#555A62" opacity="0.347714552" x="14.6771964" y="73.5324484" width="23.1352419" height="2.24336283"></rect>
            <rect id="Rectangle-43" fill="#555A62" opacity="0.347714552" x="14.6771964" y="81.0103245" width="28.1105627" height="2.24336283"></rect>
            <rect id="Rectangle-43" fill="#555A62" opacity="0.347714552" x="14.6771964" y="88.4882006" width="21.6426456" height="2.24336283"></rect>
            <path d="M94.0708791,46.359882 L197.022902,46.359882 C199.710511,46.359882 201.887463,44.1851936 201.887463,41.5022124 C201.887463,38.8237943 199.70734,36.6445428 197.022902,36.6445428 L94.0708791,36.6445428 C91.3832695,36.6445428 89.2063179,38.8192312 89.2063179,41.5022124 C89.2063179,44.1806304 91.386441,46.359882 94.0708791,46.359882 Z M94.0708791,35.6445428 L197.022902,35.6445428 C200.261809,35.6445428 202.887463,38.2736936 202.887463,41.5022124 C202.887463,44.737314 200.262961,47.359882 197.022902,47.359882 L94.0708791,47.359882 C90.8319714,47.359882 88.2063179,44.7307312 88.2063179,41.5022124 C88.2063179,38.2671108 90.8308198,35.6445428 94.0708791,35.6445428 Z" id="Rectangle-58" fill="#555A62" opacity="0.35"></path>
            <path d="M63,69.4292077 C63,69.4289971 71.4292077,69.4292035 71.4292077,69.4292035 C71.4289971,69.4292035 71.4292035,60.9999959 71.4292035,60.9999959 C71.4292035,61.0002064 62.9999959,61 62.9999959,61 C63.0002064,61 63,69.4292077 63,69.4292077 Z M62.9999959,60 L71.4292077,60 C71.9814901,60 72.4292035,60.4481298 72.4292035,60.9999959 L72.4292035,69.4292077 C72.4292035,69.9814901 71.9810737,70.4292035 71.4292077,70.4292035 L62.9999959,70.4292035 C62.4477134,70.4292035 62,69.9810737 62,69.4292077 L62,60.9999959 C62,60.4477134 62.4481298,60 62.9999959,60 Z M66.9945358,67.0621777 C67.5296514,67.0621777 67.8601332,66.7363599 68.1472713,66.2330477 C68.9121008,66.5510003 69.4334198,67.3317775 69.4015626,68.2547735 L69.3265119,70.4292118 L64.5972764,70.4292118 L64.5920789,68.2547735 C64.5899407,67.3601994 65.1112552,66.5917977 65.856541,66.2579897 C66.1427426,66.7470978 66.4683119,67.0621777 66.9945358,67.0621777 Z M65.2757269,68.253033 L65.3255863,69.7616081 L68.6663012,69.7375447 L68.7183459,68.2296567 C68.7392394,67.6243127 68.3242154,67.1702092 68.3242154,67.1702092 C68.3242154,67.1702092 67.5400102,67.7677357 66.9945358,67.7677357 C66.4705458,67.7677357 66.05626,67.5755923 65.7076248,67.2141074 C65.6637276,67.1685923 65.2743139,67.6618806 65.2757269,68.253033 Z M66.9945358,65.9773375 C67.2798957,65.9773375 67.4751605,65.81846 67.7445841,65.3289474 C67.7731158,65.2771085 67.8782953,65.0907667 67.9001248,65.051347 C68.0856719,64.7162843 68.1625153,64.5098789 68.1625153,64.3414477 C68.1625153,63.4099562 67.6054733,62.7055579 66.9945358,62.7055579 C66.3835983,62.7055579 65.8265563,63.4099562 65.8265563,64.3414477 C65.8265563,64.5167799 65.9066712,64.73028 66.0977693,65.0711909 C66.1239914,65.11797 66.2273188,65.2984816 66.2514569,65.3414862 C66.521962,65.8234209 66.7129952,65.9773375 66.9945358,65.9773375 Z M65.1429063,64.3414477 C65.1429063,63.0483019 65.9719091,62 66.9945358,62 C68.0171626,62 68.8461653,63.0483019 68.8461653,64.3414477 C68.8461653,64.8380518 68.5475605,65.2985469 68.3390271,65.6774288 C68.0045442,66.285147 67.6244454,66.6828954 66.9945358,66.6828954 C66.3707687,66.6828954 65.9953866,66.2928664 65.6598927,65.695147 C65.4453655,65.3129432 65.1429063,64.8458191 65.1429063,64.3414477 Z" id="Combined-Shape" fill="#555A62" opacity="0.347714552"></path>
            <path d="M208,69.4292077 C208,69.4289971 216.429208,69.4292035 216.429208,69.4292035 C216.428997,69.4292035 216.429204,60.9999959 216.429204,60.9999959 C216.429204,61.0002064 207.999996,61 207.999996,61 C208.000206,61 208,69.4292077 208,69.4292077 Z M207.999996,60 L216.429208,60 C216.98149,60 217.429204,60.4481298 217.429204,60.9999959 L217.429204,69.4292077 C217.429204,69.9814901 216.981074,70.4292035 216.429208,70.4292035 L207.999996,70.4292035 C207.447713,70.4292035 207,69.9810737 207,69.4292077 L207,60.9999959 C207,60.4477134 207.44813,60 207.999996,60 Z M211.994536,67.0621777 C212.529651,67.0621777 212.860133,66.7363599 213.147271,66.2330477 C213.912101,66.5510003 214.43342,67.3317775 214.401563,68.2547735 L214.326512,70.4292118 L209.597276,70.4292118 L209.592079,68.2547735 C209.589941,67.3601994 210.111255,66.5917977 210.856541,66.2579897 C211.142743,66.7470978 211.468312,67.0621777 211.994536,67.0621777 Z M210.275727,68.253033 L210.325586,69.7616081 L213.666301,69.7375447 L213.718346,68.2296567 C213.739239,67.6243127 213.324215,67.1702092 213.324215,67.1702092 C213.324215,67.1702092 212.54001,67.7677357 211.994536,67.7677357 C211.470546,67.7677357 211.05626,67.5755923 210.707625,67.2141074 C210.663728,67.1685923 210.274314,67.6618806 210.275727,68.253033 Z M211.994536,65.9773375 C212.279896,65.9773375 212.475161,65.81846 212.744584,65.3289474 C212.773116,65.2771085 212.878295,65.0907667 212.900125,65.051347 C213.085672,64.7162843 213.162515,64.5098789 213.162515,64.3414477 C213.162515,63.4099562 212.605473,62.7055579 211.994536,62.7055579 C211.383598,62.7055579 210.826556,63.4099562 210.826556,64.3414477 C210.826556,64.5167799 210.906671,64.73028 211.097769,65.0711909 C211.123991,65.11797 211.227319,65.2984816 211.251457,65.3414862 C211.521962,65.8234209 211.712995,65.9773375 211.994536,65.9773375 Z M210.142906,64.3414477 C210.142906,63.0483019 210.971909,62 211.994536,62 C213.017163,62 213.846165,63.0483019 213.846165,64.3414477 C213.846165,64.8380518 213.54756,65.2985469 213.339027,65.6774288 C213.004544,66.285147 212.624445,66.6828954 211.994536,66.6828954 C211.370769,66.6828954 210.995387,66.2928664 210.659893,65.695147 C210.445366,65.3129432 210.142906,64.8458191 210.142906,64.3414477 Z" id="Combined-Shape" fill="#555A62" opacity="0.347714552"></path>
            <path d="M63,88.4292077 C63,88.4289971 71.4292077,88.4292035 71.4292077,88.4292035 C71.4289971,88.4292035 71.4292035,79.9999959 71.4292035,79.9999959 C71.4292035,80.0002064 62.9999959,80 62.9999959,80 C63.0002064,80 63,88.4292077 63,88.4292077 Z M62.9999959,79 L71.4292077,79 C71.9814901,79 72.4292035,79.4481298 72.4292035,79.9999959 L72.4292035,88.4292077 C72.4292035,88.9814901 71.9810737,89.4292035 71.4292077,89.4292035 L62.9999959,89.4292035 C62.4477134,89.4292035 62,88.9810737 62,88.4292077 L62,79.9999959 C62,79.4477134 62.4481298,79 62.9999959,79 Z M66.9945358,86.0621777 C67.5296514,86.0621777 67.8601332,85.7363599 68.1472713,85.2330477 C68.9121008,85.5510003 69.4334198,86.3317775 69.4015626,87.2547735 L69.3265119,89.4292118 L64.5972764,89.4292118 L64.5920789,87.2547735 C64.5899407,86.3601994 65.1112552,85.5917977 65.856541,85.2579897 C66.1427426,85.7470978 66.4683119,86.0621777 66.9945358,86.0621777 Z M65.2757269,87.253033 L65.3255863,88.7616081 L68.6663012,88.7375447 L68.7183459,87.2296567 C68.7392394,86.6243127 68.3242154,86.1702092 68.3242154,86.1702092 C68.3242154,86.1702092 67.5400102,86.7677357 66.9945358,86.7677357 C66.4705458,86.7677357 66.05626,86.5755923 65.7076248,86.2141074 C65.6637276,86.1685923 65.2743139,86.6618806 65.2757269,87.253033 Z M66.9945358,84.9773375 C67.2798957,84.9773375 67.4751605,84.81846 67.7445841,84.3289474 C67.7731158,84.2771085 67.8782953,84.0907667 67.9001248,84.051347 C68.0856719,83.7162843 68.1625153,83.5098789 68.1625153,83.3414477 C68.1625153,82.4099562 67.6054733,81.7055579 66.9945358,81.7055579 C66.3835983,81.7055579 65.8265563,82.4099562 65.8265563,83.3414477 C65.8265563,83.5167799 65.9066712,83.73028 66.0977693,84.0711909 C66.1239914,84.11797 66.2273188,84.2984816 66.2514569,84.3414862 C66.521962,84.8234209 66.7129952,84.9773375 66.9945358,84.9773375 Z M65.1429063,83.3414477 C65.1429063,82.0483019 65.9719091,81 66.9945358,81 C68.0171626,81 68.8461653,82.0483019 68.8461653,83.3414477 C68.8461653,83.8380518 68.5475605,84.2985469 68.3390271,84.6774288 C68.0045442,85.285147 67.6244454,85.6828954 66.9945358,85.6828954 C66.3707687,85.6828954 65.9953866,85.2928664 65.6598927,84.695147 C65.4453655,84.3129432 65.1429063,83.8458191 65.1429063,83.3414477 Z" id="Combined-Shape" fill="#555A62" opacity="0.347714552"></path>
            <path d="M208,88.4292077 C208,88.4289971 216.429208,88.4292035 216.429208,88.4292035 C216.428997,88.4292035 216.429204,79.9999959 216.429204,79.9999959 C216.429204,80.0002064 207.999996,80 207.999996,80 C208.000206,80 208,88.4292077 208,88.4292077 Z M207.999996,79 L216.429208,79 C216.98149,79 217.429204,79.4481298 217.429204,79.9999959 L217.429204,88.4292077 C217.429204,88.9814901 216.981074,89.4292035 216.429208,89.4292035 L207.999996,89.4292035 C207.447713,89.4292035 207,88.9810737 207,88.4292077 L207,79.9999959 C207,79.4477134 207.44813,79 207.999996,79 Z M211.994536,86.0621777 C212.529651,86.0621777 212.860133,85.7363599 213.147271,85.2330477 C213.912101,85.5510003 214.43342,86.3317775 214.401563,87.2547735 L214.326512,89.4292118 L209.597276,89.4292118 L209.592079,87.2547735 C209.589941,86.3601994 210.111255,85.5917977 210.856541,85.2579897 C211.142743,85.7470978 211.468312,86.0621777 211.994536,86.0621777 Z M210.275727,87.253033 L210.325586,88.7616081 L213.666301,88.7375447 L213.718346,87.2296567 C213.739239,86.6243127 213.324215,86.1702092 213.324215,86.1702092 C213.324215,86.1702092 212.54001,86.7677357 211.994536,86.7677357 C211.470546,86.7677357 211.05626,86.5755923 210.707625,86.2141074 C210.663728,86.1685923 210.274314,86.6618806 210.275727,87.253033 Z M211.994536,84.9773375 C212.279896,84.9773375 212.475161,84.81846 212.744584,84.3289474 C212.773116,84.2771085 212.878295,84.0907667 212.900125,84.051347 C213.085672,83.7162843 213.162515,83.5098789 213.162515,83.3414477 C213.162515,82.4099562 212.605473,81.7055579 211.994536,81.7055579 C211.383598,81.7055579 210.826556,82.4099562 210.826556,83.3414477 C210.826556,83.5167799 210.906671,83.73028 211.097769,84.0711909 C211.123991,84.11797 211.227319,84.2984816 211.251457,84.3414862 C211.521962,84.8234209 211.712995,84.9773375 211.994536,84.9773375 Z M210.142906,83.3414477 C210.142906,82.0483019 210.971909,81 211.994536,81 C213.017163,81 213.846165,82.0483019 213.846165,83.3414477 C213.846165,83.8380518 213.54756,84.2985469 213.339027,84.6774288 C213.004544,85.285147 212.624445,85.6828954 211.994536,85.6828954 C211.370769,85.6828954 210.995387,85.2928664 210.659893,84.695147 C210.445366,84.3129432 210.142906,83.8458191 210.142906,83.3414477 Z" id="Combined-Shape" fill="#555A62" opacity="0.347714552"></path>
            <path d="M63,108.429208 C63,108.428997 71.4292077,108.429204 71.4292077,108.429204 C71.4289971,108.429204 71.4292035,99.9999959 71.4292035,99.9999959 C71.4292035,100.000206 62.9999959,100 62.9999959,100 C63.0002064,100 63,108.429208 63,108.429208 Z M62.9999959,99 L71.4292077,99 C71.9814901,99 72.4292035,99.4481298 72.4292035,99.9999959 L72.4292035,108.429208 C72.4292035,108.98149 71.9810737,109.429204 71.4292077,109.429204 L62.9999959,109.429204 C62.4477134,109.429204 62,108.981074 62,108.429208 L62,99.9999959 C62,99.4477134 62.4481298,99 62.9999959,99 Z M66.9945358,106.062178 C67.5296514,106.062178 67.8601332,105.73636 68.1472713,105.233048 C68.9121008,105.551 69.4334198,106.331778 69.4015626,107.254774 L69.3265119,109.429212 L64.5972764,109.429212 L64.5920789,107.254774 C64.5899407,106.360199 65.1112552,105.591798 65.856541,105.25799 C66.1427426,105.747098 66.4683119,106.062178 66.9945358,106.062178 Z M65.2757269,107.253033 L65.3255863,108.761608 L68.6663012,108.737545 L68.7183459,107.229657 C68.7392394,106.624313 68.3242154,106.170209 68.3242154,106.170209 C68.3242154,106.170209 67.5400102,106.767736 66.9945358,106.767736 C66.4705458,106.767736 66.05626,106.575592 65.7076248,106.214107 C65.6637276,106.168592 65.2743139,106.661881 65.2757269,107.253033 Z M66.9945358,104.977337 C67.2798957,104.977337 67.4751605,104.81846 67.7445841,104.328947 C67.7731158,104.277109 67.8782953,104.090767 67.9001248,104.051347 C68.0856719,103.716284 68.1625153,103.509879 68.1625153,103.341448 C68.1625153,102.409956 67.6054733,101.705558 66.9945358,101.705558 C66.3835983,101.705558 65.8265563,102.409956 65.8265563,103.341448 C65.8265563,103.51678 65.9066712,103.73028 66.0977693,104.071191 C66.1239914,104.11797 66.2273188,104.298482 66.2514569,104.341486 C66.521962,104.823421 66.7129952,104.977337 66.9945358,104.977337 Z M65.1429063,103.341448 C65.1429063,102.048302 65.9719091,101 66.9945358,101 C68.0171626,101 68.8461653,102.048302 68.8461653,103.341448 C68.8461653,103.838052 68.5475605,104.298547 68.3390271,104.677429 C68.0045442,105.285147 67.6244454,105.682895 66.9945358,105.682895 C66.3707687,105.682895 65.9953866,105.292866 65.6598927,104.695147 C65.4453655,104.312943 65.1429063,103.845819 65.1429063,103.341448 Z" id="Combined-Shape" fill="#555A62" opacity="0.347714552"></path>
            <path d="M208,108.429208 C208,108.428997 216.429208,108.429204 216.429208,108.429204 C216.428997,108.429204 216.429204,99.9999959 216.429204,99.9999959 C216.429204,100.000206 207.999996,100 207.999996,100 C208.000206,100 208,108.429208 208,108.429208 Z M207.999996,99 L216.429208,99 C216.98149,99 217.429204,99.4481298 217.429204,99.9999959 L217.429204,108.429208 C217.429204,108.98149 216.981074,109.429204 216.429208,109.429204 L207.999996,109.429204 C207.447713,109.429204 207,108.981074 207,108.429208 L207,99.9999959 C207,99.4477134 207.44813,99 207.999996,99 Z M211.994536,106.062178 C212.529651,106.062178 212.860133,105.73636 213.147271,105.233048 C213.912101,105.551 214.43342,106.331778 214.401563,107.254774 L214.326512,109.429212 L209.597276,109.429212 L209.592079,107.254774 C209.589941,106.360199 210.111255,105.591798 210.856541,105.25799 C211.142743,105.747098 211.468312,106.062178 211.994536,106.062178 Z M210.275727,107.253033 L210.325586,108.761608 L213.666301,108.737545 L213.718346,107.229657 C213.739239,106.624313 213.324215,106.170209 213.324215,106.170209 C213.324215,106.170209 212.54001,106.767736 211.994536,106.767736 C211.470546,106.767736 211.05626,106.575592 210.707625,106.214107 C210.663728,106.168592 210.274314,106.661881 210.275727,107.253033 Z M211.994536,104.977337 C212.279896,104.977337 212.475161,104.81846 212.744584,104.328947 C212.773116,104.277109 212.878295,104.090767 212.900125,104.051347 C213.085672,103.716284 213.162515,103.509879 213.162515,103.341448 C213.162515,102.409956 212.605473,101.705558 211.994536,101.705558 C211.383598,101.705558 210.826556,102.409956 210.826556,103.341448 C210.826556,103.51678 210.906671,103.73028 211.097769,104.071191 C211.123991,104.11797 211.227319,104.298482 211.251457,104.341486 C211.521962,104.823421 211.712995,104.977337 211.994536,104.977337 Z M210.142906,103.341448 C210.142906,102.048302 210.971909,101 211.994536,101 C213.017163,101 213.846165,102.048302 213.846165,103.341448 C213.846165,103.838052 213.54756,104.298547 213.339027,104.677429 C213.004544,105.285147 212.624445,105.682895 211.994536,105.682895 C211.370769,105.682895 210.995387,105.292866 210.659893,104.695147 C210.445366,104.312943 210.142906,103.845819 210.142906,103.341448 Z" id="Combined-Shape" fill="#555A62" opacity="0.347714552"></path>
            <path d="M63,128.429208 C63,128.428997 71.4292077,128.429204 71.4292077,128.429204 C71.4289971,128.429204 71.4292035,119.999996 71.4292035,119.999996 C71.4292035,120.000206 62.9999959,120 62.9999959,120 C63.0002064,120 63,128.429208 63,128.429208 Z M62.9999959,119 L71.4292077,119 C71.9814901,119 72.4292035,119.44813 72.4292035,119.999996 L72.4292035,128.429208 C72.4292035,128.98149 71.9810737,129.429204 71.4292077,129.429204 L62.9999959,129.429204 C62.4477134,129.429204 62,128.981074 62,128.429208 L62,119.999996 C62,119.447713 62.4481298,119 62.9999959,119 Z M66.9945358,126.062178 C67.5296514,126.062178 67.8601332,125.73636 68.1472713,125.233048 C68.9121008,125.551 69.4334198,126.331778 69.4015626,127.254774 L69.3265119,129.429212 L64.5972764,129.429212 L64.5920789,127.254774 C64.5899407,126.360199 65.1112552,125.591798 65.856541,125.25799 C66.1427426,125.747098 66.4683119,126.062178 66.9945358,126.062178 Z M65.2757269,127.253033 L65.3255863,128.761608 L68.6663012,128.737545 L68.7183459,127.229657 C68.7392394,126.624313 68.3242154,126.170209 68.3242154,126.170209 C68.3242154,126.170209 67.5400102,126.767736 66.9945358,126.767736 C66.4705458,126.767736 66.05626,126.575592 65.7076248,126.214107 C65.6637276,126.168592 65.2743139,126.661881 65.2757269,127.253033 Z M66.9945358,124.977337 C67.2798957,124.977337 67.4751605,124.81846 67.7445841,124.328947 C67.7731158,124.277109 67.8782953,124.090767 67.9001248,124.051347 C68.0856719,123.716284 68.1625153,123.509879 68.1625153,123.341448 C68.1625153,122.409956 67.6054733,121.705558 66.9945358,121.705558 C66.3835983,121.705558 65.8265563,122.409956 65.8265563,123.341448 C65.8265563,123.51678 65.9066712,123.73028 66.0977693,124.071191 C66.1239914,124.11797 66.2273188,124.298482 66.2514569,124.341486 C66.521962,124.823421 66.7129952,124.977337 66.9945358,124.977337 Z M65.1429063,123.341448 C65.1429063,122.048302 65.9719091,121 66.9945358,121 C68.0171626,121 68.8461653,122.048302 68.8461653,123.341448 C68.8461653,123.838052 68.5475605,124.298547 68.3390271,124.677429 C68.0045442,125.285147 67.6244454,125.682895 66.9945358,125.682895 C66.3707687,125.682895 65.9953866,125.292866 65.6598927,124.695147 C65.4453655,124.312943 65.1429063,123.845819 65.1429063,123.341448 Z" id="Combined-Shape" fill="#555A62" opacity="0.347714552"></path>
            <path d="M208,128.429208 C208,128.428997 216.429208,128.429204 216.429208,128.429204 C216.428997,128.429204 216.429204,119.999996 216.429204,119.999996 C216.429204,120.000206 207.999996,120 207.999996,120 C208.000206,120 208,128.429208 208,128.429208 Z M207.999996,119 L216.429208,119 C216.98149,119 217.429204,119.44813 217.429204,119.999996 L217.429204,128.429208 C217.429204,128.98149 216.981074,129.429204 216.429208,129.429204 L207.999996,129.429204 C207.447713,129.429204 207,128.981074 207,128.429208 L207,119.999996 C207,119.447713 207.44813,119 207.999996,119 Z M211.994536,126.062178 C212.529651,126.062178 212.860133,125.73636 213.147271,125.233048 C213.912101,125.551 214.43342,126.331778 214.401563,127.254774 L214.326512,129.429212 L209.597276,129.429212 L209.592079,127.254774 C209.589941,126.360199 210.111255,125.591798 210.856541,125.25799 C211.142743,125.747098 211.468312,126.062178 211.994536,126.062178 Z M210.275727,127.253033 L210.325586,128.761608 L213.666301,128.737545 L213.718346,127.229657 C213.739239,126.624313 213.324215,126.170209 213.324215,126.170209 C213.324215,126.170209 212.54001,126.767736 211.994536,126.767736 C211.470546,126.767736 211.05626,126.575592 210.707625,126.214107 C210.663728,126.168592 210.274314,126.661881 210.275727,127.253033 Z M211.994536,124.977337 C212.279896,124.977337 212.475161,124.81846 212.744584,124.328947 C212.773116,124.277109 212.878295,124.090767 212.900125,124.051347 C213.085672,123.716284 213.162515,123.509879 213.162515,123.341448 C213.162515,122.409956 212.605473,121.705558 211.994536,121.705558 C211.383598,121.705558 210.826556,122.409956 210.826556,123.341448 C210.826556,123.51678 210.906671,123.73028 211.097769,124.071191 C211.123991,124.11797 211.227319,124.298482 211.251457,124.341486 C211.521962,124.823421 211.712995,124.977337 211.994536,124.977337 Z M210.142906,123.341448 C210.142906,122.048302 210.971909,121 211.994536,121 C213.017163,121 213.846165,122.048302 213.846165,123.341448 C213.846165,123.838052 213.54756,124.298547 213.339027,124.677429 C213.004544,125.285147 212.624445,125.682895 211.994536,125.682895 C211.370769,125.682895 210.995387,125.292866 210.659893,124.695147 C210.445366,124.312943 210.142906,123.845819 210.142906,123.341448 Z" id="Combined-Shape" fill="#555A62" opacity="0.347714552"></path>
            <path d="M63,148.429208 C63,148.428997 71.4292077,148.429204 71.4292077,148.429204 C71.4289971,148.429204 71.4292035,139.999996 71.4292035,139.999996 C71.4292035,140.000206 62.9999959,140 62.9999959,140 C63.0002064,140 63,148.429208 63,148.429208 Z M62.9999959,139 L71.4292077,139 C71.9814901,139 72.4292035,139.44813 72.4292035,139.999996 L72.4292035,148.429208 C72.4292035,148.98149 71.9810737,149.429204 71.4292077,149.429204 L62.9999959,149.429204 C62.4477134,149.429204 62,148.981074 62,148.429208 L62,139.999996 C62,139.447713 62.4481298,139 62.9999959,139 Z M66.9945358,146.062178 C67.5296514,146.062178 67.8601332,145.73636 68.1472713,145.233048 C68.9121008,145.551 69.4334198,146.331778 69.4015626,147.254774 L69.3265119,149.429212 L64.5972764,149.429212 L64.5920789,147.254774 C64.5899407,146.360199 65.1112552,145.591798 65.856541,145.25799 C66.1427426,145.747098 66.4683119,146.062178 66.9945358,146.062178 Z M65.2757269,147.253033 L65.3255863,148.761608 L68.6663012,148.737545 L68.7183459,147.229657 C68.7392394,146.624313 68.3242154,146.170209 68.3242154,146.170209 C68.3242154,146.170209 67.5400102,146.767736 66.9945358,146.767736 C66.4705458,146.767736 66.05626,146.575592 65.7076248,146.214107 C65.6637276,146.168592 65.2743139,146.661881 65.2757269,147.253033 Z M66.9945358,144.977337 C67.2798957,144.977337 67.4751605,144.81846 67.7445841,144.328947 C67.7731158,144.277109 67.8782953,144.090767 67.9001248,144.051347 C68.0856719,143.716284 68.1625153,143.509879 68.1625153,143.341448 C68.1625153,142.409956 67.6054733,141.705558 66.9945358,141.705558 C66.3835983,141.705558 65.8265563,142.409956 65.8265563,143.341448 C65.8265563,143.51678 65.9066712,143.73028 66.0977693,144.071191 C66.1239914,144.11797 66.2273188,144.298482 66.2514569,144.341486 C66.521962,144.823421 66.7129952,144.977337 66.9945358,144.977337 Z M65.1429063,143.341448 C65.1429063,142.048302 65.9719091,141 66.9945358,141 C68.0171626,141 68.8461653,142.048302 68.8461653,143.341448 C68.8461653,143.838052 68.5475605,144.298547 68.3390271,144.677429 C68.0045442,145.285147 67.6244454,145.682895 66.9945358,145.682895 C66.3707687,145.682895 65.9953866,145.292866 65.6598927,144.695147 C65.4453655,144.312943 65.1429063,143.845819 65.1429063,143.341448 Z" id="Combined-Shape" fill="#555A62" opacity="0.347714552"></path>
            <path d="M208,148.429208 C208,148.428997 216.429208,148.429204 216.429208,148.429204 C216.428997,148.429204 216.429204,139.999996 216.429204,139.999996 C216.429204,140.000206 207.999996,140 207.999996,140 C208.000206,140 208,148.429208 208,148.429208 Z M207.999996,139 L216.429208,139 C216.98149,139 217.429204,139.44813 217.429204,139.999996 L217.429204,148.429208 C217.429204,148.98149 216.981074,149.429204 216.429208,149.429204 L207.999996,149.429204 C207.447713,149.429204 207,148.981074 207,148.429208 L207,139.999996 C207,139.447713 207.44813,139 207.999996,139 Z M211.994536,146.062178 C212.529651,146.062178 212.860133,145.73636 213.147271,145.233048 C213.912101,145.551 214.43342,146.331778 214.401563,147.254774 L214.326512,149.429212 L209.597276,149.429212 L209.592079,147.254774 C209.589941,146.360199 210.111255,145.591798 210.856541,145.25799 C211.142743,145.747098 211.468312,146.062178 211.994536,146.062178 Z M210.275727,147.253033 L210.325586,148.761608 L213.666301,148.737545 L213.718346,147.229657 C213.739239,146.624313 213.324215,146.170209 213.324215,146.170209 C213.324215,146.170209 212.54001,146.767736 211.994536,146.767736 C211.470546,146.767736 211.05626,146.575592 210.707625,146.214107 C210.663728,146.168592 210.274314,146.661881 210.275727,147.253033 Z M211.994536,144.977337 C212.279896,144.977337 212.475161,144.81846 212.744584,144.328947 C212.773116,144.277109 212.878295,144.090767 212.900125,144.051347 C213.085672,143.716284 213.162515,143.509879 213.162515,143.341448 C213.162515,142.409956 212.605473,141.705558 211.994536,141.705558 C211.383598,141.705558 210.826556,142.409956 210.826556,143.341448 C210.826556,143.51678 210.906671,143.73028 211.097769,144.071191 C211.123991,144.11797 211.227319,144.298482 211.251457,144.341486 C211.521962,144.823421 211.712995,144.977337 211.994536,144.977337 Z M210.142906,143.341448 C210.142906,142.048302 210.971909,141 211.994536,141 C213.017163,141 213.846165,142.048302 213.846165,143.341448 C213.846165,143.838052 213.54756,144.298547 213.339027,144.677429 C213.004544,145.285147 212.624445,145.682895 211.994536,145.682895 C211.370769,145.682895 210.995387,145.292866 210.659893,144.695147 C210.445366,144.312943 210.142906,143.845819 210.142906,143.341448 Z" id="Combined-Shape" fill="#555A62" opacity="0.347714552"></path>
            <path d="M217,46.824467 C217,46.6765294 216.88717,46.5655372 216.754654,46.5655372 L235.765347,46.5655372 C235.633338,46.5655372 235.52,46.6767153 235.52,46.824467 L235.52,36.7410702 C235.52,36.8890078 235.63283,37 235.765347,37 L216.754654,37 C216.886662,37 217,36.8888219 217,36.7410702 L217,46.824467 Z M216.754654,36 L235.765347,36 C236.18213,36 236.52,36.3336611 236.52,36.7410702 L236.52,46.824467 C236.52,47.2337487 236.180958,47.5655372 235.765347,47.5655372 L216.754654,47.5655372 C216.33787,47.5655372 216,47.231876 216,46.824467 L216,36.7410702 C216,36.3317884 216.339043,36 216.754654,36 Z" id="Rectangle-65" fill="#555A62" opacity="0.35"></path>
            <rect id="Rectangle-43" fill="#555A62" opacity="0.347714552" x="66" y="41" width="7" height="1"></rect>
            <path d="M63,46.824467 C63,46.6780315 62.8863973,46.5655372 62.7496778,46.5655372 L76.367795,46.5655372 C76.2347385,46.5655372 76.1174729,46.6820827 76.1174729,46.824467 L76.1174729,36.7410702 C76.1174729,36.8875057 76.2310755,37 76.367795,37 L62.7496778,37 C62.8827344,37 63,36.8834544 63,36.7410702 L63,46.824467 Z M62.7496778,36 L76.367795,36 C76.7818307,36 77.1174729,36.3336611 77.1174729,36.7410702 L77.1174729,46.824467 C77.1174729,47.2337487 76.7876638,47.5655372 76.367795,47.5655372 L62.7496778,47.5655372 C62.3356422,47.5655372 62,47.231876 62,46.824467 L62,36.7410702 C62,36.3317884 62.3298091,36 62.7496778,36 Z" id="Rectangle-65" fill="#555A62" opacity="0.35"></path>
            <rect id="Rectangle-43" fill="#555A62" opacity="0.347714552" x="76.8884501" y="61.0693215" width="58.2112537" height="2.49262537"></rect>
            <rect id="Rectangle-43" fill="#555A62" opacity="0.347714552" x="76.8884501" y="66.0545723" width="8.45804541" height="1.24631268"></rect>
            <rect id="Rectangle-43" fill="#555A62" opacity="0.347714552" x="62" y="74" width="175" height="0.5"></rect>
            <rect id="Rectangle-43" fill="#555A62" opacity="0.347714552" x="62" y="56" width="175" height="0.5"></rect>
            <rect id="Rectangle-43" fill="#555A62" opacity="0.347714552" x="62" y="94" width="175" height="0.5"></rect>
            <rect id="Rectangle-43" fill="#555A62" opacity="0.347714552" x="62" y="114" width="175" height="0.5"></rect>
            <rect id="Rectangle-43" fill="#555A62" opacity="0.347714552" x="62" y="134" width="175" height="0.5"></rect>
            <rect id="Rectangle-43" fill="#555A62" opacity="0.347714552" x="62" y="154" width="175" height="0.5"></rect>
            <rect id="Rectangle-43" fill="#555A62" opacity="0.347714552" x="89.3267522" y="66.0545723" width="5.970385" height="1.24631268"></rect>
            <rect id="Rectangle-43" fill="#555A62" opacity="0.347714552" x="101.765054" y="66.0545723" width="4.2290227" height="1.24631268"></rect>
            <path d="M62.124383,54.3738938 L236.544148,54.3738938" id="Line" fill="#555A62" opacity="0.347714552"></path>
            <rect id="Rectangle-43" fill="#555A62" opacity="0.347714552" x="77" y="81" width="58.2112537" height="2.49262537"></rect>
            <rect id="Rectangle-43" fill="#555A62" opacity="0.347714552" x="77" y="86" width="8.45804541" height="1.24631268"></rect>
            <rect id="Rectangle-43" fill="#555A62" opacity="0.347714552" x="89" y="86" width="5.970385" height="1.24631268"></rect>
            <rect id="Rectangle-43" fill="#555A62" opacity="0.347714552" x="102" y="86" width="4.2290227" height="1.24631268"></rect>
            <rect id="Rectangle-43" fill="#555A62" opacity="0.347714552" x="77" y="101" width="58.2112537" height="2.49262537"></rect>
            <rect id="Rectangle-43" fill="#555A62" opacity="0.347714552" x="77" y="106" width="8.45804541" height="1.24631268"></rect>
            <rect id="Rectangle-43" fill="#555A62" opacity="0.347714552" x="89" y="106" width="5.970385" height="1.24631268"></rect>
            <rect id="Rectangle-43" fill="#555A62" opacity="0.347714552" x="102" y="106" width="4.2290227" height="1.24631268"></rect>
            <rect id="Rectangle-43" fill="#555A62" opacity="0.347714552" x="77" y="121" width="58.2112537" height="2.49262537"></rect>
            <rect id="Rectangle-43" fill="#555A62" opacity="0.347714552" x="77" y="126" width="8.45804541" height="1.24631268"></rect>
            <rect id="Rectangle-43" fill="#555A62" opacity="0.347714552" x="220.88845" y="66.0545723" width="8.45804541" height="1.24631268"></rect>
            <rect id="Rectangle-43" fill="#555A62" opacity="0.347714552" x="220.88845" y="86.2448378" width="8.45804541" height="1.24631268"></rect>
            <rect id="Rectangle-43" fill="#555A62" opacity="0.347714552" x="220.88845" y="106.185841" width="8.45804541" height="1.24631268"></rect>
            <rect id="Rectangle-43" fill="#555A62" opacity="0.347714552" x="220.88845" y="126.126844" width="8.45804541" height="1.24631268"></rect>
            <rect id="Rectangle-43" fill="#555A62" opacity="0.347714552" x="220.88845" y="62.0545723" width="15.46" height="1.24631268"></rect>
            <rect id="Rectangle-43" fill="#555A62" opacity="0.347714552" x="179.88845" y="64.0545723" width="7.46000004" height="1.24631268"></rect>
            <rect id="Rectangle-43" fill="#555A62" opacity="0.347714552" x="164.88845" y="64.0545723" width="7.46000004" height="1.24631268"></rect>
            <rect id="Rectangle-43" fill="#555A62" opacity="0.347714552" x="179.88845" y="84.0545723" width="7.46000004" height="1.24631268"></rect>
            <rect id="Rectangle-43" fill="#555A62" opacity="0.347714552" x="164.88845" y="84.0545723" width="7.46000004" height="1.24631268"></rect>
            <rect id="Rectangle-43" fill="#555A62" opacity="0.347714552" x="179.88845" y="104.054572" width="7.46000004" height="1.24631268"></rect>
            <rect id="Rectangle-43" fill="#555A62" opacity="0.347714552" x="164.88845" y="104.054572" width="7.46000004" height="1.24631268"></rect>
            <rect id="Rectangle-43" fill="#555A62" opacity="0.347714552" x="179.88845" y="124.054572" width="7.46000004" height="1.24631268"></rect>
            <rect id="Rectangle-43" fill="#555A62" opacity="0.347714552" x="164.88845" y="124.054572" width="7.46000004" height="1.24631268"></rect>
            <rect id="Rectangle-43" fill="#555A62" opacity="0.347714552" x="220.88845" y="82.2448378" width="15.46" height="1.24631268"></rect>
            <rect id="Rectangle-43" fill="#555A62" opacity="0.347714552" x="220.88845" y="102.185841" width="15.46" height="1.24631268"></rect>
            <rect id="Rectangle-43" fill="#555A62" opacity="0.347714552" x="220.88845" y="122.126844" width="15.46" height="1.24631268"></rect>
            <rect id="Rectangle-43" fill="#555A62" opacity="0.347714552" x="89" y="126" width="5.970385" height="1.24631268"></rect>
            <rect id="Rectangle-43" fill="#555A62" opacity="0.347714552" x="102" y="126" width="4.2290227" height="1.24631268"></rect>
            <rect id="Rectangle-43" fill="#555A62" opacity="0.347714552" x="77" y="141" width="58.2112537" height="2.49262537"></rect>
            <rect id="Rectangle-43" fill="#555A62" opacity="0.347714552" x="77" y="146" width="8.45804541" height="1.24631268"></rect>
            <rect id="Rectangle-43" fill="#555A62" opacity="0.347714552" x="220.88845" y="146.126844" width="8.45804541" height="1.24631268"></rect>
            <rect id="Rectangle-43" fill="#555A62" opacity="0.347714552" x="179.88845" y="144.054572" width="7.46000004" height="1.24631268"></rect>
            <rect id="Rectangle-43" fill="#555A62" opacity="0.347714552" x="164.88845" y="144.054572" width="7.46000004" height="1.24631268"></rect>
            <rect id="Rectangle-43" fill="#555A62" opacity="0.347714552" x="220.88845" y="142.126844" width="15.46" height="1.24631268"></rect>
            <rect id="Rectangle-43" fill="#555A62" opacity="0.347714552" x="89" y="146" width="5.970385" height="1.24631268"></rect>
            <rect id="Rectangle-43" fill="#555A62" opacity="0.347714552" x="102" y="146" width="4.2290227" height="1.24631268"></rect>
        </g>
    </g>
</svg>