<svg xmlns="http://www.w3.org/2000/svg" width="15.444" height="6.167" viewBox="2.284 6.911 15.444 6.167"><path d="M12.887 11.957c-1.018-.172-.861-1.856-.495-2.573.911.025 2.128-1.278 1.892-2.202-.046-.171-.178-.214-.281-.24-1.189-.28-1.811 1.414-2.118 2.205-.28-.043-.575-.187-.626-.389.601.199.734-.773.217-.887-.275-.038-.51.116-.54.452 0 .169.03.358.151.563.151.258.473.379.734.452-.126.435-.258.912-.279 1.407-.023.449.037 2.021 1.037 1.882.223-.033.316-.339.389-.584.019-.068-.03-.07-.081-.086zm.747-4.73c.768-.012-.543 1.917-1.144 1.902.262-.647.755-1.899 1.144-1.902zm-5.798 4.518c-.407-.694-.321-1.467-.217-2.336-.457-.359-.815.22-.909.626-.47-.404-1.093-.038-1.255.24-.22.379-.235.922-.066 1.341.25.61 1.518.949 1.859.065.177.253.692.604.876.438.156-.146-.167-.111-.288-.374zm-1.366-.106c-.379-.111-.495-.684-.389-1.126.078-.222.389-.235.585-.106.232.149.291.552.369.843-.096.266-.348.449-.565.389zm8.181.606c-.689-.263-.889-.979-.866-1.773 1.611-.343 2.412-2.131 2.142-2.55-.288-.414-.715-.192-1.144.065-.275.164-1.225.773-1.514 2.248a.415.415 0 0 1-.391.002c-.059-.022-.094.023-.088.088.007.038.15.162.418.205-.078.679.146 1.761.579 2.215a.711.711 0 0 0 .452.194c.199-.01.641-.268.586-.498-.022-.083-.016-.132-.174-.196zm.712-4.109c.218.094-.298.947-.411 1.126a2.014 2.014 0 0 1-1.081.821c.245-.828 1.191-2.081 1.492-1.947zM5.596 9.192c.315-.25.75-.381 1.144-.412.222-.586-.505-.838-.995-.735-.591.147-1.094 1.119-1.278 1.707-.23.737-.088 1.628.106 2.399-.399-.371-.899-.906-1.126-1.449a11.114 11.114 0 0 1-.151-.389c-.16-.472-.134-1.083.065-1.384-.253-.048-.495.091-.692.258-.139.126-.343.378-.381.54-.079.326.139.7.28.972.288.551.479.799.886 1.21.401.406.763.682 1.255.972.243.143.576.301.798.106-.169-.409-1.365-2.651.089-3.795zm5.674.364a.372.372 0 0 0-.578-.164c-.28.232-.265 1.575-.164 1.772.059.25.482.398.589.104.046-.159-.114.01-.197-.126-.385-.586.472-1.205.35-1.586zm-1.487 1.799c-.045-.371.336-.909.323-1.34-.007-.252-.091-.515-.346-.586-.641-.088-.922.301-1.21.67-.146-.308-.482-.599-.798-.324-.139.154.152.578.28.887.091.219.205.446.217.669.01.151-.083.368.043.389.414.048.3-.664.389-1.038.081-.338.243-.507.586-.626.437-.124-.929 2.394.864 2.228.22-.096.488-.385.28-.649-.29.019-.588.054-.628-.28zm7.676-1.06c-.242-.035-.416.205-.586.281.146-.384-.182-.634-.257-.715-1.116-.738-2.689 1.212-1.901 1.967.338.268.876.334 1.255.043.05.609 1.245.702 1.255.105-1.451.377.266-.843.475-1.297.083-.177-.023-.351-.241-.384zm-1.621 1.321c-.217-.011-.365-.022-.411-.218a.918.918 0 0 1 .669-1.015c.982-.259.172 1.256-.258 1.233z"/></svg>