<?xml version="1.0" encoding="utf-8"?>
<!-- Generator: Adobe Illustrator 16.0.0, SVG Export Plug-In . SVG Version: 6.00 Build 0)  -->
<!DOCTYPE svg PUBLIC "-//W3C//DTD SVG 1.1//EN" "http://www.w3.org/Graphics/SVG/1.1/DTD/svg11.dtd">
<svg version="1.1" id="Layer_1" xmlns="http://www.w3.org/2000/svg" xmlns:xlink="http://www.w3.org/1999/xlink" x="0px" y="0px"
	 width="15.444px" height="6.167px" viewBox="2.284 6.911 15.444 6.167" enable-background="new 2.284 6.911 15.444 6.167"
	 xml:space="preserve">
<path d="M12.887,11.957c-1.018-0.172-0.861-1.856-0.495-2.573c0.911,0.025,2.128-1.278,1.892-2.202
	c-0.046-0.171-0.178-0.214-0.281-0.24c-1.189-0.28-1.811,1.414-2.118,2.205c-0.28-0.043-0.575-0.187-0.626-0.389
	c0.601,0.199,0.734-0.773,0.217-0.887c-0.275-0.038-0.51,0.116-0.54,0.452c0,0.169,0.03,0.358,0.151,0.563
	c0.151,0.258,0.473,0.379,0.734,0.452c-0.126,0.435-0.258,0.912-0.279,1.407c-0.023,0.449,0.037,2.021,1.037,1.882
	c0.223-0.033,0.316-0.339,0.389-0.584C12.987,11.975,12.938,11.973,12.887,11.957z M13.634,7.227
	c0.768-0.012-0.543,1.917-1.144,1.902C12.752,8.482,13.245,7.23,13.634,7.227z M7.836,11.745c-0.407-0.694-0.321-1.467-0.217-2.336
	c-0.457-0.359-0.815,0.22-0.909,0.626c-0.47-0.404-1.093-0.038-1.255,0.24c-0.22,0.379-0.235,0.922-0.066,1.341
	c0.25,0.61,1.518,0.949,1.859,0.065c0.177,0.253,0.692,0.604,0.876,0.438C8.28,11.973,7.957,12.008,7.836,11.745z M6.47,11.639
	c-0.379-0.111-0.495-0.684-0.389-1.126c0.078-0.222,0.389-0.235,0.585-0.106c0.232,0.149,0.291,0.552,0.369,0.843
	C6.939,11.516,6.687,11.699,6.47,11.639z M14.651,12.245c-0.689-0.263-0.889-0.979-0.866-1.773c1.611-0.343,2.412-2.131,2.142-2.55
	c-0.288-0.414-0.715-0.192-1.144,0.065c-0.275,0.164-1.225,0.773-1.514,2.248c-0.125,0.061-0.244,0.071-0.391,0.002
	c-0.059-0.022-0.094,0.023-0.088,0.088c0.007,0.038,0.15,0.162,0.418,0.205c-0.078,0.679,0.146,1.761,0.579,2.215
	c0.101,0.106,0.313,0.199,0.452,0.194c0.199-0.01,0.641-0.268,0.586-0.498C14.803,12.358,14.809,12.309,14.651,12.245L14.651,12.245
	z M15.363,8.136c0.218,0.094-0.298,0.947-0.411,1.126c-0.232,0.369-0.626,0.677-1.081,0.821C14.116,9.255,15.062,8.002,15.363,8.136
	z M5.596,9.192c0.315-0.25,0.75-0.381,1.144-0.412c0.222-0.586-0.505-0.838-0.995-0.735C5.154,8.192,4.651,9.164,4.467,9.752
	c-0.23,0.737-0.088,1.628,0.106,2.399c-0.399-0.371-0.899-0.906-1.126-1.449c-0.035-0.083-0.134-0.338-0.151-0.389
	C3.136,9.841,3.162,9.23,3.361,8.929C3.108,8.881,2.866,9.02,2.669,9.187C2.53,9.313,2.326,9.565,2.288,9.727
	c-0.079,0.326,0.139,0.7,0.28,0.972c0.288,0.551,0.479,0.799,0.886,1.21c0.401,0.406,0.763,0.682,1.255,0.972
	c0.243,0.143,0.576,0.301,0.798,0.106C5.338,12.578,4.142,10.336,5.596,9.192z M11.27,9.556c-0.067-0.207-0.36-0.336-0.578-0.164
	c-0.28,0.232-0.265,1.575-0.164,1.772c0.059,0.25,0.482,0.398,0.589,0.104c0.046-0.159-0.114,0.01-0.197-0.126
	C10.535,10.556,11.392,9.937,11.27,9.556z M9.783,11.355c-0.045-0.371,0.336-0.909,0.323-1.34C10.099,9.763,10.015,9.5,9.76,9.429
	C9.119,9.341,8.838,9.73,8.55,10.099C8.404,9.791,8.068,9.5,7.752,9.775c-0.139,0.154,0.152,0.578,0.28,0.887
	c0.091,0.219,0.205,0.446,0.217,0.669c0.01,0.151-0.083,0.368,0.043,0.389c0.414,0.048,0.3-0.664,0.389-1.038
	c0.081-0.338,0.243-0.507,0.586-0.626c0.437-0.124-0.929,2.394,0.864,2.228c0.22-0.096,0.488-0.385,0.28-0.649
	C10.121,11.654,9.823,11.689,9.783,11.355z M17.459,10.295c-0.242-0.035-0.416,0.205-0.586,0.281
	c0.146-0.384-0.182-0.634-0.257-0.715c-1.116-0.738-2.689,1.212-1.901,1.967c0.338,0.268,0.876,0.334,1.255,0.043
	c0.05,0.609,1.245,0.702,1.255,0.105c-1.451,0.377,0.266-0.843,0.475-1.297C17.783,10.502,17.677,10.328,17.459,10.295z
	 M15.838,11.616c-0.217-0.011-0.365-0.022-0.411-0.218c-0.065-0.561,0.313-0.921,0.669-1.015
	C17.078,10.124,16.268,11.639,15.838,11.616z"/>
</svg>
