<svg xmlns="http://www.w3.org/2000/svg" viewBox="0 0 612 792" enable-background="new 0 0 612 792"><path d="M420.3 473.5c-40.3-6.8-34.1-73.5-19.6-101.9 36.1 1 84.3-50.6 74.9-87.2-1.8-6.8-7-8.5-11.1-9.5-47.1-11.1-71.7 56-83.9 87.3-11.1-1.7-22.8-7.4-24.8-15.4 23.8 7.9 29.1-30.6 8.6-35.1-10.9-1.5-20.2 4.6-21.4 17.9 0 6.7 1.2 14.2 6 22.3 6 10.2 18.7 15 29.1 17.9-5 17.2-10.2 36.1-11.1 55.7-.9 17.8 1.5 80 41.1 74.5 8.8-1.3 12.5-13.4 15.4-23.1.8-2.7-1.2-2.8-3.2-3.4zm29.6-187.3c30.4-.5-21.5 75.9-45.3 75.3 10.4-25.6 29.9-75.2 45.3-75.3zM220.3 465.1c-16.1-27.5-12.7-58.1-8.6-92.5-18.1-14.2-32.3 8.7-36 24.8-18.6-16-43.3-1.5-49.7 9.5-8.7 15-9.3 36.5-2.6 53.1 9.9 24.2 60.1 37.6 73.6 2.6 7 10 27.4 23.9 34.7 17.3 6.2-5.8-6.6-4.4-11.4-14.8zm-54.1-4.2c-15-4.4-19.6-27.1-15.4-44.6 3.1-8.8 15.4-9.3 23.2-4.2 9.2 5.9 11.5 21.9 14.6 33.4-3.8 10.5-13.8 17.8-22.4 15.4zm324 24c-27.3-10.4-35.2-38.8-34.3-70.2 63.8-13.6 95.5-84.4 84.8-101-11.4-16.4-28.3-7.6-45.3 2.6-10.9 6.5-48.5 30.6-59.9 89-5 2.4-9.7 2.8-15.5.1-2.3-.9-3.7.9-3.5 3.5.3 1.5 6 6.4 16.6 8.1-3.1 26.9 5.8 69.7 22.9 87.7 4 4.2 12.4 7.9 17.9 7.7 7.9-.4 25.4-10.6 23.2-19.7-.9-3.3-.7-5.3-6.9-7.8zm28.2-162.7c8.6 3.7-11.8 37.5-16.3 44.6-9.2 14.6-24.8 26.8-42.8 32.5 9.7-32.8 47.2-82.4 59.1-77.1zM131.6 364c12.5-9.9 29.7-15.1 45.3-16.3 8.8-23.2-20-33.2-39.4-29.1-23.4 5.8-43.3 44.3-50.6 67.6-9.1 29.2-3.5 64.5 4.2 95-15.8-14.7-35.6-35.9-44.6-57.4-1.4-3.3-5.3-13.4-6-15.4-6.3-18.7-5.3-42.9 2.6-54.8-10-1.9-19.6 3.6-27.4 10.2-5.5 5-13.6 15-15.1 21.4-3.1 12.9 5.5 27.7 11.1 38.5 11.4 21.8 19 31.6 35.1 47.9 15.9 16.1 30.2 27 49.7 38.5 9.6 5.6 22.8 11.9 31.6 4.2-6.7-16.2-54.1-105 3.5-150.3zm224.7 14.4c-2.7-8.2-14.3-13.3-22.9-6.5-11.1 9.2-10.5 62.4-6.5 70.2 2.3 9.9 19.1 15.8 23.3 4.1 1.8-6.3-4.5.4-7.8-5-15.2-23.2 18.7-47.7 13.9-62.8zm-58.9 71.3c-1.8-14.7 13.3-36 12.8-53.1-.3-10-3.6-20.4-13.7-23.2-25.4-3.5-36.5 11.9-47.9 26.5-5.8-12.2-19.1-23.7-31.6-12.8-5.5 6.1 6 22.9 11.1 35.1 3.6 8.7 8.1 17.7 8.6 26.5.4 6-3.3 14.6 1.7 15.4 16.4 1.9 11.9-26.3 15.4-41.1 3.2-13.4 9.6-20.1 23.2-24.8 17.3-4.9-36.8 94.8 34.2 88.2 8.7-3.8 19.3-15.2 11.1-25.7-11.5.8-23.3 2.2-24.9-11zm304-42c-9.6-1.4-16.5 8.1-23.2 11.1 5.8-15.2-7.2-25.1-10.2-28.3-44.2-29.2-106.5 48-75.3 77.9 13.4 10.6 34.7 13.2 49.7 1.7 2 24.1 49.3 27.8 49.7 4.2-57.5 14.9 10.5-33.4 18.8-51.4 3.3-7-.9-13.9-9.5-15.2zM537.2 460c-8.6-.4-14.5-.9-16.3-8.6-2.6-22.2 12.4-36.5 26.5-40.2 38.9-10.3 6.8 49.7-10.2 48.8z"/></svg>