<svg xmlns="http://www.w3.org/2000/svg" width="15.447" height="6.171" viewBox="2.274 6.911 15.447 6.171"><path fill="#FFF" d="M12.887 11.957c-1.018-.172-.859-1.856-.494-2.573.909.025 2.127-1.278 1.892-2.202-.046-.17-.179-.214-.28-.24-1.189-.28-1.812 1.414-2.12 2.205-.28-.043-.573-.187-.625-.39.601.2.73-.772.21-.886-.273-.032-.51.12-.539.458 0 .17.029.358.149.563.153.258.476.38.735.45-.125.436-.258.91-.279 1.408-.021.45.038 2.02 1.038 1.882.22-.034.313-.34.387-.586.021-.067-.03-.069-.08-.086l.006-.003zm.747-4.73c.769-.012-.543 1.917-1.144 1.902.262-.65.755-1.9 1.144-1.908v.006zm-5.798 4.518c-.407-.694-.32-1.467-.217-2.336-.46-.36-.82.22-.91.62-.47-.404-1.098-.038-1.26.24-.22.379-.235.922-.066 1.34.25.609 1.517.949 1.858.065.177.253.692.604.876.44.156-.148-.167-.113-.288-.376l.007.007zm-1.366-.104c-.38-.113-.495-.686-.39-1.127.08-.223.39-.236.586-.106.232.149.29.552.37.843-.097.265-.35.449-.566.39zm8.18.604c-.688-.263-.889-.979-.865-1.773 1.609-.343 2.412-2.13 2.142-2.55-.288-.414-.715-.192-1.144.065-.275.164-1.225.773-1.514 2.248a.434.434 0 0 1-.397.002c-.06-.022-.095.023-.088.088.006.038.149.162.417.204-.078.681.146 1.761.58 2.216a.7.7 0 0 0 .449.194c.201-.01.643-.271.588-.5-.021-.088-.017-.131-.174-.2l.006.006zm.713-4.11c.218.095-.299.948-.41 1.127-.232.37-.627.677-1.082.82.25-.827 1.197-2.08 1.498-1.946l-.006-.001zM5.596 9.193c.315-.25.75-.38 1.144-.412.222-.58-.505-.833-.995-.73-.59.147-1.094 1.12-1.278 1.707-.23.737-.088 1.628.106 2.4-.4-.372-.9-.907-1.126-1.45a8.776 8.776 0 0 1-.15-.39c-.16-.47-.135-1.082.064-1.383-.25-.05-.49.09-.69.258-.14.127-.34.38-.38.54-.08.327.14.7.28.973.29.55.48.797.89 1.21.4.404.762.68 1.254.97.243.144.576.3.798.106-.17-.41-1.364-2.65.09-3.795l-.007-.004zm5.674.364a.372.372 0 0 0-.578-.164c-.279.232-.265 1.575-.164 1.772.061.25.482.397.591.104.045-.16-.115.01-.198-.131-.385-.587.473-1.206.35-1.587v.006zm-1.487 1.8c-.045-.373.336-.911.323-1.34-.007-.253-.09-.516-.346-.587-.64-.09-.922.3-1.21.67-.146-.31-.482-.6-.798-.325-.14.154.152.578.28.887.09.22.205.445.217.67.01.15-.09.367.04.389.41.047.3-.664.39-1.039.08-.338.24-.507.582-.625.438-.124-.93 2.394.864 2.228.22-.097.49-.386.28-.65-.29.021-.588.056-.628-.28l.006.002zm7.676-1.06c-.248-.036-.42.204-.59.28.145-.384-.18-.634-.26-.715-1.115-.737-2.69 1.213-1.9 1.968.338.268.876.334 1.255.043.05.609 1.244.703 1.254.105-1.45.373.267-.848.476-1.299.082-.181-.024-.351-.24-.388l.005.006zm-1.627 1.32c-.217-.01-.365-.021-.41-.219a.928.928 0 0 1 .668-1.02c.983-.26.174 1.256-.257 1.232l-.001.007z"/></svg>