<svg xmlns="http://www.w3.org/2000/svg" width="20" height="20" viewBox="0 0 20 20"><path fill="#fff" d="M12.887 11.957c-1.018-.172-.86-1.856-.495-2.573.91.025 2.128-1.278 1.892-2.202-.046-.17-.178-.214-.28-.24-1.19-.28-1.812 1.414-2.12 2.205-.28-.043-.574-.187-.625-.39.6.2.73-.772.21-.886-.274-.032-.51.12-.54.458 0 .17.03.358.15.563.153.258.475.38.736.45-.126.436-.258.91-.28 1.408-.022.45.038 2.02 1.038 1.882.22-.035.314-.34.387-.586.02-.068-.03-.07-.08-.086zm.747-4.73c.768-.012-.543 1.917-1.144 1.902.262-.65.755-1.9 1.144-1.908zm-5.798 4.518c-.407-.694-.32-1.467-.217-2.336-.46-.36-.82.22-.91.62-.47-.404-1.098-.038-1.26.24-.22.38-.235.922-.066 1.34.25.61 1.517.95 1.858.066.177.253.692.604.876.44.156-.148-.167-.113-.288-.376zM6.47 11.64c-.38-.112-.495-.685-.39-1.127.08-.222.39-.235.586-.106.232.15.29.552.37.843-.097.266-.35.45-.566.39zm8.18.605c-.688-.263-.888-.98-.865-1.773 1.61-.343 2.412-2.13 2.142-2.55-.288-.414-.715-.192-1.144.065-.275.164-1.225.773-1.514 2.248-.13.06-.25.07-.397.002-.06-.022-.094.023-.088.088.006.038.15.162.417.205-.078.68.146 1.76.58 2.215.1.106.312.2.45.194.2-.01.642-.27.587-.5-.02-.087-.016-.13-.174-.2zm.713-4.11c.218.095-.298.948-.41 1.127-.233.37-.627.677-1.082.82.25-.827 1.197-2.08 1.498-1.946zM5.596 9.193c.315-.25.75-.38 1.144-.412.222-.58-.505-.833-.995-.73-.59.147-1.094 1.12-1.278 1.707-.23.737-.088 1.628.106 2.4-.4-.372-.9-.907-1.126-1.45-.035-.083-.134-.338-.15-.39-.16-.47-.135-1.082.064-1.383-.25-.05-.49.09-.69.258-.14.127-.34.38-.38.54-.08.327.14.7.28.973.29.55.48.797.89 1.21.4.404.762.68 1.254.97.243.143.576.3.798.106-.17-.41-1.364-2.65.09-3.795zm5.674.364c-.067-.207-.36-.336-.578-.164-.28.232-.265 1.575-.164 1.772.06.25.482.398.59.104.045-.16-.115.01-.198-.13-.385-.587.472-1.206.35-1.587zm-1.487 1.8c-.045-.372.336-.91.323-1.34-.007-.253-.09-.516-.346-.587-.64-.09-.922.3-1.21.67-.146-.31-.482-.6-.798-.325-.14.154.152.578.28.887.09.22.205.446.217.67.01.15-.09.367.04.388.41.048.3-.664.39-1.038.08-.338.24-.507.582-.626.437-.124-.93 2.394.864 2.228.22-.096.49-.385.28-.65-.29.02-.588.055-.628-.28zm7.676-1.06c-.248-.036-.42.204-.59.28.144-.384-.18-.634-.26-.715-1.115-.737-2.69 1.213-1.9 1.968.338.268.876.334 1.255.043.05.61 1.244.703 1.254.106-1.45.372.266-.848.475-1.3.082-.18-.024-.35-.24-.387zm-1.627 1.32c-.217-.01-.365-.022-.41-.218-.066-.56.312-.92.668-1.02.983-.26.173 1.256-.257 1.233z"/></svg>