<?xml version="1.0" encoding="utf-8"?>
<!-- Generator: Adobe Illustrator 16.0.0, SVG Export Plug-In . SVG Version: 6.00 Build 0)  -->
<!DOCTYPE svg PUBLIC "-//W3C//DTD SVG 1.1//EN" "http://www.w3.org/Graphics/SVG/1.1/DTD/svg11.dtd">
<svg version="1.1" id="Layer_1" xmlns="http://www.w3.org/2000/svg" xmlns:xlink="http://www.w3.org/1999/xlink" x="0px" y="0px"
	 width="15.447px" height="6.171px" viewBox="2.274 6.911 15.447 6.171" enable-background="new 2.274 6.911 15.447 6.171"
	 xml:space="preserve">
<path fill="#FFFFFF" d="M12.887,11.957c-1.018-0.172-0.859-1.856-0.494-2.573c0.909,0.025,2.127-1.278,1.892-2.202
	c-0.046-0.17-0.179-0.214-0.28-0.24c-1.189-0.28-1.812,1.414-2.12,2.205c-0.28-0.043-0.573-0.187-0.625-0.39
	c0.601,0.2,0.73-0.772,0.21-0.886c-0.273-0.032-0.51,0.12-0.539,0.458c0,0.17,0.029,0.358,0.149,0.563
	c0.153,0.258,0.476,0.38,0.735,0.45c-0.125,0.436-0.258,0.91-0.279,1.408c-0.021,0.45,0.038,2.02,1.038,1.882
	c0.22-0.034,0.313-0.34,0.387-0.586c0.021-0.067-0.03-0.069-0.08-0.086L12.887,11.957z M13.634,7.227
	c0.769-0.012-0.543,1.917-1.144,1.902c0.262-0.65,0.755-1.9,1.144-1.908V7.227z M7.836,11.745c-0.407-0.694-0.32-1.467-0.217-2.336
	c-0.46-0.36-0.82,0.22-0.91,0.62c-0.47-0.404-1.098-0.038-1.26,0.24c-0.22,0.379-0.235,0.922-0.066,1.34
	c0.25,0.609,1.517,0.949,1.858,0.065c0.177,0.253,0.692,0.604,0.876,0.44c0.156-0.148-0.167-0.113-0.288-0.376L7.836,11.745z
	 M6.47,11.641c-0.38-0.113-0.495-0.686-0.39-1.127c0.08-0.223,0.39-0.236,0.586-0.106c0.232,0.149,0.29,0.552,0.37,0.843
	C6.939,11.516,6.686,11.7,6.47,11.641z M14.65,12.245c-0.688-0.263-0.889-0.979-0.865-1.773c1.609-0.343,2.412-2.13,2.142-2.55
	c-0.288-0.414-0.715-0.192-1.144,0.065c-0.275,0.164-1.225,0.773-1.514,2.248c-0.131,0.06-0.25,0.07-0.397,0.002
	c-0.06-0.022-0.095,0.023-0.088,0.088c0.006,0.038,0.149,0.162,0.417,0.204c-0.078,0.681,0.146,1.761,0.58,2.216
	c0.1,0.106,0.312,0.2,0.449,0.194c0.201-0.01,0.643-0.271,0.588-0.5c-0.021-0.088-0.017-0.131-0.174-0.2L14.65,12.245z
	 M15.363,8.135c0.218,0.095-0.299,0.948-0.41,1.127c-0.232,0.37-0.627,0.677-1.082,0.82c0.25-0.827,1.197-2.08,1.498-1.946
	L15.363,8.135z M5.596,9.193c0.315-0.25,0.75-0.38,1.144-0.412c0.222-0.58-0.505-0.833-0.995-0.73
	c-0.59,0.147-1.094,1.12-1.278,1.707c-0.23,0.737-0.088,1.628,0.106,2.4c-0.4-0.372-0.9-0.907-1.126-1.45
	c-0.035-0.083-0.134-0.338-0.15-0.39c-0.16-0.47-0.135-1.082,0.064-1.383c-0.25-0.05-0.49,0.09-0.69,0.258
	c-0.14,0.127-0.34,0.38-0.38,0.54c-0.08,0.327,0.14,0.7,0.28,0.973c0.29,0.55,0.48,0.797,0.89,1.21c0.4,0.404,0.762,0.68,1.254,0.97
	c0.243,0.144,0.576,0.3,0.798,0.106c-0.17-0.41-1.364-2.65,0.09-3.795L5.596,9.193z M11.27,9.557
	c-0.066-0.207-0.359-0.336-0.578-0.164c-0.279,0.232-0.265,1.575-0.164,1.772c0.061,0.25,0.482,0.397,0.591,0.104
	c0.045-0.16-0.115,0.01-0.198-0.131c-0.385-0.587,0.473-1.206,0.35-1.587V9.557z M9.783,11.357c-0.045-0.373,0.336-0.911,0.323-1.34
	c-0.007-0.253-0.09-0.516-0.346-0.587c-0.64-0.09-0.922,0.3-1.21,0.67C8.404,9.79,8.068,9.5,7.752,9.775
	c-0.14,0.154,0.152,0.578,0.28,0.887c0.09,0.22,0.205,0.445,0.217,0.67c0.01,0.15-0.09,0.367,0.04,0.389
	c0.41,0.047,0.3-0.664,0.39-1.039c0.08-0.338,0.24-0.507,0.582-0.625c0.438-0.124-0.93,2.394,0.864,2.228
	c0.22-0.097,0.49-0.386,0.28-0.65c-0.29,0.021-0.588,0.056-0.628-0.28L9.783,11.357z M17.459,10.297
	c-0.248-0.036-0.42,0.204-0.59,0.28c0.145-0.384-0.18-0.634-0.26-0.715c-1.115-0.737-2.69,1.213-1.9,1.968
	c0.338,0.268,0.876,0.334,1.255,0.043c0.05,0.609,1.244,0.703,1.254,0.105c-1.45,0.373,0.267-0.848,0.476-1.299
	c0.082-0.181-0.024-0.351-0.24-0.388L17.459,10.297z M15.832,11.617c-0.217-0.01-0.365-0.021-0.41-0.219
	c-0.066-0.56,0.312-0.919,0.668-1.02c0.983-0.26,0.174,1.256-0.257,1.232L15.832,11.617z"/>
</svg>
