<svg xmlns="http://www.w3.org/2000/svg" viewBox="0 0 20 18" class="icon icon-settings" aria-hidden="true"><title>Settings</title><path d="M6,18v-.5a.5.5,0,0,1,.5-.5h4a.5.5,0,0,1,.5.5V18H22v2H11v.5a.5.5,0,0,1-.5.5h-4a.5.5,0,0,1-.5-.5V20H2V18Zm9-7v-.5a.5.5,0,0,1,.5-.5h4a.5.5,0,0,1,.5.5V11h2v2H20v.5a.5.5,0,0,1-.5.5h-4a.5.5,0,0,1-.5-.5V13H2V11ZM4,4V3.5A.5.5,0,0,1,4.5,3h4a.5.5,0,0,1,.5.5V4H22V6H9v.5a.5.5,0,0,1-.5.5h-4A.5.5,0,0,1,4,6.5V6H2V4ZM5,4V6H8V4Zm11,7v2h3V11ZM7,18v2h3V18Z" transform="translate(-2 -3)" fill="currentColor"></path></svg>