<svg width="24" height="27" viewBox="0 0 24 27" fill="none" xmlns="http://www.w3.org/2000/svg">
<path d="M7.49939 20.2075L6.87821 16.2423L7.70482 16.0042L9.42419 16.8276C9.42419 16.8276 9.66851 18.2362 9.98395 19.586C10.5201 21.8804 8.03553 22.5019 7.49939 20.2075Z" stroke="#555A62"/>
<path d="M4.59208 10.7628L7.06177 10.3L7.91013 15.8794L5.44044 16.3423C5.16903 16.3931 4.91535 16.2131 4.87384 15.9401L4.1758 11.3493C4.13429 11.0763 4.32066 10.8137 4.59208 10.7628Z" stroke="#555A62"/>
<path d="M12.6832 5.51111C12.9831 5.26813 13.4204 5.43184 13.4776 5.80806L15.2987 17.7847C15.3523 18.1373 15.0353 18.4351 14.7029 18.372L14.6359 18.3537L7.93802 16.083L7.02786 10.0971L12.6832 5.51111Z" stroke="#555A62"/>
<path d="M14.6221 10.0089C15.3953 9.86399 16.2115 10.4434 16.361 11.4267C16.5104 12.4099 15.9109 13.2547 15.1377 13.3996C14.9376 13.4371 14.8498 13.4071 14.8131 13.388C14.7764 13.3688 14.7241 13.3249 14.6669 13.1989C14.6072 13.0675 14.5591 12.884 14.514 12.6348C14.4684 12.383 14.434 12.1154 14.3856 11.7969C14.3372 11.4785 14.2905 11.2131 14.2591 10.9587C14.2281 10.7067 14.2191 10.515 14.2366 10.3691C14.2535 10.2295 14.2899 10.1687 14.3188 10.1372C14.348 10.1057 14.4227 10.0463 14.6221 10.0089Z" stroke="#555A62"/>
<path fill-rule="evenodd" clip-rule="evenodd" d="M18.3271 6.71908C18.4871 6.46923 18.7993 6.41072 19.0243 6.5884C19.2494 6.76607 19.3021 7.11266 19.142 7.36251L18.3224 8.64207C18.1624 8.89192 17.8502 8.95043 17.6252 8.77275C17.4001 8.59508 17.3475 8.2485 17.5075 7.99865L18.3271 6.71908Z" fill="#555A62"/>
<path fill-rule="evenodd" clip-rule="evenodd" d="M19.4407 10.2896C19.7132 10.2398 19.9704 10.4447 20.0153 10.7472C20.0601 11.0497 19.8756 11.3353 19.6031 11.3851L18.2077 11.6401C17.9352 11.6899 17.678 11.485 17.6331 11.1825C17.5883 10.88 17.7728 10.5944 18.0453 10.5446L19.4407 10.2896Z" fill="#555A62"/>
<path fill-rule="evenodd" clip-rule="evenodd" d="M20.1367 13.8212C20.3837 13.9582 20.4839 14.2916 20.3605 14.5659C20.2371 14.8401 19.9368 14.9514 19.6897 14.8143L18.4247 14.1125C18.1776 13.9755 18.0775 13.6421 18.2009 13.3678C18.3243 13.0935 18.6246 12.9823 18.8716 13.1193L20.1367 13.8212Z" fill="#555A62"/>
</svg>
