<svg width="24" height="24" viewBox="0 0 24 24" fill="none" xmlns="http://www.w3.org/2000/svg">
<path fill-rule="evenodd" clip-rule="evenodd" d="M17.1904 9.76871C17.1904 11.1763 16.5556 12.5298 15.4727 13.4862L15.4167 13.5404C14.6185 14.3119 14.684 15.9353 14.6884 16.0433L14.6886 16.0488C14.6886 16.139 14.6512 16.2292 14.5952 16.2834C14.5392 16.3375 14.4645 16.3736 14.3712 16.3736H9.61019C9.53551 16.3736 9.44216 16.3375 9.38615 16.2834C9.31142 16.2112 9.2928 16.139 9.2928 16.0488C9.31142 16.0308 9.38615 14.3344 8.5646 13.5404C7.46308 12.602 6.80961 11.2125 6.80961 9.76871C6.80961 7.00769 9.14343 4.75192 12 4.75192C14.8566 4.75192 17.1904 7.00769 17.1904 9.76871ZM14.9313 13.1434C14.9313 13.1253 14.9686 13.0892 14.9873 13.0712C15.9768 12.2411 16.5369 11.032 16.5369 9.75067C16.5369 7.31443 14.5019 5.3474 11.9814 5.3474C9.46083 5.3474 7.42574 7.31443 7.42574 9.75067C7.42574 11.032 8.00448 12.2411 8.99407 13.0712C9.77818 13.8471 9.90892 15.1465 9.92759 15.742H14.0538C14.0724 15.1465 14.2031 13.9013 14.9313 13.1434ZM9.42628 17.7875C9.42628 17.9794 9.5837 18.135 9.7779 18.135H14.2221C14.4163 18.135 14.5737 17.9794 14.5737 17.7875C14.5737 17.5956 14.4163 17.44 14.2221 17.44H9.7779C9.5837 17.44 9.42628 17.5956 9.42628 17.7875ZM10.2338 19.4425C10.2338 19.6344 10.3559 19.79 10.5065 19.79H13.4935C13.6441 19.79 13.7662 19.6344 13.7662 19.4425C13.7662 19.2506 13.6441 19.095 13.4935 19.095H10.5065C10.3559 19.095 10.2338 19.2506 10.2338 19.4425ZM11.217 6.36337C11.217 6.20235 11.3716 6.05922 11.5455 6.05922C13.8648 6.05922 15.7396 7.79466 15.7203 9.92372C15.7203 10.0847 15.5657 10.2279 15.3917 10.2279C15.2178 10.2279 15.0631 10.0847 15.0631 9.92372C15.0631 8.1346 13.4976 6.66752 11.5455 6.66752C11.3716 6.66752 11.217 6.52439 11.217 6.36337Z" fill="#555A62"/>
<path d="M15.4727 13.4862L15.307 13.2987L15.299 13.3065L15.4727 13.4862ZM15.4167 13.5404L15.2429 13.3606L15.2429 13.3606L15.4167 13.5404ZM14.6884 16.0433L14.9382 16.0341L14.9382 16.0332L14.6884 16.0433ZM14.6886 16.0488H14.9388L14.9384 16.0396L14.6886 16.0488ZM14.5952 16.2834L14.7689 16.4632L14.769 16.4631L14.5952 16.2834ZM9.38615 16.2834L9.55989 16.1036L9.55978 16.1035L9.38615 16.2834ZM9.2928 16.0488L9.11905 15.869L9.0428 15.9427V16.0488H9.2928ZM8.5646 13.5404L8.73834 13.3606L8.73269 13.3551L8.72672 13.3501L8.5646 13.5404ZM14.9873 13.0712L14.8266 12.8796L14.8199 12.8853L14.8136 12.8914L14.9873 13.0712ZM14.9313 13.1434L15.1116 13.3166L15.1813 13.244V13.1434H14.9313ZM8.99407 13.0712L9.16992 12.8935L9.16261 12.8862L9.15473 12.8796L8.99407 13.0712ZM9.92759 15.742L9.67772 15.7498L9.68531 15.992H9.92759V15.742ZM14.0538 15.742V15.992H14.2961L14.3037 15.7498L14.0538 15.742ZM15.7203 9.92372L15.4703 9.92145V9.92372H15.7203ZM15.6382 13.6736C16.7719 12.6723 17.4404 11.2519 17.4404 9.76871H16.9404C16.9404 11.1008 16.3394 12.3872 15.3072 13.2988L15.6382 13.6736ZM15.5904 13.7201L15.6464 13.666L15.299 13.3065L15.2429 13.3606L15.5904 13.7201ZM14.9382 16.0332C14.9362 15.9853 14.9195 15.5718 14.9984 15.0803C15.0789 14.5795 15.2511 14.0481 15.5904 13.7201L15.2429 13.3606C14.7841 13.8041 14.59 14.4702 14.5048 15.001C14.418 15.5411 14.4362 15.9933 14.4386 16.0533L14.9382 16.0332ZM14.9384 16.0396L14.9382 16.0341L14.4385 16.0524L14.4388 16.0579L14.9384 16.0396ZM14.769 16.4631C14.8785 16.3573 14.9386 16.1999 14.9386 16.0488H14.4386C14.4386 16.0602 14.436 16.0737 14.431 16.0863C14.4257 16.0994 14.4206 16.1045 14.4215 16.1036L14.769 16.4631ZM14.3712 16.6236C14.535 16.6236 14.6705 16.5583 14.7689 16.4632L14.4216 16.1036C14.4136 16.1113 14.4063 16.1158 14.3998 16.1185C14.3937 16.1211 14.3849 16.1236 14.3712 16.1236V16.6236ZM9.61019 16.6236H14.3712V16.1236H9.61019V16.6236ZM9.2124 16.4631C9.31642 16.5637 9.47264 16.6236 9.61019 16.6236V16.1236C9.61118 16.1236 9.60869 16.1237 9.60297 16.1225C9.59743 16.1213 9.59072 16.1193 9.58362 16.1165C9.57651 16.1137 9.57039 16.1105 9.56571 16.1076C9.56088 16.1047 9.55922 16.103 9.55989 16.1036L9.2124 16.4631ZM9.0428 16.0488C9.0428 16.1104 9.04898 16.1829 9.0766 16.2586C9.10507 16.3366 9.15114 16.404 9.21251 16.4632L9.55978 16.1035C9.55244 16.0964 9.54912 16.0919 9.54785 16.09C9.54672 16.0883 9.54645 16.0876 9.5463 16.0872C9.54592 16.0861 9.5428 16.0774 9.5428 16.0488H9.0428ZM8.39086 13.7201C8.74126 14.0588 8.91734 14.6131 8.99673 15.124C9.03552 15.3736 9.0494 15.6006 9.05244 15.7655C9.05397 15.8479 9.05276 15.9135 9.0508 15.9572C9.0498 15.9795 9.04871 15.994 9.04797 16.0013C9.04754 16.0056 9.04758 16.004 9.04847 15.9989C9.04881 15.997 9.05028 15.9886 9.0535 15.9774C9.05506 15.972 9.05848 15.9608 9.06451 15.9471C9.06811 15.939 9.0837 15.9032 9.11905 15.869L9.46654 16.2285C9.50218 16.1941 9.51807 16.1578 9.52197 16.149C9.52831 16.1346 9.53203 16.1225 9.53391 16.116C9.53776 16.1027 9.53988 16.0913 9.54089 16.0856C9.5431 16.073 9.54451 16.0607 9.54546 16.0514C9.54746 16.0315 9.54907 16.007 9.5503 15.9796C9.55278 15.924 9.55405 15.8478 9.55236 15.7563C9.54898 15.5732 9.53369 15.3232 9.4908 15.0472C9.40682 14.5068 9.20948 13.816 8.73834 13.3606L8.39086 13.7201ZM6.55961 9.76871C6.55961 11.2872 7.24633 12.7458 8.40248 13.7307L8.72672 13.3501C7.67984 12.4582 7.05961 11.1377 7.05961 9.76871H6.55961ZM12 4.50192C9.01344 4.50192 6.55961 6.86167 6.55961 9.76871H7.05961C7.05961 7.15371 9.27342 5.00192 12 5.00192V4.50192ZM17.4404 9.76871C17.4404 6.86168 14.9866 4.50192 12 4.50192V5.00192C14.7266 5.00192 16.9404 7.15371 16.9404 9.76871H17.4404ZM14.8136 12.8914C14.8054 12.8993 14.7832 12.9205 14.7629 12.9441C14.753 12.9556 14.7379 12.974 14.7241 12.9967C14.7157 13.0103 14.6813 13.0662 14.6813 13.1434H15.1813C15.1813 13.1821 15.1718 13.2111 15.1663 13.2255C15.1603 13.241 15.154 13.252 15.1508 13.2573C15.1445 13.2676 15.14 13.2724 15.1417 13.2705C15.1447 13.2669 15.1505 13.2611 15.1611 13.2509L14.8136 12.8914ZM16.2869 9.75067C16.2869 10.9583 15.7594 12.0972 14.8266 12.8796L15.148 13.2627C16.1942 12.385 16.7869 11.1057 16.7869 9.75067H16.2869ZM11.9814 5.5974C14.3719 5.5974 16.2869 7.46045 16.2869 9.75067H16.7869C16.7869 7.16842 14.6319 5.0974 11.9814 5.0974V5.5974ZM7.67574 9.75067C7.67574 7.46045 9.59082 5.5974 11.9814 5.5974V5.0974C9.33084 5.0974 7.17574 7.16842 7.17574 9.75067H7.67574ZM9.15473 12.8796C8.22001 12.0956 7.67574 10.9558 7.67574 9.75067H7.17574C7.17574 11.1082 7.78895 12.3866 8.8334 13.2627L9.15473 12.8796ZM10.1775 15.7342C10.1678 15.4255 10.1291 14.931 9.98935 14.4095C9.85011 13.8901 9.60534 13.3244 9.16992 12.8935L8.81821 13.2489C9.16691 13.5939 9.37957 14.0658 9.5064 14.539C9.63268 15.0101 9.66872 15.463 9.67772 15.7498L10.1775 15.7342ZM14.0538 15.492H9.92759V15.992H14.0538V15.492ZM14.751 12.9702C14.3462 13.3915 14.1165 13.9375 13.9846 14.4402C13.8522 14.945 13.8136 15.4253 13.8039 15.7342L14.3037 15.7498C14.3126 15.4632 14.3486 15.0232 14.4683 14.567C14.5885 14.1087 14.7882 13.6532 15.1116 13.3166L14.751 12.9702ZM9.7779 17.885C9.71898 17.885 9.67628 17.8385 9.67628 17.7875H9.17628C9.17628 18.1203 9.44843 18.385 9.7779 18.385V17.885ZM14.2221 17.885H9.7779V18.385H14.2221V17.885ZM14.3237 17.7875C14.3237 17.8385 14.281 17.885 14.2221 17.885V18.385C14.5516 18.385 14.8237 18.1203 14.8237 17.7875H14.3237ZM14.2221 17.69C14.281 17.69 14.3237 17.7364 14.3237 17.7875H14.8237C14.8237 17.4547 14.5516 17.19 14.2221 17.19V17.69ZM9.7779 17.69H14.2221V17.19H9.7779V17.69ZM9.67628 17.7875C9.67628 17.7364 9.71898 17.69 9.7779 17.69V17.19C9.44843 17.19 9.17628 17.4547 9.17628 17.7875H9.67628ZM10.5065 19.54C10.5227 19.54 10.5222 19.549 10.5103 19.5338C10.4981 19.5183 10.4838 19.4868 10.4838 19.4425H9.98377C9.98377 19.7126 10.1647 20.04 10.5065 20.04V19.54ZM13.4935 19.54H10.5065V20.04H13.4935V19.54ZM13.5162 19.4425C13.5162 19.4868 13.5019 19.5183 13.4897 19.5338C13.4778 19.549 13.4773 19.54 13.4935 19.54V20.04C13.8353 20.04 14.0162 19.7126 14.0162 19.4425H13.5162ZM13.4935 19.345C13.4773 19.345 13.4778 19.3359 13.4897 19.3511C13.5019 19.3666 13.5162 19.3981 13.5162 19.4425H14.0162C14.0162 19.1723 13.8353 18.845 13.4935 18.845V19.345ZM10.5065 19.345H13.4935V18.845H10.5065V19.345ZM10.4838 19.4425C10.4838 19.3981 10.4981 19.3666 10.5103 19.3511C10.5222 19.3359 10.5227 19.345 10.5065 19.345V18.845C10.1647 18.845 9.98377 19.1723 9.98377 19.4425H10.4838ZM11.5455 5.80922C11.252 5.80922 10.967 6.04645 10.967 6.36337H11.467C11.467 6.36332 11.467 6.36276 11.4673 6.36158C11.4675 6.36035 11.4682 6.35833 11.4695 6.35561C11.4722 6.34995 11.4773 6.34226 11.4859 6.33437C11.504 6.31756 11.5267 6.30922 11.5455 6.30922V5.80922ZM15.9703 9.92599C15.991 7.63801 13.983 5.80922 11.5455 5.80922V6.30922C13.7467 6.30922 15.4882 7.95132 15.4703 9.92145L15.9703 9.92599ZM15.3917 10.4779C15.6852 10.4779 15.9703 10.2406 15.9703 9.92372H15.4703C15.4703 9.92377 15.4703 9.92432 15.47 9.92551C15.4697 9.92673 15.4691 9.92875 15.4678 9.93148C15.4651 9.93714 15.4599 9.94482 15.4514 9.95271C15.4332 9.96953 15.4105 9.97787 15.3917 9.97787V10.4779ZM14.8131 9.92372C14.8131 10.2406 15.0982 10.4779 15.3917 10.4779V9.97787C15.3729 9.97787 15.3502 9.96953 15.332 9.95271C15.3235 9.94482 15.3183 9.93714 15.3156 9.93148C15.3143 9.92875 15.3137 9.92673 15.3134 9.92551C15.3131 9.92432 15.3131 9.92377 15.3131 9.92372H14.8131ZM11.5455 6.91752C13.3772 6.91752 14.8131 8.28964 14.8131 9.92372H15.3131C15.3131 7.97956 13.6181 6.41752 11.5455 6.41752V6.91752ZM10.967 6.36337C10.967 6.68029 11.252 6.91752 11.5455 6.91752V6.41752C11.5267 6.41752 11.504 6.40918 11.4859 6.39236C11.4773 6.38448 11.4722 6.37679 11.4695 6.37113C11.4682 6.3684 11.4675 6.36639 11.4673 6.36516C11.467 6.36397 11.467 6.36342 11.467 6.36337H10.967Z" fill="#555A62"/>
<mask id="mask0_38_360" style="mask-type:luminance" maskUnits="userSpaceOnUse" x="6" y="4" width="12" height="17">
<path fill-rule="evenodd" clip-rule="evenodd" d="M17.1904 9.76871C17.1904 11.1763 16.5556 12.5298 15.4727 13.4862L15.4167 13.5404C14.6185 14.3119 14.684 15.9353 14.6884 16.0433L14.6886 16.0488C14.6886 16.139 14.6512 16.2292 14.5952 16.2834C14.5392 16.3375 14.4645 16.3736 14.3712 16.3736H9.61019C9.53551 16.3736 9.44216 16.3375 9.38615 16.2834C9.31142 16.2112 9.2928 16.139 9.2928 16.0488C9.31142 16.0308 9.38615 14.3344 8.5646 13.5404C7.46308 12.602 6.80961 11.2125 6.80961 9.76871C6.80961 7.00769 9.14343 4.75192 12 4.75192C14.8566 4.75192 17.1904 7.00769 17.1904 9.76871ZM14.9313 13.1434C14.9313 13.1253 14.9686 13.0892 14.9873 13.0712C15.9768 12.2411 16.5369 11.032 16.5369 9.75067C16.5369 7.31443 14.5019 5.3474 11.9814 5.3474C9.46083 5.3474 7.42574 7.31443 7.42574 9.75067C7.42574 11.032 8.00448 12.2411 8.99407 13.0712C9.77818 13.8471 9.90892 15.1465 9.92759 15.742H14.0538C14.0724 15.1465 14.2031 13.9013 14.9313 13.1434ZM9.42628 17.7875C9.42628 17.9794 9.5837 18.135 9.7779 18.135H14.2221C14.4163 18.135 14.5737 17.9794 14.5737 17.7875C14.5737 17.5956 14.4163 17.44 14.2221 17.44H9.7779C9.5837 17.44 9.42628 17.5956 9.42628 17.7875ZM10.2338 19.4425C10.2338 19.6344 10.3559 19.79 10.5065 19.79H13.4935C13.6441 19.79 13.7662 19.6344 13.7662 19.4425C13.7662 19.2506 13.6441 19.095 13.4935 19.095H10.5065C10.3559 19.095 10.2338 19.2506 10.2338 19.4425ZM11.217 6.36337C11.217 6.20235 11.3716 6.05922 11.5455 6.05922C13.8648 6.05922 15.7396 7.79466 15.7203 9.92372C15.7203 10.0847 15.5657 10.2279 15.3917 10.2279C15.2178 10.2279 15.0631 10.0847 15.0631 9.92372C15.0631 8.1346 13.4976 6.66752 11.5455 6.66752C11.3716 6.66752 11.217 6.52439 11.217 6.36337Z" fill="white"/>
<path d="M15.4727 13.4862L15.307 13.2987L15.299 13.3065L15.4727 13.4862ZM15.4167 13.5404L15.2429 13.3606L15.2429 13.3606L15.4167 13.5404ZM14.6884 16.0433L14.9382 16.0341L14.9382 16.0332L14.6884 16.0433ZM14.6886 16.0488H14.9388L14.9384 16.0396L14.6886 16.0488ZM14.5952 16.2834L14.7689 16.4632L14.769 16.4631L14.5952 16.2834ZM9.38615 16.2834L9.55989 16.1036L9.55978 16.1035L9.38615 16.2834ZM9.2928 16.0488L9.11905 15.869L9.0428 15.9427V16.0488H9.2928ZM8.5646 13.5404L8.73834 13.3606L8.73269 13.3551L8.72672 13.3501L8.5646 13.5404ZM14.9873 13.0712L14.8266 12.8796L14.8199 12.8853L14.8136 12.8914L14.9873 13.0712ZM14.9313 13.1434L15.1116 13.3166L15.1813 13.244V13.1434H14.9313ZM8.99407 13.0712L9.16992 12.8935L9.16261 12.8862L9.15473 12.8796L8.99407 13.0712ZM9.92759 15.742L9.67772 15.7498L9.68531 15.992H9.92759V15.742ZM14.0538 15.742V15.992H14.2961L14.3037 15.7498L14.0538 15.742ZM15.7203 9.92372L15.4703 9.92145V9.92372H15.7203ZM15.6382 13.6736C16.7719 12.6723 17.4404 11.2519 17.4404 9.76871H16.9404C16.9404 11.1008 16.3394 12.3872 15.3072 13.2988L15.6382 13.6736ZM15.5904 13.7201L15.6464 13.666L15.299 13.3065L15.2429 13.3606L15.5904 13.7201ZM14.9382 16.0332C14.9362 15.9853 14.9195 15.5718 14.9984 15.0803C15.0789 14.5795 15.2511 14.0481 15.5904 13.7201L15.2429 13.3606C14.7841 13.8041 14.59 14.4702 14.5048 15.001C14.418 15.5411 14.4362 15.9933 14.4386 16.0533L14.9382 16.0332ZM14.9384 16.0396L14.9382 16.0341L14.4385 16.0524L14.4388 16.0579L14.9384 16.0396ZM14.769 16.4631C14.8785 16.3573 14.9386 16.1999 14.9386 16.0488H14.4386C14.4386 16.0602 14.436 16.0737 14.431 16.0863C14.4257 16.0994 14.4206 16.1045 14.4215 16.1036L14.769 16.4631ZM14.3712 16.6236C14.535 16.6236 14.6705 16.5583 14.7689 16.4632L14.4216 16.1036C14.4136 16.1113 14.4063 16.1158 14.3998 16.1185C14.3937 16.1211 14.3849 16.1236 14.3712 16.1236V16.6236ZM9.61019 16.6236H14.3712V16.1236H9.61019V16.6236ZM9.2124 16.4631C9.31642 16.5637 9.47264 16.6236 9.61019 16.6236V16.1236C9.61118 16.1236 9.60869 16.1237 9.60297 16.1225C9.59743 16.1213 9.59072 16.1193 9.58362 16.1165C9.57651 16.1137 9.57039 16.1105 9.56571 16.1076C9.56088 16.1047 9.55922 16.103 9.55989 16.1036L9.2124 16.4631ZM9.0428 16.0488C9.0428 16.1104 9.04898 16.1829 9.0766 16.2586C9.10507 16.3366 9.15114 16.404 9.21251 16.4632L9.55978 16.1035C9.55244 16.0964 9.54912 16.0919 9.54785 16.09C9.54672 16.0883 9.54645 16.0876 9.5463 16.0872C9.54592 16.0861 9.5428 16.0774 9.5428 16.0488H9.0428ZM8.39086 13.7201C8.74126 14.0588 8.91734 14.6131 8.99673 15.124C9.03552 15.3736 9.0494 15.6006 9.05244 15.7655C9.05397 15.8479 9.05276 15.9135 9.0508 15.9572C9.0498 15.9795 9.04871 15.994 9.04797 16.0013C9.04754 16.0056 9.04758 16.004 9.04847 15.9989C9.04881 15.997 9.05028 15.9886 9.0535 15.9774C9.05506 15.972 9.05848 15.9608 9.06451 15.9471C9.06811 15.939 9.0837 15.9032 9.11905 15.869L9.46654 16.2285C9.50218 16.1941 9.51807 16.1578 9.52197 16.149C9.52831 16.1346 9.53203 16.1225 9.53391 16.116C9.53776 16.1027 9.53988 16.0913 9.54089 16.0856C9.5431 16.073 9.54451 16.0607 9.54546 16.0514C9.54746 16.0315 9.54907 16.007 9.5503 15.9796C9.55278 15.924 9.55405 15.8478 9.55236 15.7563C9.54898 15.5732 9.53369 15.3232 9.4908 15.0472C9.40682 14.5068 9.20948 13.816 8.73834 13.3606L8.39086 13.7201ZM6.55961 9.76871C6.55961 11.2872 7.24633 12.7458 8.40248 13.7307L8.72672 13.3501C7.67984 12.4582 7.05961 11.1377 7.05961 9.76871H6.55961ZM12 4.50192C9.01344 4.50192 6.55961 6.86167 6.55961 9.76871H7.05961C7.05961 7.15371 9.27342 5.00192 12 5.00192V4.50192ZM17.4404 9.76871C17.4404 6.86168 14.9866 4.50192 12 4.50192V5.00192C14.7266 5.00192 16.9404 7.15371 16.9404 9.76871H17.4404ZM14.8136 12.8914C14.8054 12.8993 14.7832 12.9205 14.7629 12.9441C14.753 12.9556 14.7379 12.974 14.7241 12.9967C14.7157 13.0103 14.6813 13.0662 14.6813 13.1434H15.1813C15.1813 13.1821 15.1718 13.2111 15.1663 13.2255C15.1603 13.241 15.154 13.252 15.1508 13.2573C15.1445 13.2676 15.14 13.2724 15.1417 13.2705C15.1447 13.2669 15.1505 13.2611 15.1611 13.2509L14.8136 12.8914ZM16.2869 9.75067C16.2869 10.9583 15.7594 12.0972 14.8266 12.8796L15.148 13.2627C16.1942 12.385 16.7869 11.1057 16.7869 9.75067H16.2869ZM11.9814 5.5974C14.3719 5.5974 16.2869 7.46045 16.2869 9.75067H16.7869C16.7869 7.16842 14.6319 5.0974 11.9814 5.0974V5.5974ZM7.67574 9.75067C7.67574 7.46045 9.59082 5.5974 11.9814 5.5974V5.0974C9.33084 5.0974 7.17574 7.16842 7.17574 9.75067H7.67574ZM9.15473 12.8796C8.22001 12.0956 7.67574 10.9558 7.67574 9.75067H7.17574C7.17574 11.1082 7.78895 12.3866 8.8334 13.2627L9.15473 12.8796ZM10.1775 15.7342C10.1678 15.4255 10.1291 14.931 9.98935 14.4095C9.85011 13.8901 9.60534 13.3244 9.16992 12.8935L8.81821 13.2489C9.16691 13.5939 9.37957 14.0658 9.5064 14.539C9.63268 15.0101 9.66872 15.463 9.67772 15.7498L10.1775 15.7342ZM14.0538 15.492H9.92759V15.992H14.0538V15.492ZM14.751 12.9702C14.3462 13.3915 14.1165 13.9375 13.9846 14.4402C13.8522 14.945 13.8136 15.4253 13.8039 15.7342L14.3037 15.7498C14.3126 15.4632 14.3486 15.0232 14.4683 14.567C14.5885 14.1087 14.7882 13.6532 15.1116 13.3166L14.751 12.9702ZM9.7779 17.885C9.71898 17.885 9.67628 17.8385 9.67628 17.7875H9.17628C9.17628 18.1203 9.44843 18.385 9.7779 18.385V17.885ZM14.2221 17.885H9.7779V18.385H14.2221V17.885ZM14.3237 17.7875C14.3237 17.8385 14.281 17.885 14.2221 17.885V18.385C14.5516 18.385 14.8237 18.1203 14.8237 17.7875H14.3237ZM14.2221 17.69C14.281 17.69 14.3237 17.7364 14.3237 17.7875H14.8237C14.8237 17.4547 14.5516 17.19 14.2221 17.19V17.69ZM9.7779 17.69H14.2221V17.19H9.7779V17.69ZM9.67628 17.7875C9.67628 17.7364 9.71898 17.69 9.7779 17.69V17.19C9.44843 17.19 9.17628 17.4547 9.17628 17.7875H9.67628ZM10.5065 19.54C10.5227 19.54 10.5222 19.549 10.5103 19.5338C10.4981 19.5183 10.4838 19.4868 10.4838 19.4425H9.98377C9.98377 19.7126 10.1647 20.04 10.5065 20.04V19.54ZM13.4935 19.54H10.5065V20.04H13.4935V19.54ZM13.5162 19.4425C13.5162 19.4868 13.5019 19.5183 13.4897 19.5338C13.4778 19.549 13.4773 19.54 13.4935 19.54V20.04C13.8353 20.04 14.0162 19.7126 14.0162 19.4425H13.5162ZM13.4935 19.345C13.4773 19.345 13.4778 19.3359 13.4897 19.3511C13.5019 19.3666 13.5162 19.3981 13.5162 19.4425H14.0162C14.0162 19.1723 13.8353 18.845 13.4935 18.845V19.345ZM10.5065 19.345H13.4935V18.845H10.5065V19.345ZM10.4838 19.4425C10.4838 19.3981 10.4981 19.3666 10.5103 19.3511C10.5222 19.3359 10.5227 19.345 10.5065 19.345V18.845C10.1647 18.845 9.98377 19.1723 9.98377 19.4425H10.4838ZM11.5455 5.80922C11.252 5.80922 10.967 6.04645 10.967 6.36337H11.467C11.467 6.36332 11.467 6.36276 11.4673 6.36158C11.4675 6.36035 11.4682 6.35833 11.4695 6.35561C11.4722 6.34995 11.4773 6.34226 11.4859 6.33437C11.504 6.31756 11.5267 6.30922 11.5455 6.30922V5.80922ZM15.9703 9.92599C15.991 7.63801 13.983 5.80922 11.5455 5.80922V6.30922C13.7467 6.30922 15.4882 7.95132 15.4703 9.92145L15.9703 9.92599ZM15.3917 10.4779C15.6852 10.4779 15.9703 10.2406 15.9703 9.92372H15.4703C15.4703 9.92377 15.4703 9.92432 15.47 9.92551C15.4697 9.92673 15.4691 9.92875 15.4678 9.93148C15.4651 9.93714 15.4599 9.94482 15.4514 9.95271C15.4332 9.96953 15.4105 9.97787 15.3917 9.97787V10.4779ZM14.8131 9.92372C14.8131 10.2406 15.0982 10.4779 15.3917 10.4779V9.97787C15.3729 9.97787 15.3502 9.96953 15.332 9.95271C15.3235 9.94482 15.3183 9.93714 15.3156 9.93148C15.3143 9.92875 15.3137 9.92673 15.3134 9.92551C15.3131 9.92432 15.3131 9.92377 15.3131 9.92372H14.8131ZM11.5455 6.91752C13.3772 6.91752 14.8131 8.28964 14.8131 9.92372H15.3131C15.3131 7.97956 13.6181 6.41752 11.5455 6.41752V6.91752ZM10.967 6.36337C10.967 6.68029 11.252 6.91752 11.5455 6.91752V6.41752C11.5267 6.41752 11.504 6.40918 11.4859 6.39236C11.4773 6.38448 11.4722 6.37679 11.4695 6.37113C11.4682 6.3684 11.4675 6.36639 11.4673 6.36516C11.467 6.36397 11.467 6.36342 11.467 6.36337H10.967Z" fill="white"/>
</mask>
<g mask="url(#mask0_38_360)">
</g>
<path fill-rule="evenodd" clip-rule="evenodd" d="M18.1464 4.8131C18.3417 4.61784 18.6583 4.61784 18.8536 4.8131C19.0488 5.00837 19.0488 5.32495 18.8536 5.52021L17.8536 6.52021C17.6583 6.71547 17.3417 6.71547 17.1464 6.52021C16.9512 6.32495 16.9512 6.00837 17.1464 5.8131L18.1464 4.8131Z" fill="#555A62"/>
<path fill-rule="evenodd" clip-rule="evenodd" d="M20.5666 9.2117C20.6003 9.48578 20.4054 9.73525 20.1313 9.76891L18.7276 9.94126C18.4535 9.97491 18.204 9.78 18.1704 9.50592C18.1367 9.23183 18.3316 8.98236 18.6057 8.94871L20.0094 8.77636C20.2835 8.74271 20.533 8.93762 20.5666 9.2117Z" fill="#555A62"/>
<path fill-rule="evenodd" clip-rule="evenodd" d="M4.09727 8.65883L5.50374 8.80665C5.77837 8.83552 5.9776 9.08155 5.94874 9.35618C5.91987 9.63081 5.67384 9.83004 5.39921 9.80117L3.99275 9.65335C3.71812 9.62448 3.51888 9.37845 3.54775 9.10382C3.57661 8.82919 3.82264 8.62996 4.09727 8.65883Z" fill="#555A62"/>
<path fill-rule="evenodd" clip-rule="evenodd" d="M5.09707 4.907C5.27085 4.69239 5.5857 4.6593 5.80031 4.83308L6.89936 5.72308C7.11396 5.89686 7.14705 6.21171 6.97327 6.42631C6.79949 6.64091 6.48464 6.67401 6.27004 6.50022L5.17098 5.61023C4.95638 5.43645 4.92329 5.1216 5.09707 4.907Z" fill="#555A62"/>
</svg>
