<svg width="24" height="24" viewBox="0 0 24 24" fill="none" xmlns="http://www.w3.org/2000/svg">
<path d="M9 4.5V6H15V4.5C15 4.25 15.2188 4 15.5 4C15.75 4 16 4.25 16 4.5V6H17C18.0938 6 19 6.90625 19 8V9V10V18C19 19.125 18.0938 20 17 20H7C5.875 20 5 19.125 5 18V10V9V8C5 6.90625 5.875 6 7 6H8V4.5C8 4.25 8.21875 4 8.5 4C8.75 4 9 4.25 9 4.5ZM6 10V18C6 18.5625 6.4375 19 7 19H17C17.5312 19 18 18.5625 18 18V10H6ZM7 7C6.4375 7 6 7.46875 6 8V9H18V8C18 7.46875 17.5312 7 17 7H7ZM8.25 12C8.09375 12 8 12.125 8 12.25V14.75C8 14.9062 8.09375 15 8.25 15H10.75C10.875 15 11 14.9062 11 14.75V12.25C11 12.125 10.875 12 10.75 12H8.25ZM7 12.25C7 11.5625 7.53125 11 8.25 11H10.75C11.4375 11 12 11.5625 12 12.25V14.75C12 15.4688 11.4375 16 10.75 16H8.25C7.53125 16 7 15.4688 7 14.75V12.25Z" fill="#555A62"/>
</svg>
