<svg xmlns="http://www.w3.org/2000/svg" width="16" height="16" viewBox="0 0 16 16" fill="currentColor">
    <g clip-path="url(#a)">
        <path fill="transparent" d="M0 0h16v16H0z" />
        <g clip-path="url(#b)">
            <path d="M6.41 2.29a.498.498 0 0 0-.907 0L3.856 5.857.291 7.5a.5.5 0 0 0 0 .91l3.565 1.646L5.5 13.62a.498.498 0 0 0 .906 0l1.647-3.566 3.566-1.647a.498.498 0 0 0 0-.906L8.056 5.856 6.41 2.291Z" />
            <path d="M10.234 2.663 12 2l.662-1.766a.362.362 0 0 1 .675 0L14 2l1.766.663c.14.053.234.187.234.337 0 .15-.094.284-.234.337L14 4l-.662 1.766a.362.362 0 0 1-.675 0L12 4l-1.766-.663A.362.362 0 0 1 10 3c0-.15.094-.284.234-.337Zm0 10L12 12l.662-1.766A.362.362 0 0 1 13 10c.15 0 .284.094.338.234L14 12l1.766.662a.362.362 0 0 1 0 .675L14 14l-.662 1.766A.362.362 0 0 1 13 16a.362.362 0 0 1-.338-.234L12 14l-1.766-.662A.362.362 0 0 1 10 13c0-.15.094-.284.234-.338Z" />
        </g>
    </g>
    <defs>
        <clipPath id="a">
            <path fill="#fff" d="M0 0h16v16H0z" />
        </clipPath>
        <clipPath id="b">
            <path fill="#fff" d="M0 0h16v16H0z" />
        </clipPath>
    </defs>
</svg>
