<svg width="24" height="24" viewBox="0 0 24 24" fill="none" xmlns="http://www.w3.org/2000/svg">
    <g clip-path="url(#clip0_1_3)">
        <path fill-rule="evenodd" clip-rule="evenodd"
            d="M10.6502 10.6728V7.62342H13.3501V10.6728L13.0802 15.2469H11.0552L10.6502 10.6728Z" fill="#555A62" />
        <path fill-rule="evenodd" clip-rule="evenodd" d="M10.6502 16.5175H13.3501V19.0587H10.6502V16.5175Z"
            fill="#555A62" />
        <path fill-rule="evenodd" clip-rule="evenodd"
            d="M23.8683 21.2059L12.9951 0.602152C12.8895 0.402214 12.7269 0.238639 12.5281 0.132508C11.9785 -0.160944 11.2965 0.0493227 11.0047 0.602152L0.131512 21.2059C0.0451554 21.3696 0 21.552 0 21.7372C0 22.3632 0.504428 22.8706 1.12667 22.8706H22.8731C23.0573 22.8706 23.2386 22.8252 23.4013 22.7384C23.9509 22.4448 24.16 21.7588 23.8683 21.2059ZM1.74071 21.3706L11.9999 1.93031L22.2591 21.3706H1.74071Z"
            fill="#555A62" />
    </g>
    <defs>
        <clipPath id="clip0_1_3">
            <rect width="24" height="24" fill="white" />
        </clipPath>
    </defs>
</svg>
