<svg width="24" height="24" viewBox="0 0 24 24" fill="none" xmlns="http://www.w3.org/2000/svg">
<path d="M16 13.5C16.25 13.5 16.5 13.2812 16.5 13V6.625L14.375 4.5H10C9.71875 4.5 9.5 4.75 9.5 5V13C9.5 13.2812 9.71875 13.5 10 13.5H16ZM10 15C8.875 15 8 14.125 8 13V5C8 3.90625 8.875 3 10 3H14.375C14.75 3 15.1562 3.1875 15.4375 3.46875L17.5312 5.5625C17.8125 5.84375 18 6.25 18 6.625V13C18 14.125 17.0938 15 16 15H10ZM6 7H7V8.5H6C5.71875 8.5 5.5 8.75 5.5 9V17C5.5 17.2812 5.71875 17.5 6 17.5H12C12.25 17.5 12.5 17.2812 12.5 17V16H14V17C14 18.125 13.0938 19 12 19H6C4.875 19 4 18.125 4 17V9C4 7.90625 4.875 7 6 7Z"
    fill="currentColor"/>
</svg>
