<svg width="24px" height="21px" viewBox="0 0 24 21" xmlns="http://www.w3.org/2000/svg">
    <g stroke="none" stroke-width="1" fill="none" fill-rule="evenodd">
        <g fill="#000000" fill-rule="nonzero">
            <path d="M20.901996,7.404876 C19.6946717,6.46554006 18.2740685,5.8388783 16.76634,5.58054 C16.016088,2.480652 12.002796,0.47586 8.677956,0.47586 L8.677956,0.47586 C3.981156,0.47586 0.085284,3.499116 0.085284,7.362852 C0.106685716,8.95174133 0.751682666,10.4685717 1.881192,11.586264 L1.282968,14.021184 C1.19512768,14.3814471 1.32396246,14.7599749 1.61334101,14.9918488 C1.90271955,15.2237226 2.30022877,15.2669448 2.63268,15.102684 L5.403792,13.735668 C5.7664628,13.8528559 6.13535808,13.9498249 6.508776,14.026128 C6.92805424,15.2611854 7.70185903,16.3453719 8.733576,17.14332 C10.4752682,18.4817185 12.6184119,19.1917438 14.814696,19.158 C15.9265661,19.1616356 17.0318794,18.9876395 18.08886,18.642588 L20.859972,20.009604 L21.61146,16.493184 C22.7374116,15.3730803 23.3817613,13.8577719 23.407368,12.269772 C23.3676878,10.3484169 22.4430787,8.55302402 20.901996,7.404876 Z M5.340756,12.382248 L2.209968,14.248608 L3.154272,11.282208 C1.99759119,10.3089002 1.32469824,8.8782124 1.312632,7.36656 C1.312632,4.088688 4.459488,1.70568 8.677956,1.70568 C12.896424,1.70568 15.305388,4.160376 15.305388,5.38896 C15.305388,5.397612 15.3264,5.416152 15.335052,5.428512 C15.160776,5.421096 14.991444,5.387724 14.814696,5.387724 C12.6161715,5.35303079 10.4706406,6.06356091 8.727396,7.40364 C7.18495831,8.55284631 6.26018908,10.3503751 6.222024,12.27348 C6.222024,12.439104 6.238092,12.60102 6.251688,12.76788 C5.971116,12.654168 5.705376,12.519444 5.340756,12.382248 Z M20.618952,15.755292 L20.487936,15.878892 L19.993536,18.209988 L18.1692,17.317596 L17.922,17.404116 C16.9244082,17.7599228 15.8725968,17.9397554 14.81346,17.935596 C12.8953118,17.9687248 11.0223038,17.3523744 9.49866,16.186656 C8.24921026,15.2676085 7.49316463,13.823917 7.449372,12.27348 C7.49174058,10.7238885 8.24651408,9.28046967 9.494952,8.36154 C11.0187111,7.19617603 12.8917355,6.58025593 14.809752,6.613836 C16.7281069,6.57934082 18.6015533,7.19583537 20.124552,8.362776 C21.3729431,9.28119238 22.1277561,10.7242307 22.170132,12.27348 C22.1500616,13.5971747 21.589641,14.8551068 20.618952,15.755292 L20.618952,15.755292 Z" id="Shape"></path>
        </g>
    </g>
</svg>
