<svg width="24px" height="24px" viewBox="0 0 24 24" xmlns="http://www.w3.org/2000/svg">
    <g stroke="none" stroke-width="1" fill="none" fill-rule="evenodd">
        <g transform="translate(1.000000, 1.000000)">
            <path d="M11.521119,14.2403274 L11.521119,13.8166194 C11.5001618,13.3922114 11.6032207,12.9708824 11.8177146,12.6040668 C12.1496445,12.1684885 12.5444277,11.7846249 12.9891426,11.46504 C13.5112899,11.0797217 13.9949858,10.6448545 14.4334884,10.1664996 C14.9918687,9.53103097 15.2892495,8.70789154 15.26595,7.8622758 C15.3123623,6.90850882 14.9125992,5.98739558 14.1842484,5.3698758 C13.3478756,4.72922668 12.3101826,4.40837275 11.2581708,4.4651346 C9.82505168,4.45981082 8.41502357,4.82605745 7.16565,5.5281432 L7.9557408,7.1855892 C8.43661237,6.94724182 8.93336563,6.74237794 9.4424574,6.5724588 C9.97756638,6.40101644 10.536791,6.31685925 11.0986572,6.3232188 C11.6368968,6.287866 12.1710747,6.43734787 12.6127902,6.7469268 C12.9715344,7.0441323 13.1672916,7.49442032 13.1399328,7.9594794 C13.1510413,8.37195134 13.0381741,8.77827337 12.8159208,9.1259226 C12.3996406,9.64739732 11.9131568,10.1087182 11.3703288,10.4967426 C10.8417267,10.8782656 10.3943694,11.3612081 10.0543416,11.9174106 C9.78670062,12.4508583 9.65810506,13.0432552 9.6804816,13.639659 L9.6804816,14.2415736 L11.5236114,14.2415736 L11.521119,14.2403274 Z M10.673703,18.693 C11.0577341,18.717357 11.43367,18.575246 11.7055566,18.3029394 C11.9580203,18.0096114 12.0874878,17.6301375 12.0669546,17.2436694 C12.0917155,16.8606742 11.9630255,16.4835723 11.7092952,16.1956152 C11.4323891,15.9311484 11.056954,15.795449 10.6749492,15.8217552 C10.2887767,15.7747165 9.90279178,15.9107156 9.6314002,16.189442 C9.36000871,16.4681684 9.23434918,16.8576422 9.2916672,17.2424232 C9.26714847,17.6314279 9.39547984,18.0146334 9.6493266,18.3104166 C9.92125125,18.5778554 10.2943573,18.7165801 10.6749492,18.6917538 L10.673703,18.693 Z" id="Shape" fill="#000000" fill-rule="nonzero"></path>
            <circle id="Oval" stroke="#000000" stroke-width="1.3496346" cx="11.2158" cy="11.2158" r="10.8008154"></circle>
        </g>
    </g>
</svg>
