<svg width="24px" height="24px" viewBox="0 0 24 24" xmlns="http://www.w3.org/2000/svg">
    <g stroke="none" stroke-width="1" fill="none" fill-rule="evenodd">
        <g>
            <g transform="translate(3.000000, 3.000000)">
                <g transform="translate(0.000000, 1.000000)" fill="#555A62" fill-rule="nonzero">
                    <path d="M1.1,1.0702 L1.1,15.5649 L16.5,15.5649 L16.5,1.0691 L1.1,1.0691 L1.1,1.0702 Z M0.9493,0.0351 L16.6507,0.0351 C17.1754,0.0351 17.6,0.4597 17.6,0.9844 L17.6,15.6507 C17.6,16.1754 17.1754,16.6 16.6507,16.6 L0.9493,16.6 C0.4246,16.6 0,16.1754 0,15.6507 L0,0.9844 C0,0.4597 0.4246,0.0351 0.9493,0.0351 Z" id="Shape"></path>
                </g>
                <g transform="translate(2.200000, 5.500000)" fill="#555A62" fill-rule="nonzero">
                    <path d="M0.6985,6.0401 L0.6985,6.7364 C0.6985,6.9652 0.8844,7.15 1.1121,7.15 L1.8062,7.15 C2.035,7.15 2.2209,6.9652 2.2209,6.7364 L2.2209,6.0401 C2.2209,5.8113 2.035,5.6254 1.8062,5.6254 L1.1132,5.6254 C0.8844,5.6254 0.6985,5.8113 0.6985,6.0401 Z" id="Path"></path>
                    <path d="M0.6985,3.5079 L0.6985,4.2042 C0.6985,4.433 0.8844,4.6189 1.1121,4.6189 L1.8062,4.6189 C2.035,4.6189 2.2209,4.433 2.2209,4.2042 L2.2209,3.5079 C2.2209,3.2791 2.035,3.0943 1.8062,3.0943 L1.1132,3.0943 C0.8833,3.0943 0.6985,3.2791 0.6985,3.5068 L0.6985,3.5079 Z M4.3835,3.0932 L3.6905,3.0932 C3.4617,3.0932 3.2769,3.278 3.2769,3.5068 L3.2769,4.2031 C3.2769,4.4319 3.4617,4.6167 3.6905,4.6167 L4.3835,4.6167 C4.6134,4.6167 4.7982,4.4319 4.7982,4.2031 L4.7982,3.5068 C4.7982,3.278 4.6134,3.0932 4.3846,3.0932 L4.3835,3.0932 Z M4.3835,0.6083 L3.6905,0.6083 C3.4617,0.6083 3.2769,0.7931 3.2769,1.0219 L3.2769,1.7182 C3.2769,1.947 3.4617,2.1329 3.6905,2.1329 L4.3835,2.1329 C4.6134,2.1329 4.7982,1.947 4.7982,1.7182 L4.7982,1.0219 C4.7982,0.7931 4.6134,0.6083 4.3846,0.6083 L4.3835,0.6083 Z M6.9619,3.0932 L6.2689,3.0932 C6.0401,3.0932 5.8542,3.278 5.8542,3.5068 L5.8542,4.2031 C5.8542,4.4319 6.0401,4.6167 6.2689,4.6167 L6.9619,4.6167 C7.1907,4.6167 7.3766,4.4319 7.3766,4.2031 L7.3766,3.5068 C7.3766,3.278 7.1907,3.0932 6.9619,3.0932 L6.9619,3.0932 Z M6.9619,0.6083 L6.2689,0.6083 C6.0401,0.6083 5.8542,0.7931 5.8542,1.0219 L5.8542,1.7182 C5.8542,1.947 6.0401,2.1329 6.2689,2.1329 L6.9619,2.1329 C7.1907,2.1329 7.3766,1.947 7.3766,1.7182 L7.3766,1.0219 C7.3766,0.7931 7.1907,0.6083 6.9619,0.6083 Z M9.4369,3.0932 L8.9485,3.0932 C8.6625,3.0932 8.4315,3.3242 8.4315,3.6102 L8.4315,4.0997 C8.4315,4.3857 8.6625,4.6167 8.9485,4.6167 L9.4358,4.6167 C9.7218,4.6167 9.9528,4.3857 9.9528,4.0997 L9.9528,3.6102 C9.9528,3.3242 9.7218,3.0932 9.4358,3.0932 L9.4369,3.0932 Z M9.4369,0.6083 L8.9485,0.6083 C8.6625,0.6083 8.4315,0.8393 8.4315,1.1253 L8.4315,1.6148 C8.4315,1.9008 8.6625,2.1318 8.9485,2.1318 L9.4358,2.1318 C9.7218,2.1318 9.9528,1.9008 9.9528,1.6148 L9.9528,1.1253 C9.9528,0.8393 9.7218,0.6083 9.4358,0.6083 L9.4369,0.6083 Z M12.1176,3.0932 L11.4246,3.0932 C11.1958,3.0932 11.0099,3.278 11.0099,3.5068 L11.0099,4.2031 C11.0099,4.4319 11.1958,4.6167 11.4246,4.6167 L12.1176,4.6167 C12.3464,4.6167 12.5323,4.4319 12.5323,4.2031 L12.5323,3.5068 C12.5323,3.278 12.3464,3.0932 12.1176,3.0932 L12.1176,3.0932 Z M12.1176,0.6083 L11.4246,0.6083 C11.1958,0.6083 11.0099,0.7931 11.0099,1.0219 L11.0099,1.7182 C11.0099,1.947 11.1958,2.1329 11.4246,2.1329 L12.1176,2.1329 C12.3464,2.1329 12.5323,1.947 12.5323,1.7182 L12.5323,1.0219 C12.5323,0.7931 12.3464,0.6083 12.1176,0.6083 Z" id="Shape"></path>
                    <path d="M4.3835,5.6243 L3.6905,5.6243 C3.4617,5.6243 3.2769,5.8102 3.2769,6.0379 L3.2769,6.7342 C3.2769,6.963 3.4617,7.1489 3.6905,7.1489 L4.3835,7.1489 C4.6134,7.1489 4.7982,6.963 4.7982,6.7342 L4.7982,6.0379 C4.7982,5.8102 4.6134,5.6243 4.3846,5.6243 L4.3835,5.6243 Z M6.9619,5.6243 L6.2689,5.6243 C6.0401,5.6243 5.8542,5.8102 5.8542,6.0379 L5.8542,6.7342 C5.8542,6.963 6.0401,7.1489 6.2689,7.1489 L6.9619,7.1489 C7.1907,7.1489 7.3766,6.963 7.3766,6.7342 L7.3766,6.0379 C7.3766,5.8102 7.1907,5.6243 6.9619,5.6243 Z M9.4369,5.6243 L8.9485,5.6243 C8.6625,5.6243 8.4315,5.8553 8.4315,6.1413 L8.4315,6.6308 C8.4315,6.9168 8.6625,7.1478 8.9485,7.1478 L9.4358,7.1478 C9.7218,7.1478 9.9528,6.9168 9.9528,6.6308 L9.9528,6.1424 C9.9528,5.8564 9.7218,5.6243 9.4358,5.6243 L9.4369,5.6243 Z M12.1176,5.6243 L11.4246,5.6243 C11.1958,5.6243 11.0099,5.8102 11.0099,6.0379 L11.0099,6.7342 C11.0099,6.963 11.1958,7.1489 11.4246,7.1489 L12.1176,7.1489 C12.3464,7.1489 12.5323,6.963 12.5323,6.7342 L12.5323,6.0379 C12.5323,5.8102 12.3464,5.6243 12.1176,5.6243 Z M0.6985,8.4964 L0.6985,9.1927 C0.6985,9.4215 0.8844,9.6063 1.1121,9.6063 L1.8062,9.6063 C2.035,9.6063 2.2209,9.4215 2.2209,9.1927 L2.2209,8.4964 C2.2209,8.2676 2.035,8.0817 1.8062,8.0817 L1.1132,8.0817 C0.8844,8.0817 0.6985,8.2676 0.6985,8.4964 Z M4.3835,8.0806 L3.6905,8.0806 C3.4617,8.0806 3.2769,8.2654 3.2769,8.4942 L3.2769,9.1905 C3.2769,9.4193 3.4617,9.6052 3.6905,9.6052 L4.3835,9.6052 C4.6134,9.6052 4.7982,9.4193 4.7982,9.1905 L4.7982,8.4942 C4.7982,8.2654 4.6134,8.0806 4.3846,8.0806 L4.3835,8.0806 Z M6.9619,8.0806 L6.2689,8.0806 C6.0401,8.0806 5.8542,8.2654 5.8542,8.4942 L5.8542,9.1905 C5.8542,9.4193 6.0401,9.6052 6.2689,9.6052 L6.9619,9.6052 C7.1907,9.6052 7.3766,9.4193 7.3766,9.1905 L7.3766,8.4942 C7.3766,8.2654 7.1907,8.0806 6.9619,8.0806 L6.9619,8.0806 Z" id="Shape"></path>
                </g>
                <line x1="1.0351" y1="4.1415" x2="16.5649" y2="4.1415" id="Path" stroke="#555A62" stroke-width="1.0351" stroke-linecap="square"></line>
                <g transform="translate(2.200000, 0.000000)" fill="#555A62" fill-rule="nonzero">
                    <path d="M0.9064,2.3023 L0.9064,0.8085 C0.9064,0.3421 1.2793,0 1.7138,0 C2.1483,0 2.5212,0.374 2.5212,0.8085 L2.5212,2.3023 C2.5212,2.7687 2.1483,3.1108 1.7138,3.1108 C1.2793,3.1108 0.9064,2.7368 0.9064,2.3023 Z M5.6276,2.3023 L5.6276,0.8085 C5.6276,0.3421 6.0005,0 6.435,0 C6.8695,0 7.2424,0.374 7.2424,0.8085 L7.2424,2.3023 C7.2424,2.7687 6.8695,3.1108 6.435,3.1108 C6.0005,3.1108 5.6276,2.7368 5.6276,2.3023 Z M10.3488,2.3023 L10.3488,0.8085 C10.3488,0.3421 10.7206,0 11.1562,0 C11.5907,0 11.9636,0.374 11.9636,0.8085 L11.9636,2.3023 C11.9636,2.7687 11.5896,3.1108 11.1562,3.1108 C10.7206,3.1108 10.3488,2.7368 10.3488,2.3023 Z" id="Shape"></path>
                </g>
            </g>
            <rect x="0" y="0" width="24" height="24"></rect>
        </g>
    </g>
</svg>