<svg xmlns="http://www.w3.org/2000/svg" viewBox="0 0 24 24" width="24" height="24">
    <path
        d="M14.24,22.642a.536.536,0,0,1,0,1.042H9.76a.536.536,0,0,1,0-1.042Zm1.093-2.482a.521.521,0,1,1,0,1.042H8.667a.521.521,0,1,1,0-1.042ZM12,1.128a7.678,7.678,0,0,1,7.786,7.525,7.483,7.483,0,0,1-2.577,5.576l-.084.082c-1.232,1.19-1.092,3.735-1.092,3.762a.506.506,0,0,1-.14.352.472.472,0,0,1-.336.135H8.415a.527.527,0,0,1-.336-.135.439.439,0,0,1-.14-.352c.028-.027.14-2.571-1.092-3.762A7.483,7.483,0,0,1,4.214,8.653,7.678,7.678,0,0,1,12,1.128Zm-.028.893A6.713,6.713,0,0,0,5.139,8.626a6.5,6.5,0,0,0,2.352,4.98,6.156,6.156,0,0,1,1.4,4.007h6.19a6.179,6.179,0,0,1,1.316-3.9c0-.027.056-.081.084-.108a6.48,6.48,0,0,0,2.324-4.981A6.713,6.713,0,0,0,11.972,2.021ZM11.318,3.09a6.016,6.016,0,0,1,6.262,5.8.494.494,0,0,1-.985,0A5.094,5.094,0,0,0,11.318,4a.491.491,0,0,1-.493-.456.491.491,0,0,1,.493-.456Z"
        fill="currentColor"
        stroke="currentColor"
        stroke-width="0.5px"
    />
    <path
        d="M21.75,1.75l-1.5,1.5m3.856,4.659L22,8.167M.068,7.734l2.11.222m.05-6.123L3.877,3.167"
        fill="none"
        stroke="currentColor"
        stroke-linecap="round"
        stroke-width="1.5px"
    />
</svg>
