<svg width="24" height="24" viewBox="0 0 24 24" fill="none" xmlns="http://www.w3.org/2000/svg">
<path d="M17.5 5H6.5C5.65625 5 5 5.6875 5 6.5V17.5C5 18.3438 5.65625 19 6.5 19H17.5C18.3125 19 19 18.3438 19 17.5V6.5C19 5.6875 18.3125 5 17.5 5ZM10 15.5C10 15.7812 9.75 16 9.5 16H8.5C8.21875 16 8 15.7812 8 15.5V11.5C8 11.25 8.21875 11 8.5 11H9.5C9.75 11 10 11.25 10 11.5V15.5ZM13 15.5C13 15.7812 12.75 16 12.5 16H11.5C11.2188 16 11 15.7812 11 15.5V8.5C11 8.25 11.2188 8 11.5 8H12.5C12.75 8 13 8.25 13 8.5V15.5ZM16 15.5C16 15.7812 15.75 16 15.5 16H14.5C14.2188 16 14 15.7812 14 15.5V13.5C14 13.25 14.2188 13 14.5 13H15.5C15.75 13 16 13.25 16 13.5V15.5Z" fill="#777A80"/>
</svg>
