<svg width="24" height="24" viewBox="0 0 24 24" fill="none" xmlns="http://www.w3.org/2000/svg">
    <path d="M10.8542 19.2355C10.943 19.1634 11.0045 19.0631 11.0283 18.9512C11.042 18.8869 11.0428 18.8205 11.0309 18.7559C11.0189 18.6913 10.9942 18.6297 10.9584 18.5746C10.9226 18.5195 10.8763 18.472 10.8221 18.4348C10.7679 18.3976 10.7069 18.3715 10.6426 18.3579C9.5267 18.12 8.49339 17.5918 7.64708 16.8266C6.80076 16.0614 6.17143 15.0864 5.82269 14H7.5C7.63261 14 7.75979 13.9473 7.85355 13.8536C7.94732 13.7598 8 13.6326 8 13.5C8 13.3674 7.94732 13.2402 7.85355 13.1464C7.75979 13.0527 7.63261 13 7.5 13H4.5C4.43433 13 4.36929 13.0129 4.30861 13.038C4.24793 13.0631 4.1928 13.0999 4.14636 13.1464C4.09992 13.1928 4.0631 13.2479 4.03798 13.3086C4.01287 13.3693 3.99996 13.4343 4 13.5V16.5C4 16.6326 4.05268 16.7598 4.14645 16.8536C4.24021 16.9473 4.36739 17 4.5 17C4.63261 17 4.75979 16.9473 4.85355 16.8536C4.94732 16.7598 5 16.6326 5 16.5V14.6503C5.44016 15.8247 6.16873 16.8695 7.11861 17.6884C8.06849 18.5073 9.20915 19.074 10.4355 19.3364C10.4699 19.3436 10.5049 19.3472 10.54 19.3472C10.6544 19.3469 10.7653 19.3075 10.8542 19.2355Z" fill="#555A62"/>
    <path d="M13.1458 4.76455C13.057 4.83661 12.9955 4.93695 12.9717 5.04883C12.958 5.11312 12.9572 5.17947 12.9691 5.24408C12.9811 5.3087 13.0058 5.37032 13.0416 5.42542C13.0774 5.48052 13.1237 5.52801 13.1779 5.56519C13.2321 5.60237 13.2931 5.6285 13.3574 5.64209C14.4733 5.87998 15.5066 6.40822 16.3529 7.17342C17.1992 7.93861 17.8286 8.91365 18.1773 10H16.5C16.3674 10 16.2402 10.0527 16.1464 10.1464C16.0527 10.2402 16 10.3674 16 10.5C16 10.6326 16.0527 10.7598 16.1464 10.8536C16.2402 10.9473 16.3674 11 16.5 11H19.5C19.5657 11 19.6307 10.9871 19.6914 10.962C19.7521 10.9369 19.8072 10.9001 19.8536 10.8536C19.9001 10.8072 19.9369 10.7521 19.962 10.6914C19.9871 10.6307 20 10.5657 20 10.5V7.5C20 7.36739 19.9473 7.24022 19.8536 7.14645C19.7598 7.05268 19.6326 7 19.5 7C19.3674 7 19.2402 7.05268 19.1464 7.14645C19.0527 7.24022 19 7.36739 19 7.5V9.34967C18.5598 8.1753 17.8313 7.13055 16.8814 6.31163C15.9315 5.49272 14.7908 4.92597 13.5645 4.66357C13.5301 4.65638 13.4951 4.65278 13.46 4.65283C13.3456 4.65306 13.2347 4.69249 13.1458 4.76455Z" fill="#555A62"/>
    <mask id="path-2-inside-1_813_14529" fill="white">
    <rect x="4" y="4" width="6" height="6" rx="1"/>
    </mask>
    <rect x="4" y="4" width="6" height="6" rx="1" stroke="#555A62" stroke-width="2.4" mask="url(#path-2-inside-1_813_14529)"/>
    <mask id="path-3-inside-2_813_14529" fill="white">
    <rect x="14" y="14" width="6" height="6" rx="1"/>
    </mask>
    <rect x="14" y="14" width="6" height="6" rx="1" stroke="#555A62" stroke-width="2.4" mask="url(#path-3-inside-2_813_14529)"/>
</svg>
