<svg width="24" height="24" viewBox="0 0 24 24" fill="none" xmlns="http://www.w3.org/2000/svg">
<path d="M7.75 18.6875C7.54167 18.8958 7.29167 19 7 19C6.70833 19 6.45833 18.8958 6.25 18.6875L3.5 15.6875C3.3125 15.4583 3.22917 15.2188 3.25 14.9688C3.27083 14.6979 3.375 14.4583 3.5625 14.25C3.79167 14.0625 4.03125 13.9792 4.28125 14C4.55208 14.0208 4.79167 14.125 5 14.3125L6 15.4375V6C6 5.70833 6.09375 5.46875 6.28125 5.28125C6.46875 5.09375 6.70833 5 7 5C7.29167 5 7.53125 5.09375 7.71875 5.28125C7.90625 5.46875 8 5.70833 8 6V15.4375L9 14.3125C9.20833 14.125 9.44792 14.0208 9.71875 14C9.96875 13.9792 10.2083 14.0625 10.4375 14.25C10.625 14.4583 10.7292 14.6875 10.75 14.9375C10.7708 15.2083 10.6875 15.4583 10.5 15.6875L7.75 18.6875ZM13 19C12.7083 19 12.4688 18.9062 12.2812 18.7188C12.0938 18.5312 12 18.2917 12 18C12 17.7083 12.0938 17.4688 12.2812 17.2812C12.4688 17.0938 12.7083 17 13 17H14C14.2917 17 14.5312 17.0938 14.7188 17.2812C14.9062 17.4688 15 17.7083 15 18C15 18.2917 14.9062 18.5312 14.7188 18.7188C14.5312 18.9062 14.2917 19 14 19H13ZM13 15C12.7083 15 12.4688 14.9062 12.2812 14.7188C12.0938 14.5312 12 14.2917 12 14C12 13.7083 12.0938 13.4688 12.2812 13.2812C12.4688 13.0938 12.7083 13 13 13H16C16.2917 13 16.5312 13.0938 16.7188 13.2812C16.9062 13.4688 17 13.7083 17 14C17 14.2917 16.9062 14.5312 16.7188 14.7188C16.5312 14.9062 16.2917 15 16 15H13ZM13 11C12.7083 11 12.4688 10.9062 12.2812 10.7188C12.0938 10.5312 12 10.2917 12 10C12 9.70833 12.0938 9.46875 12.2812 9.28125C12.4688 9.09375 12.7083 9 13 9H18C18.2917 9 18.5312 9.09375 18.7188 9.28125C18.9062 9.46875 19 9.70833 19 10C19 10.2917 18.9062 10.5312 18.7188 10.7188C18.5312 10.9062 18.2917 11 18 11H13ZM13 7C12.7083 7 12.4688 6.90625 12.2812 6.71875C12.0938 6.53125 12 6.29167 12 6C12 5.70833 12.0938 5.46875 12.2812 5.28125C12.4688 5.09375 12.7083 5 13 5H20C20.2917 5 20.5312 5.09375 20.7188 5.28125C20.9062 5.46875 21 5.70833 21 6C21 6.29167 20.9062 6.53125 20.7188 6.71875C20.5312 6.90625 20.2917 7 20 7H13Z" fill="#555A62"/>
</svg>
