<svg width="24" height="24" viewBox="0 0 24 24" fill="none" xmlns="http://www.w3.org/2000/svg">
<path fill-rule="evenodd" clip-rule="evenodd" d="M19.5001 17.6825C17.539 15.8954 16.5 14.0019 16.5 12V9C16.5 6.68941 15.0997 4.86785 12.7965 4.55247H11.2035C8.9003 4.86785 7.5 6.68941 7.5 9V12C7.5 14.0019 6.46098 15.8954 4.5 17.6824V18.5001L19.5001 18.5001V17.6825ZM3.5 20.0001C3.22386 20.0001 3 19.7762 3 19.5001V17.2319C3 17.0861 3.06366 16.9475 3.1743 16.8525C5.05811 15.235 6 13.6175 6 12V9C6 6.26139 7.66667 3.52277 11 3.06634V2.95837C11 2.42908 11.3038 2 11.6771 2H12.3229C12.6968 2 13 2.42214 13 2.95105V3.06634C16.3333 3.52277 18 6.26139 18 9V12C18 13.6175 18.9419 15.2351 20.8258 16.8526C20.9364 16.9476 21.0001 17.0862 21.0001 17.232V19.5001C21.0001 19.7762 20.7762 20.0001 20.5001 20.0001L14 20.0001C14 21.1046 13.1045 22 12 22C10.8955 22 10 21.1046 10 20.0001L3.5 20.0001Z" fill="#555A62"/>
<path d="M3 3L22 21" stroke="#555A62" stroke-width="1.5" stroke-linecap="round"/>
</svg>
