<svg width="24" height="24" viewBox="0 0 24 24" fill="none" xmlns="http://www.w3.org/2000/svg">
<g id="data/Trash">
<path id="Shape" fill-rule="evenodd" clip-rule="evenodd" d="M11 9.875V16.625C11 16.8321 10.8321 17 10.625 17H9.875C9.66791 17 9.5 16.8321 9.5 16.625V9.875C9.5 9.66791 9.66791 9.5 9.875 9.5H10.625C10.8321 9.5 11 9.66791 11 9.875ZM14.125 9.5H13.375C13.1679 9.5 13 9.66791 13 9.875V16.625C13 16.8321 13.1679 17 13.375 17H14.125C14.3321 17 14.5 16.8321 14.5 16.625V9.875C14.5 9.66791 14.3321 9.5 14.125 9.5ZM18.25 6.5C18.6642 6.5 19 6.83578 19 7.25V7.625C19 7.83209 18.8321 8 18.625 8H18V18.5C18 19.3284 17.3284 20 16.5 20H7.5C6.67156 20 6 19.3284 6 18.5V8H5.375C5.16791 8 5 7.83209 5 7.625V7.25C5 6.83578 5.33578 6.5 5.75 6.5H8.07534L9.13841 4.72825C9.40949 4.27644 9.89776 3.99999 10.4247 4H13.5754C14.1023 3.99999 14.5905 4.27644 14.8616 4.72825L15.9247 6.5H18.25ZM9.82466 6.5H14.1754L13.63 5.59103C13.5961 5.53456 13.5351 5.5 13.4692 5.5H10.5308C10.465 5.5 10.4039 5.53456 10.3701 5.59103L9.82466 6.5ZM16.5 8H7.5V18.3125C7.5 18.4161 7.58395 18.5 7.6875 18.5H16.3125C16.4161 18.5 16.5 18.4161 16.5 18.3125V8Z" fill="#555A62"/>
</g>
</svg>
