<svg width="16" height="16" viewBox="0 0 16 16" fill="none" xmlns="http://www.w3.org/2000/svg">
<path d="M8.4046 2.15828L11.4284 5.15975C11.6665 5.39424 11.6665 5.74597 11.4284 5.95701C11.2141 6.1915 10.857 6.1915 10.6189 5.95701L8.54746 3.91695V9.68539C8.54746 10.0137 8.30936 10.2482 7.97603 10.2482C7.6665 10.2482 7.4046 10.0137 7.4046 9.68539V3.91695L5.33317 5.95701C5.11888 6.1915 4.76174 6.1915 4.54746 5.95701C4.30936 5.74597 4.30936 5.39424 4.54746 5.15975L7.59508 2.15828C7.80936 1.94724 8.1665 1.94724 8.4046 2.15828ZM3.80936 10.0606V11.9365C3.80936 12.4758 4.21412 12.8745 4.76174 12.8745H11.2379C11.7617 12.8745 12.1903 12.4758 12.1903 11.9365V10.0606C12.1903 9.75574 12.4284 9.4978 12.7617 9.4978C13.0713 9.4978 13.3332 9.75574 13.3332 10.0606V11.9365C13.3332 13.0855 12.3808 14 11.2379 14H4.76174C3.59508 14 2.6665 13.0855 2.6665 11.9365V10.0606C2.6665 9.75574 2.9046 9.4978 3.23793 9.4978C3.54746 9.4978 3.80936 9.75574 3.80936 10.0606Z" fill="currentColor"/>
</svg>
