<svg width="24" height="24" viewBox="0 0 24 24" fill="none" xmlns="http://www.w3.org/2000/svg">
    <path
        d="M1.14725 4.86553C0.889649 4.38316 0.975515 3.78019 1.36191 3.37821C1.7483 3.01643 2.39229 2.89583 2.90749 3.09682L22.1413 10.8148C22.6565 11.0158 23 11.4982 23 11.9806C23 12.5031 22.6565 12.9855 22.1413 13.1865L2.90749 20.9045C2.39229 21.1055 1.7483 20.9849 1.36191 20.5829C0.975515 20.181 0.889649 19.6182 1.14725 19.1358L4.96826 11.9806L1.14725 4.86553ZM6.17037 12.6237L2.39229 19.6986L19.9947 12.6237H6.17037ZM19.9947 11.3374L2.39229 4.26256L6.17037 11.3374H19.9947Z"
        fill="#555A62" />
</svg>