<svg width="24" height="24" viewBox="0 0 24 24" fill="none" xmlns="http://www.w3.org/2000/svg">
<path fill-rule="evenodd" clip-rule="evenodd" d="M13.5753 10.3975C14.9696 11.7918 15.0592 14.0077 13.8413 15.5052C13.671 15.7162 13.7654 15.6107 11.5233 17.8527C10.0306 19.3454 7.61349 19.3467 6.12005 17.8527C4.62696 16.3602 4.62634 13.9432 6.12005 12.4495C7.01444 11.5551 7.53465 11.0331 7.85051 10.7177C8.05418 10.5143 8.40535 10.6535 8.40958 10.9413C8.41466 11.2891 8.4581 11.6353 8.5391 11.9736C8.56547 12.0836 8.53168 12.1993 8.45172 12.2792L7.20048 13.5302C6.30658 14.4246 6.30298 15.8742 7.20048 16.7723C8.09492 17.6662 9.54451 17.6698 10.4426 16.7723L12.4946 14.72C13.3874 13.827 13.3891 12.3727 12.4946 11.4782C12.3134 11.2967 12.1029 11.147 11.8719 11.0353C11.7458 10.9744 11.676 10.8375 11.6929 10.6984C11.7299 10.3949 11.8647 10.1011 12.0972 9.86863L12.2166 9.74923C12.3155 9.65028 12.467 9.62386 12.5921 9.68663C12.9469 9.86467 13.2795 10.1017 13.5753 10.3975ZM17.8527 6.12001C16.3592 4.62599 13.9421 4.62733 12.4494 6.12001C10.2073 8.36208 10.3017 8.25658 10.1314 8.46753C8.91347 9.96504 9.00315 12.1809 10.3974 13.5752C10.6932 13.871 11.0258 14.1081 11.3806 14.2861C11.5056 14.3489 11.6571 14.3224 11.7561 14.2235L11.8755 14.1041C12.108 13.8716 12.2428 13.5779 12.2798 13.2743C12.2968 13.1353 12.2269 12.9983 12.1008 12.9374C11.8698 12.8258 11.6593 12.6761 11.4781 12.4945C10.5836 11.6 10.5853 10.1458 11.4781 9.25268L13.5301 7.20044C14.4282 6.30294 15.8778 6.30654 16.7722 7.20044C17.6697 8.09851 17.6661 9.5481 16.7722 10.4425L15.521 11.6935C15.441 11.7735 15.4073 11.8892 15.4336 11.9991C15.5146 12.3374 15.5581 12.6836 15.5631 13.0315C15.5674 13.3193 15.9186 13.4584 16.1222 13.255C16.4381 12.9396 16.9583 12.4177 17.8527 11.5233C19.3464 10.0295 19.3457 7.61255 17.8527 6.12001Z" fill="#555A62"/>
</svg>
