<svg width="24" height="24" viewBox="0 0 24 24" fill="none" xmlns="http://www.w3.org/2000/svg">
<path d="M17.23 11.58H8.97998" stroke="#555A62" stroke-linecap="round" stroke-linejoin="round"/>
<path d="M18.94 8.79999H5.00995C4.42453 8.79999 3.94995 9.27457 3.94995 9.85999V13.27C3.94995 13.8554 4.42453 14.33 5.00995 14.33H18.94C19.5254 14.33 20 13.8554 20 13.27V9.85999C20 9.27457 19.5254 8.79999 18.94 8.79999Z" stroke="#555A62" stroke-width="1.5" stroke-linecap="round"/>
<path d="M6.54002 12.4C6.99842 12.4 7.37002 12.0284 7.37002 11.57C7.37002 11.1116 6.99842 10.74 6.54002 10.74C6.08163 10.74 5.71002 11.1116 5.71002 11.57C5.71002 12.0284 6.08163 12.4 6.54002 12.4Z" fill="#555A62"/>
</svg>
