<svg width="24" height="24" viewBox="0 0 24 24" fill="none" xmlns="http://www.w3.org/2000/svg">
<path fill-rule="evenodd" clip-rule="evenodd" d="M12.0375 15.1575L10.4375 16.7575C9.5375 17.6575 8.0875 17.6575 7.1975 16.7575C6.2975 15.8575 6.3075 14.4075 7.1975 13.5175L8.7975 11.9175L7.7175 10.8375C7.4075 11.1375 6.6675 11.8875 6.1175 12.4375C4.6275 13.9275 4.6275 16.3475 6.1175 17.8375C7.6075 19.3375 10.0275 19.3375 11.5175 17.8375C12.0675 17.2875 12.8075 16.5475 13.1175 16.2375L12.0375 15.1575ZM17.8475 6.1175C16.3575 4.6275 13.9375 4.6275 12.4475 6.1175C11.8975 6.6675 11.1375 7.4275 10.8275 7.7275L11.9175 8.8175L13.5275 7.1975C14.4275 6.2975 15.8775 6.3075 16.7675 7.1975C17.6575 8.0875 17.6675 9.5475 16.7675 10.4375L15.1675 12.0375C15.1675 12.0375 15.1575 12.0475 15.1575 12.0575L16.2375 13.1375C16.5475 12.8275 17.2975 12.0675 17.8475 11.5175C19.3475 10.0275 19.3475 7.6075 17.8475 6.1175Z" fill="#555A62"/>
<path d="M6.21753 6.14746L17.7475 17.8175" stroke="#555A62" stroke-width="1.5" stroke-linecap="round"/>
</svg>
