<svg width="24" height="24" viewBox="0 0 24 24" fill="none" xmlns="http://www.w3.org/2000/svg">
<path d="M17.46 10.37H13.13" stroke="#555A62" stroke-linecap="round" stroke-linejoin="round"/>
<path d="M17.46 12.9H13.13" stroke="#555A62" stroke-linecap="round" stroke-linejoin="round"/>
<path d="M18.65 6.85999H5.35998C4.59783 6.85999 3.97998 7.47783 3.97998 8.23998V14.88C3.97998 15.6421 4.59783 16.26 5.35998 16.26H18.65C19.4121 16.26 20.03 15.6421 20.03 14.88V8.23998C20.03 7.47783 19.4121 6.85999 18.65 6.85999Z" stroke="#555A62" stroke-width="1.5" stroke-linecap="round"/>
<path d="M11 8.65997H6.48001C6.1155 8.65997 5.82001 8.95547 5.82001 9.31997V13.84C5.82001 14.2045 6.1155 14.5 6.48001 14.5H11C11.3645 14.5 11.66 14.2045 11.66 13.84V9.31997C11.66 8.95547 11.3645 8.65997 11 8.65997Z" fill="#555A62"/>
</svg>
