<svg width="24" height="24" viewBox="0 0 24 24" fill="none" xmlns="http://www.w3.org/2000/svg">
<path d="M12.7734 3.49969C12.6094 3.19501 12.3515 3.03094 12 3.00751C11.6484 3.03094 11.3906 3.19501 11.2265 3.49969L8.83592 8.45673L3.42186 9.26532C3.09374 9.31219 2.87108 9.49969 2.75389 9.82782C2.66014 10.1559 2.73046 10.4372 2.96483 10.6716L6.86717 14.5388L5.91796 20.0231C5.89452 20.3513 6.02342 20.6208 6.30467 20.8317C6.58592 21.0192 6.86717 21.0427 7.14842 20.902L12 18.3356L16.8164 20.902C17.0976 21.0427 17.3906 21.0192 17.6953 20.8317C17.9765 20.6208 18.0937 20.3513 18.0469 20.0231L17.1328 14.5388L21.0351 10.6716C21.2695 10.4372 21.3398 10.1559 21.2461 9.82782C21.1289 9.49969 20.8945 9.31219 20.543 9.26532L15.164 8.45673L12.7734 3.49969Z" fill="currentColor"/>
</svg>
