<svg width="24" height="24" viewBox="0 0 24 24" fill="none" xmlns="http://www.w3.org/2000/svg">
<path d="M12 3.00751C12.3515 3.03094 12.6094 3.19501 12.7734 3.49969L15.164 8.45673L20.543 9.26532C20.8945 9.31219 21.1289 9.49969 21.2461 9.82782C21.3398 10.1559 21.2695 10.4372 21.0351 10.6716L17.1328 14.5388L18.0469 20.0231C18.0937 20.3513 17.9765 20.6208 17.6953 20.8317C17.3906 21.0192 17.0976 21.0427 16.8164 20.902L12 18.3356L7.14842 20.902C6.86717 21.0427 6.58592 21.0192 6.30467 20.8317C6.02342 20.6208 5.89452 20.3513 5.91796 20.0231L6.86717 14.5388L2.96483 10.6716C2.73046 10.4372 2.66014 10.1559 2.75389 9.82782C2.87108 9.49969 3.09374 9.31219 3.42186 9.26532L8.83592 8.45673L11.2265 3.49969C11.3906 3.19501 11.6484 3.03094 12 3.00751ZM12 5.78485L10.1367 9.58173C10.0195 9.83954 9.80858 10.0036 9.50389 10.0739L5.35546 10.6716L8.37889 13.6599C8.56639 13.8708 8.64842 14.1169 8.62499 14.3981L7.88671 18.6169L11.6133 16.6481C11.8711 16.5075 12.1289 16.5075 12.3867 16.6481L16.0781 18.6169L15.375 14.3981C15.3281 14.1169 15.4101 13.8708 15.6211 13.6599L18.6445 10.6716L14.4961 10.0739C14.1914 10.0036 13.9805 9.83954 13.8633 9.58173L12 5.78485Z" fill="currentColor"/>
</svg>
