<svg width="24" height="24" viewBox="0 0 24 24" fill="none" xmlns="http://www.w3.org/2000/svg">
<path d="M11.625 2.75C11.9766 2.77344 12.2344 2.9375 12.3984 3.24219L14.7891 8.19922L20.168 9.00781C20.5195 9.05469 20.7539 9.24219 20.8711 9.57031C20.9648 9.89844 20.8945 10.1797 20.6602 10.4141L16.7578 14.2812L17.6719 19.7656C17.7188 20.0938 17.6016 20.3633 17.3203 20.5742C17.0156 20.7617 16.7227 20.7852 16.4414 20.6445L11.625 18.0781L6.77344 20.6445C6.49219 20.7852 6.21094 20.7617 5.92969 20.5742C5.64844 20.3633 5.51953 20.0938 5.54297 19.7656L6.49219 14.2812L2.58984 10.4141C2.35547 10.1797 2.28516 9.89844 2.37891 9.57031C2.49609 9.24219 2.71875 9.05469 3.04688 9.00781L8.46094 8.19922L10.8516 3.24219C11.0156 2.9375 11.2734 2.77344 11.625 2.75ZM11.625 5.52734L9.76172 9.32422C9.64453 9.58203 9.43359 9.74609 9.12891 9.81641L4.98047 10.4141L8.00391 13.4023C8.19141 13.6133 8.27344 13.8594 8.25 14.1406L7.51172 18.3594L11.2383 16.3906C11.4961 16.25 11.7539 16.25 12.0117 16.3906L15.7031 18.3594L15 14.1406C14.9531 13.8594 15.0352 13.6133 15.2461 13.4023L18.2695 10.4141L14.1211 9.81641C13.8164 9.74609 13.6055 9.58203 13.4883 9.32422L11.625 5.52734Z" fill="currentColor"/>
</svg>
