 <svg viewBox="0 0 17 17">
    <g fillRule="evenodd" fill="currentcolor" opacity="1">
        <g>
            <path d="M14.1418278,11.6145695 L14.5698865,3.86419454 C14.5728848,3.8063455 14.5758832,3.74849646 14.5509139,3.72172018 L14.5539122,3.66387114 C14.5264527,3.63442445 14.5569105,3.6060221 14.529451,3.57657541 C14.5019915,3.54712872 14.5019915,3.54712872 14.5049898,3.48927968 L14.4500709,3.4303863 L14.3427568,3.31530605 L14.2354427,3.20022579 L14.1805238,3.14133242 C14.1530643,3.11188573 14.1530643,3.11188573 14.095147,3.1108414 C14.0676875,3.08139471 14.0372297,3.10979706 14.0097703,3.08035037 C14.0097703,3.08035037 13.9823108,3.05090368 13.951853,3.07930604 C13.8939357,3.0782617 13.8664762,3.04881501 13.8110492,3.05044109 L6.0517059,3.00011505 C5.65160825,2.99290069 5.29447569,3.3259322 5.27372575,3.72559328 C5.25297581,4.12525436 5.57498901,4.47049641 5.97512031,4.47774685 L12.0030594,4.58643967 L3.24062083,12.7575458 C2.94160443,13.0363831 2.91816541,13.4886123 3.18774617,13.7777023 C3.45732693,14.0667923 3.91008955,14.0749563 4.20910595,13.796119 L12.9688198,5.6275537 L12.6652468,11.5353634 C12.6417369,11.9875913 12.9662029,12.3355386 13.3638477,12.3400477 C13.7639453,12.3472621 14.1210779,12.0142306 14.1418278,11.6145695 L14.1418278,11.6145695 Z"></path>
        </g>
    </g>
</svg>