<svg xmlns="http://www.w3.org/2000/svg" width="24" height="24" viewBox="0 0 24 24">
    <g fill="none" fill-rule="evenodd">
        <g fill="#555A62">
            <g>
                <g>
                    <path d="M12.323 2c.374 0 .677.422.677.951v.115c3.334.457 5 3.196 5 5.934v3c0 1.618.942 3.235 2.826 4.853.11.095.174.233.174.379V19.5c0 .276-.224.5-.5.5l-6.5.001C14 21.105 13.104 22 12 22c-1.105 0-2-.895-2-2H3.5c-.245 0-.45-.177-.492-.41L3 19.5v-2.268c0-.146.064-.285.174-.38C5.058 15.236 6 13.619 6 12V9c0-2.739 1.667-5.477 5-5.934v-.108c0-.529.304-.958.677-.958h.646z" transform="translate(-669 -1157) translate(661 1145) translate(8 12)"/>
                </g>
            </g>
        </g>
    </g>
</svg>
