<svg xmlns="http://www.w3.org/2000/svg" width="24" height="24" viewBox="0 0 24 24">
    <g fill="none" fill-rule="evenodd">
        <g fill="#555A62">
            <g>
                <path d="M11.469 15.47c-2.795-.313-4.73-3.017-4.06-5.8l4.06 5.8zM12 16.611c-3.561 0-6.67-1.9-8.333-4.722.755-1.282 1.809-2.373 3.067-3.183L5.778 7.34c-1.452.946-2.67 2.214-3.547 3.703-.308.522-.308 1.17 0 1.692 1.957 3.32 5.607 5.543 9.769 5.543.46 0 .92-.028 1.377-.082l-1.112-1.589c-.088.003-.177.004-.265.004zm9.77-3.876c-1.155 1.958-2.897 3.533-4.985 4.496l1.67 2.387c.132.189.087.448-.102.58l-.72.504c-.189.132-.448.087-.58-.102L5.545 4.16c-.132-.189-.087-.449.102-.58l.72-.505c.189-.132.448-.086.58.103l1.928 2.754C9.868 5.651 10.917 5.5 12 5.5c4.162 0 7.812 2.222 9.77 5.543.307.522.307 1.17 0 1.692zm-1.437-.846C18.8 9.287 16.04 7.469 12.828 7.2c-.34.35-.55.828-.55 1.355 0 1.073.87 1.944 1.944 1.944 1.074 0 1.945-.87 1.945-1.944v-.002c1.063 1.989.58 4.523-1.283 5.963l.927 1.324c1.905-.808 3.491-2.203 4.522-3.952z" transform="translate(-320 -300) translate(320 300)"/>
            </g>
        </g>
    </g>
</svg>
