<svg width="60" height="60" viewBox="0 0 60 60" fill="none" xmlns="http://www.w3.org/2000/svg">
<g clip-path="url(#clip0_739_77)">
<path d="M29.0237 60C31.8227 57.1975 33.395 53.3985 33.395 49.4376C33.395 45.4767 31.8227 41.6777 29.0237 38.8752L9.55435 19.4614L0.698902 28.3168C0.477374 28.5376 0.301604 28.7999 0.18167 29.0887C0.0617367 29.3776 0 29.6872 0 30C0 30.3127 0.0617367 30.6224 0.18167 30.9112C0.301604 31.2001 0.477374 31.4624 0.698902 31.6831L29.0157 60H29.0237Z" fill="currentcolor"/>
<path d="M57.3403 28.3168L29.0156 0L28.9284 0.0871292C26.1532 2.89333 24.602 6.68419 24.6138 10.6309C24.6257 14.5776 26.1998 18.3591 28.9918 21.1485L48.4849 40.5386L57.3403 31.6832C57.5619 31.4624 57.7376 31.2001 57.8576 30.9112C57.9775 30.6224 58.0392 30.3127 58.0392 30C58.0392 29.6873 57.9775 29.3776 57.8576 29.0887C57.7376 28.7999 57.5619 28.5376 57.3403 28.3168Z" fill="currentcolor"/>
<path d="M29.0237 21.1249C26.2338 18.3333 24.6626 14.5507 24.6537 10.604C24.6448 6.65728 26.1989 2.86758 28.9762 0.0634766L8.75439 20.2694L19.3207 30.8358L29.0237 21.1328V21.1249Z" fill="url(#paint0_linear_739_77)"/>
<path d="M38.7106 29.212L29.0234 38.8754C31.8225 41.6779 33.3948 45.4769 33.3948 49.4378C33.3948 53.3987 31.8225 57.1977 29.0234 60.0002L49.2769 39.7467L38.7106 29.212Z" fill="url(#paint1_linear_739_77)"/>
</g>
<defs>
<linearGradient id="paint0_linear_739_77" x1="28.5485" y1="11.0417" x2="16.295" y2="23.2952" gradientUnits="userSpaceOnUse">
<stop offset="0.07" stop-color="currentcolor" stop-opacity="0.4"/>
<stop offset="1" stop-color="currentcolor"/>
</linearGradient>
<linearGradient id="paint1_linear_739_77" x1="29.7918" y1="48.6655" x2="43.2096" y2="35.2477" gradientUnits="userSpaceOnUse">
<stop offset="0.07" stop-color="currentcolor" stop-opacity="0.4"/>
<stop offset="0.91" stop-color="currentcolor"/>
</linearGradient>
<clipPath id="clip0_739_77">
<rect width="60" height="60" fill="currentcolor"/>
</clipPath>
</defs>
</svg>
