<svg width="60" height="60" viewBox="0 0 60 60" xmlns="http://www.w3.org/2000/svg">
<path id="&#239;&#160;&#187;" d="M23.2904 30.0404H20.8556C20.9492 29.5722 21.1365 28.7294 22.1667 28.7294C22.7285 28.7294 23.2904 29.104 23.2904 30.0404ZM36.12 28.7294C36.12 28.7294 34.809 28.5421 34.809 30.6023C34.809 32.6625 36.12 32.4753 36.12 32.4753C37.3374 32.4753 37.4311 31.2578 37.4311 30.6023C37.4311 28.5421 36.2137 28.7294 36.12 28.7294ZM13.3638 30.9769C13.1766 31.1642 12.9893 31.3515 13.0829 31.6324C13.0829 32.1007 13.2702 32.1943 13.3638 32.288C13.8321 32.6625 14.7685 32.4753 15.3304 32.3816V30.7896C14.7685 30.696 13.7384 30.6023 13.3638 30.9769ZM60 28.7294C60 36.9703 52.5082 43.2447 44.4546 41.559C42.769 44.6494 37.8057 48.2079 32.0932 45.4922C28.2537 54.4823 15.4241 54.1077 12.0528 44.9303C0.815161 47.1778 -4.71001 32.007 5.02927 26.2946C1.75163 18.8965 7.18315 10 15.705 10C19.3572 10.0936 22.7285 11.7793 24.9761 14.5887C26.849 12.6221 29.5648 11.3111 32.5615 11.3111C36.4946 11.3111 39.9596 13.5586 41.8325 16.8362C50.5417 12.9967 60 19.4583 60 28.7294ZM11.3036 31.7261C11.3036 30.696 10.1799 30.3214 9.61797 30.1341C9.14974 29.9468 8.40056 29.8531 8.40056 29.2913C8.40056 28.4484 9.99256 28.7294 10.7417 29.104C10.7417 29.104 10.8354 29.1976 10.8354 29.104C10.929 29.0103 11.1163 28.4484 11.1163 28.3548C11.1163 28.3548 11.1163 28.2611 11.0227 28.2611C9.89891 27.512 7.2768 27.4183 7.2768 29.4786C7.2768 30.6023 8.30691 30.8833 8.96244 31.0706C9.33703 31.1642 10.1799 31.3515 10.1799 31.8197C10.1799 32.1943 9.80526 32.5689 9.33703 32.5689C8.6815 32.5689 8.02597 32.288 7.55774 31.9134C7.46409 31.9134 7.37044 31.8197 7.37044 32.007L7.18315 32.6625C7.0895 32.7562 7.18315 32.8498 7.18315 32.8498C7.2768 32.9435 8.11962 33.4117 9.33703 33.4117C10.5544 33.4117 11.3036 32.7562 11.3036 31.7261ZM14.3003 27.7929C13.3638 27.7929 12.521 28.0739 12.3337 28.2611C12.2401 28.2611 12.2401 28.2611 12.2401 28.3548L12.521 29.0103C12.521 29.104 12.6147 29.104 12.6147 29.104C12.7083 29.104 13.2702 28.7294 14.2067 28.7294C14.5813 28.7294 14.8622 28.823 15.0495 28.9167C15.4241 29.1976 15.3304 29.7595 15.3304 29.9468C14.8622 29.9468 13.5511 29.6658 12.6147 30.3214C12.1464 30.6023 11.8655 31.1642 11.9591 31.6324C11.9591 32.1943 12.0528 32.6625 12.521 33.0371C13.6448 33.7863 15.8923 33.2244 16.0796 33.1308C16.2669 33.1308 16.4542 33.0371 16.4542 32.9435V29.7595C16.4542 29.3849 16.4542 27.7929 14.3003 27.7929ZM18.7017 25.8263C18.7017 25.7327 18.6081 25.7327 18.6081 25.7327C18.6081 25.7327 18.6081 25.7327 18.5144 25.7327H17.6716C17.578 25.7327 17.578 25.7327 17.578 25.7327C17.4843 25.7327 17.4843 25.7327 17.4843 25.8263V33.2244C17.4843 33.2244 17.4843 33.2244 17.578 33.3181C17.578 33.3181 17.578 33.3181 17.6716 33.3181H18.5144C18.6081 33.3181 18.6081 33.3181 18.6081 33.3181C18.6081 33.2244 18.7017 33.2244 18.7017 33.2244V25.8263ZM23.8523 28.5421C23.665 28.2611 23.1968 27.7929 22.2603 27.7929C21.8857 27.7929 20.8556 27.7929 20.2937 28.6357C19.7318 29.3849 19.6382 30.3214 19.6382 30.6023C19.6382 30.9769 19.6382 32.007 20.2937 32.6625C20.5747 32.9435 21.1365 33.4117 22.4476 33.4117C23.4777 33.4117 24.0396 33.2244 24.2269 33.0371C24.2269 33.0371 24.2269 32.9435 24.2269 32.8498L24.0396 32.1943C23.9459 32.1943 23.9459 32.1943 23.8523 32.1943C23.665 32.288 23.2904 32.4753 22.4476 32.4753C20.8556 32.4753 20.8556 31.0706 20.8556 30.8833H24.3205C24.4142 30.8833 24.4142 30.7896 24.4142 30.7896C24.4142 30.7896 24.6015 29.3849 23.8523 28.5421ZM27.3172 33.4117C28.5346 33.4117 29.2838 32.7562 29.2838 31.7261C29.2838 30.6023 28.2537 30.3214 27.5982 30.1341C27.2236 29.9468 26.3808 29.8531 26.3808 29.2913C26.3808 28.9167 26.6617 28.7294 27.2236 28.7294C27.6918 28.7294 28.2537 28.823 28.7219 29.104C28.7219 29.104 28.8156 29.1976 28.9092 29.104C28.9092 29.0103 29.0965 28.4484 29.0965 28.3548C29.1902 28.3548 29.0965 28.2611 29.0965 28.2611C28.3473 27.7929 27.5045 27.7929 27.2236 27.7929C26.0998 27.7929 25.257 28.4484 25.257 29.4786C25.257 30.6023 26.3808 30.8833 26.9426 31.0706C27.5045 31.2578 28.1601 31.3515 28.1601 31.8197C28.1601 32.1943 27.8791 32.4753 27.3172 32.4753C26.6617 32.4753 26.0062 32.288 25.5379 31.9134H25.4443C25.4443 31.9134 25.3506 31.9134 25.3506 32.007L25.1634 32.6625C25.0697 32.7562 25.1634 32.8498 25.1634 32.8498C25.3506 32.9435 26.1935 33.4117 27.3172 33.4117ZM33.4979 27.9802C33.4979 27.9802 33.4043 27.8866 33.3106 27.8866H32.2805C32.2805 27.8866 32.3742 27.0437 32.6551 26.7628C33.0297 26.3882 33.7789 26.5755 33.7789 26.5755C33.8725 26.6691 33.9662 26.5755 33.9662 26.5755L34.2471 25.8263C34.2471 25.7327 34.2471 25.7327 34.1535 25.7327C33.6852 25.5454 32.5615 25.4517 31.9059 26.1073C31.344 26.5755 31.2504 27.4183 31.1568 27.8866H30.3139L30.2203 27.9802L30.1266 28.7294C30.1266 28.823 30.1266 28.823 30.2203 28.823H30.9695C30.2203 33.3181 30.1266 33.599 30.033 34.0673C29.9393 34.4418 29.7521 34.7228 29.4711 34.8164C29.4711 34.8164 29.0965 34.9101 28.5346 34.7228C28.5346 34.7228 28.441 34.7228 28.441 34.8164C28.441 34.9101 28.1601 35.472 28.1601 35.5656C28.1601 35.5656 28.1601 35.6593 28.2537 35.6593C28.7219 35.8465 29.4711 35.8465 29.8457 35.6593C30.5012 35.472 30.7822 34.9101 30.9695 34.4418C31.2504 33.6927 31.2504 33.5054 32.0932 28.823H33.217C33.3106 28.823 33.3106 28.823 33.3106 28.7294L33.4979 27.9802ZM38.4612 29.4786C38.3676 29.3849 37.993 27.7929 36.12 27.7929C34.7153 27.7929 33.9662 28.7294 33.7789 29.4786C33.6852 29.7595 33.4043 30.7896 33.7789 31.7261C33.7789 31.7261 34.1535 33.4117 36.12 33.4117C37.5247 33.4117 38.2739 32.5689 38.4612 31.7261C38.7422 30.7896 38.5549 29.7595 38.4612 29.4786ZM42.6753 27.9802C42.2071 27.7929 41.177 27.7929 40.6151 28.4484V28.0739C40.6151 27.9802 40.6151 27.9802 40.6151 27.9802H40.5214H39.6786C39.585 27.9802 39.585 27.9802 39.585 27.9802C39.585 27.9802 39.4913 27.9802 39.585 28.0739V33.2244C39.4913 33.2244 39.585 33.3181 39.585 33.3181C39.585 33.3181 39.585 33.3181 39.6786 33.3181H40.5214C40.6151 33.3181 40.6151 33.3181 40.6151 33.3181L40.7087 33.2244V30.6023C40.7087 30.3214 40.7087 29.5722 41.0833 29.1976C41.5516 28.7294 42.2071 28.9167 42.3007 28.9167C42.3944 28.9167 42.488 28.9167 42.488 28.823C42.5817 28.6357 42.6753 28.3548 42.769 28.0739C42.769 28.0739 42.769 27.9802 42.6753 27.9802ZM47.0767 33.0371L46.8894 32.3816C46.8894 32.1943 46.7958 32.288 46.7958 32.288C46.3276 32.4753 45.8593 32.4753 45.672 32.4753C45.2974 32.4753 44.08 32.3816 44.08 30.6023C44.08 30.0404 44.2673 28.7294 45.672 28.7294C46.0466 28.7294 46.3276 28.823 46.7021 28.9167C46.7021 28.9167 46.7958 28.9167 46.7958 28.823C46.8894 28.6357 46.9831 28.4484 47.0767 28.1675C47.0767 28.0739 46.9831 28.0739 46.9831 28.0739C45.953 27.6993 44.9228 27.7929 44.361 28.0739C44.2673 28.0739 42.8626 28.6357 42.8626 30.6023C42.8626 30.8833 42.8626 33.4117 45.5784 33.4117C46.1403 33.4117 46.6085 33.3181 47.0767 33.1308V33.0371ZM52.1337 29.2913C52.04 29.0103 51.6654 27.7929 50.0734 27.7929C48.5751 27.7929 47.8259 28.7294 47.6386 29.5722C47.545 29.9468 47.4513 30.3214 47.4513 30.6023C47.4513 33.0371 49.2306 33.4117 50.2607 33.4117C51.2908 33.4117 51.8527 33.2244 52.04 33.0371C52.04 33.0371 52.1337 32.9435 52.04 32.8498L51.8527 32.1943C51.8527 32.1943 51.7591 32.1943 51.6654 32.1943C51.4781 32.288 51.1035 32.4753 50.2607 32.4753C48.6687 32.4753 48.6687 31.0706 48.6687 30.8833H52.1337C52.2273 30.8833 52.2273 30.7896 52.2273 30.7896C52.2273 30.7896 52.321 30.1341 52.1337 29.2913ZM49.9798 28.7294C48.9497 28.7294 48.7624 29.5722 48.6687 30.0404H51.1972C51.1035 28.9167 50.448 28.7294 49.9798 28.7294Z" fill="currentColor"/>
</svg>
