<svg width="60" height="60" viewBox="0 0 60 60" fill="none" xmlns="http://www.w3.org/2000/svg">
<path id="&#239;&#130;&#155;" d="M19.9597 47.1774C19.9597 46.9355 19.7177 46.6935 19.3548 46.6935C18.9919 46.6935 18.75 46.9355 18.75 47.1774C18.75 47.4194 18.9919 47.6613 19.3548 47.5403C19.7177 47.5403 19.9597 47.4194 19.9597 47.1774ZM16.2097 46.5726C16.3306 46.3306 16.6935 46.2097 17.0565 46.3306C17.4194 46.4516 17.5403 46.6935 17.5403 46.9355C17.4194 47.1774 17.0565 47.2984 16.8145 47.1774C16.4516 47.1774 16.2097 46.8145 16.2097 46.5726ZM21.6532 46.4516C21.8952 46.3306 22.2581 46.5726 22.2581 46.8145C22.379 47.0564 22.1371 47.1774 21.7742 47.2984C21.4113 47.4194 21.0484 47.2984 21.0484 47.0564C21.0484 46.6935 21.2903 46.4516 21.6532 46.4516ZM29.5161 0C46.3306 0 60 12.8226 60 29.5161C60 42.9435 51.7742 54.4355 39.6774 58.4274C38.1048 58.7903 37.5 57.8226 37.5 56.9758C37.5 56.0081 37.621 50.9274 37.621 46.9355C37.621 44.0323 36.6532 42.2177 35.5645 41.25C42.3387 40.5242 49.4758 39.5564 49.4758 27.9435C49.4758 24.5565 48.2661 22.9839 46.3306 20.8065C46.5726 19.9597 47.6613 16.8145 45.9677 12.5806C43.4274 11.7339 37.621 15.8468 37.621 15.8468C35.2016 15.121 32.6613 14.879 30 14.879C27.4597 14.879 24.9194 15.121 22.5 15.8468C22.5 15.8468 16.5726 11.8548 14.1532 12.5806C12.4597 16.8145 13.4274 19.9597 13.7903 20.8065C11.8548 22.9839 10.8871 24.5565 10.8871 27.9435C10.8871 39.5564 17.7823 40.5242 24.5565 41.25C23.5887 42.0968 22.8629 43.4274 22.621 45.3629C20.8065 46.2097 16.4516 47.5403 13.7903 42.8226C12.0968 39.9194 9.07258 39.6774 9.07258 39.6774C6.16935 39.6774 8.95161 41.6129 8.95161 41.6129C10.8871 42.4597 12.2177 45.9677 12.2177 45.9677C14.0323 51.4113 22.5 49.5968 22.5 49.5968C22.5 52.1371 22.5 56.25 22.5 57.0968C22.5 57.8226 22.0161 58.7903 20.4435 58.5484C8.34677 54.4355 0 42.9435 0 29.5161C0 12.8226 12.8226 0 29.5161 0ZM11.7339 41.7339C11.8548 41.6129 12.0968 41.7339 12.3387 41.8548C12.5806 42.0968 12.5806 42.4597 12.4597 42.5806C12.2177 42.7016 11.9758 42.5806 11.7339 42.4597C11.6129 42.2177 11.4919 41.8548 11.7339 41.7339ZM10.4032 40.7661C10.5242 40.6452 10.6452 40.6452 10.8871 40.7661C11.129 40.8871 11.25 41.0081 11.25 41.129C11.129 41.371 10.8871 41.371 10.6452 41.25C10.4032 41.129 10.2823 41.0081 10.4032 40.7661ZM14.2742 45.121C14.5161 44.879 14.879 45 15.121 45.2419C15.3629 45.4839 15.3629 45.8468 15.2419 45.9677C15.121 46.2097 14.7581 46.0887 14.5161 45.8468C14.1532 45.6048 14.1532 45.2419 14.2742 45.121ZM12.9435 43.3064C13.1855 43.1855 13.4274 43.3064 13.6694 43.5484C13.7903 43.7903 13.7903 44.1532 13.6694 44.2742C13.4274 44.3952 13.1855 44.2742 12.9435 44.0323C12.7016 43.7903 12.7016 43.4274 12.9435 43.3064Z" fill="currentColor"/>
</svg>
