<svg width="60" height="60" viewBox="0 0 60 60" xmlns="http://www.w3.org/2000/svg">
<path id="Vector" fill-rule="evenodd" clip-rule="evenodd" d="M28.5996 14.1635V32.7257H13.2231L28.5996 14.1635Z" fill="currentColor"/>
<path id="Vector_2" fill-rule="evenodd" clip-rule="evenodd" d="M28.5996 7.5C28.5996 11.7463 25.1576 15.1882 20.9113 15.1882C16.665 15.1882 13.2231 11.7463 13.2231 7.5H28.5996Z" fill="currentColor"/>
<path id="Vector_3" fill-rule="evenodd" clip-rule="evenodd" d="M31.1333 32.7246C31.1333 28.4784 34.5752 25.0365 38.8213 25.0365C43.0677 25.0365 46.508 28.4784 46.508 32.7246H31.1333Z" fill="currentColor"/>
<path id="Vector_4" fill-rule="evenodd" clip-rule="evenodd" d="M31.1338 26.0638V7.5H46.5085L31.1338 26.0638Z" fill="currentColor"/>
<path id="Vector_5" fill-rule="evenodd" clip-rule="evenodd" d="M41.5658 45.4828C41.4032 44.4351 40.7773 43.6639 39.5258 43.6639C38.3626 43.6639 37.5568 44.3244 37.3418 45.4828H41.5658ZM39.7216 48.6071C40.7061 48.6071 41.4221 48.2023 41.852 47.7788L42.909 48.9183C42.209 49.6356 41.2434 50.1684 39.7408 50.1684C37.1632 50.1684 35.4976 48.4599 35.4976 46.1434C35.4976 43.8471 37.2533 42.1199 39.5069 42.1199C42.0653 42.1199 43.516 44.0668 43.3912 46.769H37.3418C37.5568 47.8895 38.3437 48.6071 39.7216 48.6071Z" fill="currentColor"/>
<path id="Vector_6" fill-rule="evenodd" clip-rule="evenodd" d="M0 48.521L4.65557 43.7914H0.107462V42.3074H6.81426V43.8213L2.15711 48.5528H6.87589V50.0352H0V48.521Z" fill="currentColor"/>
<path id="Vector_7" fill-rule="evenodd" clip-rule="evenodd" d="M13.9483 45.4828C13.7855 44.4351 13.1597 43.6639 11.9065 43.6639C10.7434 43.6639 9.93903 44.3244 9.7241 45.4828H13.9483ZM12.104 48.6071C13.0886 48.6071 13.8044 48.2023 14.2343 47.7788L15.2899 48.9183C14.5914 49.6356 13.6259 50.1684 12.123 50.1684C9.54396 50.1684 7.87988 48.4599 7.87988 46.1434C7.87988 43.8471 9.63562 42.1199 11.8891 42.1199C14.4476 42.1199 15.8983 44.0668 15.7719 46.769H9.7241C9.93903 47.8895 10.726 48.6071 12.104 48.6071Z" fill="currentColor"/>
<path id="Vector_8" fill-rule="evenodd" clip-rule="evenodd" d="M32.3755 46.1329C32.3755 44.758 31.3357 43.6297 29.9229 43.6297C28.5416 43.6297 27.4704 44.7265 27.4704 46.1329C27.4704 47.5393 28.5416 48.6534 29.9229 48.6534C31.3357 48.6534 32.3755 47.5236 32.3755 46.1329ZM25.8252 46.1486C25.8252 43.6756 27.6709 42.1284 29.7064 42.1284C30.7304 42.1284 31.7085 42.5772 32.2824 43.2884V38.7276H33.9275V50.014H32.2824V48.9457C31.6928 49.7044 30.7147 50.1673 29.6907 50.1673C27.72 50.1673 25.8252 48.606 25.8252 46.1486Z" fill="currentColor"/>
<path id="Vector_9" fill-rule="evenodd" clip-rule="evenodd" d="M44.4624 48.3759L45.9509 47.6031C46.3715 48.3143 47.0541 48.7316 47.9392 48.7316C48.8699 48.7316 49.352 48.2527 49.352 47.7121C49.352 47.0927 48.4512 46.9537 47.4728 46.7529C46.1533 46.4748 44.788 46.0417 44.788 44.4505C44.788 43.2289 45.9509 42.1004 47.7843 42.1164C49.2269 42.1164 50.2968 42.6868 50.9037 43.6145L49.5211 44.3729C49.1653 43.8311 48.5603 43.4911 47.7843 43.4911C46.8992 43.4911 46.4488 43.9241 46.4488 44.4188C46.4488 44.9751 47.1632 45.13 48.2805 45.3764C49.5541 45.6545 50.9971 46.0719 50.9971 47.6807C50.9971 48.7473 50.0661 50.1855 47.86 50.1695C46.2467 50.1695 45.1136 49.5201 44.4624 48.3759Z" fill="currentColor"/>
<path id="Vector_10" fill-rule="evenodd" clip-rule="evenodd" d="M55.4644 46.5818L54.1607 48.0039V50.014H52.5156V38.7292H54.1607V46.1188L57.6532 42.285H59.6556L56.6276 45.5924L59.733 50.014H57.8698L55.4644 46.5818Z" fill="currentColor"/>
<path id="Vector_11" fill-rule="evenodd" clip-rule="evenodd" d="M20.8552 42.1277C18.9004 42.1277 17.2632 43.3952 17.2632 45.497V50.012H18.9383V45.7071C18.9383 44.4381 19.6668 43.6797 20.9089 43.6797C22.1495 43.6797 22.7721 44.4381 22.7721 45.7071V50.012H24.4488V45.497C24.4488 43.3952 22.81 42.1277 20.8552 42.1277Z" fill="currentColor"/>
</svg>
