<svg xmlns="http://www.w3.org/2000/svg" width="24" height="24" viewBox="0 0 24 24">
    <g fill="none" fill-rule="evenodd">
        <g fill="#555A62">
            <g>
                <path d="M20.5 5c.828 0 1.5.672 1.5 1.5v11c0 .828-.672 1.5-1.5 1.5h-17c-.828 0-1.5-.672-1.5-1.5v-11C2 5.672 2.672 5 3.5 5h17zm0 2.339l-4.695 3.653.015.016S19.225 15.82 19 16c-.186.15-3.047-2.671-4.023-3.643l-.323-.323c-.022-.026-.042-.06-.06-.1l-1.827 1.42c-.451.35-1.083.35-1.534 0l-1.827-1.42c-.018.04-.038.074-.06.1l-.323.323C8.047 13.329 5.186 16.15 5 16c-.225-.18 3.18-4.992 3.18-4.992l.015-.016L3.5 7.339V17.5h17V7.339zM19.134 6.5H4.865L12 12.05l7.134-5.55z" transform="translate(-587 -941) translate(587 941)"/>
            </g>
        </g>
    </g>
</svg>
