<svg xmlns="http://www.w3.org/2000/svg" width="24" height="24" viewBox="0 0 24 24">
    <g fill="none" fill-rule="evenodd">
        <g fill="#555A62">
            <g>
                <g>
                    <path d="M2 7.5l6.143 4.56C7.777 12.58 4.79 16.83 5 17c.225.18 4.346-3.966 4.346-3.966.015-.017.02-.04.02-.067l1.867 1.386c.451.351 1.083.351 1.534 0l1.867-1.386c0 .027.005.05.02.067 0 0 4.121 4.147 4.346 3.966.21-.17-2.777-4.42-3.143-4.94L22 7.5v10c0 .828-.672 1.5-1.5 1.5h-17c-.828 0-1.5-.672-1.5-1.5v-10zm.242-1.817C2.51 5.272 2.973 5 3.5 5h17c.527 0 .99.272 1.258.683L12 13.05 2.242 5.683z" transform="translate(-1017 -1157) translate(1009 1145) translate(8 12)"/>
                </g>
            </g>
        </g>
    </g>
</svg>
