<svg width="24" height="24" viewBox="0 0 24 24" fill="none" xmlns="http://www.w3.org/2000/svg">
<path fillRule="evenodd" clipRule="evenodd" d="M18.0001 16.546C16.4312 15.1163 15.6 13.6015 15.6 12V9.6C15.6 7.75153 14.4798 6.29428 12.6372 6.04198L11.3628 6.04198C9.52027 6.29428 8.40003 7.75153 8.40003 9.6V12C8.40003 13.6015 7.56882 15.1163 6.00003 16.5459V17.2001L18.0001 17.2001V16.546ZM5.20002 18.4001C4.9791 18.4001 4.80002 18.221 4.80002 18.0001V16.1855C4.80002 16.0688 4.85094 15.958 4.93946 15.882C6.44651 14.588 7.20002 13.294 7.20002 12V9.6C7.20002 7.40911 8.53335 5.21822 11.2 4.85307V4.7667C11.2 4.34326 11.443 4 11.7417 4H12.2583C12.5575 4 12.8 4.33771 12.8 4.76084V4.85307C15.4667 5.21822 16.8 7.40911 16.8 9.6V12C16.8 13.294 17.5536 14.5881 19.0606 15.8821C19.1491 15.9581 19.2001 16.0689 19.2001 16.1856V18.0001C19.2001 18.221 19.021 18.4001 18.8001 18.4001L13.6 18.4001C13.6 19.2837 12.8837 20 12 20C11.1164 20 10.4001 19.2837 10.4 18.4001L5.20002 18.4001Z" fill="#555A62"/>
</svg>
