<svg xmlns="http://www.w3.org/2000/svg" width="24" height="24" viewBox="0 0 24 24">
    <g fill="none" fill-rule="evenodd">
        <g fill="#555A62">
            <g>
                <path d="M19.5 17.682c-1.961-1.787-3-3.68-3-5.682V9c0-2.31-1.4-4.132-3.703-4.448h-1.594C8.9 4.868 7.5 6.69 7.5 9v3c0 2.002-1.039 3.895-3 5.682v.818h15v-.818zM3.5 20c-.276 0-.5-.224-.5-.5v-2.268c0-.146.064-.285.174-.38C5.058 15.235 6 13.618 6 12V9c0-2.739 1.667-5.477 5-5.934v-.108c0-.529.304-.958.677-.958h.646c.374 0 .677.422.677.951v.115c3.333.457 5 3.195 5 5.934v3c0 1.618.942 3.235 2.826 4.853.11.095.174.233.174.379V19.5c0 .276-.224.5-.5.5H14c0 1.105-.895 2-2 2s-2-.895-2-2H3.5z" transform="translate(-587 -982) translate(587 982)"/>
            </g>
        </g>
    </g>
</svg>
