<svg width="24" height="24" viewBox="0 0 24 24" fill="none" xmlns="http://www.w3.org/2000/svg">
<path d="M18.875 9.96875L18.5 9.625C18.4375 9.5625 18.375 9.5 18.25 9.5C18.1562 9.5 18.0625 9.5625 18 9.625L9.09375 18.375L5.96875 15.2812C5.90625 15.2188 5.8125 15.1562 5.71875 15.1562C5.59375 15.1562 5.53125 15.2188 5.46875 15.2812L5.09375 15.625C5.03125 15.7188 5 15.8125 5 15.9062C5 16.0312 5.03125 16.0938 5.09375 16.1562L8.84375 19.875C8.9375 19.9688 9.03125 20 9.125 20C9.21875 20 9.3125 19.9688 9.375 19.875L18.875 10.5C18.9688 10.4375 19 10.375 19 10.25C19 10.1562 18.9375 10.0625 18.875 9.96875ZM8.96875 13.9062C9.03125 13.9688 9.125 14 9.21875 14C9.3125 14 9.40625 13.9688 9.5 13.9062L16.4062 7C16.4688 6.9375 16.5 6.875 16.5 6.75C16.5 6.65625 16.4688 6.5625 16.4062 6.46875L16.0312 6.125C15.9688 6.0625 15.875 6 15.7812 6C15.6562 6 15.5938 6.0625 15.5312 6.125L9.21875 12.4062L6.9375 10.1562C6.875 10.0625 6.8125 10.0312 6.6875 10.0312C6.59375 10.0312 6.5 10.0625 6.4375 10.1562L6.0625 10.5C6.03125 10.5625 6 10.6562 6 10.7812C6 10.875 6.03125 10.9688 6.0625 11.0312L8.96875 13.9062Z" fill="#555A62"/>
</svg>
