<svg width="24" height="24" viewBox="0 0 24 24" fill="none" xmlns="http://www.w3.org/2000/svg">
    <path d="M10 19.2567C10.9375 19.2567 11.8021 19.0796 12.5938 18.7254C13.4062 18.3712 14.1146 17.8712 14.7188 17.2254C15.0521 16.9337 15.4062 16.9337 15.7812 17.2254C16.0729 17.5587 16.0729 17.9129 15.7812 18.2879C15.0521 19.0587 14.1979 19.6629 13.2188 20.1004C12.2188 20.5379 11.1458 20.7567 10 20.7567C8.5 20.7358 7.15625 20.3712 5.96875 19.6629C4.76042 18.9546 3.80208 17.9962 3.09375 16.7879C2.38542 15.6004 2.02083 14.2567 2 12.7567C2.02083 11.2567 2.38542 9.9129 3.09375 8.7254C3.80208 7.51707 4.76042 6.55874 5.96875 5.8504C7.15625 5.14207 8.5 4.77749 10 4.75665C11.6458 4.77749 13.1042 5.21499 14.375 6.06915C15.6667 6.92332 16.6354 8.04832 17.2812 9.44415C17.4271 9.88165 17.3021 10.215 16.9062 10.4442C16.4688 10.59 16.1354 10.465 15.9062 10.0692C15.3854 8.92332 14.6042 8.00665 13.5625 7.31915C12.5208 6.63165 11.3229 6.27749 9.96875 6.25665C8.13542 6.29832 6.60417 6.93374 5.375 8.1629C4.14583 9.39207 3.51042 10.9233 3.46875 12.7567C3.51042 14.59 4.14583 16.1212 5.375 17.3504C6.60417 18.5796 8.13542 19.215 9.96875 19.2567H10ZM21.625 10.1317C21.7917 10.3192 21.875 10.5275 21.875 10.7567C21.875 10.9858 21.7917 11.1942 21.625 11.3817L17.625 15.3817C17.4375 15.5483 17.2292 15.6317 17 15.6317C16.7708 15.6317 16.5625 15.5483 16.375 15.3817L14.375 13.3817C14.2083 13.1942 14.125 12.9858 14.125 12.7567C14.125 12.5275 14.2083 12.3192 14.375 12.1317C14.5625 11.965 14.7708 11.8817 15 11.8817C15.2292 11.8817 15.4375 11.965 15.625 12.1317L17 13.5067L20.375 10.1317C20.5625 9.96499 20.7708 9.88165 21 9.88165C21.2292 9.88165 21.4375 9.96499 21.625 10.1317Z" fill="currentColor"/>
    <path d="M9.14 13.9967L11.54 15.7366C11.69 15.8466 11.9 15.8166 12.01 15.6666L12.54 14.9367C12.65 14.7867 12.62 14.5767 12.47 14.4667L10.58 13.0966V9.09665C10.58 8.90665 10.43 8.75665 10.24 8.75665H9.34C9.15 8.75665 9 8.90665 9 9.09665V13.7267C9 13.8267 9.05 13.9367 9.14 13.9967Z" fill="currentColor"/>
</svg>
