<svg width="24" height="24" viewBox="0 0 24 24" fill="none" xmlns="http://www.w3.org/2000/svg">
<path d="M8.43683 8.39459H7.96726V8.3946L8.43683 8.39459ZM19.9075 16.5427L20.3092 16.2996L20.2931 16.2729L20.2735 16.2486L19.9075 16.5427ZM15.5534 13.4297L15.3861 13.8684L15.4096 13.8774L15.434 13.8838L15.5534 13.4297ZM19.8736 19.699L20.225 20.0104L20.225 20.0104L19.8736 19.699ZM19.1174 20L19.1174 20.4696H19.1174V20ZM4.8606 20L4.8606 19.5304H4.8606V20ZM4.10452 19.699L4.45598 19.3876L4.45593 19.3876L4.10452 19.699ZM4.11694 16.5427L3.73173 16.2742L3.72305 16.2867L3.7152 16.2997L4.11694 16.5427ZM8.47086 13.4297L8.30356 12.9908L8.29343 12.9949L8.47086 13.4297ZM8.663 13.4415L8.89084 13.031L8.89051 13.0308L8.663 13.4415ZM8.9532 13.6058L8.72036 14.0135L8.72036 14.0135L8.9532 13.6058ZM15.1222 13.576L14.8911 13.1673L14.8911 13.1673L15.1222 13.576ZM15.3614 13.4415L15.5893 13.8521L15.5894 13.852L15.3614 13.4415ZM12.0122 13.2588C14.332 13.2588 16.0572 10.9858 16.0572 8.39459H15.1181C15.1181 10.6575 13.6416 12.3197 12.0122 12.3197V13.2588ZM7.96726 8.3946C7.9673 10.9858 9.69235 13.2588 12.0122 13.2588V12.3197C10.3828 12.3197 8.90643 10.6575 8.90639 8.39458L7.96726 8.3946ZM12.0122 3.53043C10.9474 3.53043 9.90979 3.80893 9.14433 4.61096C8.38287 5.40881 7.96726 6.64512 7.96726 8.39459H8.90639C8.90639 6.77836 9.29114 5.81738 9.82371 5.25936C10.3523 4.70552 11.1024 4.46957 12.0122 4.46957V3.53043ZM16.0572 8.39459C16.0572 6.64512 15.6416 5.40881 14.8801 4.61096C14.1147 3.80893 13.0771 3.53043 12.0122 3.53043V4.46957C12.922 4.46957 13.6722 4.70552 14.2007 5.25936C14.7333 5.81738 15.1181 6.77837 15.1181 8.39459H16.0572ZM20.2735 16.2486C19.2263 14.9453 18.0875 14.1302 17.2069 13.6401C16.7666 13.3951 16.3901 13.2308 16.1205 13.127C15.9857 13.0751 15.8774 13.0382 15.8011 13.0138C15.7629 13.0016 15.7327 12.9925 15.7111 12.9862C15.7003 12.9831 15.6916 12.9807 15.6852 12.9789C15.682 12.978 15.6794 12.9773 15.6773 12.9767C15.6763 12.9765 15.6754 12.9762 15.6746 12.976C15.6743 12.9759 15.6739 12.9758 15.6736 12.9758C15.6735 12.9757 15.6733 12.9757 15.6732 12.9756C15.673 12.9756 15.6728 12.9755 15.5534 13.4297C15.434 13.8838 15.4338 13.8838 15.4337 13.8837C15.4336 13.8837 15.4335 13.8837 15.4334 13.8836C15.4332 13.8836 15.4331 13.8836 15.433 13.8835C15.4328 13.8835 15.4328 13.8835 15.4329 13.8835C15.4331 13.8836 15.4338 13.8838 15.4351 13.8841C15.4377 13.8848 15.4425 13.8862 15.4494 13.8882C15.4632 13.8922 15.4854 13.8988 15.5154 13.9084C15.5753 13.9275 15.6663 13.9584 15.783 14.0034C16.0165 14.0933 16.3526 14.2395 16.7502 14.4607C17.5454 14.9033 18.5836 15.6448 19.5415 16.8369L20.2735 16.2486ZM20.225 20.0104C20.3091 19.9155 20.3419 19.8058 20.353 19.7682C20.3699 19.7113 20.382 19.6507 20.3914 19.5941C20.4103 19.4795 20.4244 19.3391 20.4352 19.1888C20.4569 18.8858 20.4678 18.5051 20.4694 18.1292C20.471 17.7529 20.4633 17.373 20.447 17.0708C20.4389 16.9205 20.4283 16.7829 20.4146 16.672C20.4078 16.6171 20.3994 16.5613 20.3883 16.5103C20.3809 16.4761 20.361 16.3851 20.3092 16.2996L19.5058 16.7859C19.4696 16.726 19.4643 16.6807 19.4706 16.7096C19.4732 16.7218 19.4776 16.7466 19.4826 16.7872C19.4925 16.8674 19.5017 16.9808 19.5093 17.1214C19.5243 17.4008 19.5318 17.7617 19.5302 18.1252C19.5287 18.4892 19.5181 18.8472 19.4985 19.1216C19.4885 19.26 19.4769 19.3679 19.4648 19.4413C19.4586 19.4787 19.4539 19.4969 19.4526 19.5013C19.4456 19.525 19.4589 19.459 19.5221 19.3876L20.225 20.0104ZM19.1174 20.4696C19.5266 20.4696 19.9498 20.321 20.225 20.0104L19.5221 19.3876C19.4633 19.454 19.3211 19.5304 19.1174 19.5304V20.4696ZM4.8606 20.4695L19.1174 20.4696L19.1174 19.5304L4.8606 19.5304L4.8606 20.4695ZM3.75305 20.0104C4.02825 20.321 4.45148 20.4695 4.8606 20.4695V19.5304C4.65683 19.5304 4.51479 19.454 4.45598 19.3876L3.75305 20.0104ZM3.7152 16.2997C3.66482 16.3829 3.64441 16.4716 3.63665 16.5056C3.62519 16.5559 3.61612 16.6112 3.60863 16.666C3.5935 16.7764 3.58094 16.9136 3.57059 17.0638C3.54977 17.3658 3.5362 17.7455 3.53191 18.1219C3.52762 18.4977 3.53247 18.8786 3.54967 19.1818C3.55821 19.3321 3.57028 19.473 3.58772 19.588C3.59632 19.6448 3.60779 19.706 3.62422 19.7636C3.63506 19.8016 3.66727 19.9136 3.7531 20.0104L4.45593 19.3876C4.52088 19.4608 4.53394 19.5292 4.52729 19.5059C4.52623 19.5022 4.52188 19.4845 4.51625 19.4473C4.5052 19.3744 4.49515 19.2669 4.4873 19.1286C4.47174 18.8545 4.46682 18.4966 4.47097 18.1326C4.47512 17.7692 4.48822 17.408 4.50749 17.1284C4.51719 16.9878 4.52803 16.874 4.53908 16.7933C4.54467 16.7525 4.54937 16.7272 4.5523 16.7143C4.55892 16.6853 4.55352 16.7283 4.51869 16.7858L3.7152 16.2997ZM8.47086 13.4297C8.29343 12.9949 8.29334 12.995 8.29324 12.995C8.29319 12.995 8.29307 12.9951 8.29297 12.9951C8.29277 12.9952 8.29253 12.9953 8.29224 12.9954C8.29165 12.9956 8.29088 12.996 8.28993 12.9964C8.28802 12.9971 8.28538 12.9982 8.28203 12.9996C8.27533 13.0024 8.26578 13.0064 8.25352 13.0116C8.22899 13.0219 8.19363 13.0371 8.14861 13.0568C8.0586 13.0963 7.92981 13.1542 7.77171 13.2295C7.45592 13.3799 7.02114 13.6003 6.54386 13.8812C5.60252 14.4352 4.44198 15.2553 3.73173 16.2742L4.50216 16.8113C5.09357 15.9628 6.10998 15.2263 7.02019 14.6906C7.46868 14.4267 7.87832 14.219 8.1755 14.0774C8.3239 14.0068 8.44373 13.9528 8.52572 13.9169C8.5667 13.8989 8.59819 13.8855 8.61901 13.8767C8.62942 13.8723 8.63717 13.869 8.64209 13.867C8.64456 13.866 8.64632 13.8652 8.64736 13.8648C8.64788 13.8646 8.64821 13.8645 8.64837 13.8644C8.64845 13.8644 8.64848 13.8643 8.64847 13.8644C8.64846 13.8644 8.64841 13.8644 8.64841 13.8644C8.64835 13.8644 8.64829 13.8644 8.47086 13.4297ZM8.89051 13.0308C8.70827 12.9298 8.48858 12.9204 8.3036 12.9909L8.63812 13.8684C8.60209 13.8822 8.56888 13.8857 8.54034 13.8839C8.51209 13.8822 8.47546 13.8744 8.43549 13.8523L8.89051 13.0308ZM9.18603 13.198C9.08453 13.14 8.98503 13.0832 8.89084 13.031L8.43516 13.8521C8.5234 13.9011 8.61771 13.9549 8.72036 14.0135L9.18603 13.198ZM11.989 14.2058C10.9713 14.2058 9.98967 13.6569 9.18603 13.198L8.72036 14.0135C9.48467 14.45 10.6814 15.1449 11.989 15.1449V14.2058ZM14.8911 13.1673C14.0754 13.6284 13.0334 14.2058 11.989 14.2058V15.1449C13.322 15.1449 14.5796 14.4222 15.3533 13.9848L14.8911 13.1673ZM15.1336 13.031C15.0561 13.074 14.9745 13.1201 14.8911 13.1673L15.3532 13.9848C15.4374 13.9372 15.5156 13.893 15.5893 13.8521L15.1336 13.031ZM15.7206 12.9909C15.5359 12.9205 15.3159 12.9297 15.1334 13.031L15.5894 13.852C15.5491 13.8744 15.5122 13.8822 15.484 13.8839C15.4554 13.8857 15.4221 13.8822 15.3861 13.8684L15.7206 12.9909Z" fill="#555A62"/>
</svg>
