<svg xmlns="http://www.w3.org/2000/svg" width="24" height="24" viewBox="0 0 24 24">
    <g fill="none" fill-rule="evenodd">
        <g transform="translate(5 5)">
            <circle cx="7" cy="7" r="6.5" stroke="#555A62"/>
            <path fill="#555A62" d="M3.747 9.358c.8.967 1.882 1.55 3.259 1.55 1.378 0 2.457-.584 3.253-1.55.477-.579.756-1.158.883-1.563.076-.244-.04-.51-.259-.594-.219-.085-.458.044-.534.288-.02.065-.07.196-.154.37-.143.295-.326.592-.554.867-.645.783-1.505 1.25-2.635 1.25s-1.993-.467-2.642-1.25c-.229-.277-.414-.573-.558-.87-.084-.173-.135-.304-.156-.37-.077-.242-.316-.37-.535-.284-.218.085-.333.352-.256.595.128.405.41.983.888 1.561zM9.508 6.242c.516 0 .934-.418.934-.934 0-.515-.418-.933-.934-.933-.515 0-.933.418-.933.933 0 .516.418.934.933.934z"/>
            <circle cx="4.492" cy="5.308" r="1" fill="#555A62"/>
        </g>
    </g>
</svg>
