<svg width="24" height="24" viewBox="0 0 24 24" fill="none" xmlns="http://www.w3.org/2000/svg">
<path fill-rule="evenodd" clip-rule="evenodd" d="M4.4826 5.53768C4.30797 5.53768 4.10995 5.69523 4.10995 5.95946V19.4892C4.10995 19.7557 4.30894 19.9123 4.48127 19.9123H18.3889C18.5631 19.9123 18.7616 19.7552 18.7616 19.4892V12.2415C18.7616 11.9411 19.01 11.6976 19.3165 11.6976C19.623 11.6976 19.8715 11.9411 19.8715 12.2415V19.4892C19.8715 20.2921 19.2392 21.0001 18.3889 21.0001H4.48127C3.63176 21.0001 3 20.2916 3 19.4892V5.95946C3 5.15732 3.63273 4.44989 4.4826 4.44989H11.8996C12.2061 4.44989 12.4545 4.6934 12.4545 4.99379C12.4545 5.29417 12.2061 5.53768 11.8996 5.53768H4.4826Z" fill="#555A62"/>
<path fill-rule="evenodd" clip-rule="evenodd" d="M20.8389 3.16073C21.0549 3.37391 21.0536 3.71829 20.836 3.9299L11.8956 12.6274C11.6781 12.839 11.3267 12.8378 11.1107 12.6246C10.8948 12.4114 10.8961 12.067 11.1136 11.8554L20.0541 3.15789C20.2716 2.94627 20.623 2.94754 20.8389 3.16073Z" fill="#555A62"/>
<path fill-rule="evenodd" clip-rule="evenodd" d="M14.9228 3.5439C14.9228 3.24351 15.1713 3 15.4778 3H20.445C20.7515 3 20.9999 3.24351 20.9999 3.5439V8.37613C20.9999 8.67651 20.7515 8.92002 20.445 8.92002C20.1385 8.92002 19.89 8.67651 19.89 8.37613V4.08779H15.4778C15.1713 4.08779 14.9228 3.84428 14.9228 3.5439Z" fill="#555A62"/>
</svg>
