<svg xmlns="http://www.w3.org/2000/svg" width="24" height="24" viewBox="0 0 24 24">
    <g fill="#555A62" fill-rule="nonzero">
        <path d="M4.266 10.474c.054.272.096.534.106.736.032.608-.25 1.79-.25 1.79l1.545-1.5.833-.4c.5-.1.501.164 1.5.164 3.866 0 7-2.297 7-5.132C15 3.298 11.866 1 8 1S1 3.298 1 6.132c0 1.828 1.303 3.433 3.266 4.342zM0 6.124C0 2.677 3.632 0 8 0s8 2.676 8 6.125-3.632 6.124-8 6.124c-.531 0-1.056-.039-1.568-.116-.02.024-.042.047-.065.07l-1.545 1.509c-.703.686-1.893.05-1.67-.892.028-.118.072-.323.116-.564.027-.148.05-.291.069-.425.033-.24.047-.434.041-.548-.002-.045-.007-.099-.015-.16C1.294 10.001 0 8.17 0 6.125z" transform="translate(4 5) matrix(-1 0 0 1 16 0)"/>
    </g>
</svg>
