<svg xmlns="http://www.w3.org/2000/svg" width="24" height="24" viewBox="0 0 24 24">
    <g fill="#555A62">
        <path d="M19.793 11.198c-.058-.073-.117-.173-.154-.245-1.26-1.744-2.694-3.07-4.244-3.98-2.171-1.252-4.38-1.3-6.532-.122-1.647.885-3.14 2.26-4.514 4.15-.465.613-.465 1.227 0 1.866 1.065 1.498 2.325 2.726 3.759 3.683.524.343 1.046.639 1.57.834.775.296 1.57.466 2.383.466.194 0 .387 0 .581-.025.348-.05.736-.097 1.106-.22 2.208-.712 4.206-2.308 6.065-4.911.253-.441.253-1.03-.02-1.496zm-.562.884c-1.764 2.456-3.624 3.98-5.697 4.64-.33.098-.698.148-1.008.196-.892.073-1.802-.05-2.674-.393-.485-.196-.969-.441-1.434-.787-1.356-.91-2.559-2.087-3.565-3.51-.214-.296-.214-.368 0-.639C6.17 9.798 7.566 8.495 9.116 7.66c.95-.516 1.918-.786 2.868-.786 1.026 0 2.054.295 3.08.91 1.474.859 2.83 2.136 4.03 3.78.04.05.078.123.117.173.08.125.097.248.02.345zM12 8.822c-1.863 0-3.386 1.522-3.386 3.385 0 1.863 1.523 3.386 3.386 3.386 1.863 0 3.386-1.523 3.386-3.386.024-1.863-1.498-3.385-3.386-3.385zm-2.54 3.386c0-1.403 1.135-2.54 2.54-2.54 1.404 0 2.539 1.134 2.539 2.538.027 1.381-1.133 2.54-2.54 2.54-1.406 0-2.538-1.134-2.538-2.538zM12 13.336c.623 0 1.129-.505 1.129-1.129 0-.623-.506-1.128-1.129-1.128s-1.129.505-1.129 1.128c0 .624.506 1.129 1.129 1.129z" />
    </g>
</svg>
