<svg width="24" height="24" viewBox="0 0 24 24" fill="none" xmlns="http://www.w3.org/2000/svg">
    <path d="M3.9741 16.0033L3.85582 15.7883L3.77707 15.6452L3.85583 15.7883L3.97413 16.0033C3.97412 16.0033 3.97411 16.0033 3.9741 16.0033ZM11.8544 19.9082L4.36498 15.7883L4.41038 15.7634L5.4699 15.1805L7.75666 13.9226C8.29699 14.2404 9.18372 14.7178 9.97633 15.1325C10.4308 15.3702 10.8592 15.5899 11.1811 15.7507C11.3416 15.8309 11.4778 15.8975 11.5782 15.9447C11.6279 15.968 11.6724 15.9882 11.7081 16.0033C11.7255 16.0106 11.7456 16.0188 11.7655 16.0258C11.7753 16.0293 11.7898 16.0342 11.8067 16.0387L11.8073 16.0389C11.8178 16.0417 11.8585 16.0527 11.9101 16.0539C11.9718 16.0553 12.0205 16.0421 12.032 16.0389L12.0329 16.0387C12.052 16.0335 12.068 16.0279 12.0781 16.0241C12.0989 16.0164 12.1193 16.0076 12.1357 16.0002C12.1699 15.9848 12.2119 15.9643 12.258 15.9412C12.3514 15.8942 12.4784 15.8277 12.6285 15.748C12.8763 15.6163 13.1949 15.4442 13.5442 15.2556C13.619 15.2153 13.6951 15.1741 13.7723 15.1325C14.5666 14.7038 15.4655 14.2209 16.0748 13.9182L18.3741 15.183L19.4304 15.7641L19.4744 15.7883L11.9848 19.9083C11.9838 19.9088 11.9791 19.9106 11.9702 19.9125C11.9568 19.9155 11.9392 19.9176 11.9195 19.9175C11.8999 19.9175 11.8823 19.9154 11.8689 19.9124C11.8602 19.9105 11.8556 19.9087 11.8544 19.9082ZM19.8653 16.0033C19.8653 16.0033 19.8653 16.0033 19.8653 16.0033L19.9836 15.7883L20.0623 15.6452L19.9836 15.7883L19.8653 16.0033Z" stroke="#555A62" stroke-width="0.818182" stroke-linejoin="round"/>
    <path d="M3.9741 12.2533L3.85582 12.0383L3.77693 11.8949L3.85583 12.0383L3.97413 12.2533C3.97412 12.2533 3.97411 12.2533 3.9741 12.2533ZM5.58942 11.3648L8.05021 10.0111C8.6243 10.4207 9.46057 10.8762 10.1762 11.2374C10.5888 11.4457 10.9716 11.6277 11.2586 11.7582C11.4017 11.8233 11.5231 11.8765 11.6134 11.9141C11.658 11.9326 11.6985 11.9488 11.7318 11.961C11.748 11.9669 11.767 11.9736 11.7863 11.9793L11.7865 11.9794C11.7908 11.9808 11.8489 11.9995 11.9167 12C11.9906 12.0005 12.0527 11.9795 12.0578 11.9777L12.0581 11.9776C12.0784 11.9713 12.0978 11.964 12.1135 11.9578C12.1458 11.9451 12.1843 11.9284 12.2257 11.9098C12.3097 11.872 12.4223 11.8186 12.555 11.7535C12.8214 11.6231 13.1791 11.4411 13.573 11.2329C14.2776 10.8604 15.1117 10.3969 15.7501 9.98957L18.2415 11.3601L19.3917 11.9928L19.4744 12.0383L11.9848 16.1583C11.9837 16.1587 11.9791 16.1606 11.9702 16.1625C11.9568 16.1655 11.9392 16.1676 11.9195 16.1675C11.8999 16.1675 11.8823 16.1654 11.8689 16.1624C11.8602 16.1604 11.8556 16.1587 11.8544 16.1582L4.36498 12.0383L4.44524 11.9942L5.58942 11.3648ZM19.8653 12.2533C19.8653 12.2533 19.8653 12.2533 19.8653 12.2533L19.9836 12.0383L20.0625 11.8949L19.9836 12.0383L19.8653 12.2533Z" stroke="#555A62" stroke-width="0.818182" stroke-linejoin="round"/>
    <path d="M11.8544 12.0332L4.36498 7.9133L11.8546 3.79329C11.8557 3.79287 11.8603 3.79106 11.8693 3.7891C11.8826 3.78615 11.9002 3.78406 11.9199 3.78409C11.9396 3.78412 11.9571 3.78626 11.9705 3.78924C11.9792 3.79118 11.9838 3.79293 11.985 3.79338L19.4744 7.9133L11.985 12.0332C11.9849 12.0333 11.9849 12.0333 11.9848 12.0333C11.9838 12.0337 11.9791 12.0355 11.9702 12.0375C11.9568 12.0404 11.9392 12.0425 11.9195 12.0425C11.8999 12.0425 11.8823 12.0403 11.8689 12.0374C11.8602 12.0354 11.8556 12.0337 11.8544 12.0332ZM11.9832 3.79242L11.9834 3.7925C11.9834 3.79248 11.9833 3.79245 11.9832 3.79242L12.1789 3.43671L11.9832 3.79242Z" stroke="#555A62" stroke-width="0.818182" stroke-linejoin="round"/>
</svg>
