<svg xmlns="http://www.w3.org/2000/svg" width="24" height="24" viewBox="0 0 24 24">
    <g fill="none" fill-rule="evenodd">
        <g transform="translate(4 5)">
            <path stroke="#555A62" stroke-linejoin="round" d="M13.946-.5c.903.734 1.116 1.316 1.16 1.7.433.292.651.88.651.88.015.072.07.572.064.989.549 1.086.487 1.479.394 1.723.263.488.285.702.285.999 0 1.208-1.346 1.566-1.346 1.566h0l-3.817.06c.186.477.365 1.163.365 2.042 0 1.723-.719 2.322-1.134 2.68-.676.606-1.511.208-1.511.208-.264-.311-.332-.49-.34-2.17 0-2.162-2.959-4.023-2.959-4.023C5.527 4.947 5.505 1.78 5.501.84 5.5-.092 6.876-.491 6.876-.491h0z" transform="matrix(1 0 0 -1 0 12)"/>
            <rect width="5" height="9" y="5" fill="#555A62" rx="1" transform="matrix(1 0 0 -1 0 19)"/>
        </g>
    </g>
</svg>
