<svg width="24" height="24" viewBox="0 0 24 24" fill="none" xmlns="http://www.w3.org/2000/svg">
    <path fill-rule="evenodd" clip-rule="evenodd" d="M17.1904 9.76874C17.1904 11.1763 16.5557 12.5298 15.4727 13.4863L15.4167 13.5404C14.6185 14.3119 14.684 15.9354 14.6884 16.0433L14.6886 16.0488C14.6886 16.139 14.6513 16.2293 14.5953 16.2834C14.5392 16.3376 14.4646 16.3736 14.3712 16.3736H9.61021C9.53553 16.3736 9.44218 16.3376 9.38617 16.2834C9.31144 16.2113 9.29281 16.139 9.29281 16.0488C9.31144 16.0308 9.38617 14.3344 8.56462 13.5404C7.4631 12.602 6.80963 11.2125 6.80963 9.76874C6.80963 7.00772 9.14345 4.75195 12 4.75195C14.8566 4.75195 17.1904 7.00772 17.1904 9.76874ZM14.9313 13.1434C14.9313 13.1253 14.9687 13.0892 14.9873 13.0712C15.9768 12.2411 16.5369 11.032 16.5369 9.7507C16.5369 7.31446 14.5019 5.34743 11.9814 5.34743C9.46085 5.34743 7.42576 7.31446 7.42576 9.7507C7.42576 11.032 8.0045 12.2411 8.99409 13.0712C9.7782 13.8472 9.90894 15.1465 9.92761 15.742H14.0538C14.0724 15.1465 14.2031 13.9013 14.9313 13.1434ZM9.42629 17.7875C9.42629 17.9794 9.58372 18.135 9.77792 18.135H14.2221C14.4163 18.135 14.5737 17.9794 14.5737 17.7875C14.5737 17.5956 14.4163 17.44 14.2221 17.44H9.77792C9.58372 17.44 9.42629 17.5956 9.42629 17.7875ZM10.2338 19.4425C10.2338 19.6344 10.3559 19.79 10.5065 19.79H13.4936C13.6442 19.79 13.7663 19.6344 13.7663 19.4425C13.7663 19.2506 13.6442 19.095 13.4936 19.095H10.5065C10.3559 19.095 10.2338 19.2506 10.2338 19.4425ZM11.217 6.3634C11.217 6.20238 11.3716 6.05925 11.5456 6.05925C13.8649 6.05925 15.7396 7.79469 15.7203 9.92375C15.7203 10.0848 15.5657 10.2279 15.3917 10.2279C15.2178 10.2279 15.0632 10.0848 15.0632 9.92375C15.0632 8.13463 13.4976 6.66755 11.5456 6.66755C11.3716 6.66755 11.217 6.52442 11.217 6.3634Z" fill="#555A62"/>
    <path d="M15.4727 13.4863L15.3071 13.2987L15.299 13.3065L15.4727 13.4863ZM15.4167 13.5404L15.243 13.3606L15.243 13.3606L15.4167 13.5404ZM14.6884 16.0433L14.9382 16.0342L14.9382 16.0332L14.6884 16.0433ZM14.6886 16.0488H14.9388L14.9384 16.0397L14.6886 16.0488ZM14.5953 16.2834L14.7689 16.4632L14.769 16.4632L14.5953 16.2834ZM9.38617 16.2834L9.55991 16.1037L9.5598 16.1035L9.38617 16.2834ZM9.29281 16.0488L9.11907 15.8691L9.04281 15.9428V16.0488H9.29281ZM8.56462 13.5404L8.73836 13.3606L8.73271 13.3552L8.72674 13.3501L8.56462 13.5404ZM14.9873 13.0712L14.8267 12.8797L14.8199 12.8853L14.8136 12.8914L14.9873 13.0712ZM14.9313 13.1434L15.1116 13.3166L15.1813 13.2441V13.1434H14.9313ZM8.99409 13.0712L9.16994 12.8935L9.16263 12.8863L9.15475 12.8797L8.99409 13.0712ZM9.92761 15.742L9.67774 15.7499L9.68533 15.992H9.92761V15.742ZM14.0538 15.742V15.992H14.2961L14.3037 15.7498L14.0538 15.742ZM15.7203 9.92375L15.4703 9.92148V9.92375H15.7203ZM15.6382 13.6736C16.7719 12.6724 17.4404 11.2519 17.4404 9.76874H16.9404C16.9404 11.1008 16.3394 12.3873 15.3072 13.2989L15.6382 13.6736ZM15.5905 13.7202L15.6465 13.666L15.299 13.3065L15.243 13.3606L15.5905 13.7202ZM14.9382 16.0332C14.9363 15.9854 14.9195 15.5718 14.9984 15.0803C15.0789 14.5795 15.2511 14.0482 15.5905 13.7201L15.243 13.3606C14.7841 13.8041 14.59 14.4703 14.5048 15.001C14.418 15.5411 14.4362 15.9933 14.4386 16.0534L14.9382 16.0332ZM14.9384 16.0397L14.9382 16.0342L14.4386 16.0524L14.4388 16.0579L14.9384 16.0397ZM14.769 16.4632C14.8785 16.3573 14.9386 16.1999 14.9386 16.0488H14.4386C14.4386 16.0602 14.4361 16.0738 14.431 16.0863C14.4257 16.0994 14.4206 16.1045 14.4215 16.1037L14.769 16.4632ZM14.3712 16.6236C14.535 16.6236 14.6705 16.5583 14.7689 16.4632L14.4216 16.1036C14.4136 16.1113 14.4063 16.1158 14.3998 16.1186C14.3937 16.1212 14.3849 16.1236 14.3712 16.1236V16.6236ZM9.61021 16.6236H14.3712V16.1236H9.61021V16.6236ZM9.21242 16.4632C9.31644 16.5637 9.47266 16.6236 9.61021 16.6236V16.1236C9.6112 16.1236 9.60871 16.1237 9.60298 16.1225C9.59744 16.1213 9.59074 16.1194 9.58364 16.1166C9.57653 16.1137 9.57041 16.1106 9.56572 16.1077C9.5609 16.1047 9.55924 16.103 9.55991 16.1037L9.21242 16.4632ZM9.04281 16.0488C9.04281 16.1104 9.049 16.1829 9.07662 16.2586C9.10509 16.3366 9.15116 16.404 9.21253 16.4633L9.5598 16.1035C9.55246 16.0965 9.54914 16.0919 9.54787 16.09C9.54674 16.0883 9.54647 16.0876 9.54632 16.0872C9.54594 16.0862 9.54281 16.0775 9.54281 16.0488H9.04281ZM8.39088 13.7202C8.74128 14.0588 8.91736 14.6132 8.99675 15.124C9.03554 15.3736 9.04942 15.6007 9.05246 15.7656C9.05399 15.848 9.05277 15.9135 9.05082 15.9573C9.04982 15.9795 9.04873 15.994 9.04799 16.0014C9.04756 16.0056 9.04759 16.004 9.04848 15.9989C9.04883 15.997 9.0503 15.9886 9.05352 15.9774C9.05508 15.972 9.0585 15.9608 9.06453 15.9472C9.06813 15.939 9.08372 15.9032 9.11907 15.8691L9.46656 16.2286C9.5022 16.1941 9.51809 16.1578 9.52199 16.149C9.52833 16.1346 9.53205 16.1226 9.53393 16.1161C9.53778 16.1027 9.5399 16.0913 9.54091 16.0856C9.54312 16.0731 9.54453 16.0608 9.54547 16.0514C9.54748 16.0315 9.54909 16.007 9.55032 15.9796C9.5528 15.924 9.55407 15.8479 9.55238 15.7563C9.549 15.5733 9.53371 15.3232 9.49082 15.0472C9.40684 14.5069 9.2095 13.816 8.73836 13.3606L8.39088 13.7202ZM6.55963 9.76874C6.55963 11.2872 7.24635 12.7458 8.4025 13.7307L8.72674 13.3501C7.67985 12.4583 7.05963 11.1378 7.05963 9.76874H6.55963ZM12 4.50195C9.01346 4.50195 6.55963 6.86171 6.55963 9.76874H7.05963C7.05963 7.15374 9.27344 5.00195 12 5.00195V4.50195ZM17.4404 9.76874C17.4404 6.86171 14.9866 4.50195 12 4.50195V5.00195C14.7266 5.00195 16.9404 7.15374 16.9404 9.76874H17.4404ZM14.8136 12.8914C14.8054 12.8993 14.7832 12.9205 14.7629 12.9441C14.753 12.9557 14.7379 12.974 14.7241 12.9967C14.7158 13.0104 14.6813 13.0662 14.6813 13.1434H15.1813C15.1813 13.1821 15.1718 13.2112 15.1663 13.2255C15.1604 13.241 15.1541 13.252 15.1508 13.2573C15.1445 13.2676 15.14 13.2725 15.1417 13.2705C15.1448 13.267 15.1506 13.2611 15.1611 13.251L14.8136 12.8914ZM16.2869 9.7507C16.2869 10.9583 15.7594 12.0972 14.8267 12.8797L15.148 13.2627C16.1943 12.385 16.7869 11.1057 16.7869 9.7507H16.2869ZM11.9814 5.59743C14.3719 5.59743 16.2869 7.46048 16.2869 9.7507H16.7869C16.7869 7.16845 14.6319 5.09743 11.9814 5.09743V5.59743ZM7.67576 9.7507C7.67576 7.46048 9.59084 5.59743 11.9814 5.59743V5.09743C9.33086 5.09743 7.17576 7.16845 7.17576 9.7507H7.67576ZM9.15475 12.8797C8.22003 12.0956 7.67576 10.9558 7.67576 9.7507H7.17576C7.17576 11.1082 7.78897 12.3866 8.83342 13.2627L9.15475 12.8797ZM10.1775 15.7342C10.1678 15.4255 10.1292 14.931 9.98937 14.4096C9.85013 13.8901 9.60536 13.3244 9.16994 12.8935L8.81823 13.2489C9.16693 13.594 9.37959 14.0659 9.50642 14.539C9.6327 15.0101 9.66874 15.463 9.67774 15.7499L10.1775 15.7342ZM14.0538 15.492H9.92761V15.992H14.0538V15.492ZM14.751 12.9702C14.3462 13.3915 14.1165 13.9375 13.9847 14.4402C13.8522 14.945 13.8136 15.4253 13.8039 15.7342L14.3037 15.7498C14.3126 15.4632 14.3486 15.0232 14.4683 14.567C14.5885 14.1088 14.7882 13.6532 15.1116 13.3166L14.751 12.9702ZM9.77792 17.885C9.719 17.885 9.67629 17.8386 9.67629 17.7875H9.17629C9.17629 18.1203 9.44845 18.385 9.77792 18.385V17.885ZM14.2221 17.885H9.77792V18.385H14.2221V17.885ZM14.3237 17.7875C14.3237 17.8386 14.281 17.885 14.2221 17.885V18.385C14.5516 18.385 14.8237 18.1203 14.8237 17.7875H14.3237ZM14.2221 17.69C14.281 17.69 14.3237 17.7365 14.3237 17.7875H14.8237C14.8237 17.4548 14.5516 17.19 14.2221 17.19V17.69ZM9.77792 17.69H14.2221V17.19H9.77792V17.69ZM9.67629 17.7875C9.67629 17.7365 9.719 17.69 9.77792 17.69V17.19C9.44845 17.19 9.17629 17.4548 9.17629 17.7875H9.67629ZM10.5065 19.54C10.5227 19.54 10.5222 19.549 10.5103 19.5339C10.4981 19.5183 10.4838 19.4869 10.4838 19.4425H9.98379C9.98379 19.7126 10.1648 20.04 10.5065 20.04V19.54ZM13.4936 19.54H10.5065V20.04H13.4936V19.54ZM13.5163 19.4425C13.5163 19.4869 13.5019 19.5183 13.4897 19.5339C13.4778 19.549 13.4773 19.54 13.4936 19.54V20.04C13.8353 20.04 14.0163 19.7126 14.0163 19.4425H13.5163ZM13.4936 19.345C13.4773 19.345 13.4778 19.336 13.4897 19.3511C13.5019 19.3667 13.5163 19.3981 13.5163 19.4425H14.0163C14.0163 19.1723 13.8353 18.845 13.4936 18.845V19.345ZM10.5065 19.345H13.4936V18.845H10.5065V19.345ZM10.4838 19.4425C10.4838 19.3981 10.4981 19.3667 10.5103 19.3511C10.5222 19.336 10.5227 19.345 10.5065 19.345V18.845C10.1648 18.845 9.98379 19.1723 9.98379 19.4425H10.4838ZM11.5456 5.80925C11.2521 5.80925 10.967 6.04648 10.967 6.3634H11.467C11.467 6.36335 11.467 6.36279 11.4673 6.36161C11.4676 6.36038 11.4682 6.35836 11.4695 6.35564C11.4722 6.34998 11.4773 6.34229 11.4859 6.3344C11.504 6.31759 11.5268 6.30925 11.5456 6.30925V5.80925ZM15.9703 9.92602C15.9911 7.63804 13.983 5.80925 11.5456 5.80925V6.30925C13.7467 6.30925 15.4882 7.95135 15.4703 9.92148L15.9703 9.92602ZM15.3917 10.4779C15.6852 10.4779 15.9703 10.2407 15.9703 9.92375H15.4703C15.4703 9.9238 15.4703 9.92435 15.47 9.92554C15.4697 9.92676 15.4691 9.92878 15.4678 9.93151C15.4651 9.93717 15.4599 9.94485 15.4514 9.95274C15.4333 9.96956 15.4105 9.9779 15.3917 9.9779V10.4779ZM14.8132 9.92375C14.8132 10.2407 15.0982 10.4779 15.3917 10.4779V9.9779C15.3729 9.9779 15.3502 9.96956 15.332 9.95274C15.3235 9.94485 15.3184 9.93717 15.3157 9.93151C15.3144 9.92878 15.3137 9.92676 15.3134 9.92554C15.3132 9.92435 15.3132 9.9238 15.3132 9.92375H14.8132ZM11.5456 6.91755C13.3772 6.91755 14.8132 8.28967 14.8132 9.92375H15.3132C15.3132 7.97959 13.6181 6.41755 11.5456 6.41755V6.91755ZM10.967 6.3634C10.967 6.68032 11.2521 6.91755 11.5456 6.91755V6.41755C11.5268 6.41755 11.504 6.40921 11.4859 6.39239C11.4774 6.38451 11.4722 6.37682 11.4695 6.37116C11.4682 6.36843 11.4676 6.36642 11.4673 6.36519C11.467 6.364 11.467 6.36345 11.467 6.3634H10.967Z" fill="#555A62"/>
    <mask id="mask0_2682_92742" style="mask-type:alpha" maskUnits="userSpaceOnUse" x="6" y="4" width="12" height="17">
    <path fill-rule="evenodd" clip-rule="evenodd" d="M17.1904 9.76874C17.1904 11.1763 16.5557 12.5298 15.4727 13.4863L15.4167 13.5404C14.6185 14.3119 14.684 15.9354 14.6884 16.0433L14.6886 16.0488C14.6886 16.139 14.6513 16.2293 14.5953 16.2834C14.5392 16.3376 14.4646 16.3736 14.3712 16.3736H9.61021C9.53553 16.3736 9.44218 16.3376 9.38617 16.2834C9.31144 16.2113 9.29281 16.139 9.29281 16.0488C9.31144 16.0308 9.38617 14.3344 8.56462 13.5404C7.4631 12.602 6.80963 11.2125 6.80963 9.76874C6.80963 7.00772 9.14345 4.75195 12 4.75195C14.8566 4.75195 17.1904 7.00772 17.1904 9.76874ZM14.9313 13.1434C14.9313 13.1253 14.9687 13.0892 14.9873 13.0712C15.9768 12.2411 16.5369 11.032 16.5369 9.7507C16.5369 7.31446 14.5019 5.34743 11.9814 5.34743C9.46085 5.34743 7.42576 7.31446 7.42576 9.7507C7.42576 11.032 8.0045 12.2411 8.99409 13.0712C9.7782 13.8472 9.90894 15.1465 9.92761 15.742H14.0538C14.0724 15.1465 14.2031 13.9013 14.9313 13.1434ZM9.42629 17.7875C9.42629 17.9794 9.58372 18.135 9.77792 18.135H14.2221C14.4163 18.135 14.5737 17.9794 14.5737 17.7875C14.5737 17.5956 14.4163 17.44 14.2221 17.44H9.77792C9.58372 17.44 9.42629 17.5956 9.42629 17.7875ZM10.2338 19.4425C10.2338 19.6344 10.3559 19.79 10.5065 19.79H13.4936C13.6442 19.79 13.7663 19.6344 13.7663 19.4425C13.7663 19.2506 13.6442 19.095 13.4936 19.095H10.5065C10.3559 19.095 10.2338 19.2506 10.2338 19.4425ZM11.217 6.3634C11.217 6.20238 11.3716 6.05925 11.5456 6.05925C13.8649 6.05925 15.7396 7.79469 15.7203 9.92375C15.7203 10.0848 15.5657 10.2279 15.3917 10.2279C15.2178 10.2279 15.0632 10.0848 15.0632 9.92375C15.0632 8.13463 13.4976 6.66755 11.5456 6.66755C11.3716 6.66755 11.217 6.52442 11.217 6.3634Z" fill="white"/>
    <path d="M15.4727 13.4863L15.3071 13.2987L15.299 13.3065L15.4727 13.4863ZM15.4167 13.5404L15.243 13.3606L15.243 13.3606L15.4167 13.5404ZM14.6884 16.0433L14.9382 16.0342L14.9382 16.0332L14.6884 16.0433ZM14.6886 16.0488H14.9388L14.9384 16.0397L14.6886 16.0488ZM14.5953 16.2834L14.7689 16.4632L14.769 16.4632L14.5953 16.2834ZM9.38617 16.2834L9.55991 16.1037L9.5598 16.1035L9.38617 16.2834ZM9.29281 16.0488L9.11907 15.8691L9.04281 15.9428V16.0488H9.29281ZM8.56462 13.5404L8.73836 13.3606L8.73271 13.3552L8.72674 13.3501L8.56462 13.5404ZM14.9873 13.0712L14.8267 12.8797L14.8199 12.8853L14.8136 12.8914L14.9873 13.0712ZM14.9313 13.1434L15.1116 13.3166L15.1813 13.2441V13.1434H14.9313ZM8.99409 13.0712L9.16994 12.8935L9.16263 12.8863L9.15475 12.8797L8.99409 13.0712ZM9.92761 15.742L9.67774 15.7499L9.68533 15.992H9.92761V15.742ZM14.0538 15.742V15.992H14.2961L14.3037 15.7498L14.0538 15.742ZM15.7203 9.92375L15.4703 9.92148V9.92375H15.7203ZM15.6382 13.6736C16.7719 12.6724 17.4404 11.2519 17.4404 9.76874H16.9404C16.9404 11.1008 16.3394 12.3873 15.3072 13.2989L15.6382 13.6736ZM15.5905 13.7202L15.6465 13.666L15.299 13.3065L15.243 13.3606L15.5905 13.7202ZM14.9382 16.0332C14.9363 15.9854 14.9195 15.5718 14.9984 15.0803C15.0789 14.5795 15.2511 14.0482 15.5905 13.7201L15.243 13.3606C14.7841 13.8041 14.59 14.4703 14.5048 15.001C14.418 15.5411 14.4362 15.9933 14.4386 16.0534L14.9382 16.0332ZM14.9384 16.0397L14.9382 16.0342L14.4386 16.0524L14.4388 16.0579L14.9384 16.0397ZM14.769 16.4632C14.8785 16.3573 14.9386 16.1999 14.9386 16.0488H14.4386C14.4386 16.0602 14.4361 16.0738 14.431 16.0863C14.4257 16.0994 14.4206 16.1045 14.4215 16.1037L14.769 16.4632ZM14.3712 16.6236C14.535 16.6236 14.6705 16.5583 14.7689 16.4632L14.4216 16.1036C14.4136 16.1113 14.4063 16.1158 14.3998 16.1186C14.3937 16.1212 14.3849 16.1236 14.3712 16.1236V16.6236ZM9.61021 16.6236H14.3712V16.1236H9.61021V16.6236ZM9.21242 16.4632C9.31644 16.5637 9.47266 16.6236 9.61021 16.6236V16.1236C9.6112 16.1236 9.60871 16.1237 9.60298 16.1225C9.59744 16.1213 9.59074 16.1194 9.58364 16.1166C9.57653 16.1137 9.57041 16.1106 9.56572 16.1077C9.5609 16.1047 9.55924 16.103 9.55991 16.1037L9.21242 16.4632ZM9.04281 16.0488C9.04281 16.1104 9.049 16.1829 9.07662 16.2586C9.10509 16.3366 9.15116 16.404 9.21253 16.4633L9.5598 16.1035C9.55246 16.0965 9.54914 16.0919 9.54787 16.09C9.54674 16.0883 9.54647 16.0876 9.54632 16.0872C9.54594 16.0862 9.54281 16.0775 9.54281 16.0488H9.04281ZM8.39088 13.7202C8.74128 14.0588 8.91736 14.6132 8.99675 15.124C9.03554 15.3736 9.04942 15.6007 9.05246 15.7656C9.05399 15.848 9.05277 15.9135 9.05082 15.9573C9.04982 15.9795 9.04873 15.994 9.04799 16.0014C9.04756 16.0056 9.04759 16.004 9.04848 15.9989C9.04883 15.997 9.0503 15.9886 9.05352 15.9774C9.05508 15.972 9.0585 15.9608 9.06453 15.9472C9.06813 15.939 9.08372 15.9032 9.11907 15.8691L9.46656 16.2286C9.5022 16.1941 9.51809 16.1578 9.52199 16.149C9.52833 16.1346 9.53205 16.1226 9.53393 16.1161C9.53778 16.1027 9.5399 16.0913 9.54091 16.0856C9.54312 16.0731 9.54453 16.0608 9.54547 16.0514C9.54748 16.0315 9.54909 16.007 9.55032 15.9796C9.5528 15.924 9.55407 15.8479 9.55238 15.7563C9.549 15.5733 9.53371 15.3232 9.49082 15.0472C9.40684 14.5069 9.2095 13.816 8.73836 13.3606L8.39088 13.7202ZM6.55963 9.76874C6.55963 11.2872 7.24635 12.7458 8.4025 13.7307L8.72674 13.3501C7.67985 12.4583 7.05963 11.1378 7.05963 9.76874H6.55963ZM12 4.50195C9.01346 4.50195 6.55963 6.86171 6.55963 9.76874H7.05963C7.05963 7.15374 9.27344 5.00195 12 5.00195V4.50195ZM17.4404 9.76874C17.4404 6.86171 14.9866 4.50195 12 4.50195V5.00195C14.7266 5.00195 16.9404 7.15374 16.9404 9.76874H17.4404ZM14.8136 12.8914C14.8054 12.8993 14.7832 12.9205 14.7629 12.9441C14.753 12.9557 14.7379 12.974 14.7241 12.9967C14.7158 13.0104 14.6813 13.0662 14.6813 13.1434H15.1813C15.1813 13.1821 15.1718 13.2112 15.1663 13.2255C15.1604 13.241 15.1541 13.252 15.1508 13.2573C15.1445 13.2676 15.14 13.2725 15.1417 13.2705C15.1448 13.267 15.1506 13.2611 15.1611 13.251L14.8136 12.8914ZM16.2869 9.7507C16.2869 10.9583 15.7594 12.0972 14.8267 12.8797L15.148 13.2627C16.1943 12.385 16.7869 11.1057 16.7869 9.7507H16.2869ZM11.9814 5.59743C14.3719 5.59743 16.2869 7.46048 16.2869 9.7507H16.7869C16.7869 7.16845 14.6319 5.09743 11.9814 5.09743V5.59743ZM7.67576 9.7507C7.67576 7.46048 9.59084 5.59743 11.9814 5.59743V5.09743C9.33086 5.09743 7.17576 7.16845 7.17576 9.7507H7.67576ZM9.15475 12.8797C8.22003 12.0956 7.67576 10.9558 7.67576 9.7507H7.17576C7.17576 11.1082 7.78897 12.3866 8.83342 13.2627L9.15475 12.8797ZM10.1775 15.7342C10.1678 15.4255 10.1292 14.931 9.98937 14.4096C9.85013 13.8901 9.60536 13.3244 9.16994 12.8935L8.81823 13.2489C9.16693 13.594 9.37959 14.0659 9.50642 14.539C9.6327 15.0101 9.66874 15.463 9.67774 15.7499L10.1775 15.7342ZM14.0538 15.492H9.92761V15.992H14.0538V15.492ZM14.751 12.9702C14.3462 13.3915 14.1165 13.9375 13.9847 14.4402C13.8522 14.945 13.8136 15.4253 13.8039 15.7342L14.3037 15.7498C14.3126 15.4632 14.3486 15.0232 14.4683 14.567C14.5885 14.1088 14.7882 13.6532 15.1116 13.3166L14.751 12.9702ZM9.77792 17.885C9.719 17.885 9.67629 17.8386 9.67629 17.7875H9.17629C9.17629 18.1203 9.44845 18.385 9.77792 18.385V17.885ZM14.2221 17.885H9.77792V18.385H14.2221V17.885ZM14.3237 17.7875C14.3237 17.8386 14.281 17.885 14.2221 17.885V18.385C14.5516 18.385 14.8237 18.1203 14.8237 17.7875H14.3237ZM14.2221 17.69C14.281 17.69 14.3237 17.7365 14.3237 17.7875H14.8237C14.8237 17.4548 14.5516 17.19 14.2221 17.19V17.69ZM9.77792 17.69H14.2221V17.19H9.77792V17.69ZM9.67629 17.7875C9.67629 17.7365 9.719 17.69 9.77792 17.69V17.19C9.44845 17.19 9.17629 17.4548 9.17629 17.7875H9.67629ZM10.5065 19.54C10.5227 19.54 10.5222 19.549 10.5103 19.5339C10.4981 19.5183 10.4838 19.4869 10.4838 19.4425H9.98379C9.98379 19.7126 10.1648 20.04 10.5065 20.04V19.54ZM13.4936 19.54H10.5065V20.04H13.4936V19.54ZM13.5163 19.4425C13.5163 19.4869 13.5019 19.5183 13.4897 19.5339C13.4778 19.549 13.4773 19.54 13.4936 19.54V20.04C13.8353 20.04 14.0163 19.7126 14.0163 19.4425H13.5163ZM13.4936 19.345C13.4773 19.345 13.4778 19.336 13.4897 19.3511C13.5019 19.3667 13.5163 19.3981 13.5163 19.4425H14.0163C14.0163 19.1723 13.8353 18.845 13.4936 18.845V19.345ZM10.5065 19.345H13.4936V18.845H10.5065V19.345ZM10.4838 19.4425C10.4838 19.3981 10.4981 19.3667 10.5103 19.3511C10.5222 19.336 10.5227 19.345 10.5065 19.345V18.845C10.1648 18.845 9.98379 19.1723 9.98379 19.4425H10.4838ZM11.5456 5.80925C11.2521 5.80925 10.967 6.04648 10.967 6.3634H11.467C11.467 6.36335 11.467 6.36279 11.4673 6.36161C11.4676 6.36038 11.4682 6.35836 11.4695 6.35564C11.4722 6.34998 11.4773 6.34229 11.4859 6.3344C11.504 6.31759 11.5268 6.30925 11.5456 6.30925V5.80925ZM15.9703 9.92602C15.9911 7.63804 13.983 5.80925 11.5456 5.80925V6.30925C13.7467 6.30925 15.4882 7.95135 15.4703 9.92148L15.9703 9.92602ZM15.3917 10.4779C15.6852 10.4779 15.9703 10.2407 15.9703 9.92375H15.4703C15.4703 9.9238 15.4703 9.92435 15.47 9.92554C15.4697 9.92676 15.4691 9.92878 15.4678 9.93151C15.4651 9.93717 15.4599 9.94485 15.4514 9.95274C15.4333 9.96956 15.4105 9.9779 15.3917 9.9779V10.4779ZM14.8132 9.92375C14.8132 10.2407 15.0982 10.4779 15.3917 10.4779V9.9779C15.3729 9.9779 15.3502 9.96956 15.332 9.95274C15.3235 9.94485 15.3184 9.93717 15.3157 9.93151C15.3144 9.92878 15.3137 9.92676 15.3134 9.92554C15.3132 9.92435 15.3132 9.9238 15.3132 9.92375H14.8132ZM11.5456 6.91755C13.3772 6.91755 14.8132 8.28967 14.8132 9.92375H15.3132C15.3132 7.97959 13.6181 6.41755 11.5456 6.41755V6.91755ZM10.967 6.3634C10.967 6.68032 11.2521 6.91755 11.5456 6.91755V6.41755C11.5268 6.41755 11.504 6.40921 11.4859 6.39239C11.4774 6.38451 11.4722 6.37682 11.4695 6.37116C11.4682 6.36843 11.4676 6.36642 11.4673 6.36519C11.467 6.364 11.467 6.36345 11.467 6.3634H10.967Z" fill="white"/>
    </mask>
    <g mask="url(#mask0_2682_92742)">
    </g>
    <path fill-rule="evenodd" clip-rule="evenodd" d="M18.1464 4.81319C18.3417 4.61793 18.6583 4.61793 18.8536 4.81319C19.0488 5.00846 19.0488 5.32504 18.8536 5.5203L17.8536 6.5203C17.6583 6.71556 17.3417 6.71556 17.1464 6.5203C16.9512 6.32504 16.9512 6.00846 17.1464 5.81319L18.1464 4.81319Z" fill="#555A62"/>
    <path fill-rule="evenodd" clip-rule="evenodd" d="M20.5666 9.2117C20.6003 9.48578 20.4054 9.73525 20.1313 9.76891L18.7276 9.94126C18.4535 9.97491 18.2041 9.78 18.1704 9.50592C18.1368 9.23183 18.3317 8.98236 18.6057 8.94871L20.0094 8.77636C20.2835 8.74271 20.533 8.93762 20.5666 9.2117Z" fill="#555A62"/>
    <path fill-rule="evenodd" clip-rule="evenodd" d="M4.09727 8.6588L5.50374 8.80662C5.77837 8.83549 5.9776 9.08152 5.94873 9.35615C5.91987 9.63078 5.67384 9.83001 5.39921 9.80114L3.99274 9.65332C3.71811 9.62445 3.51888 9.37842 3.54774 9.10379C3.57661 8.82916 3.82264 8.62993 4.09727 8.6588Z" fill="#555A62"/>
    <path fill-rule="evenodd" clip-rule="evenodd" d="M5.09709 4.90703C5.27087 4.69242 5.58572 4.65933 5.80032 4.83311L6.89937 5.72311C7.11398 5.89689 7.14707 6.21174 6.97329 6.42634C6.79951 6.64094 6.48466 6.67404 6.27005 6.50025L5.171 5.61026C4.9564 5.43648 4.92331 5.12163 5.09709 4.90703Z" fill="#555A62"/>
</svg>
