<svg width="24" height="24" viewBox="0 0 24 24" fill="none" xmlns="http://www.w3.org/2000/svg">
<path d="M12.7 4C12.7 3.6134 12.3866 3.3 12 3.3C11.6134 3.3 11.3 3.6134 11.3 4H12.7ZM11.505 20.495C11.7784 20.7683 12.2216 20.7683 12.495 20.495L16.9497 16.0402C17.2231 15.7668 17.2231 15.3236 16.9497 15.0503C16.6764 14.7769 16.2332 14.7769 15.9598 15.0503L12 19.0101L8.0402 15.0503C7.76684 14.7769 7.32362 14.7769 7.05025 15.0503C6.77689 15.3236 6.77689 15.7668 7.05025 16.0402L11.505 20.495ZM11.3 4L11.3 20H12.7L12.7 4H11.3Z" fill="#555A62"/>
</svg>
