<svg width="24" height="24" viewBox="0 0 24 24" fill="none" xmlns="http://www.w3.org/2000/svg">
<path d="M12.6255 11.3788H16.2458V9.99914C16.2458 9.66504 16.6497 9.49773 16.8859 9.73398L19.8906 11.7386C20.037 11.8851 20.037 12.1225 19.8906 12.269L16.8859 14.2736C16.6497 14.5099 16.2458 14.3426 16.2458 14.0085V12.6288H12.6254V16.2468H14.0051C14.3392 16.2468 14.5065 16.6508 14.2703 16.887L12.2656 19.8917C12.1192 20.0381 11.8818 20.0381 11.7353 19.8917L9.73063 16.887C9.49438 16.6508 9.66169 16.2469 9.99578 16.2469H11.3755V12.6288H7.75513V14.0085C7.75513 14.3426 7.35119 14.5099 7.11497 14.2736L4.11032 12.269C3.96388 12.1225 3.96388 11.8851 4.11032 11.7386L7.11497 9.73398C7.35122 9.49773 7.75513 9.66504 7.75513 9.99914V11.3788H11.3755V7.75617H9.99582C9.66172 7.75617 9.49441 7.35223 9.73066 7.11601L11.7353 4.11135C11.8818 3.96492 12.1192 3.96492 12.2657 4.11135L14.2703 7.11601C14.5066 7.35226 14.3393 7.75617 14.0052 7.75617H12.6255V11.3788Z" fill="#000000"/>
</svg>
