<svg style="transform: rotate(90deg)" width="24" height="24" viewBox="0 0 24 24" fill="none" xmlns="http://www.w3.org/2000/svg">
<path d="M11.3 20C11.3 20.3866 11.6134 20.7 12 20.7C12.3866 20.7 12.7 20.3866 12.7 20L11.3 20ZM12.495 3.50503C12.2216 3.23166 11.7784 3.23166 11.505 3.50503L7.05025 7.9598C6.77689 8.23316 6.77689 8.67638 7.05025 8.94975C7.32362 9.22311 7.76683 9.22311 8.0402 8.94975L12 4.98995L15.9598 8.94975C16.2332 9.22311 16.6764 9.22311 16.9497 8.94975C17.2231 8.67638 17.2231 8.23317 16.9497 7.9598L12.495 3.50503ZM12.7 20L12.7 4L11.3 4L11.3 20L12.7 20Z" fill="#555A62"/>
</svg>
