<svg width="24" height="24" viewBox="0 0 24 24" fill="none" xmlns="http://www.w3.org/2000/svg">
    <path
        d="M21.1543 11.2207C21.2598 11.3379 21.3125 11.4727 21.3125 11.625C21.3125 11.7773 21.2598 11.9121 21.1543 12.0293L17.7793 15.4043C17.6621 15.5098 17.5273 15.5625 17.375 15.5625C17.2227 15.5625 17.0879 15.5098 16.9707 15.4043C16.8652 15.2871 16.8125 15.1523 16.8125 15C16.8125 14.8477 16.8652 14.7129 16.9707 14.5957L19.959 11.625L16.9707 8.6543C16.8652 8.53711 16.8125 8.40234 16.8125 8.25C16.8125 8.09766 16.8652 7.96289 16.9707 7.8457C17.0879 7.74023 17.2227 7.6875 17.375 7.6875C17.5273 7.6875 17.6621 7.74023 17.7793 7.8457L21.1543 11.2207Z"
        fill="#555A62" />
    <rect x="2.5" y="8.5" width="12" height="6" rx="3" stroke="#555A62" />
</svg>