<svg xmlns="http://www.w3.org/2000/svg" width="24" height="24" viewBox="0 0 24 24">
    <g fill="none" fill-rule="evenodd">
        <g fill="#555A62">
            <g>
                <path d="M18.75 6.055c-.017-.025-.036-.047-.058-.067-1.631-1.814-3.989-2.963-6.61-2.986L12.063 3l-.01.001L12 3C9.345 3 6.956 4.155 5.308 5.988c-.022.02-.04.042-.058.067C3.851 7.64 3 9.719 3 11.995c0 2.275.851 4.354 2.25 5.94.017.024.036.046.057.065 1.642 1.825 4.017 2.978 6.659 2.988.031.007.063.012.097.012.038 0 .074-.006.109-.016 2.583-.049 4.904-1.189 6.517-2.98.017-.015.03-.033.045-.052C20.142 16.365 21 14.278 21 11.994c0-2.275-.851-4.354-2.25-5.94zm-.451 11.034c-.59-.312-1.256-.603-1.975-.815.356-1.196.566-2.56.593-4.06h3.215c-.072 1.929-.747 3.55-1.833 4.875zM3.868 12.214h3.215c.027 1.5.237 2.89.593 4.087-.719.212-1.385.45-1.975.762-1.086-1.325-1.76-2.92-1.833-4.849zM5.7 6.794c.59.312 1.256.55 1.975.762-.339 1.14-.547 2.515-.589 3.801H3.879c.113-1.714.777-3.288 1.822-4.563zm5.844.577c-.86-.023-1.939-.137-2.829-.33.679-1.737 1.754-2.933 2.829-3.148v3.478zm0 .857v3.13H7.948c.044-1.287.205-2.48.53-3.556.98.22 1.992.402 3.067.426zm0 3.986v3.547c-1.075.024-2.087.1-3.066.32-.343-1.132-.508-2.367-.537-3.867h3.603zm0 4.404v3.478c-1.075-.215-2.15-1.41-2.829-3.148.89-.193 1.97-.307 2.829-.33zm.86.003c1.074.03 1.85.142 2.702.327-.653 1.672-1.628 2.842-2.703 3.119V16.62zm0-.857v-3.55h3.653c-.029 1.5-.282 2.735-.625 3.867-.941-.212-1.954-.287-3.029-.317zm0-4.407V8.225c1.074-.03 2.087-.21 3.028-.423.326 1.076.575 2.27.62 3.555h-3.649zm0-3.99V3.922c1.074.277 2.049 1.446 2.702 3.118-.852.186-1.628.298-2.703.327zm2.153-3.096c1.192.395 2.262 1.058 3.14 1.919-.5.247-1.053.46-1.648.633-.391-1.034-.9-1.905-1.492-2.552zM7.95 6.824c-.595-.174-1.148-.387-1.647-.634.877-.86 1.947-1.524 3.14-1.92-.594.648-1.101 1.52-1.493 2.554zm0 10.341c.392 1.035.9 1.906 1.492 2.553-1.192-.395-2.262-1.058-3.14-1.919.5-.247 1.053-.46 1.648-.634zm8.1 0c.595.174 1.148.387 1.647.634-.877.86-1.947 1.524-3.14 1.919.594-.648 1.102-1.518 1.493-2.553zm.863-5.808c-.042-1.286-.25-2.635-.589-3.775.719-.212 1.385-.502 1.975-.815 1.045 1.275 1.71 2.876 1.822 4.59h-3.208z" transform="translate(-587 -1103) translate(587 1103)"/>
            </g>
        </g>
    </g>
</svg>
