<svg width="24" height="24" viewBox="0 0 24 24" xmlns="http://www.w3.org/2000/svg">
<path d="M21 16.3438C20.9635 16.7448 20.7448 16.9635 20.3438 17C19.9427 16.9635 19.724 16.7448 19.6875 16.3438V7.15625C19.724 6.75521 19.9427 6.53646 20.3438 6.5C20.7448 6.53646 20.9635 6.75521 21 7.15625V16.3438ZM13.0977 15.0039L15.6953 12.4062H4.15625C3.75521 12.3698 3.53646 12.151 3.5 11.75C3.53646 11.349 3.75521 11.1302 4.15625 11.0938H15.6953L13.0977 8.46875C12.8424 8.17708 12.8424 7.8763 13.0977 7.56641C13.4076 7.3112 13.7083 7.3112 14 7.56641L17.7188 11.2852C17.9922 11.5951 17.9922 11.8958 17.7188 12.1875L14 15.9062C13.7083 16.1797 13.4076 16.1797 13.0977 15.9062C12.9701 15.7969 12.9062 15.651 12.9062 15.4688C12.9062 15.2865 12.9701 15.1315 13.0977 15.0039Z" fill="#000000" />
</svg>
