<svg width="24" height="24" viewBox="0 0 24 24" fill="none" xmlns="http://www.w3.org/2000/svg">
<path d="M12 19.5625C14.6016 19.5625 16.9922 18.1914 18.3281 15.9062C19.6289 13.6562 19.6289 10.8789 18.3281 8.59375C16.9922 6.34375 14.6016 4.9375 12 4.9375C9.36328 4.9375 6.97266 6.34375 5.63672 8.59375C4.33594 10.8789 4.33594 13.6562 5.63672 15.9062C6.97266 18.1914 9.36328 19.5625 12 19.5625ZM12 3.25C15.1992 3.25 18.1523 4.97266 19.7695 7.75C21.3867 10.5625 21.3867 13.9727 19.7695 16.75C18.1523 19.5625 15.1992 21.25 12 21.25C8.76562 21.25 5.8125 19.5625 4.19531 16.75C2.57812 13.9727 2.57812 10.5625 4.19531 7.75C5.8125 4.97266 8.76562 3.25 12 3.25ZM13.125 12.25C13.125 12.8828 12.5977 13.375 12 13.375C11.3672 13.375 10.875 12.8828 10.875 12.25C10.875 11.6523 11.3672 11.125 12 11.125C12.5977 11.125 13.125 11.6523 13.125 12.25ZM15.375 11.125C15.9727 11.125 16.5 11.6523 16.5 12.25C16.5 12.8828 15.9727 13.375 15.375 13.375C14.7422 13.375 14.25 12.8828 14.25 12.25C14.25 11.6523 14.7422 11.125 15.375 11.125ZM9.75 12.25C9.75 12.8828 9.22266 13.375 8.625 13.375C7.99219 13.375 7.5 12.8828 7.5 12.25C7.5 11.6523 7.99219 11.125 8.625 11.125C9.22266 11.125 9.75 11.6523 9.75 12.25Z" fill="#555A62"/>
</svg>
