<svg width="24" height="24" viewBox="0 0 24 24" fill="none" xmlns="http://www.w3.org/2000/svg">
<path fill-rule="evenodd" clip-rule="evenodd" d="M11.3143 13.4053H12.7086L13 7.5H11.0229L11.3143 13.4053ZM11.2571 14.7048C11.0857 14.8781 11 15.134 11 15.4725C11 15.7989 11.0876 16.0517 11.2629 16.231C11.4381 16.4103 11.6857 16.5 12.0057 16.5C12.3181 16.5 12.5619 16.4083 12.7371 16.225C12.9124 16.0416 13 15.7908 13 15.4725C13 15.142 12.9133 14.8882 12.74 14.7109C12.5667 14.5336 12.3219 14.4449 12.0057 14.4449C11.6781 14.4449 11.4286 14.5316 11.2571 14.7048Z" fill="#000000"/>
<circle cx="12" cy="12" r="7.5" stroke="#000000"/>
</svg>
