<svg width="24" height="24" viewBox="0 0 24 24" fill="none" xmlns="http://www.w3.org/2000/svg">
<path d="M22.8281 13.7734L20.207 3.07422C20.0065 2.41536 19.5625 2.05729 18.875 2H5.125C4.4375 2.05729 3.99349 2.40104 3.79297 3.03125L1.17188 13.7734C1.05729 14.2031 1 14.6471 1 15.1055V19.2305C1.02865 19.8034 1.22917 20.2904 1.60156 20.6914C2.0026 21.0638 2.48958 21.2643 3.0625 21.293H20.9375C21.5104 21.2643 21.9974 21.0638 22.3984 20.6914C22.7708 20.2904 22.9714 19.8034 23 19.2305V15.1055C23 14.6471 22.9427 14.2031 22.8281 13.7734ZM5.125 3.41797H18.832L21.1953 13.043H16.8125C16.526 13.043 16.3255 13.1719 16.2109 13.4297L15.0078 15.793H8.99219L7.78906 13.4297C7.67448 13.1719 7.47396 13.043 7.1875 13.043H2.76172L5.125 3.41797ZM21.625 19.2305C21.5964 19.6602 21.3672 19.8893 20.9375 19.918H3.0625C2.63281 19.8893 2.40365 19.6602 2.375 19.2305V15.1055C2.375 14.9049 2.38932 14.7188 2.41797 14.5469C2.44661 14.4896 2.46094 14.4466 2.46094 14.418H6.75781L7.96094 16.7812C8.07552 17.0391 8.27604 17.168 8.5625 17.168H15.4375C15.724 17.168 15.9245 17.0391 16.0391 16.7812L17.2422 14.418H21.5391C21.5391 14.5039 21.5534 14.5898 21.582 14.6758C21.6107 14.819 21.625 14.9622 21.625 15.1055V19.2305Z" fill="#555A62"/>
</svg>
