<svg width="24" height="24" viewBox="0 0 24 24" fill="none" xmlns="http://www.w3.org/2000/svg">
<path d="M5.21429 3.5625V4.125H20.0893C20.5826 4.125 21 4.51172 21 4.96875C21 5.17969 20.9241 5.35547 20.8103 5.49609L17.3571 9.75L20.8103 14.0391C20.9241 14.1797 21 14.3555 21 14.5312C21 15.0234 20.5826 15.375 20.0893 15.375H5.21429V20.4375C5.21429 20.7539 4.91071 21 4.60714 21C4.26562 21 4 20.7539 4 20.4375V15.375V14.25V5.25V4.125V3.5625C4 3.28125 4.26562 3 4.60714 3C4.91071 3 5.21429 3.28125 5.21429 3.5625ZM5.21429 5.25V14.25H19.4821L16.3705 10.4531C16.029 10.0312 16.029 9.50391 16.3705 9.08203L19.4821 5.25H5.21429Z" fill="#555A62"/>
</svg>
