<svg width="25" height="24" viewBox="0 0 25 24" fill="none" xmlns="http://www.w3.org/2000/svg">
<path d="M13.0215 2.375C9.54102 2.375 6.4043 4.22266 4.68555 7.1875C2.92383 10.1953 2.92383 13.8477 4.68555 16.8125C6.4043 19.8203 9.54102 21.625 13.0215 21.625C16.459 21.625 19.5957 19.8203 21.3145 16.8125C23.0762 13.8477 23.0762 10.1953 21.3145 7.1875C19.5957 4.22266 16.459 2.375 13.0215 2.375ZM13.0215 23C9.06836 23 5.45898 20.9375 3.48242 17.5C1.50586 14.1055 1.50586 9.9375 3.48242 6.5C5.45898 3.10547 9.06836 1 13.0215 1C16.9316 1 20.541 3.10547 22.5176 6.5C24.4941 9.9375 24.4941 14.1055 22.5176 17.5C20.541 20.9375 16.9316 23 13.0215 23ZM16.5449 18.0156C16.2871 18.2734 15.8574 18.2734 15.5996 17.9727C15.084 17.4141 14.2246 16.8125 13.0215 16.8125C11.7754 16.8125 10.916 17.4141 10.4004 17.9727C10.1855 18.2734 9.71289 18.2734 9.45508 18.0156C9.1543 17.7578 9.1543 17.3281 9.41211 17.0703C10.0996 16.2969 11.3027 15.4375 13.0215 15.4375C14.6973 15.4375 15.9004 16.2969 16.5879 17.0703C16.8457 17.3281 16.8457 17.7578 16.5449 18.0156ZM9.58398 12.3438C9.02539 12.3438 8.55273 11.9141 8.55273 11.3125C8.55273 10.9688 8.72461 10.668 8.98242 10.4961L7.26367 9.9375C6.91992 9.80859 6.74805 9.42188 6.83398 9.03516C6.96289 8.69141 7.34961 8.51953 7.73633 8.60547L11.8613 9.98047C12.2051 10.1094 12.377 10.4961 12.291 10.8828C12.1621 11.2266 11.7754 11.3984 11.3887 11.3125L10.5723 11.0117C10.6152 11.0977 10.6152 11.2266 10.6152 11.3125C10.6152 11.9141 10.1426 12.3438 9.58398 12.3438ZM17.4902 11.3125C17.4902 11.9141 17.0176 12.3438 16.459 12.3438C15.9004 12.3438 15.4277 11.9141 15.4277 11.3125C15.4277 11.2266 15.4277 11.0977 15.4707 11.0117L14.6113 11.3125C14.2246 11.3984 13.8379 11.2266 13.709 10.8828C13.623 10.4961 13.7949 10.1094 14.1816 9.98047L18.3066 8.60547C18.6504 8.51953 19.0371 8.69141 19.166 9.03516C19.2949 9.42188 19.0801 9.80859 18.7363 9.9375L17.0605 10.4961C17.3184 10.668 17.4902 10.9688 17.4902 11.3125Z" fill="#555A62"/>
</svg>
