<svg width="25" height="24" viewBox="0 0 25 24" fill="none" xmlns="http://www.w3.org/2000/svg">
<path d="M13.48 4.32001C14.86 3.24001 16.66 2.78001 18.42 3.10001C21.36 3.64001 23.5 6.20001 23.5 9.19001V9.34001C23.5 10.89 22.94 12.37 21.93 13.53C21.78 13.69 21.63 13.85 21.47 14L13.56 21.36C13.56 21.36 13.49 21.42 13.45 21.45C13.18 21.66 12.84 21.77 12.5 21.77C12.1 21.77 11.73 21.62 11.43 21.35L3.52001 13.99C3.36001 13.84 3.21001 13.68 3.06001 13.52C2.05001 12.36 1.49001 10.87 1.49001 9.33001V9.18001C1.50001 6.20001 3.64001 3.64001 6.58001 3.10001C8.34001 2.78001 10.13 3.24001 11.51 4.32001C11.8 4.55001 12.07 4.80001 12.31 5.08001L12.49 5.28001L12.67 5.08001C12.85 4.88001 13.04 4.69001 13.24 4.52001C13.32 4.46001 13.39 4.39001 13.47 4.33001L13.48 4.32001ZM11.98 6.77001L11.46 6.19001L11.28 5.99001C10.16 4.74001 8.47001 4.15001 6.82001 4.45001C4.53001 4.87001 2.87001 6.86001 2.87001 9.19001V9.34001C2.87001 10.73 3.45001 12.05 4.46001 13L12.36 20.36C12.36 20.36 12.44 20.41 12.49 20.41C12.54 20.41 12.58 20.39 12.62 20.36L20.53 13C21.54 12.05 22.12 10.73 22.12 9.34001V9.19001C22.12 6.86001 20.46 4.87001 18.17 4.45001C16.52 4.15001 14.83 4.73001 13.71 5.99001L13.53 6.19001L13.01 6.77001C12.88 6.92001 12.69 7.00001 12.49 7.00001C12.29 7.00001 12.11 6.91001 11.97 6.77001H11.98Z" fill="#555A62"/>
</svg>
