<svg width="25" height="24" viewBox="0 0 25 24" fill="none" xmlns="http://www.w3.org/2000/svg">
<path d="M15.25 3.75006C15.48 3.49006 15.71 3.23006 15.96 3.00006C16.3 2.68006 16.83 2.68006 17.16 3.00006C18.65 4.42006 19.9 6.29006 20.79 8.07006C21.66 9.82006 22.24 11.6201 22.24 12.8801C22.24 18.3701 17.95 23.0001 12.62 23.0001C7.29 23.0001 3 18.3601 3 12.8801C3 11.2301 3.76 9.21006 4.95 7.22006C6.15 5.20006 7.85 3.09006 9.84 1.23006C10.18 0.920059 10.7 0.920059 11.03 1.23006C11.88 2.02006 12.69 2.87006 13.47 3.75006C13.77 4.10006 14.08 4.46006 14.37 4.83006C14.64 4.47006 14.94 4.09006 15.25 3.73006V3.75006ZM10.44 2.56006C8.68 4.25006 7.2 6.13006 6.13 7.92006C4.99 9.84006 4.37 11.5901 4.37 12.8801C4.37 17.6901 8.07 21.6201 12.62 21.6201C17.17 21.6201 20.87 17.6801 20.87 12.8801C20.87 11.9401 20.4 10.3801 19.56 8.69006C18.8 7.16006 17.76 5.58006 16.56 4.35006C16.19 4.75006 15.82 5.21006 15.46 5.69006C15.2 6.02006 14.8 6.22006 14.38 6.23006C13.96 6.23006 13.55 6.04006 13.29 5.71006C12.39 4.59006 11.44 3.55006 10.43 2.57006L10.44 2.56006ZM14.29 12.9201L15.36 11.6701C15.9 11.0401 17.04 10.9701 17.5 11.8901C18.58 14.0601 18.24 17.0001 16.04 18.5301H16.03C15.02 19.2101 13.92 19.5601 12.69 19.5601C11.19 19.5601 9.79 19.0701 8.77 18.1401C7.73 17.2001 7.12 15.8401 7.12 14.1801C7.12 12.6101 8.01 11.2801 9.45 9.48006C10 8.79006 11.04 8.79006 11.59 9.48006C12.31 10.4001 13.58 12.0101 14.29 12.9101V12.9201Z" fill="#555A62"/>
</svg>
