<svg width="24" height="24" viewBox="0 0 24 24" fill="none" xmlns="http://www.w3.org/2000/svg"><path d="M22 5.643v12.714c0 .44-.17.83-.511 1.171A1.583 1.583 0 0 1 20.32 20H3.672c-.487 0-.885-.163-1.201-.472-.317-.309-.47-.707-.47-1.171V5.643a1.553 1.553 0 0 1 .462-1.171c.316-.317.714-.472 1.2-.472H20.32c.463 0 .852.163 1.169.472.34.341.511.732.511 1.171Zm-1.347 12.714V5.643c0-.073-.032-.146-.105-.22-.073-.073-.146-.105-.22-.105H3.673a.337.337 0 0 0-.252.105c-.049.05-.073.122-.073.22v12.714c0 .098.024.17.073.22a.337.337 0 0 0 .252.105h16.657c.073 0 .146-.032.219-.105.073-.074.105-.147.105-.22ZM7.315 13.354v3.986H4.653v-3.986h2.662Zm4.008-5.368v9.354H8.66V7.986h2.662Zm4.008 2.668v6.686h-2.662v-6.686h2.662Zm3.975-3.986V17.34h-2.66V6.668h2.66Z" fill="#555A62"/></svg>