<svg width="25" height="24" viewBox="0 0 25 24" fill="none" xmlns="http://www.w3.org/2000/svg">
<path d="M1.5 12C1.5 8.06997 3.6 4.43997 7 2.46997C10.4 0.499968 14.6 0.509968 18 2.46997C21.4 4.42997 23.5 8.06997 23.5 12C23.5 15.93 21.4 19.56 18 21.53C14.6 23.5 10.4 23.49 7 21.53C3.6 19.57 1.5 15.93 1.5 12ZM22.12 12C22.12 8.55997 20.29 5.37997 17.31 3.65997C14.33 1.93997 10.66 1.93997 7.69 3.65997C4.71 5.37997 2.88 8.55997 2.88 12C2.88 15.44 4.71 18.62 7.69 20.34C10.67 22.06 14.34 22.06 17.31 20.34C20.29 18.62 22.12 15.44 22.12 12ZM8.55 14.99C9.32 15.88 10.63 16.82 12.5 16.82C14.37 16.82 15.68 15.88 16.45 14.99C16.7 14.7 17.13 14.67 17.42 14.92C17.71 15.17 17.74 15.6 17.49 15.89C16.53 16.99 14.87 18.19 12.5 18.19C10.13 18.19 8.47 16.99 7.51 15.89C7.26 15.6 7.29 15.17 7.58 14.92C7.87 14.67 8.3 14.7 8.55 14.99ZM8.05 9.93997C8.05 9.36997 8.51 8.90997 9.08 8.90997C9.65 8.90997 10.11 9.36997 10.11 9.93997C10.11 10.51 9.65 10.97 9.08 10.97C8.51 10.97 8.05 10.51 8.05 9.93997ZM15.95 8.90997C16.52 8.90997 16.98 9.36997 16.98 9.93997C16.98 10.51 16.52 10.97 15.95 10.97C15.38 10.97 14.92 10.51 14.92 9.93997C14.92 9.36997 15.38 8.90997 15.95 8.90997Z" fill="#555A62"/>
</svg>
