<svg width="25" height="24" viewBox="0 0 25 24" fill="none" xmlns="http://www.w3.org/2000/svg">
<path fill-rule="evenodd" clip-rule="evenodd" d="M13 21.7C18.3572 21.7 22.7 17.3572 22.7 12C22.7 6.64284 18.3572 2.3 13 2.3C7.64284 2.3 3.3 6.64284 3.3 12C3.3 17.3572 7.64284 21.7 13 21.7ZM13 23C19.0751 23 24 18.0751 24 12C24 5.92487 19.0751 1 13 1C6.92487 1 2 5.92487 2 12C2 18.0751 6.92487 23 13 23Z" fill="#555A62"/>
<path d="M15.0625 9.25C16.1797 9.25 17.125 8.34766 17.125 7.1875C17.125 6.07031 16.1797 5.125 15.0625 5.125C14.8906 5.125 14.7188 5.16797 14.5469 5.21094C15.0195 5.33984 15.4062 5.8125 15.4062 6.32812C15.4062 7.01562 14.8477 7.53125 14.2031 7.53125C13.6445 7.53125 13.2148 7.1875 13.043 6.71484C13 6.88672 13 7.05859 13 7.1875C13 8.34766 13.9023 9.25 15.0625 9.25ZM15.0625 10.625C13.8164 10.625 12.6992 9.98047 12.0547 8.90625C11.4531 7.875 11.4531 6.54297 12.0547 5.46875C12.6992 4.4375 13.8164 3.75 15.0625 3.75C16.2656 3.75 17.3828 4.4375 18.0273 5.46875C18.6289 6.54297 18.6289 7.875 18.0273 8.90625C17.3828 9.98047 16.2656 10.625 15.0625 10.625ZM8.1875 8.90625C7.54297 8.90625 6.98438 9.25 6.68359 9.76562C6.38281 10.3242 6.38281 10.9688 6.68359 11.4844C6.98438 12.043 7.54297 12.3438 8.1875 12.3438C8.78906 12.3438 9.34766 12.043 9.64844 11.4844C9.94922 10.9688 9.94922 10.3242 9.64844 9.76562C9.34766 9.25 8.78906 8.90625 8.1875 8.90625ZM8.1875 13.7188C7.07031 13.7188 6.03906 13.1602 5.48047 12.1719C4.92188 11.2266 4.92188 10.0664 5.48047 9.07812C6.03906 8.13281 7.07031 7.53125 8.1875 7.53125C9.26172 7.53125 10.293 8.13281 10.8516 9.07812C11.4102 10.0664 11.4102 11.2266 10.8516 12.1719C10.293 13.1602 9.26172 13.7188 8.1875 13.7188ZM9.21875 10.625C9.21875 11.2266 8.74609 11.6562 8.1875 11.6562C7.58594 11.6562 7.15625 11.2266 7.15625 10.625C7.15625 10.0664 7.58594 9.59375 8.1875 9.59375C8.74609 9.59375 9.21875 10.0664 9.21875 10.625ZM9.00391 17.8008C8.875 17.6719 8.74609 17.543 8.61719 17.4141C8.1875 16.9844 8.31641 16.2969 8.83203 15.9961L18.5 10.4102C19.0156 10.1094 19.7031 10.3242 19.875 10.9258C20.6055 13.7188 19.5312 16.7695 17.082 18.3594C17.082 18.4453 17.125 18.5742 17.125 18.6602V18.875C17.125 21.1523 15.2773 23 13 23C10.7227 23 8.875 21.1523 8.875 18.875V18.6602C8.875 18.3594 8.91797 18.0586 9.00391 17.8008ZM14.5039 17.5C14.2031 17.5 13.9453 17.6289 13.7734 17.8438H13.7305C13.6875 17.9297 13.6016 18.0156 13.5586 18.1016C13.5156 18.1875 13.5156 18.2305 13.4727 18.3164C13.3438 18.875 12.5703 18.875 12.4844 18.3164C12.4414 18.2305 12.4414 18.1875 12.3984 18.1016C12.3555 18.0156 12.2695 17.9297 12.2266 17.8438H12.1836C12.0117 17.6289 11.7539 17.5 11.4531 17.5H11.3672C10.7227 17.5 10.25 18.0156 10.25 18.6602V18.875C10.25 20.4219 11.4531 21.625 13 21.625C14.5039 21.625 15.75 20.4219 15.75 18.875V18.6602C15.75 18.0156 15.2344 17.5 14.5898 17.5H14.5039Z" fill="#555A62"/>
</svg>
