<svg width="25" height="24" viewBox="0 0 25 24" fill="none" xmlns="http://www.w3.org/2000/svg">
<path d="M22.03 6.5C23.99 9.9 23.99 14.1 22.03 17.5C20.07 20.9 16.43 23 12.5 23C8.57 23 4.94 20.9 2.97 17.5C0.999999 14.1 1.01 9.9 2.97 6.5C4.93 3.1 8.57 1 12.5 1C16.43 1 20.06 3.1 22.03 6.5ZM17.31 3.66C14.33 1.94 10.66 1.94 7.69 3.66C4.71 5.38 2.88 8.56 2.88 12C2.88 15.44 4.71 18.62 7.69 20.34C10.67 22.06 14.34 22.06 17.31 20.34C20.29 18.62 22.12 15.44 22.12 12C22.12 8.56 20.29 5.38 17.31 3.66ZM8.05 9.94C8.05 9.37 8.51 8.91 9.08 8.91C9.65 8.91 10.11 9.37 10.11 9.94C10.11 10.51 9.65 10.97 9.08 10.97C8.51 10.97 8.05 10.51 8.05 9.94ZM15.94 15.44C16.32 15.44 16.63 15.75 16.63 16.13C16.63 16.51 16.32 16.82 15.94 16.82H9.06C8.68 16.82 8.37 16.51 8.37 16.13C8.37 15.75 8.68 15.44 9.06 15.44H15.94ZM15.95 10.97C15.38 10.97 14.92 10.51 14.92 9.94C14.92 9.37 15.38 8.91 15.95 8.91C16.52 8.91 16.98 9.37 16.98 9.94C16.98 10.51 16.52 10.97 15.95 10.97Z" fill="#555A62"/>
</svg>
