<svg width="25" height="24" viewBox="0 0 25 24" fill="none" xmlns="http://www.w3.org/2000/svg">
<g clip-path="url(#clip0_4879_2472)">
<path d="M11.48 22.6399C6.25 22.6399 2 18.3899 2 13.1699C2 7.94994 6.25 3.68994 11.48 3.68994C11.84 3.68994 12.13 3.97994 12.13 4.33994C12.13 4.69994 11.84 4.98994 11.48 4.98994C6.97 4.98994 3.3 8.65994 3.3 13.1699C3.3 17.6799 6.97 21.3399 11.48 21.3399C15.99 21.3399 19.66 17.6699 19.66 13.1699C19.66 12.8099 19.95 12.5199 20.31 12.5199C20.67 12.5199 20.96 12.8099 20.96 13.1699C20.96 18.3899 16.71 22.6499 11.48 22.6499V22.6399Z" fill="#555A62"/>
<path d="M7.38 14.98C7.57 15.46 8.03 16.23 8.75 16.87C9.45 17.5 10.39 17.98 11.56 17.98C12.73 17.98 13.66 17.49 14.37 16.87C15.09 16.23 15.54 15.46 15.74 14.98C15.88 14.63 16.28 14.46 16.63 14.6C16.98 14.74 17.15 15.14 17.01 15.49C16.74 16.15 16.17 17.1 15.28 17.9C14.39 18.7 13.14 19.36 11.56 19.36C9.98 19.36 8.73 18.7 7.83 17.89C6.94 17.1 6.37 16.15 6.1 15.48C5.96 15.13 6.13 14.73 6.48 14.59C6.83 14.45 7.23 14.62 7.37 14.97L7.38 14.98Z" fill="#555A62"/>
<path d="M8.13001 12.1299C8.69886 12.1299 9.16001 11.6688 9.16001 11.0999C9.16001 10.5311 8.69886 10.0699 8.13001 10.0699C7.56115 10.0699 7.10001 10.5311 7.10001 11.0999C7.10001 11.6688 7.56115 12.1299 8.13001 12.1299Z" fill="#555A62"/>
<path d="M15 12.1299C15.5689 12.1299 16.03 11.6688 16.03 11.0999C16.03 10.5311 15.5689 10.0699 15 10.0699C14.4311 10.0699 13.97 10.5311 13.97 11.0999C13.97 11.6688 14.4311 12.1299 15 12.1299Z" fill="#555A62"/>
<path d="M19.82 1.69V4.44H22.57C22.95 4.44 23.26 4.75 23.26 5.13C23.26 5.51 22.95 5.82 22.57 5.82H19.82V8.57C19.82 8.95 19.51 9.26 19.13 9.26C18.75 9.26 18.44 8.95 18.44 8.57V5.82H15.69C15.31 5.82 15 5.51 15 5.13C15 4.75 15.31 4.44 15.69 4.44H18.44V1.69C18.44 1.31 18.75 1 19.13 1C19.51 1 19.82 1.31 19.82 1.69Z" fill="#555A62"/>
</g>
<defs>
<clipPath id="clip0_4879_2472">
<rect width="21.25" height="21.64" fill="white" transform="translate(2 1)"/>
</clipPath>
</defs>
</svg>
