<svg width="25" height="24" viewBox="0 0 25 24" fill="none" xmlns="http://www.w3.org/2000/svg">
<path d="M1.5 12C1.5 8.06997 3.6 4.43997 7 2.46997C10.4 0.499968 14.6 0.509968 18 2.46997C21.4 4.42997 23.5 8.06997 23.5 12C23.5 15.93 21.4 19.56 18 21.53C14.6 23.5 10.4 23.49 7 21.53C3.6 19.57 1.5 15.93 1.5 12ZM22.12 12C22.12 8.55997 20.29 5.37997 17.31 3.65997C14.33 1.93997 10.66 1.93997 7.69 3.65997C4.71 5.37997 2.88 8.55997 2.88 12C2.88 15.44 4.71 18.62 7.69 20.34C10.67 22.06 14.34 22.06 17.31 20.34C20.29 18.62 22.12 15.44 22.12 12ZM6.94 13.38H18.07C18.68 13.38 19.16 13.91 19.01 14.5C18.23 17.42 15.62 19.57 12.51 19.57C9.4 19.57 6.79 17.42 6.01 14.5C5.86 13.91 6.34 13.38 6.95 13.38H6.94ZM8.22 9.09997C7.95 9.40997 7.76 9.81997 7.67 10.19C7.58 10.56 7.21 10.78 6.84 10.69C6.47 10.6 6.25 10.23 6.34 9.85997C6.48 9.31997 6.76 8.69997 7.19 8.19997C7.62 7.69997 8.25 7.27997 9.06 7.27997C9.87 7.27997 10.5 7.70997 10.94 8.19997C11.37 8.68997 11.66 9.30997 11.79 9.85997C11.88 10.23 11.66 10.6 11.29 10.69C10.92 10.78 10.55 10.56 10.46 10.19C10.37 9.81997 10.17 9.40997 9.91 9.09997C9.64 8.79997 9.36 8.64997 9.07 8.64997C8.78 8.64997 8.49 8.79997 8.23 9.09997H8.22ZM14.55 10.19C14.46 10.56 14.09 10.78 13.72 10.69C13.35 10.6 13.13 10.23 13.22 9.85997C13.36 9.31997 13.64 8.69997 14.07 8.19997C14.5 7.69997 15.13 7.27997 15.94 7.27997C16.75 7.27997 17.38 7.70997 17.82 8.19997C18.25 8.68997 18.54 9.30997 18.67 9.85997C18.76 10.23 18.54 10.6 18.17 10.69C17.8 10.78 17.43 10.56 17.34 10.19C17.25 9.81997 17.05 9.40997 16.79 9.09997C16.52 8.79997 16.24 8.64997 15.95 8.64997C15.66 8.64997 15.37 8.79997 15.11 9.09997C14.84 9.40997 14.65 9.81997 14.56 10.19H14.55Z" fill="#555A62"/>
</svg>
