<svg width="25" height="24" viewBox="0 0 25 24" fill="none" xmlns="http://www.w3.org/2000/svg">
<g clip-path="url(#clip0_4875_1338)">
<path d="M1.5 12C1.5 8.07003 3.6 4.44003 7 2.47003C10.4 0.500029 14.6 0.510029 18 2.47003C21.4 4.43003 23.5 8.07003 23.5 12C23.5 15.93 21.4 19.56 18 21.53C14.6 23.5 10.4 23.49 7 21.53C3.6 19.57 1.5 15.93 1.5 12ZM22.12 12C22.12 8.56003 20.29 5.38003 17.31 3.66003C14.33 1.94003 10.66 1.94003 7.69 3.66003C4.71 5.38003 2.88 8.56003 2.88 12C2.88 15.44 4.71 18.62 7.69 20.34C10.67 22.06 14.34 22.06 17.31 20.34C20.29 18.62 22.12 15.44 22.12 12ZM16.45 17.95C15.68 17.06 14.37 16.12 12.5 16.12C10.63 16.12 9.32 17.06 8.55 17.95C8.3 18.24 7.87 18.27 7.58 18.02C7.29 17.77 7.26 17.34 7.51 17.05C8.46 15.95 10.13 14.75 12.5 14.75C14.87 14.75 16.53 15.95 17.49 17.05C17.74 17.34 17.71 17.77 17.42 18.02C17.13 18.27 16.7 18.24 16.45 17.95ZM8.05 9.94003C8.05 9.37003 8.51 8.91003 9.08 8.91003C9.65 8.91003 10.11 9.37003 10.11 9.94003C10.11 10.51 9.65 10.97 9.08 10.97C8.51 10.97 8.05 10.51 8.05 9.94003ZM15.95 8.91003C16.52 8.91003 16.98 9.37003 16.98 9.94003C16.98 10.51 16.52 10.97 15.95 10.97C15.38 10.97 14.92 10.51 14.92 9.94003C14.92 9.37003 15.38 8.91003 15.95 8.91003Z" fill="#555A62"/>
</g>
<defs>
<clipPath id="clip0_4875_1338">
<rect width="22" height="22" fill="white" transform="translate(1.5 1)"/>
</clipPath>
</defs>
</svg>
