<svg width="25" height="24" viewBox="0 0 25 24" fill="none" xmlns="http://www.w3.org/2000/svg">
<path d="M6.78825 13.8777C7.33084 13.5104 7.98002 13.317 8.63888 13.317H14.8302C16.1189 13.317 17.1653 14.3611 17.1653 15.6469C17.1653 16.0046 17.0878 16.343 16.9425 16.6427H17.175L21.1185 14.3031C21.4673 14.1001 21.8646 13.9841 22.2618 13.9841H22.3199C23.5214 13.9841 24.5 14.9605 24.5 16.1593C24.5 16.8941 24.1221 17.5805 23.5117 17.9769L18.5315 21.2059C17.7757 21.6989 16.894 21.96 15.9929 21.96H1.16855C0.800363 21.96 0.5 21.6603 0.5 21.2929C0.5 20.9255 0.800363 20.6258 1.16855 20.6258H15.9736C16.6227 20.6258 17.2428 20.4421 17.7854 20.0941L22.7656 16.8651C23.0079 16.7104 23.1532 16.4397 23.1532 16.1593C23.1532 15.6953 22.7753 15.3182 22.3103 15.3182H22.2521C22.0874 15.3182 21.9324 15.3666 21.787 15.4439L17.6885 17.8802C17.582 17.9382 17.4657 17.9769 17.3494 17.9769H11.1677C10.7996 17.9769 10.4992 17.6772 10.4992 17.3098C10.4992 16.9424 10.7996 16.6427 11.1677 16.6427H14.8302C15.3825 16.6427 15.8282 16.198 15.8282 15.6469C15.8282 15.0959 15.3825 14.6512 14.8302 14.6512H8.63888C8.24162 14.6512 7.86375 14.7672 7.53432 14.9895L4.21094 17.2034C4.10436 17.2808 3.9784 17.3194 3.84275 17.3194H1.16855C0.800363 17.3194 0.5 17.0197 0.5 16.6524C0.5 16.285 0.800363 15.9853 1.16855 15.9853H3.62959L6.78825 13.8874V13.8777ZM7.32115 1.88974C8.47416 0.719944 10.3151 0.65227 11.5456 1.69639C11.7878 1.89941 12.001 2.13143 12.2239 2.35379C12.3111 2.4408 12.3983 2.53748 12.4855 2.62449C12.5727 2.53748 12.6599 2.4408 12.7471 2.35379C12.9602 2.12177 13.1831 1.89941 13.4253 1.69639C14.6558 0.65227 16.4871 0.719944 17.6498 1.88974C18.8706 3.12721 18.8706 5.1381 17.6498 6.37557L13.4156 10.6584C13.154 10.9194 12.8246 11.0451 12.4758 11.0451C12.127 11.0451 11.7975 10.9194 11.5359 10.6584L7.30178 6.37557C6.08094 5.1381 6.08094 3.12721 7.30178 1.88974H7.32115Z" fill="#555A62"/>
</svg>
