<svg width="25" height="24" viewBox="0 0 25 24" fill="none" xmlns="http://www.w3.org/2000/svg">
<path d="M22.7 11.05C22.77 10.8 22.82 10.53 22.82 10.25C22.82 9.44 22.47 8.72 21.92 8.22C22.05 7.89 22.13 7.53 22.13 7.15C22.13 6.14 21.57 5.25 20.75 4.77V4.75C20.75 3.23 19.52 2 18 2H14.15C13.2 2 12.28 2.28 11.49 2.81L9.83 3.91C9.38 4.22 8.99 4.59 8.67 5.01H6.44C6.21 4.85 5.93 4.75 5.63 4.75H2.88C2.12 4.75 1.5 5.36 1.5 6.12V15.75C1.5 16.51 2.12 17.12 2.88 17.12H5.63C6.39 17.12 7 16.51 7 15.75V14.31H8.67C8.97 14.69 9.33 15.02 9.76 15.29L9.89 15.38C11.12 16.16 12.01 17.37 12.39 18.77L12.59 19.48C12.94 20.76 14.26 21.52 15.54 21.17C16.82 20.81 17.58 19.49 17.23 18.21L17.04 17.51C16.87 16.9 16.65 16.31 16.39 15.75H20.75C22.27 15.75 23.5 14.51 23.5 13C23.5 12.24 23.19 11.55 22.7 11.05ZM20.75 14.37H15.23C14.98 14.37 14.75 14.5 14.63 14.72C14.51 14.94 14.51 15.21 14.65 15.42C15.11 16.17 15.47 16.99 15.71 17.86L15.9 18.57C16.05 19.12 15.73 19.68 15.18 19.83C14.63 19.98 14.06 19.66 13.91 19.11L13.72 18.41C13.25 16.68 12.15 15.18 10.63 14.22L10.5 14.13C10.14 13.91 9.85 13.62 9.62 13.29C9.48 13.11 9.28 13.01 9.08 13H7V6.32H8.93C9.19 6.37 9.47 6.26 9.63 6.02C9.88 5.64 10.21 5.31 10.6 5.05L12.25 3.95C12.82 3.57 13.48 3.37 14.16 3.37H18C18.76 3.37 19.38 3.99 19.38 4.75C19.38 4.85 19.37 4.95 19.35 5.04C19.28 5.39 19.47 5.74 19.81 5.84C20.36 6.02 20.76 6.54 20.76 7.15C20.76 7.46 20.65 7.76 20.47 7.99C20.35 8.15 20.3 8.35 20.34 8.55C20.38 8.76 20.52 8.92 20.7 9.02C21.14 9.25 21.44 9.71 21.44 10.24C21.44 10.49 21.38 10.72 21.26 10.92C21.08 11.24 21.18 11.64 21.49 11.83C21.88 12.08 22.13 12.51 22.13 12.99C22.13 13.75 21.51 14.37 20.75 14.37Z" fill="#555A62"/>
</svg>
