<svg width="25" height="24" viewBox="0 0 25 24" fill="none" xmlns="http://www.w3.org/2000/svg">
<path d="M17.15 12.09C17.85 11.09 18.25 9.88 18.25 8.56C18.25 5.14 15.48 2.37 12.06 2.37C8.64 2.37 5.88 5.15 5.88 8.56C5.88 9.87 6.29 11.09 6.98 12.09C7.16 12.34 7.36 12.62 7.56 12.91C8.11 13.66 8.72 14.51 9.19 15.36C9.57 16.06 10.41 18.3 10.51 19.01L9.09 19.2C9 18.68 8.23 16.48 7.98 16.01C7.55 15.24 7.03 14.51 6.5 13.78C6.28 13.48 6.05 13.17 5.84 12.86C4.99 11.64 4.5 10.15 4.5 8.55C4.5 4.39 7.89 1 12.06 1C16.23 1 19.62 4.39 19.62 8.56C19.62 10.16 19.12 11.65 18.27 12.87C18.06 13.18 17.83 13.48 17.61 13.79C17.08 14.51 16.55 15.24 16.13 16.02C15.88 16.48 15.13 18.76 15.03 19.28L13.5 19.02C13.61 18.31 14.54 16.05 14.92 15.35C15.39 14.49 16.01 13.64 16.55 12.9C16.76 12.61 16.96 12.34 17.13 12.08L17.15 12.09ZM12.06 5.12C10.16 5.12 8.62 6.66 8.62 8.56C8.62 8.94 8.31 9.25 7.93 9.25C7.55 9.25 7.24 8.94 7.24 8.56C7.24 5.9 9.39 3.75 12.05 3.75C12.43 3.75 12.74 4.06 12.74 4.44C12.74 4.82 12.43 5.13 12.05 5.13L12.06 5.12ZM8.62 19.56V19.33C8.62 19.08 8.83 18.87 9.08 18.87H15.04C15.29 18.87 15.5 19.08 15.5 19.33V19.56C15.5 21.46 13.96 23 12.06 23C10.16 23 8.62 21.46 8.62 19.56Z" fill="#555A62"/>
</svg>
