<svg width="25" height="24" viewBox="0 0 25 24" fill="none" xmlns="http://www.w3.org/2000/svg">
<path d="M23.16 21.67H19.72C17.82 21.67 16.28 20.13 16.28 18.23V7.61H19.67C20.05 7.61 20.4 7.38 20.56 7.03C20.72 6.69 20.66 6.27 20.42 5.98L16.42 1.32C16.23 1.1 15.96 1 15.68 1C15.4 1 15.12 1.1 14.93 1.32L10.93 5.98C10.68 6.27 10.63 6.69 10.79 7.03C10.95 7.38 11.3 7.61 11.68 7.61H14.91V14.17C14.04 13.29 12.82 12.73 11.47 12.73H7.83V9.45C7.83 9.13 7.64 8.83 7.35 8.69C7.05 8.56 6.7 8.61 6.45 8.82L1.79 12.81C1.61 12.97 1.5 13.2 1.5 13.45C1.5 13.7 1.61 13.92 1.79 14.08L6.46 18.07C6.61 18.21 6.8 18.27 7 18.27C7.11 18.27 7.23 18.25 7.34 18.2C7.64 18.06 7.83 17.77 7.83 17.44V14.11H11.47C13.37 14.11 14.91 15.64 14.91 17.54V18.23C14.91 20.89 17.06 23.04 19.72 23.04H23.16C23.54 23.04 23.85 22.73 23.85 22.36C23.85 21.99 23.54 21.67 23.16 21.67ZM6.83 9.81V17.08ZM12.37 6.31L15.67 2.45L18.98 6.31H12.37Z" fill="#555A62"/>
</svg>
