<svg width="24" height="24" viewBox="0 0 24 24" fill="none" xmlns="http://www.w3.org/2000/svg">
<path fill-rule="evenodd" clip-rule="evenodd" d="M12 5C16.3683 5 20 7.67588 20 11.1247C20 13.1685 18.7058 15.0012 16.637 16.1234C16.6294 16.1845 16.6244 16.2381 16.622 16.2833C16.6161 16.3966 16.6302 16.5911 16.663 16.8314C16.6813 16.9648 16.7046 17.108 16.7317 17.2565C16.7758 17.4974 16.8199 17.7017 16.848 17.8202C17.0713 18.7621 15.881 19.3979 15.1785 18.7119L13.6328 17.2025C13.6098 17.1801 13.5881 17.1567 13.5678 17.1326C13.0559 17.21 12.5314 17.2494 12 17.2494C7.6317 17.2494 4 14.5735 4 11.1247C4 7.67588 7.6317 5 12 5ZM15.6275 16.2104C15.6382 16.0084 15.6799 15.746 15.7342 15.474C17.6967 14.5648 19 12.9601 19 11.1322C19 8.29777 15.866 6 12 6C8.13401 6 5 8.29777 5 11.1322C5 13.9666 8.13401 16.2644 12 16.2644C12.5198 16.2644 12.7694 16.1928 12.9598 16.1382C13.1352 16.0879 13.2602 16.052 13.5 16.1L14.3333 16.5L15.8771 18C15.8771 18 15.5955 16.8184 15.6275 16.2104Z" fill="#555A62"/>
</svg>
