<svg width="25" height="24" viewBox="0 0 25 24" fill="none" xmlns="http://www.w3.org/2000/svg">
<g clip-path="url(#clip0_4875_1341)">
<path d="M7.81046 1.74019H17.1912C18.3038 1.74019 19.202 2.64866 19.1612 3.76127C19.1612 3.98584 19.1408 4.2104 19.1306 4.42476H22.5501C23.6423 4.42476 24.612 5.33323 24.4895 6.50709C24.0608 10.4472 21.8968 13.1318 19.5491 14.8772C17.2116 16.6125 14.6495 17.4393 13.3021 17.6741C13.3021 17.6741 13.2306 17.6843 13.1898 17.6945V21.8388H17.2116C17.579 21.8388 17.8853 22.1348 17.8853 22.5125C17.8853 22.8901 17.5892 23.1862 17.2116 23.1862H7.81046C7.44299 23.1862 7.13676 22.8901 7.13676 22.5125C7.13676 22.1348 7.44299 21.8388 7.81046 21.8388H11.8322V17.6945C11.8322 17.6945 11.7608 17.6741 11.7199 17.6639C10.3725 17.4393 7.81046 16.6125 5.47294 14.8772C3.1048 13.1318 0.940808 10.437 0.512093 6.49688C0.379396 5.32302 1.35932 4.41455 2.44131 4.41455H5.86083C5.85062 4.2002 5.84041 3.97563 5.8302 3.75107C5.78937 2.64866 6.68763 1.72998 7.80025 1.72998L7.81046 1.74019ZM5.95269 5.76194H2.45152C2.06363 5.76194 1.81865 6.06817 1.84928 6.36419C2.22695 9.83474 4.12555 12.2131 6.25892 13.7953C7.07552 14.4077 7.93295 14.8875 8.73934 15.2753C7.51444 13.5503 6.36099 10.6411 5.9629 5.76194H5.95269ZM17.1809 3.07737H7.81046C7.43278 3.07737 7.16739 3.3836 7.17759 3.71024C7.43278 10.5697 9.05577 13.7238 10.3623 15.1631C11.0156 15.8776 11.6179 16.2042 12.0057 16.3471C12.2099 16.4186 12.363 16.4594 12.4447 16.4696C12.4651 16.4696 12.4855 16.4696 12.4957 16.4696C12.5059 16.4696 12.5263 16.4696 12.5467 16.4696C12.6386 16.4594 12.7917 16.4186 12.9857 16.3471C13.3838 16.2042 13.986 15.8776 14.6291 15.1631C15.9356 13.734 17.5484 10.5697 17.8138 3.71024C17.824 3.3836 17.5586 3.07737 17.1809 3.07737ZM13.4042 5.74153L13.9248 6.81332L15.1088 6.98685C15.9356 7.10934 16.2623 8.11988 15.66 8.70171L14.8026 9.53872L15.0067 10.7126C15.1497 11.5292 14.282 12.162 13.5471 11.7742L12.4957 11.223L11.4443 11.7844C10.7094 12.1723 9.84175 11.5496 9.98466 10.7228L10.1888 9.54893L9.33138 8.71191C8.73934 8.13009 9.06598 7.11954 9.89279 6.99705L11.0769 6.82353L11.6077 5.75174C11.9751 5.00659 13.0367 5.00659 13.4042 5.75174V5.74153ZM16.2521 15.2753C17.0585 14.8977 17.9057 14.4077 18.7325 13.7953C20.8761 12.2131 22.7645 9.82453 23.1421 6.36419C23.1728 6.06817 22.9278 5.76194 22.5399 5.76194H19.0285C18.6202 10.6411 17.4668 13.5401 16.2521 15.2753Z" fill="#555A62"/>
</g>
<defs>
<clipPath id="clip0_4875_1341">
<rect width="24" height="24" fill="white" transform="translate(0.5)"/>
</clipPath>
</defs>
</svg>
