<svg width="24" height="24" viewBox="0 0 24 24" fill="none" xmlns="http://www.w3.org/2000/svg">
<path d="M4.80367 10.3852H4.30367V10.3852L4.80367 10.3852ZM8.57299 13.1631L8.77281 13.6215L9.87352 13.1416L8.75752 12.6984L8.57299 13.1631ZM8.4713 13.1697L8.72153 13.6026L8.72169 13.6025L8.4713 13.1697ZM5.76922 16.7619L5.77381 17.2619L6.34735 17.2566L6.2639 16.6891L5.76922 16.7619ZM2.9095 16.7881V17.2882L2.91409 17.2881L2.9095 16.7881ZM2.50903 16.6221L2.8899 16.2981L2.88985 16.2981L2.50903 16.6221ZM2.51561 14.8807L2.10007 14.6026L2.09124 14.6158L2.08326 14.6296L2.51561 14.8807ZM4.82169 13.1631L4.63711 12.6983L4.62607 12.703L4.82169 13.1631ZM4.92346 13.1697L5.17368 12.7368L5.17332 12.7366L4.92346 13.1697ZM5.07716 13.2603L4.82156 13.69H4.82156L5.07716 13.2603ZM8.34458 13.2439L8.09085 12.813L8.09085 12.813L8.34458 13.2439ZM6.69741 13.3098C8.12737 13.3098 9.09114 11.8783 9.09114 10.3852H8.09114C8.09114 11.5702 7.3591 12.3098 6.69741 12.3098V13.3098ZM4.30367 10.3852C4.30369 11.8783 5.26737 13.3098 6.69741 13.3098V12.3098C6.03566 12.3098 5.30369 11.5702 5.30367 10.3852L4.30367 10.3852ZM6.69741 7.46057C6.08621 7.46057 5.45724 7.62841 4.98966 8.13875C4.52979 8.64068 4.30367 9.39039 4.30367 10.3852H5.30367C5.30367 9.52302 5.50146 9.06043 5.72698 8.81429C5.9448 8.57656 6.26269 8.46057 6.69741 8.46057V7.46057ZM9.09114 10.3852C9.09114 9.39038 8.86501 8.64067 8.40513 8.13875C7.93755 7.62842 7.30859 7.46057 6.69741 7.46057V8.46057C7.1321 8.46057 7.45 8.57656 7.66782 8.8143C7.89334 9.06044 8.09114 9.52303 8.09114 10.3852H9.09114ZM8.75752 12.6984C8.58895 12.6315 8.38856 12.6399 8.22091 12.7369L8.72169 13.6025C8.66284 13.6365 8.60391 13.6509 8.55295 13.6541C8.50172 13.6574 8.44534 13.6504 8.38846 13.6278L8.75752 12.6984ZM6.2639 16.6891C6.13906 15.8402 6.66355 15.0984 7.36872 14.5086C7.70961 14.2235 8.06358 13.9998 8.33457 13.8468C8.46933 13.7707 8.58173 13.7131 8.65926 13.6751C8.69798 13.6561 8.72787 13.642 8.74735 13.633C8.75709 13.6285 8.76421 13.6253 8.76853 13.6234C8.77068 13.6224 8.77213 13.6218 8.77286 13.6215C8.77322 13.6213 8.7734 13.6212 8.77339 13.6212C8.77339 13.6212 8.77334 13.6212 8.77324 13.6213C8.77319 13.6213 8.77309 13.6214 8.77306 13.6214C8.77294 13.6214 8.77281 13.6215 8.57299 13.1631C8.37316 12.7048 8.37301 12.7049 8.37284 12.705C8.37277 12.705 8.37259 12.7051 8.37245 12.7051C8.37216 12.7052 8.37183 12.7054 8.37144 12.7056C8.37068 12.7059 8.36972 12.7063 8.36858 12.7068C8.3663 12.7078 8.36326 12.7092 8.3595 12.7109C8.35198 12.7142 8.34155 12.719 8.32843 12.725C8.30219 12.7371 8.26511 12.7546 8.21883 12.7773C8.12635 12.8227 7.99662 12.8892 7.84287 12.976C7.53684 13.1488 7.12829 13.4061 6.72718 13.7415C5.94837 14.3929 5.07097 15.4504 5.27454 16.8346L6.2639 16.6891ZM2.91409 17.2881L5.77381 17.2619L5.76463 16.2619L2.90491 16.2882L2.91409 17.2881ZM2.12816 16.946C2.32979 17.1831 2.63114 17.2881 2.9095 17.2881V16.2881C2.90068 16.2881 2.89289 16.2873 2.88641 16.286C2.8799 16.2848 2.87545 16.2832 2.87308 16.2822C2.87067 16.2812 2.87125 16.2812 2.87412 16.2832C2.877 16.2852 2.88284 16.2898 2.8899 16.2981L2.12816 16.946ZM2.08326 14.6296C2.0363 14.7104 2.01954 14.7914 2.01527 14.8109C2.00725 14.8476 2.00145 14.8852 1.99705 14.9187C1.98812 14.9866 1.98108 15.0679 1.97544 15.153C1.96407 15.3249 1.95678 15.5388 1.95447 15.7494C1.95216 15.9595 1.95472 16.1751 1.96421 16.3493C1.96888 16.435 1.97573 16.5206 1.98641 16.594C1.99164 16.63 1.99934 16.6741 2.01157 16.7188C2.01798 16.7422 2.04562 16.849 2.12821 16.9461L2.88985 16.2981C2.93253 16.3482 2.95334 16.3942 2.96083 16.4117C2.96998 16.4331 2.9745 16.4489 2.97603 16.4545C2.979 16.4653 2.97831 16.466 2.976 16.4501C2.9716 16.4198 2.96673 16.3684 2.96272 16.2949C2.95486 16.1505 2.95224 15.9585 2.95441 15.7604C2.95657 15.5629 2.9634 15.368 2.97326 15.219C2.97825 15.1437 2.9836 15.0865 2.98853 15.049C2.99106 15.0297 2.99256 15.0228 2.99216 15.0247C2.99194 15.0257 2.99008 15.0342 2.98584 15.0475C2.98282 15.057 2.97189 15.0907 2.94797 15.1318L2.08326 14.6296ZM4.82169 13.1631C4.62607 12.703 4.62598 12.703 4.62588 12.7031C4.62584 12.7031 4.62574 12.7031 4.62565 12.7032C4.62549 12.7032 4.6253 12.7033 4.62508 12.7034C4.62465 12.7036 4.62412 12.7038 4.6235 12.7041C4.62224 12.7046 4.6206 12.7053 4.61858 12.7062C4.61454 12.708 4.60897 12.7104 4.60196 12.7135C4.58794 12.7196 4.56813 12.7285 4.54316 12.7399C4.49324 12.7627 4.42254 12.7958 4.33612 12.8387C4.16368 12.9243 3.92651 13.0495 3.66586 13.2093C3.15782 13.5207 2.50603 13.996 2.10007 14.6026L2.93116 15.1588C3.21463 14.7351 3.71587 14.3516 4.18851 14.0618C4.41821 13.921 4.62828 13.8101 4.78051 13.7345C4.85642 13.6969 4.91741 13.6683 4.9586 13.6495C4.97918 13.6401 4.99477 13.6332 5.00477 13.6288C5.00977 13.6266 5.01336 13.625 5.01548 13.6241C5.01654 13.6236 5.01722 13.6233 5.01753 13.6232C5.01768 13.6231 5.01774 13.6231 5.01771 13.6231C5.01769 13.6231 5.01764 13.6231 5.01758 13.6232C5.01754 13.6232 5.01747 13.6232 5.01746 13.6232C5.01738 13.6233 5.0173 13.6233 4.82169 13.1631ZM5.17332 12.7366C5.00604 12.6401 4.80593 12.6314 4.63716 12.6984L5.00622 13.6278C4.94932 13.6504 4.89294 13.6574 4.84176 13.6541C4.79082 13.6509 4.73213 13.6366 4.67359 13.6028L5.17332 12.7366ZM5.33276 12.8306C5.27931 12.7988 5.22519 12.7666 5.17368 12.7368L4.67323 13.6026C4.71834 13.6287 4.76688 13.6575 4.82156 13.69L5.33276 12.8306ZM6.68511 13.3504C6.22956 13.3504 5.77065 13.091 5.33276 12.8306L4.82156 13.69C5.21414 13.9235 5.90901 14.3504 6.68511 14.3504V13.3504ZM8.09085 12.813C7.64582 13.0751 7.15515 13.3504 6.68511 13.3504V14.3504C7.47427 14.3504 8.20155 13.9084 8.59831 13.6747L8.09085 12.813ZM8.22108 12.7368C8.17898 12.7611 8.13486 12.7871 8.09085 12.813L8.59831 13.6747C8.6431 13.6483 8.68359 13.6245 8.72153 13.6026L8.22108 12.7368Z" fill="#555A62"/>
<path d="M19.0069 10.4794H19.5069V10.4794L19.0069 10.4794ZM15.4692 13.1429L15.2658 13.5997L14.1921 13.1214L15.2813 12.6796L15.4692 13.1429ZM15.5422 13.1705L15.2457 13.573L15.2457 13.573L15.5422 13.1705ZM15.5647 13.186L15.3104 13.6165L15.3103 13.6164L15.5647 13.186ZM15.5983 13.2059L15.8528 12.7755L15.8528 12.7755L15.5983 13.2059ZM18.1007 16.5934L18.096 17.0934L17.5243 17.088L17.6058 16.5222L18.1007 16.5934ZM20.7846 16.6186V17.1186L20.7799 17.1186L20.7846 16.6186ZM21.1604 16.4594L20.7762 16.1395L20.7762 16.1394L21.1604 16.4594ZM21.1543 14.7897L21.5725 14.5158L21.5811 14.5289L21.5889 14.5426L21.1543 14.7897ZM18.99 13.1429L19.178 12.6795L19.1891 12.6843L18.99 13.1429ZM18.8944 13.1492L18.6402 12.7187L18.6406 12.7185L18.8944 13.1492ZM18.7502 13.2361L18.4905 12.8088L18.4905 12.8088L18.7502 13.2361ZM17.2295 13.3041C16.5502 13.3041 15.9699 12.9427 15.5756 12.4269C15.1816 11.9116 14.9522 11.2213 14.9522 10.4794H15.9522C15.9522 11.0213 16.1207 11.4935 16.37 11.8195C16.6189 12.1451 16.9273 12.3041 17.2295 12.3041V13.3041ZM19.5069 10.4794C19.5069 11.2213 19.2775 11.9116 18.8835 12.4269C18.4892 12.9427 17.9089 13.3041 17.2295 13.3041V12.3041C17.5318 12.3041 17.8402 12.1451 18.0891 11.8196C18.3383 11.4935 18.5069 11.0214 18.5069 10.4794L19.5069 10.4794ZM17.2295 7.65466C17.8117 7.65466 18.4128 7.81852 18.8585 8.31553C19.2949 8.80204 19.5069 9.52515 19.5069 10.4794H18.5069C18.5069 9.65319 18.321 9.21393 18.1141 8.98319C17.9166 8.76295 17.629 8.65466 17.2295 8.65466V7.65466ZM14.9522 10.4794C14.9522 9.52514 15.1642 8.80203 15.6006 8.31553C16.0463 7.81852 16.6474 7.65466 17.2295 7.65466V8.65466C16.8301 8.65466 16.5425 8.76294 16.345 8.98319C16.1381 9.21394 15.9522 9.65319 15.9522 10.4794H14.9522ZM15.2813 12.6796C15.4829 12.5978 15.655 12.6643 15.7194 12.6948C15.7839 12.7253 15.8365 12.7663 15.8387 12.7679L15.2457 13.573C15.2244 13.5574 15.252 13.5799 15.2916 13.5987C15.3311 13.6174 15.4785 13.6787 15.6572 13.6063L15.2813 12.6796ZM15.3656 13.6477C15.3312 13.6305 15.3048 13.6179 15.2877 13.6098C15.2791 13.6058 15.2729 13.6029 15.2692 13.6012C15.2674 13.6004 15.2661 13.5998 15.2656 13.5996C15.2653 13.5994 15.2651 13.5994 15.2652 13.5994C15.2652 13.5994 15.2653 13.5994 15.2654 13.5995C15.2654 13.5995 15.2655 13.5995 15.2656 13.5996C15.2656 13.5996 15.2656 13.5996 15.2657 13.5996C15.2657 13.5996 15.2657 13.5996 15.2657 13.5996C15.2658 13.5996 15.2658 13.5997 15.2658 13.5997C15.2658 13.5997 15.2658 13.5997 15.4692 13.1429C15.6727 12.6862 15.6727 12.6862 15.6727 12.6862C15.6727 12.6862 15.6727 12.6862 15.6727 12.6862C15.6728 12.6862 15.6728 12.6862 15.6728 12.6862C15.6729 12.6863 15.6729 12.6863 15.673 12.6863C15.6731 12.6864 15.6732 12.6864 15.6734 12.6865C15.6736 12.6866 15.674 12.6868 15.6743 12.6869C15.675 12.6872 15.6759 12.6876 15.677 12.6881C15.6791 12.6891 15.6819 12.6903 15.6853 12.6919C15.6922 12.695 15.7016 12.6994 15.7135 12.705C15.7373 12.7162 15.7707 12.7323 15.8125 12.7531L15.3656 13.6477ZM15.8189 12.7555C15.8271 12.7603 15.8353 12.7651 15.8435 12.77L15.3346 13.6308C15.3264 13.626 15.3183 13.6212 15.3104 13.6165L15.8189 12.7555ZM15.8387 12.7679C15.8409 12.7695 15.8418 12.7701 15.8424 12.7706C15.843 12.771 15.8425 12.7706 15.8413 12.7698C15.8401 12.769 15.8376 12.7672 15.8342 12.765C15.8307 12.7627 15.8256 12.7594 15.8191 12.7556L15.3103 13.6164C15.2771 13.5968 15.2477 13.5745 15.2457 13.573L15.8387 12.7679ZM15.8297 13.9069C15.6314 13.785 15.4656 13.6977 15.3656 13.6477L15.8125 12.7531C15.9334 12.8135 16.1254 12.9149 16.3531 13.0548L15.8297 13.9069ZM15.8435 12.77C15.8466 12.7718 15.8497 12.7737 15.8528 12.7755L15.3438 13.6363C15.3407 13.6344 15.3376 13.6326 15.3345 13.6308L15.8435 12.77ZM15.8528 12.7755C15.9939 12.8589 16.1473 12.9494 16.3156 13.0339L15.8673 13.9277C15.6639 13.8257 15.4827 13.7184 15.3438 13.6363L15.8528 12.7755ZM17.6058 16.5222C17.6876 15.954 17.4746 15.4414 17.1045 14.9824C16.7314 14.5196 16.2287 14.152 15.8297 13.9069L16.3531 13.0548C16.7986 13.3284 17.4086 13.7663 17.883 14.3548C18.3605 14.947 18.7299 15.7314 18.5956 16.6647L17.6058 16.5222ZM20.7799 17.1186L18.096 17.0934L18.1054 16.0934L20.7893 16.1186L20.7799 17.1186ZM21.5447 16.7793C21.3497 17.0135 21.0566 17.1186 20.7846 17.1186V16.1186C20.7902 16.1186 20.7949 16.118 20.7984 16.1173C20.8019 16.1166 20.8036 16.1159 20.8035 16.116C20.8034 16.116 20.8006 16.1172 20.796 16.1205C20.7913 16.1239 20.7842 16.1299 20.7762 16.1395L21.5447 16.7793ZM21.5889 14.5426C21.6343 14.6225 21.6504 14.7021 21.6544 14.7206C21.662 14.7562 21.6675 14.7926 21.6716 14.8248C21.68 14.8903 21.6867 14.9685 21.6919 15.0501C21.7026 15.2152 21.7095 15.4204 21.7117 15.6226C21.7138 15.8241 21.7114 16.0311 21.7025 16.1983C21.6981 16.2807 21.6917 16.3631 21.6816 16.4339C21.6766 16.4686 21.6693 16.5114 21.6577 16.5549C21.6518 16.577 21.6252 16.6826 21.5447 16.7794L20.7762 16.1394C20.7343 16.1898 20.7139 16.2358 20.7067 16.2531C20.6978 16.2744 20.6933 16.2902 20.6918 16.2959C20.6888 16.3069 20.6894 16.308 20.6916 16.293C20.6956 16.2644 20.7002 16.2154 20.7039 16.1451C20.7113 16.0069 20.7138 15.8231 20.7117 15.6333C20.7097 15.4441 20.7033 15.2574 20.694 15.1148C20.6894 15.0426 20.6844 14.988 20.6798 14.9524C20.6774 14.9341 20.6761 14.9278 20.6765 14.93C20.6768 14.9312 20.6786 14.9398 20.6827 14.953C20.6857 14.9624 20.6963 14.9959 20.7196 15.0369L21.5889 14.5426ZM18.99 13.1429C19.1891 12.6843 19.1892 12.6844 19.1893 12.6844C19.1894 12.6844 19.1895 12.6845 19.1895 12.6845C19.1897 12.6846 19.1899 12.6846 19.1901 12.6847C19.1905 12.6849 19.191 12.6851 19.1916 12.6854C19.1929 12.6859 19.1944 12.6866 19.1964 12.6875C19.2002 12.6892 19.2055 12.6915 19.2122 12.6945C19.2255 12.7005 19.2442 12.7091 19.2678 12.7201C19.315 12.7421 19.3817 12.774 19.4632 12.8153C19.6257 12.8977 19.8492 13.0183 20.0949 13.1721C20.5733 13.4718 21.1889 13.93 21.5725 14.5158L20.736 15.0637C20.4726 14.6616 20.006 14.2964 19.5641 14.0196C19.3495 13.8853 19.1533 13.7794 19.0111 13.7073C18.9402 13.6714 18.8833 13.6442 18.845 13.6263C18.8258 13.6173 18.8114 13.6107 18.8021 13.6066C18.7975 13.6045 18.7942 13.6031 18.7923 13.6022C18.7913 13.6018 18.7907 13.6015 18.7905 13.6014C18.7903 13.6013 18.7903 13.6013 18.7903 13.6014C18.7904 13.6014 18.7904 13.6014 18.7905 13.6014C18.7905 13.6014 18.7906 13.6015 18.7906 13.6015C18.7907 13.6015 18.7908 13.6015 18.99 13.1429ZM18.6406 12.7185C18.8076 12.62 19.0086 12.6109 19.1779 12.6796L18.802 13.6063C18.91 13.6501 19.0366 13.6458 19.1483 13.5799L18.6406 12.7185ZM18.4905 12.8088C18.5407 12.7783 18.5916 12.7473 18.6402 12.7187L19.1487 13.5797C19.1066 13.6046 19.0612 13.6322 19.0098 13.6634L18.4905 12.8088ZM17.2411 13.3019C17.6556 13.3019 18.0772 13.0599 18.4905 12.8088L19.0098 13.6634C18.6437 13.8858 17.9825 14.3019 17.2411 14.3019V13.3019ZM16.3156 13.0339C16.6287 13.1909 16.9463 13.3019 17.2411 13.3019V14.3019C16.7157 14.3019 16.2319 14.1106 15.8673 13.9277L16.3156 13.0339Z" fill="#555A62"/>
<path d="M9.31617 8.79709H8.81617V8.7971L9.31617 8.79709ZM17.9955 15.2193L18.4278 14.9681L18.4113 14.9398L18.3914 14.9139L17.9955 15.2193ZM14.7009 12.7656L14.5164 13.2303L14.5421 13.2405L14.5688 13.2479L14.7009 12.7656ZM17.9698 17.707L18.3506 18.0309L18.3506 18.0309L17.9698 17.707ZM17.3976 17.9442L17.3976 18.4442H17.3976V17.9442ZM6.61022 17.9442L6.61022 17.4442H6.61022V17.9442ZM6.03813 17.707L6.419 17.383L6.41895 17.383L6.03813 17.707ZM6.04753 15.2193L5.63198 14.9412L5.62315 14.9544L5.61518 14.9681L6.04753 15.2193ZM9.34192 12.7656L9.15734 12.3008L9.14631 12.3055L9.34192 12.7656ZM9.4873 12.775L9.73753 12.3421L9.73717 12.3419L9.4873 12.775ZM9.70688 12.9044L9.45129 13.3342L9.70688 12.9044ZM14.3746 12.881L14.1209 12.4501L14.3746 12.881ZM14.5557 12.775L14.8059 13.2079L14.806 13.2078L14.5557 12.775ZM12.0215 12.7608C13.8997 12.7608 15.2268 10.8641 15.2268 8.79709H14.2268C14.2268 10.556 13.1314 11.7608 12.0215 11.7608V12.7608ZM8.81617 8.7971C8.8162 10.8641 10.1432 12.7608 12.0215 12.7608V11.7608C10.9115 11.7608 9.81619 10.556 9.81617 8.79708L8.81617 8.7971ZM12.0215 4.83337C11.1862 4.83337 10.3543 5.06204 9.73987 5.73267C9.13312 6.3949 8.81617 7.40439 8.81617 8.79709H9.81617C9.81617 7.53703 10.1048 6.81466 10.4772 6.40822C10.8419 6.01019 11.3627 5.83337 12.0215 5.83337V4.83337ZM15.2268 8.79709C15.2268 7.40438 14.9099 6.3949 14.3031 5.73267C13.6887 5.06204 12.8568 4.83337 12.0215 4.83337V5.83337C12.6803 5.83337 13.2011 6.01018 13.5658 6.40822C13.9382 6.81466 14.2268 7.53703 14.2268 8.79709H15.2268ZM18.3914 14.9139C17.5867 13.8707 16.7103 13.2167 16.03 12.8223C15.69 12.6252 15.3985 12.4926 15.1885 12.4084C15.0835 12.3662 14.9986 12.3361 14.9381 12.3159C14.9078 12.3059 14.8836 12.2983 14.8659 12.2929C14.8571 12.2903 14.8499 12.2882 14.8444 12.2866C14.8416 12.2858 14.8393 12.2851 14.8374 12.2846C14.8364 12.2843 14.8356 12.2841 14.8349 12.2839C14.8345 12.2838 14.8342 12.2837 14.8339 12.2836C14.8337 12.2836 14.8335 12.2835 14.8334 12.2835C14.8332 12.2834 14.833 12.2834 14.7009 12.7656C14.5688 13.2479 14.5686 13.2478 14.5685 13.2478C14.5684 13.2477 14.5682 13.2477 14.5681 13.2477C14.5679 13.2476 14.5678 13.2476 14.5676 13.2475C14.5673 13.2474 14.5671 13.2474 14.567 13.2474C14.5669 13.2473 14.5671 13.2474 14.5678 13.2476C14.5691 13.248 14.5721 13.2488 14.5766 13.2502C14.5857 13.2529 14.6012 13.2577 14.6224 13.2648C14.665 13.279 14.7309 13.3022 14.8161 13.3365C14.9868 13.4049 15.2345 13.517 15.5285 13.6875C16.1162 14.0282 16.8871 14.601 17.5996 15.5247L18.3914 14.9139ZM18.3506 18.0309C18.4339 17.9331 18.4642 17.8235 18.4728 17.7931C18.4874 17.742 18.4975 17.6891 18.5049 17.6423C18.5199 17.5471 18.5309 17.4325 18.5392 17.3127C18.5558 17.0706 18.5641 16.7678 18.5653 16.4702C18.5665 16.1721 18.5607 15.8704 18.5482 15.6295C18.5421 15.51 18.5339 15.3987 18.5231 15.3076C18.5177 15.2627 18.5109 15.215 18.5015 15.1702C18.4959 15.1431 18.4779 15.0543 18.4278 14.9681L17.5632 15.4705C17.5248 15.4045 17.5179 15.3517 17.5226 15.3743C17.5236 15.3793 17.5264 15.3951 17.53 15.4255C17.5371 15.4851 17.5439 15.5716 17.5496 15.6813C17.5609 15.8988 17.5665 16.1811 17.5653 16.4661C17.5641 16.7516 17.5562 17.0311 17.5415 17.244C17.5341 17.3517 17.5256 17.4329 17.5172 17.4858C17.5129 17.5131 17.5102 17.5224 17.511 17.5195C17.5115 17.5179 17.5149 17.5058 17.5228 17.4877C17.529 17.4734 17.5484 17.4307 17.5889 17.383L18.3506 18.0309ZM17.3976 18.4442C17.7456 18.4442 18.1111 18.3125 18.3506 18.0309L17.5889 17.383C17.5757 17.3985 17.5134 17.4442 17.3976 17.4442V18.4442ZM6.61022 18.4442L17.3976 18.4442L17.3976 17.4442L6.61022 17.4442L6.61022 18.4442ZM5.65726 18.0309C5.89679 18.3125 6.2623 18.4442 6.61022 18.4442V17.4442C6.49439 17.4442 6.43219 17.3985 6.419 17.383L5.65726 18.0309ZM5.61518 14.9681C5.56645 15.052 5.54799 15.1384 5.54208 15.1654C5.53243 15.2095 5.52507 15.2567 5.51919 15.3014C5.50729 15.392 5.49758 15.5029 5.48968 15.6224C5.47375 15.863 5.46343 16.1645 5.46017 16.4627C5.4569 16.7602 5.46057 17.0632 5.47377 17.3056C5.4803 17.4254 5.48967 17.5404 5.50358 17.636C5.51043 17.6831 5.51992 17.7366 5.53414 17.7884C5.54254 17.8191 5.57234 17.9311 5.65731 18.031L6.41895 17.383C6.46044 17.4317 6.48011 17.4757 6.48652 17.4907C6.49458 17.5095 6.49806 17.5222 6.4986 17.5242C6.49958 17.5278 6.4971 17.5191 6.49317 17.4921C6.48554 17.4396 6.47816 17.3588 6.47229 17.2512C6.46071 17.0385 6.45698 16.7592 6.46011 16.4736C6.46323 16.1887 6.47308 15.9062 6.48749 15.6884C6.49476 15.5787 6.50277 15.4918 6.51066 15.4317C6.51468 15.4012 6.51774 15.3848 6.51897 15.3791C6.52396 15.3564 6.51685 15.4068 6.47988 15.4704L5.61518 14.9681ZM9.34192 12.7656C9.14631 12.3055 9.14621 12.3055 9.14611 12.3056C9.14606 12.3056 9.14595 12.3056 9.14585 12.3057C9.14567 12.3057 9.14545 12.3058 9.14519 12.306C9.14468 12.3062 9.14402 12.3064 9.14323 12.3068C9.14164 12.3075 9.1395 12.3084 9.13682 12.3096C9.13145 12.3119 9.12392 12.3151 9.11434 12.3194C9.09517 12.3278 9.06777 12.34 9.03304 12.3559C8.9636 12.3876 8.86469 12.434 8.74348 12.4941C8.50147 12.6142 8.16846 12.79 7.80274 13.0142C7.08455 13.4545 6.18568 14.1138 5.63198 14.9412L6.46308 15.4973C6.89428 14.8529 7.64261 14.2854 8.32539 13.8668C8.66016 13.6615 8.96607 13.5 9.18787 13.3899C9.29857 13.335 9.38777 13.2932 9.44848 13.2655C9.47883 13.2516 9.50201 13.2413 9.51715 13.2346C9.52472 13.2313 9.53028 13.2289 9.53372 13.2274C9.53543 13.2267 9.53662 13.2262 9.53726 13.2259C9.53758 13.2257 9.53777 13.2257 9.53781 13.2256C9.53784 13.2256 9.53783 13.2256 9.53778 13.2257C9.53776 13.2257 9.5377 13.2257 9.53768 13.2257C9.53761 13.2257 9.53754 13.2258 9.34192 12.7656ZM9.73717 12.3419C9.55725 12.2381 9.34018 12.2283 9.1574 12.3009L9.52645 13.2303C9.47656 13.2501 9.42793 13.256 9.38432 13.2532C9.34096 13.2504 9.28966 13.2382 9.23744 13.2081L9.73717 12.3419ZM9.96248 12.4747C9.88586 12.4291 9.80975 12.3838 9.73753 12.3421L9.23708 13.2079C9.3029 13.2459 9.37344 13.2878 9.45129 13.3342L9.96248 12.4747ZM12.004 13.2474C11.2845 13.2474 10.5783 12.841 9.96248 12.4747L9.45129 13.3342C10.0218 13.6735 10.9639 14.2474 12.004 14.2474V13.2474ZM14.1209 12.4501C13.4955 12.8185 12.7438 13.2474 12.004 13.2474V14.2474C13.0629 14.2474 14.0512 13.6517 14.6284 13.3118L14.1209 12.4501ZM14.3054 12.3421C14.2462 12.3763 14.1839 12.413 14.1209 12.4501L14.6284 13.3118C14.6922 13.2742 14.7508 13.2397 14.8059 13.2079L14.3054 12.3421ZM14.8854 12.3009C14.7029 12.2284 14.4855 12.2379 14.3053 12.3422L14.806 13.2078C14.7535 13.2382 14.702 13.2504 14.6586 13.2532C14.6149 13.256 14.5663 13.2501 14.5164 13.2303L14.8854 12.3009Z" fill="#555A62"/>
</svg>
