<svg xmlns="http://www.w3.org/2000/svg" width="24" height="24" viewBox="0 0 24 24">
    <g fill="none" fill-rule="evenodd">
        <g fill="#555A62">
            <g>
                <path d="M10.01 4.543c-3.036 0-5.496 2.453-5.496 5.48 0 3.027 2.46 5.48 5.496 5.48 3.034 0 5.495-2.453 5.495-5.48 0-3.027-2.46-5.48-5.495-5.48m10.647 16.072l-.024.025c-.043.043-.09.083-.14.12-.518.388-1.254.287-1.712-.17l-4.819-4.82c-1.125.767-2.484 1.218-3.95 1.218C6.14 16.988 3 13.857 3 9.994S6.14 3 10.011 3c3.874 0 7.013 3.131 7.013 6.994 0 1.47-.458 2.835-1.236 3.962l4.805 4.806c.504.505.556 1.337.064 1.853" transform="translate(-587 -1022) translate(587 1022)"/>
            </g>
        </g>
    </g>
</svg>
