<svg xmlns="http://www.w3.org/2000/svg" viewBox="0 0 26 26">
    <path
        d="M13.245,15.427v-.34a1.756,1.756,0,0,1,.238-.973,4.438,4.438,0,0,1,.94-.914,8.084,8.084,0,0,0,1.159-1.042,2.689,2.689,0,0,0,.668-1.849,2.465,2.465,0,0,0-.868-2,3.547,3.547,0,0,0-2.348-.726,6.653,6.653,0,0,0-3.284.853l.634,1.33a9.357,9.357,0,0,1,1.193-.492,4.2,4.2,0,0,1,1.329-.2,1.9,1.9,0,0,1,1.215.34,1.174,1.174,0,0,1,.423.973,1.655,1.655,0,0,1-.26.936,5.8,5.8,0,0,1-1.16,1.1,3.941,3.941,0,0,0-1.056,1.14,2.844,2.844,0,0,0-.3,1.382v.483h1.479ZM12.565,19a1.074,1.074,0,0,0,.828-.313,1.205,1.205,0,0,0,.29-.85,1.159,1.159,0,0,0-.287-.841,1.093,1.093,0,0,0-.83-.3,1,1,0,0,0-1.11,1.14,1.2,1.2,0,0,0,.287.857,1.074,1.074,0,0,0,.823.306Z"
        fill="currentColor" />
    <circle cx="13" cy="13" r="8.667" fill="none" stroke="currentColor" stroke-width="1.083px" />
</svg>
