<svg width="24" height="24" viewBox="0 0 24 24" fill="none" xmlns="http://www.w3.org/2000/svg">
<path fill-rule="evenodd" clip-rule="evenodd" d="M2.5 9.6118C2.5 6.4637 5.67071 4 9.5 4C12.2055 4 15.4803 5.6266 16.0972 8.14634C19.1724 8.71965 21.5 10.9145 21.5 13.6118C21.5 14.8861 20.9728 16.0856 20.0374 17.0529L20.5244 19.0359C20.682 19.6773 20.0174 20.2102 19.4246 19.9177L17.1675 18.8039C16.3294 19.0797 15.4268 19.2236 14.5 19.2236C11.2745 19.2236 8.51624 17.4756 7.72663 15.0429C7.42194 14.9795 7.12333 14.8996 6.83248 14.8039L4.57539 15.9177C3.98262 16.2102 3.31801 15.6773 3.47557 15.0359L3.96265 13.0529C3.02717 12.0856 2.5 10.8861 2.5 9.6118ZM7.51698 14.0092C7.50572 13.878 7.5 13.7455 7.5 13.6118C7.5 10.4637 10.6707 8 14.5 8C14.6348 8 14.7687 8.00305 14.9017 8.00908C14.9006 8.00579 14.9 8.00276 14.9 8C14.9 7 12.9364 5 9.5 5C6.06356 5 3.5 6.94162 3.5 9.6118C3.5 10.8344 4.03684 11.9511 5 12.8025L4.23094 15.2211L6.78207 13.7C6.94986 13.7634 7.09183 13.8261 7.2249 13.8848C7.32489 13.9289 7.41985 13.9708 7.51698 14.0092ZM19.0662 17.2914L18.9344 16.7548L19.3185 16.3577C20.0949 15.555 20.5 14.5976 20.5 13.6118C20.5 11.2188 18.0044 9 14.5 9C10.9956 9 8.5 11.2188 8.5 13.6118C8.5 16.0048 10.9956 18.2236 14.5 18.2236C15.3238 18.2236 16.1207 18.0956 16.855 17.854L17.2434 17.7262L17.61 17.9072L19.4392 18.8098L19.0662 17.2914Z" fill="#555A62"/>
</svg>
