<svg xmlns="http://www.w3.org/2000/svg" viewBox="0 0 17 16">
    <g fill="none" stroke="currentColor" stroke-width=".867px" fill-rule="evenodd">
        <g fill="none" stroke="currentColor" stroke-width="0.0.64px" fill-rule="nonzero">
            <g>
                <g>
                    <path
                        d="M5.182 4.218l.028.006c.674.185 1.298.65 1.873 1.395.053.092.057 1.33-.015 1.414-.072.085-.193.135-.325.135h0H.61c-.132 0-.253-.05-.325-.135C.214 6.95.238 5.711.291 5.62c.374-.558.998-1.022 1.873-1.395.026-.01.059-.008.083.006.34.197.865.553 1.43.553s1.11-.356 1.45-.553c.024-.014.056-.016.083-.006zM3.687 0c.85 0 1.538.46 1.538 1.969 0 1.087-.689 1.969-1.538 1.969-.85 0-1.538-.882-1.538-1.97C2.15.462 2.838 0 3.687 0z"
                        transform="translate(-625 -263) translate(625 263) translate(8.533 4.8)" />
                </g>
                <g>
                    <path
                        d="M5.182 4.218l.028.006c.674.185 1.298.65 1.873 1.395.053.092.057 1.33-.015 1.414-.072.085-.193.135-.325.135h0H.61c-.132 0-.253-.05-.325-.135C.214 6.95.238 5.711.291 5.62c.374-.558.998-1.022 1.873-1.395.026-.01.059-.008.083.006.34.197.865.553 1.43.553s1.11-.356 1.45-.553c.024-.014.056-.016.083-.006zM3.687 0c.85 0 1.538.46 1.538 1.969 0 1.087-.689 1.969-1.538 1.969-.85 0-1.538-.882-1.538-1.97C2.15.462 2.838 0 3.687 0z"
                        transform="translate(-625 -263) translate(625 263) translate(0 4.8)" />
                </g>
                <g fill="currentColor">
                    <path
                        d="M7.403 6.026l.04.009c.962.264 1.854.928 2.675 1.992.076.132.082 1.9-.02 2.02-.103.121-.277.193-.465.193h0-8.76c-.188 0-.362-.072-.464-.193-.103-.12-.07-1.888.007-2.02.533-.796 1.425-1.46 2.675-1.992.038-.015.084-.012.118.008.487.28 1.237.79 2.044.79.807 0 1.585-.51 2.072-.79.034-.02.08-.023.118-.008zM5.267 0C6.48 0 7.464.658 7.464 2.813c0 1.553-.984 2.812-2.197 2.812S3.07 4.365 3.07 2.813C3.07.658 4.054 0 5.267 0z"
                        transform="translate(-625 -263) translate(625 263) translate(2.667 2.667)" />
                </g>
            </g>
        </g>
    </g>
</svg>
