<svg width="24" height="24" viewBox="0 0 24 24" fill="none" xmlns="http://www.w3.org/2000/svg">
<rect width="24" height="24" fill="#F2F2F2"/>
<rect width="1378" height="1849" transform="translate(-846 -1155)" fill="white"/>
<mask id="path-1-inside-1_6_260" fill="white">
<path fillRule="evenodd" clipRule="evenodd" d="M6.08447 12.9132C5.97103 12.8564 5.97266 12.7635 6.08447 12.7075C6.08447 12.7075 8.34701 11.5751 9.47829 11.0089C10.3071 11.6098 12.4244 12.4891 12.5 12.4896C12.5735 12.4901 14.4971 11.6098 15.504 11C16.6411 11.5692 18.9155 12.7075 18.9155 12.7075C19.029 12.7643 19.0273 12.8572 18.9155 12.9132L12.7054 16.0214C12.592 16.0782 12.4064 16.0774 12.2946 16.0214L6.08447 12.9132Z"/>
</mask>
<path fillRule="evenodd" clipRule="evenodd" d="M6.08447 12.9132C5.97103 12.8564 5.97266 12.7635 6.08447 12.7075C6.08447 12.7075 8.34701 11.5751 9.47829 11.0089C10.3071 11.6098 12.4244 12.4891 12.5 12.4896C12.5735 12.4901 14.4971 11.6098 15.504 11C16.6411 11.5692 18.9155 12.7075 18.9155 12.7075C19.029 12.7643 19.0273 12.8572 18.9155 12.9132L12.7054 16.0214C12.592 16.0782 12.4064 16.0774 12.2946 16.0214L6.08447 12.9132Z" fill="white" stroke="#555A62" stroke-width="1.63636" stroke-linejoin="round" mask="url(#path-1-inside-1_6_260)"/>
<mask id="path-2-inside-2_6_260" fill="white">
<path fillRule="evenodd" clipRule="evenodd" d="M6.08447 15.9132C5.97103 15.8564 5.97266 15.7635 6.08447 15.7075C6.08447 15.7075 8.34701 14.5751 9.47829 14.0089C10.3071 14.6098 12.4244 15.4891 12.5 15.4896C12.5735 15.4901 14.4971 14.6098 15.504 14C16.6411 14.5692 18.9155 15.7075 18.9155 15.7075C19.029 15.7643 19.0273 15.8572 18.9155 15.9132L12.7054 19.0214C12.592 19.0782 12.4064 19.0774 12.2946 19.0214L6.08447 15.9132Z"/>
</mask>
<path fillRule="evenodd" clipRule="evenodd" d="M6.08447 15.9132C5.97103 15.8564 5.97266 15.7635 6.08447 15.7075C6.08447 15.7075 8.34701 14.5751 9.47829 14.0089C10.3071 14.6098 12.4244 15.4891 12.5 15.4896C12.5735 15.4901 14.4971 14.6098 15.504 14C16.6411 14.5692 18.9155 15.7075 18.9155 15.7075C19.029 15.7643 19.0273 15.8572 18.9155 15.9132L12.7054 19.0214C12.592 19.0782 12.4064 19.0774 12.2946 19.0214L6.08447 15.9132Z" fill="white" stroke="#555A62" stroke-width="1.63636" stroke-linejoin="round" mask="url(#path-2-inside-2_6_260)"/>
<mask id="path-3-inside-3_6_260" fill="white">
<path fillRule="evenodd" clipRule="evenodd" d="M4.10722 8.68172C3.96323 8.60251 3.9653 8.47295 4.10722 8.39488L11.9893 4.05898C12.1333 3.97977 12.3688 3.98091 12.5107 4.05898L20.3928 8.39488C20.5368 8.47409 20.5347 8.60365 20.3928 8.68172L12.5107 13.0176C12.3667 13.0968 12.1312 13.0957 11.9893 13.0176L4.10722 8.68172Z"/>
</mask>
<path fillRule="evenodd" clipRule="evenodd" d="M4.10722 8.68172C3.96323 8.60251 3.9653 8.47295 4.10722 8.39488L11.9893 4.05898C12.1333 3.97977 12.3688 3.98091 12.5107 4.05898L20.3928 8.39488C20.5368 8.47409 20.5347 8.60365 20.3928 8.68172L12.5107 13.0176C12.3667 13.0968 12.1312 13.0957 11.9893 13.0176L4.10722 8.68172Z" fill="white" stroke="#555A62" stroke-width="1.63636" stroke-linejoin="round" mask="url(#path-3-inside-3_6_260)"/>
<path fillRule="evenodd" clipRule="evenodd" d="M8.05848 8.579C7.97994 8.53537 7.98107 8.464 8.05848 8.421L12.3578 6.03249C12.4363 5.98886 12.5648 5.98948 12.6422 6.03249L16.9415 8.421C17.0201 8.46463 17.0189 8.536 16.9415 8.579L12.6422 10.9675C12.5637 11.0111 12.4352 11.0105 12.3578 10.9675L8.05848 8.579Z" fill="#555A62"/>
</svg>
