<svg width="24" height="24" viewBox="0 0 24 24" fill="none" xmlns="http://www.w3.org/2000/svg">
<path fill-rule="evenodd" clip-rule="evenodd" d="M5 13H13C13.5523 13 14 12.5523 14 12C14 11.4477 13.5523 11 13 11H5C4.44772 11 4 11.4477 4 12C4 12.5523 4.44772 13 5 13Z" fill="#555A62"/>
<path fill-rule="evenodd" clip-rule="evenodd" d="M4.6 17H9.4C9.73137 17 10 16.5523 10 16C10 15.4477 9.73137 15 9.4 15H4.6C4.26863 15 4 15.4477 4 16C4 16.5523 4.26863 17 4.6 17Z" fill="#555A62"/>
<path d="M4.9375 9H18.0625C18.5803 9 19 8.55228 19 8C19 7.44772 18.5803 7 18.0625 7H4.9375C4.41973 7 4 7.44772 4 8C4 8.55228 4.41973 9 4.9375 9Z" fill="#555A62"/>
</svg>
