<svg width="24" height="24" viewBox="0 0 24 24" fill="none" xmlns="http://www.w3.org/2000/svg">
<path d="M12.75 13H8.25C8.09375 13 8 13.125 8 13.25V13.75C8 13.9062 8.09375 14 8.25 14H12.75C12.875 14 13 13.9062 13 13.75V13.25C13 13.125 12.875 13 12.75 13ZM15.75 10H8.25C8.09375 10 8 10.125 8 10.25V10.75C8 10.9062 8.09375 11 8.25 11H15.75C15.875 11 16 10.9062 16 10.75V10.25C16 10.125 15.875 10 15.75 10ZM12 5.5C7.5625 5.5 4 8.4375 4 12C4 13.5 4.59375 14.875 5.625 15.9688C5.1875 17.1875 4.21875 18.25 4.1875 18.25C3.96875 18.4688 3.9375 18.7812 4.03125 19.0625C4.15625 19.3438 4.4375 19.5 4.75 19.5C6.65625 19.5 8.1875 18.7188 9.09375 18.0625C10 18.3438 10.9688 18.5 12 18.5C16.4062 18.5 20 15.5938 20 12C20 8.4375 16.4062 5.5 12 5.5ZM12 17.5C11.0938 17.5 10.2188 17.375 9.375 17.125L8.90625 16.9688L8.5 17.25C7.78125 17.75 6.6875 18.3438 5.3125 18.5C5.6875 18.0312 6.21875 17.2188 6.5625 16.3125L6.78125 15.7188L6.375 15.2812C5.46875 14.3125 5 13.1875 5 12C5 8.96875 8.125 6.5 12 6.5C15.8438 6.5 19 8.96875 19 12C19 15.0312 15.8438 17.5 12 17.5Z" fill="#555A62"/>
</svg>
