<svg xmlns="http://www.w3.org/2000/svg" viewBox="0 0 18.869 15.804">
    <path
        d="M18.911,8.991a7.516,7.516,0,0,0-3.346-1.476c-.607-2.508-3.854-4.13-6.544-4.13h0c-3.8,0-6.952,2.446-6.952,5.572a4.9,4.9,0,0,0,1.453,3.417l-.484,1.97a.772.772,0,0,0,1.092.875l2.242-1.106a8.334,8.334,0,0,0,.894.235,5.371,5.371,0,0,0,1.8,2.522,7.876,7.876,0,0,0,4.92,1.63,8.447,8.447,0,0,0,2.649-.417l2.242,1.106.608-2.845a4.932,4.932,0,0,0,1.453-3.417A5.038,5.038,0,0,0,18.911,8.991ZM6.321,13.018l-2.533,1.51.764-2.4A4.184,4.184,0,0,1,3.062,8.96c0-2.652,2.546-4.58,5.959-4.58s5.362,1.986,5.362,2.98c0,.007.017.022.024.032-.141-.006-.278-.033-.421-.033A7.877,7.877,0,0,0,9.061,8.99a5.038,5.038,0,0,0-2.027,3.94c0,.134.013.265.024.4C6.831,13.238,6.616,13.129,6.321,13.018Zm12.361,2.729-.106.1-.4,1.886L16.7,17.011l-.2.07a7.4,7.4,0,0,1-2.515.43,6.881,6.881,0,0,1-4.3-1.415A4.073,4.073,0,0,1,8.027,12.93,4.068,4.068,0,0,1,9.682,9.765a6.88,6.88,0,0,1,4.3-1.414,6.867,6.867,0,0,1,4.3,1.415,4.066,4.066,0,0,1,1.655,3.164A3.923,3.923,0,0,1,18.682,15.747Z"
        transform="translate(-2.069 -3.385)" fill="currentColor" />
</svg>
