<svg xmlns="http://www.w3.org/2000/svg" viewBox="0 0 14.666 14.666">
    <path
        d="M17.417,3.667a.916.916,0,0,1,.916.916h0V17.417a.916.916,0,0,1-.916.916H4.583a.916.916,0,0,1-.916-.916h0V4.583a.916.916,0,0,1,.916-.916Zm0,.916H4.583V17.417H17.417ZM12.833,13.75v.917H6.417V13.75Zm2.75-1.833v.916H6.417v-.916ZM11,6.417V11H6.417V6.417Zm4.583,3.666V11H11.917v-.917Zm-5.5-2.75H7.333v2.75h2.75Zm5.5.917v.917H11.917V8.25Zm0-1.833v.916H11.917V6.417Z"
        fill="currentColor" fillRule="evenodd" transform="translate(-3.667 -3.667)" />
</svg>