<svg width="24" height="24" viewBox="0 0 24 24" fill="none" xmlns="http://www.w3.org/2000/svg">
    <path fill-rule="evenodd" clip-rule="evenodd" d="M12.2265 13.9268V14.2404H10.8606V13.7944C10.8606 13.2834 10.9535 12.8583 11.1394 12.5192C11.3252 12.18 11.6504 11.8293 12.115 11.4669C12.6678 11.0302 13.0244 10.6911 13.1847 10.4495C13.3449 10.2079 13.4251 9.91986 13.4251 9.58537C13.4251 9.19512 13.295 8.89547 13.0348 8.68641C12.7747 8.47735 12.4007 8.37282 11.9129 8.37282C11.4715 8.37282 11.0627 8.43554 10.6864 8.56098C10.3101 8.68641 9.94309 8.8374 9.58537 9.01394L9 7.78746C9.94309 7.26249 10.9535 7 12.0314 7C12.9419 7 13.6643 7.223 14.1986 7.66899C14.7329 8.11498 15 8.73055 15 9.51568C15 9.86411 14.9489 10.1742 14.8467 10.446C14.7445 10.7178 14.59 10.9768 14.3833 11.223C14.1765 11.4692 13.82 11.7898 13.3136 12.1847C12.8815 12.5238 12.5923 12.8049 12.446 13.0279C12.2997 13.2509 12.2265 13.5505 12.2265 13.9268ZM12.3624 17.2474C12.1835 17.4402 11.9292 17.5366 11.5993 17.5366C11.2695 17.5366 11.0163 17.4425 10.8397 17.2544C10.6632 17.0662 10.5749 16.8026 10.5749 16.4634C10.5749 15.7619 10.9164 15.4111 11.5993 15.4111C11.9338 15.4111 12.1893 15.5029 12.3659 15.6864C12.5424 15.8699 12.6307 16.1289 12.6307 16.4634C12.6307 16.7933 12.5412 17.0546 12.3624 17.2474Z" fill="#555A62"/>
    <circle cx="12" cy="12" r="8" stroke="#555A62"/>
</svg>
