<svg xmlns="http://www.w3.org/2000/svg" viewBox="0 0 18.444 16.791">
    <path
        d="M14.618,20.686a.388.388,0,0,1,0,.753H11.381a.387.387,0,0,1,0-.753h3.237Zm.79-1.793a.377.377,0,1,1,0,.753H10.592a.377.377,0,1,1,0-.753h4.817ZM13,5.148a5.544,5.544,0,0,1,5.623,5.434,5.406,5.406,0,0,1-1.861,4.028l-.06.058a4.1,4.1,0,0,0-.79,2.718.367.367,0,0,1-.1.254.341.341,0,0,1-.243.1H10.411a.385.385,0,0,1-.243-.1.319.319,0,0,1-.1-.254,3.988,3.988,0,0,0-.79-2.718,5.4,5.4,0,0,1-1.9-4.085A5.546,5.546,0,0,1,13,5.148Zm-.02.645a4.849,4.849,0,0,0-4.936,4.77,4.7,4.7,0,0,0,1.7,3.6,4.44,4.44,0,0,1,1.01,2.893h4.47a4.471,4.471,0,0,1,.951-2.815c0-.02.04-.058.061-.078a4.68,4.68,0,0,0,1.679-3.6A4.848,4.848,0,0,0,12.979,5.793Zm-.472.77a4.345,4.345,0,0,1,4.522,4.187.357.357,0,0,1-.712,0,3.677,3.677,0,0,0-3.81-3.527.331.331,0,1,1,0-.66Z"
        transform="translate(-3.84 -4.898)" fill="currentColor" stroke="currentColor" stroke-width="0.5px" />
    <path
        d="M19.658,5.213a.542.542,0,0,1,.766.767L19.341,7.063a.542.542,0,1,1-.766-.766l1.083-1.083ZM22.28,9.979a.542.542,0,0,1-.471.6l-1.521.186a.542.542,0,1,1-.132-1.075l1.52-.187A.542.542,0,0,1,22.28,9.979ZM4.438,9.38l1.524.16a.542.542,0,0,1-.113,1.078l-1.524-.16a.542.542,0,0,1,.113-1.079ZM5.521,5.316a.541.541,0,0,1,.762-.08L7.474,6.2a.542.542,0,0,1-.682.842L5.6,6.077a.54.54,0,0,1-.08-.761Z"
        transform="translate(-3.84 -4.898)" fill="currentColor" fill-rule="evenodd" />
</svg>