<svg width="24" height="24" viewBox="0 0 24 24" fill="none" xmlns="http://www.w3.org/2000/svg">
<rect x="8.75" y="4" width="13.5625" height="2" fill="#555A62"/>
<rect x="7.6875" y="8.66667" width="9.8125" height="2" fill="#555A62"/>
<rect x="2" y="13.3333" width="10.4375" height="2" fill="#555A62"/>
<rect x="2" y="18" width="6.21809" height="2" fill="#555A62"/>
<g clip-path="url(#clip0_3325_32785)">
<path d="M6 2.01387C3.24444 2.01387 1 4.25831 1 7.01387C1 9.76943 3.24444 12.0139 6 12.0139C8.75556 12.0139 11 9.78054 11 7.01387C11 4.2472 8.76667 2.01387 6 2.01387ZM8.66667 6.03609L5.76667 9.40276C5.62222 9.56943 5.37778 9.56943 5.23333 9.40276L3.55556 7.42498C3.41111 7.2472 3.41111 6.96943 3.56667 6.80276L4.01111 6.32498C4.16667 6.1472 4.41111 6.15831 4.54444 6.3472L5.44444 7.49165L7.65556 4.92498C7.8 4.75831 8.02222 4.7472 8.17778 4.90276L8.65556 5.41387C8.81111 5.58054 8.82222 5.85831 8.65556 6.03609H8.66667Z" fill="#555A62"/>
</g>
<defs>
<clipPath id="clip0_3325_32785">
<rect width="10" height="10" fill="white" transform="translate(1 2.01387)"/>
</clipPath>
</defs>
</svg>
