<svg xmlns="http://www.w3.org/2000/svg" width="24" height="24" viewBox="0 0 24 24">
    <g fill="none" fill-rule="evenodd">
        <g>
            <g>
                <g>
                    <g fill="#555A62">
                        <path d="M1 .941v13.177h14V.94H1zM.863 0h14.274c.477 0 .863.386.863.863v13.333c0 .477-.386.863-.863.863H.863c-.477 0-.863-.386-.863-.863V.863C0 .386.386 0 .863 0z" transform="translate(-843 -737) translate(843 737) translate(4 3) translate(0 .941)"/>
                    </g>
                    <g fill="#555A62" fill-rule="nonzero">
                        <path d="M0 5.785v.633c0 .208.169.376.376.376h.631c.208 0 .377-.168.377-.376v-.633c0-.208-.169-.377-.377-.377h-.63c-.208 0-.377.169-.377.377z" transform="translate(-843 -737) translate(843 737) translate(4 3) translate(2.635 4.706)"/>
                        <g>
                            <path d="M0 3.201v.633c0 .208.169.377.376.377h.631c.208 0 .377-.169.377-.377v-.633c0-.208-.169-.376-.377-.376h-.63C.168 2.825 0 2.993 0 3.2zM3.35 2.824h-.63c-.208 0-.376.168-.376.376v.633c0 .208.168.376.376.376h.63c.209 0 .377-.168.377-.376V3.2c0-.208-.168-.376-.376-.376zM3.35.565h-.63c-.208 0-.376.168-.376.376v.633c0 .208.168.377.376.377h.63c.209 0 .377-.169.377-.377V.941c0-.208-.168-.376-.376-.376zM5.694 2.824h-.63c-.208 0-.377.168-.377.376v.633c0 .208.169.376.377.376h.63c.208 0 .377-.168.377-.376V3.2c0-.208-.169-.376-.377-.376zM5.694.565h-.63c-.208 0-.377.168-.377.376v.633c0 .208.169.377.377.377h.63c.208 0 .377-.169.377-.377V.941c0-.208-.169-.376-.377-.376zM7.944 2.824H7.5c-.26 0-.47.21-.47.47v.445c0 .26.21.47.47.47h.443c.26 0 .47-.21.47-.47v-.445c0-.26-.21-.47-.47-.47zM7.944.565H7.5c-.26 0-.47.21-.47.47v.445c0 .26.21.47.47.47h.443c.26 0 .47-.21.47-.47v-.445c0-.26-.21-.47-.47-.47zM10.381 2.824h-.63c-.208 0-.377.168-.377.376v.633c0 .208.169.376.377.376h.63c.208 0 .377-.168.377-.376V3.2c0-.208-.169-.376-.377-.376zM10.381.565h-.63c-.208 0-.377.168-.377.376v.633c0 .208.169.377.377.377h.63c.208 0 .377-.169.377-.377V.941c0-.208-.169-.376-.377-.376z" transform="translate(-843 -737) translate(843 737) translate(4 3) translate(2.635 4.706) translate(0 .282)"/>
                        </g>
                        <path d="M3.35 5.407h-.63c-.208 0-.376.169-.376.376v.633c0 .208.168.377.376.377h.63c.209 0 .377-.169.377-.377v-.633c0-.207-.168-.376-.376-.376zM5.694 5.407h-.63c-.208 0-.377.169-.377.376v.633c0 .208.169.377.377.377h.63c.208 0 .377-.169.377-.377v-.633c0-.207-.169-.376-.377-.376zM7.944 5.407H7.5c-.26 0-.47.21-.47.47v.445c0 .26.21.47.47.47h.443c.26 0 .47-.21.47-.47v-.444c0-.26-.21-.471-.47-.471zM10.381 5.407h-.63c-.208 0-.377.169-.377.376v.633c0 .208.169.377.377.377h.63c.208 0 .377-.169.377-.377v-.633c0-.207-.169-.376-.377-.376zM0 8.018v.633c0 .208.169.376.376.376h.631c.208 0 .377-.168.377-.376v-.633c0-.208-.169-.377-.377-.377h-.63c-.208 0-.377.169-.377.377zM3.35 7.64h-.63c-.208 0-.376.168-.376.376v.633c0 .208.168.377.376.377h.63c.209 0 .377-.169.377-.377v-.633c0-.208-.168-.376-.376-.376zM5.694 7.64h-.63c-.208 0-.377.168-.377.376v.633c0 .208.169.377.377.377h.63c.208 0 .377-.169.377-.377v-.633c0-.208-.169-.376-.377-.376z" transform="translate(-843 -737) translate(843 737) translate(4 3) translate(2.635 4.706)"/>
                    </g>
                    <path stroke="#555A62" stroke-linecap="square" stroke-width=".941" d="M0.941 3.765L15.059 3.765" transform="translate(-843 -737) translate(843 737) translate(4 3)"/>
                    <g fill="#555A62">
                        <path d="M0 2.093V.735C0 .311.339 0 .734 0c.395 0 .734.34.734.735v1.358c0 .424-.339.735-.734.735-.395 0-.734-.34-.734-.735zM4.292 2.093V.735c0-.424.339-.735.734-.735.395 0 .734.34.734.735v1.358c0 .424-.339.735-.734.735-.395 0-.734-.34-.734-.735zM8.584 2.093V.735c0-.424.338-.735.734-.735.395 0 .734.34.734.735v1.358c0 .424-.34.735-.734.735-.396 0-.734-.34-.734-.735z" transform="translate(-843 -737) translate(843 737) translate(4 3) translate(2.824)"/>
                    </g>
                </g>
            </g>
        </g>
    </g>
</svg>
