<svg width="24" height="24" viewBox="0 0 24 24" fill="none" xmlns="http://www.w3.org/2000/svg">
<g clip-path="url(#clip0_3325_32785)">
<path fill-rule="evenodd" clip-rule="evenodd" d="M7.1 17H11.9C12.23 17 12.5 16.55 12.5 16C12.5 15.45 12.23 15 11.9 15H7.1C6.77 15 6.5 15.45 6.5 16C6.5 16.55 6.77 17 7.1 17Z" fill="#555A62"/>
<path d="M6.93 8.84C6.77 8.73 6.65 8.58 6.57 8.39L6.93 8.84Z" fill="#555A62"/>
<path d="M21.5 8C21.5 8.55 21.08 9 20.56 9H11.97C11.99 8.84 12 8.67 12 8.5C12 7.97 11.91 7.47 11.74 7H20.56C21.08 7 21.5 7.45 21.5 8Z" fill="#555A62"/>
<path d="M15.5 11H11.24C11.64 10.41 11.89 9.73 11.97 9C11.99 8.84 12 8.67 12 8.5C12 7.97 11.91 7.47 11.74 7C11.13 5.25 9.46 4 7.5 4C5.01 4 3 6.01 3 8.5C3 10.99 5.01 13 7.5 13H15.5C16.05 13 16.5 12.55 16.5 12C16.5 11.45 16.05 11 15.5 11ZM9.9 7.62L8.71 9L7.29 10.65C7.16 10.8 6.94 10.8 6.81 10.65L5.3 8.88C5.17 8.72 5.17 8.47 5.31 8.32L5.71 7.88C5.84 7.73 6.07 7.74 6.19 7.91L6.57 8.39L6.93 8.85C6.96 8.87 7 8.89 7.03 8.91L8.66 7.01L8.99 6.62C9.12 6.47 9.32 6.47 9.46 6.61L9.83 7.01L9.89 7.07C10.03 7.22 10.04 7.47 9.9 7.63V7.62Z" fill="#555A62"/>
<path d="M6.57 8.39L6.93 8.84C6.77 8.73 6.65 8.58 6.57 8.39Z" fill="#555A62"/>
<path d="M7.03 8.9L7 8.93L6.93 8.84C6.93 8.84 7 8.88 7.03 8.9Z" fill="#555A62"/>
<path d="M6.93 8.84C6.77 8.73 6.65 8.58 6.57 8.39L6.93 8.84Z" fill="white"/>
</g>
<defs>
<clipPath id="clip0_3325_32785">
<rect width="18.5" height="13" fill="white" transform="translate(3 4)"/>
</clipPath>
</defs>
</svg>
