<svg width="24" height="25" viewBox="0 0 24 25" fill="none" xmlns="http://www.w3.org/2000/svg">
<path d="M12 4.25C12.5977 4.25 13.1602 4.32031 13.7227 4.42578C14.0039 4.49609 14.4961 4.63672 14.7773 5.12891C14.8477 5.26953 14.8828 5.41016 14.918 5.55078L15.2695 6.92188C15.3047 7.09766 15.6562 7.30859 15.8672 7.23828L17.2031 6.85156C17.3438 6.81641 17.4844 6.78125 17.625 6.78125C18.1875 6.78125 18.5742 7.13281 18.75 7.34375C19.5234 8.22266 20.1211 9.24219 20.5078 10.3672C20.6133 10.6484 20.7188 11.1406 20.4023 11.5977C20.332 11.7383 20.2266 11.8438 20.1211 11.9492L19.1367 12.9336C18.9609 13.0742 18.9609 13.4609 19.1367 13.6016L20.1211 14.5859C20.2266 14.6914 20.332 14.7969 20.4023 14.9375C20.6836 15.3945 20.5781 15.8867 20.5078 16.168C20.1211 17.293 19.5234 18.3125 18.75 19.1914C18.5742 19.4023 18.1875 19.7539 17.625 19.7539C17.4844 19.7539 17.3438 19.7188 17.2031 19.6836L15.8672 19.2617C15.6562 19.2266 15.3047 19.4023 15.2695 19.6133L14.918 20.9844C14.8828 21.125 14.8477 21.2656 14.7773 21.4062C14.4961 21.8984 14.0039 22.0391 13.7227 22.1094C13.1602 22.2148 12.5977 22.25 12 22.25C11.4023 22.25 10.8047 22.2148 10.2422 22.1094C9.96094 22.0391 9.46875 21.8984 9.1875 21.4062C9.11719 21.2656 9.08203 21.125 9.04688 20.9844L8.69531 19.6133C8.66016 19.4023 8.30859 19.2266 8.13281 19.2617L6.79688 19.6836C6.65625 19.7188 6.48047 19.7188 6.33984 19.7539C5.77734 19.7539 5.39062 19.4023 5.21484 19.1914C4.44141 18.3125 3.84375 17.293 3.45703 16.168C3.38672 15.8867 3.28125 15.3945 3.5625 14.9023C3.63281 14.7969 3.73828 14.6562 3.84375 14.5508L4.86328 13.6016C5.00391 13.4609 5.00391 13.0742 4.86328 12.9336L3.84375 11.9492C3.73828 11.8438 3.63281 11.7383 3.5625 11.5977C3.28125 11.1406 3.38672 10.6484 3.45703 10.3672C3.84375 9.24219 4.44141 8.22266 5.21484 7.34375C5.39062 7.13281 5.77734 6.78125 6.33984 6.78125C6.48047 6.78125 6.65625 6.81641 6.79688 6.85156L8.13281 7.23828C8.30859 7.30859 8.66016 7.09766 8.69531 6.92188L9.04688 5.55078C9.08203 5.41016 9.11719 5.26953 9.1875 5.12891C9.46875 4.63672 9.96094 4.49609 10.2422 4.42578C10.8047 4.32031 11.4023 4.25 12 4.25ZM10.6641 6.07812L10.3477 7.30859C10.0664 8.43359 8.76562 9.20703 7.64062 8.89062L6.41016 8.50391C5.84766 9.20703 5.39062 9.98047 5.07422 10.8242L6.02344 11.7031C6.86719 12.5117 6.86719 14.0234 6.02344 14.832L5.07422 15.7109C5.39062 16.5547 5.84766 17.3281 6.41016 18.0312L7.64062 17.6445C8.76562 17.3281 10.0664 18.1016 10.3477 19.2266L10.6641 20.457C11.5078 20.6328 12.457 20.6328 13.3359 20.457L13.6172 19.2266C13.8984 18.1016 15.1992 17.3281 16.3242 17.6445L17.5547 18.0312C18.1172 17.3281 18.5742 16.5547 18.8906 15.7109L17.9766 14.832C17.1328 14.0234 17.1328 12.5117 17.9766 11.7031L18.8906 10.8242C18.5742 9.98047 18.1172 9.20703 17.5547 8.50391L16.3242 8.89062C15.2344 9.20703 13.8984 8.43359 13.6172 7.30859L13.3359 6.07812C12.457 5.90234 11.5078 5.90234 10.6641 6.07812ZM10.3125 13.25C10.3125 13.8828 10.6289 14.4102 11.1562 14.7266C11.6484 15.043 12.3164 15.043 12.8438 14.7266C13.3359 14.4102 13.6875 13.8828 13.6875 13.25C13.6875 12.6523 13.3359 12.125 12.8438 11.8086C12.3164 11.4922 11.6484 11.4922 11.1562 11.8086C10.6289 12.125 10.3125 12.6523 10.3125 13.25ZM12 16.625C10.7695 16.625 9.67969 15.9922 9.04688 14.9375C8.44922 13.918 8.44922 12.6172 9.04688 11.5625C9.67969 10.543 10.7695 9.875 12 9.875C13.1953 9.875 14.2852 10.543 14.918 11.5625C15.5156 12.6172 15.5156 13.918 14.918 14.9375C14.2852 15.9922 13.1953 16.625 12 16.625Z" fill="#555A62"/>
</svg>
