<svg width="24" height="24" viewBox="0 0 24 24" fill="none" xmlns="http://www.w3.org/2000/svg">
<path d="M21.7602 11C19.7566 7.7 16.1502 5.5 11.9427 5.5C10.8407 5.5 9.83896 5.7 8.83717 5.9C8.63682 5.9 8.43646 6 8.2361 6.1C6.73343 6.6 5.73164 7.3 5.73164 7.3C4.22897 8.2 3.02683 9.5 2.2254 11C1.92487 11.5 1.92487 12.2 2.2254 12.7C4.22897 16 7.83539 18.2 12.0429 18.2C12.0429 18.2 12.0429 18.2 12.1431 18.2C15.1484 18.2 16.8514 17.2 16.8514 17.2C18.9552 16.2 20.6582 14.7 21.8604 12.7C22.0607 12.1 22.0607 11.5 21.7602 11ZM15.3488 16C9.53842 17.9 5.33093 14.6 3.6279 11.8C4.42933 10.5 5.43111 9.4 6.73343 8.6C7.23432 8.3 7.83539 7.9 8.33628 7.6C7.73521 8.4 7.43468 9.5 7.43468 9.5C6.73343 12.2 8.63682 14.9 11.3416 15.3C11.3416 15.3 12.3434 15.5 13.4454 15.1C15.6493 14.3 17.6529 12 16.2504 8.4C16.2504 9.5 15.3488 10.3 14.347 10.3C13.245 10.3 12.4436 9.4 12.4436 8.4C12.4436 7.9 12.644 7.4 12.9445 7C16.1502 7.3 18.9552 9.1 20.4579 11.7C19.3559 13.3 17.5527 14.9 15.3488 16Z" fill="#555A62"/>
</svg>
