<svg width="16" height="16" viewBox="0 0 16 16" fill="none" xmlns="http://www.w3.org/2000/svg">
    <path fill-rule="evenodd" clip-rule="evenodd"
        d="M7.1001 7.11522V5.08228H8.9001V7.11522L8.7201 10.1646H7.3701L7.1001 7.11522Z" fill="#555A62" />
    <path fill-rule="evenodd" clip-rule="evenodd" d="M7.1001 11.0117H8.9001V12.7058H7.1001V11.0117Z" fill="#555A62" />
    <path fill-rule="evenodd" clip-rule="evenodd"
        d="M15.9122 14.1373L8.66337 0.401435C8.59302 0.268143 8.48461 0.159093 8.35209 0.0883387C7.98568 -0.107296 7.53098 0.0328819 7.33649 0.401435L0.0876749 14.1373C0.0301036 14.2464 0 14.368 0 14.4915C0 14.9088 0.336285 15.2471 0.751115 15.2471H15.2487C15.3715 15.2471 15.4924 15.2168 15.6009 15.1589C15.9673 14.9632 16.1067 14.5059 15.9122 14.1373ZM1.16047 14.2471L7.99993 1.28687L14.8394 14.2471H1.16047Z"
        fill="#555A62" />
</svg>
