<svg width="24" height="24" viewBox="0 0 24 24" fill="none" xmlns="http://www.w3.org/2000/svg">
<path d="M17.5 17.7C17.8866 17.7 18.2 17.3866 18.2 17C18.2 16.6134 17.8866 16.3 17.5 16.3V17.7ZM3.50503 16.505C3.23166 16.7784 3.23166 17.2216 3.50503 17.495L7.9598 21.9497C8.23316 22.2231 8.67638 22.2231 8.94975 21.9497C9.22311 21.6764 9.22311 21.2332 8.94975 20.9598L4.98995 17L8.94975 13.0402C9.22311 12.7668 9.22311 12.3236 8.94975 12.0503C8.67638 11.7769 8.23316 11.7769 7.9598 12.0503L3.50503 16.505ZM17.5 16.3H4V17.7H17.5V16.3Z" fill="#555A62"/>
<path d="M6 6.8C5.6134 6.8 5.3 7.1134 5.3 7.5C5.3 7.8866 5.6134 8.2 6 8.2L6 6.8ZM19.995 7.99497C20.2683 7.72161 20.2683 7.27839 19.995 7.00503L15.5402 2.55025C15.2668 2.27689 14.8236 2.27689 14.5503 2.55025C14.2769 2.82362 14.2769 3.26683 14.5503 3.5402L18.5101 7.5L14.5503 11.4598C14.2769 11.7332 14.2769 12.1764 14.5503 12.4497C14.8236 12.7231 15.2668 12.7231 15.5402 12.4497L19.995 7.99497ZM6 8.2L19.5 8.2L19.5 6.8L6 6.8L6 8.2Z" fill="#555A62"/>
</svg>
