<svg width="16" height="17" viewBox="0 0 16 17" fill="none" xmlns="http://www.w3.org/2000/svg">
<path d="M2.62069 7.64286C2.25862 7.64286 2 7.375 2 7V3.14286C2 2.79464 2.25862 2.5 2.62069 2.5C2.9569 2.5 3.24138 2.79464 3.24138 3.14286V5.3125L3.75862 4.66964C4.81897 3.35714 6.39655 2.5 8.2069 2.5C11.3879 2.5 14 5.20536 14 8.5C14 11.8214 11.3879 14.5 8.2069 14.5C6.88793 14.5 5.69828 14.0714 4.71552 13.3214C4.4569 13.1071 4.37931 12.7054 4.58621 12.4107C4.7931 12.1161 5.18103 12.0625 5.46552 12.2768C6.21552 12.8661 7.17241 13.2143 8.2069 13.2143C10.7155 13.2143 12.7586 11.125 12.7586 8.5C12.7586 5.90179 10.7155 3.78571 8.2069 3.78571C6.78448 3.78571 5.5431 4.45536 4.68966 5.5L3.99138 6.35714H6.34483C6.68103 6.35714 6.96552 6.65179 6.96552 7C6.96552 7.375 6.68103 7.64286 6.34483 7.64286H2.62069Z" fill="#555A62"/>
</svg>
