<svg width="24" height="24" viewBox="0 0 24 24" fill="none" xmlns="http://www.w3.org/2000/svg">
    <circle cx="12" cy="12" r="8" fill="#FDEFD0" />
    <g clip-path="url(#clip0_5352_38210)">
        <path
            d="M12 20.4706C16.6782 20.4706 20.4706 16.6782 20.4706 12C20.4706 7.32183 16.6782 3.52942 12 3.52942C7.32182 3.52942 3.5294 7.32183 3.5294 12C3.5294 16.6782 7.32182 20.4706 12 20.4706Z"
            stroke="#C24704" />
    </g>
    <path fill-rule="evenodd" clip-rule="evenodd"
        d="M11.3535 13.6435H12.9221L13.2499 7H11.0256L11.3535 13.6435ZM11.2893 15.1054C11.0964 15.3003 11 15.5882 11 15.969C11 16.3362 11.0986 16.6206 11.2957 16.8223C11.4929 17.0241 11.7714 17.1249 12.1314 17.1249C12.4829 17.1249 12.7571 17.0218 12.9543 16.8155C13.1514 16.6093 13.25 16.3271 13.25 15.969C13.25 15.5972 13.1525 15.3116 12.9575 15.1122C12.7625 14.9127 12.4871 14.813 12.1314 14.813C11.7629 14.813 11.4821 14.9105 11.2893 15.1054Z"
        fill="#C24704" />
    <defs>
        <clipPath id="clip0_5352_38210">
            <rect width="18" height="18" fill="white" transform="translate(3 3)" />
        </clipPath>
    </defs>
</svg>
