<svg width="24" height="24" viewBox="0 0 24 24" fill="none" xmlns="http://www.w3.org/2000/svg">
    <path d="M8.46875 11.6562L8.21875 13C7.55208 13.2292 7.03125 13.5521 6.65625 13.9688C6.63542 13.4271 6.79167 12.9479 7.125 12.5312C7.45833 12.1146 7.90625 11.8229 8.46875 11.6562ZM8.03125 8.90625C8.09375 9.23958 8.03125 9.55208 7.84375 9.84375C7.65625 10.1146 7.38542 10.2812 7.03125 10.3438C6.67708 10.4062 6.36458 10.3333 6.09375 10.125C5.82292 9.9375 5.65625 9.67708 5.59375 9.34375C5.57292 9.19792 5.57292 9.0625 5.59375 8.9375C5.92708 9.125 6.33333 9.1875 6.8125 9.125C7.27083 9.02083 7.63542 8.82292 7.90625 8.53125C7.96875 8.65625 8.01042 8.78125 8.03125 8.90625ZM4.5 13.3125C4.6875 14.0417 5.21875 14.6979 6.09375 15.2812C6.96875 15.8646 7.85417 16.25 8.75 16.4375C9.02083 16.9792 9.35417 17.4896 9.75 17.9688C9.70833 17.9688 9.67708 17.9688 9.65625 17.9688C9.57292 17.9896 9.48958 18 9.40625 18C8.67708 18 7.84375 17.8021 6.90625 17.4062C5.98958 17.0312 5.15625 16.5104 4.40625 15.8438C3.65625 15.1771 3.19792 14.4167 3.03125 13.5625L2.03125 7.96875C1.96875 7.51042 2.02083 7.08333 2.1875 6.6875C2.375 6.3125 2.65625 6.01042 3.03125 5.78125C5.19792 4.59375 7.48958 4 9.90625 4C10.6562 4 11.3958 4.0625 12.125 4.1875C12.6875 4.29167 13.125 4.57292 13.4375 5.03125C12.8333 5.05208 12.2396 5.10417 11.6562 5.1875C11.3229 5.25 11.0104 5.36458 10.7188 5.53125C10.4479 5.51042 10.1771 5.5 9.90625 5.5C7.73958 5.5 5.69792 6.03125 3.78125 7.09375C3.57292 7.21875 3.47917 7.41667 3.5 7.6875L4.5 13.3125ZM13.625 11C13.1875 10.9167 12.7812 10.9688 12.4062 11.1562C12.3854 11.0312 12.3854 10.9062 12.4062 10.7812C12.4688 10.4271 12.6354 10.1562 12.9062 9.96875C13.1771 9.78125 13.4896 9.71875 13.8438 9.78125C14.1979 9.84375 14.4688 10.0104 14.6562 10.2812C14.8438 10.5521 14.9062 10.8646 14.8438 11.2188C14.8229 11.3438 14.7812 11.4583 14.7188 11.5625C14.4479 11.2708 14.0833 11.0833 13.625 11ZM20.9688 7.75C21.3438 7.95833 21.6146 8.26042 21.7812 8.65625C21.9688 9.05208 22.0312 9.47917 21.9688 9.9375L20.9688 15.5625C20.7812 16.4792 20.2604 17.2812 19.4062 17.9688C18.5729 18.6771 17.6562 19.2188 16.6562 19.5938C15.6354 19.9479 14.7812 20.0729 14.0938 19.9688C13.4062 19.8229 12.6562 19.4062 11.8438 18.7188C11.0312 18.0521 10.3438 17.2396 9.78125 16.2812C9.23958 15.3438 9.03125 14.4062 9.15625 13.4688L10.1562 7.84375C10.2396 7.38542 10.4271 7.01042 10.7188 6.71875C11.0312 6.40625 11.4062 6.20833 11.8438 6.125C13.4271 5.875 14.9896 5.89583 16.5312 6.1875C18.0938 6.45833 19.5729 6.97917 20.9688 7.75ZM19.4688 15.2812L20.5 9.65625C20.5208 9.38542 20.4271 9.1875 20.2188 9.0625C18.9896 8.375 17.6771 7.90625 16.2812 7.65625C14.8854 7.40625 13.4792 7.39583 12.0625 7.625C11.8333 7.66667 11.6875 7.82292 11.625 8.09375L10.5938 13.7188C10.5312 14.3438 10.7188 15.0104 11.1562 15.7188C11.5938 16.4271 12.125 17.0417 12.75 17.5625C13.3542 18.0833 13.8854 18.3958 14.3438 18.5C14.8021 18.5625 15.4062 18.4479 16.1562 18.1562C16.9062 17.8646 17.6146 17.4688 18.2812 16.9688C18.9271 16.4688 19.3229 15.9062 19.4688 15.2812ZM17.7812 10.4688C18.1354 10.5312 18.4167 10.6979 18.625 10.9688C18.8125 11.2396 18.8646 11.5521 18.7812 11.9062C18.7604 12.0312 18.7188 12.1562 18.6562 12.2812C18.4062 11.9896 18.0417 11.7917 17.5625 11.6875C17.1042 11.625 16.6979 11.6771 16.3438 11.8438C16.3229 11.7188 16.3229 11.5938 16.3438 11.4688C16.4062 11.1354 16.5729 10.8646 16.8438 10.6562C17.1146 10.4688 17.4271 10.4062 17.7812 10.4688ZM15.0312 14.6562C16.4479 14.8646 17.6146 14.6979 18.5312 14.1562C18.2812 14.9688 17.8021 15.6042 17.0938 16.0625C16.4062 16.5 15.6146 16.6562 14.7188 16.5312C13.8229 16.3438 13.125 15.9167 12.625 15.25C12.1042 14.6042 11.875 13.8438 11.9375 12.9688C12.6042 13.8229 13.6354 14.3854 15.0312 14.6562Z" fill="#555A62"/>
</svg>
