<svg viewBox="0 0 347.01 143.98">
  <path
    fill="currentColor"
    d="M3.21 84.66h9.55l19.55 48.2 19.66-48.2h9.33l-25.28 58.53h-7.64L3.21 84.66ZM68.6 125.89v-.22c0-12.25 10.11-18.76 24.83-18.76 7.41 0 12.7 1.01 17.86 2.47v-2.02c0-10.45-6.4-15.84-17.3-15.84-6.85 0-12.25 1.8-17.64 4.27l-2.58-7.08c6.4-2.92 12.69-4.83 21.12-4.83s14.49 2.13 18.76 6.4c3.93 3.93 5.96 9.55 5.96 16.97v35.5h-8.32v-8.76c-4.04 5.28-10.79 10-21.01 10-10.79 0-21.68-6.18-21.68-18.09Zm42.8-4.49v-5.62c-4.27-1.24-10-2.47-17.08-2.47-10.9 0-16.96 4.72-16.96 12.02v.22c0 7.3 6.74 11.57 14.6 11.57 10.67 0 19.44-6.52 19.44-15.73ZM138.94 84.66h8.65v10.11c3.82-6.29 9.89-11.35 19.89-11.35 14.04 0 22.24 9.44 22.24 23.26v36.06h-8.65v-33.93c0-10.79-5.84-17.53-16.07-17.53s-17.41 7.3-17.41 18.2v33.25h-8.65V84.65ZM209.83 84.66h8.65v58.08h-8.65V84.66ZM240.28 60.73h8.65v82.01h-8.65V60.73ZM270.73 60.73h8.65v82.01h-8.65V60.73ZM296.01 125.89v-.22c0-12.25 10.11-18.76 24.83-18.76 7.41 0 12.69 1.01 17.86 2.47v-2.02c0-10.45-6.4-15.84-17.3-15.84-6.85 0-12.25 1.8-17.64 4.27l-2.58-7.08c6.4-2.92 12.7-4.83 21.12-4.83s14.49 2.13 18.76 6.4c3.93 3.93 5.95 9.55 5.95 16.97v35.5h-8.31v-8.76c-4.04 5.28-10.79 10-21.01 10-10.79 0-21.68-6.18-21.68-18.09Zm42.8-4.49v-5.62c-4.27-1.24-10-2.47-17.08-2.47-10.9 0-16.97 4.72-16.97 12.02v.22c0 7.3 6.74 11.57 14.61 11.57 10.67 0 19.44-6.52 19.44-15.73Z"
/>
<circle fill="currentColor" cx="213.29" cy="57.17" r="13.84" />
<path
    fill="currentColor"
    d="M0 0h4.92v8.73C6.05 7.27 7.51 5.95 10 5.95c3.72 0 5.89 2.46 5.89 6.44v11.23h-4.92v-9.68c0-2.33-1.1-3.53-2.98-3.53s-3.07 1.2-3.07 3.53v9.67H0V0ZM18.63 0h5.18v4.37h-5.18V0Zm.13 6.28h4.92v17.34h-4.92V6.28ZM26.79 27.05l1.68-3.69c1.78 1 3.56 1.59 5.86 1.59 3.36 0 4.95-1.62 4.95-4.72v-.84c-1.46 1.75-3.04 2.81-5.66 2.81-4.04 0-7.7-2.94-7.7-8.09v-.06c0-5.18 3.72-8.09 7.7-8.09 2.69 0 4.27 1.13 5.6 2.59V6.29h4.92v13.43c0 3.11-.74 5.37-2.2 6.83-1.62 1.62-4.11 2.33-7.47 2.33-2.81 0-5.47-.65-7.67-1.81Zm12.49-12.94v-.06c0-2.36-1.84-4.01-4.24-4.01s-4.21 1.65-4.21 4.01v.06c0 2.39 1.81 4.01 4.21 4.01s4.24-1.65 4.24-4.01ZM46.91 0h4.92v8.73c1.13-1.46 2.59-2.78 5.08-2.78 3.72 0 5.89 2.46 5.89 6.44v11.23h-4.92v-9.68c0-2.33-1.1-3.53-2.98-3.53s-3.07 1.2-3.07 3.53v9.67h-4.92V0ZM64.6 15.04v-.06c0-4.95 3.53-9.03 8.57-9.03 5.79 0 8.44 4.5 8.44 9.41 0 .39-.03.84-.06 1.29H69.48c.49 2.23 2.04 3.4 4.24 3.4 1.65 0 2.85-.52 4.21-1.78l2.81 2.49C79.12 22.77 76.79 24 73.65 24c-5.21 0-9.06-3.66-9.06-8.96Zm12.23-1.46c-.29-2.2-1.59-3.69-3.66-3.69s-3.36 1.46-3.75 3.69h7.41ZM83.66 6.28h4.92v3.49c1-2.39 2.62-3.95 5.53-3.82v5.14h-.26c-3.27 0-5.27 1.97-5.27 6.11v6.41h-4.92V6.28ZM0 26.73h4.92v23.62H0zM15.52 32.68c-5.4 0-9.41 4.04-9.41 9.03v.06c0 4.98 3.98 8.96 9.35 8.96s9.41-4.04 9.41-9.03v-.06c0-4.98-3.98-8.96-9.35-8.96Zm4.5 9.09c0 2.56-1.68 4.72-4.5 4.72s-4.56-2.23-4.56-4.79v-.06c0-2.56 1.68-4.72 4.5-4.72s4.56 2.23 4.56 4.79v.06ZM39.39 33.01v2.26c-1.33-1.46-2.91-2.59-5.6-2.59-3.98 0-7.7 2.91-7.7 8.09v.06c0 5.14 3.66 8.09 7.7 8.09 2.62 0 4.21-1.07 5.66-2.81v.84c0 3.11-1.59 4.72-4.95 4.72-2.3 0-4.08-.58-5.86-1.59l-1.68 3.69c2.2 1.16 4.85 1.81 7.67 1.81 3.36 0 5.86-.71 7.47-2.33 1.46-1.46 2.2-3.72 2.2-6.83V32.99h-4.92Zm.06 7.83c0 2.36-1.84 4.01-4.24 4.01S31 43.23 31 40.84v-.06c0-2.36 1.81-4.01 4.21-4.01s4.24 1.65 4.24 4.01v.06ZM46.91 26.73h4.92v4.37h-4.92zM46.91 33.01h4.92v17.34h-4.92zM53.57 41.77v-.06c0-4.95 3.79-9.03 9.09-9.03 3.27 0 5.31 1.1 6.92 2.91l-3.01 3.24c-1.1-1.16-2.2-1.91-3.95-1.91-2.46 0-4.21 2.17-4.21 4.72v.06c0 2.65 1.71 4.79 4.4 4.79 1.65 0 2.78-.71 3.98-1.84l2.88 2.91c-1.68 1.84-3.62 3.17-7.08 3.17-5.21 0-9.03-4.01-9.03-8.96Z"
/>
</svg>