<svg width="24" height="24" viewBox="0 0 24 24" fill="none" xmlns="http://www.w3.org/2000/svg">
    <rect width="24" height="24" fill="transparent" />
    <path
        d="M18.6835 7.75C18.3737 7.75 18.1184 7.85938 17.9179 8.07812C17.6992 8.27865 17.5898 8.53385 17.5898 8.84375C17.608 9.09896 17.6901 9.31771 17.8359 9.5L15.375 11.4414C15.2109 11.569 15.0286 11.6328 14.8281 11.6328C14.4817 11.6328 14.2174 11.4779 14.0351 11.168L12.4766 7.99609C12.7865 7.79557 12.9505 7.49479 12.9688 7.09375C12.9688 6.78385 12.8685 6.52865 12.668 6.32812C12.4674 6.10938 12.2122 6 11.9023 6C11.5924 6 11.3281 6.10938 11.1094 6.32812C10.9089 6.52865 10.7995 6.78385 10.7813 7.09375C10.7995 7.49479 10.9727 7.79557 11.3008 7.99609L9.76953 11.168C9.58724 11.4596 9.32291 11.6146 8.97656 11.6328C8.77604 11.6328 8.59375 11.569 8.42968 11.4414L5.96875 9.5C6.11458 9.29948 6.1875 9.08073 6.1875 8.84375C6.1875 8.53385 6.07812 8.27865 5.85937 8.07812C5.65885 7.85938 5.40364 7.75 5.09375 7.75C4.78385 7.75 4.52864 7.85938 4.32812 8.07812C4.1276 8.27865 4.01823 8.53385 4 8.84375C4.01823 9.15365 4.1276 9.40885 4.32812 9.60938C4.52864 9.82812 4.78385 9.9375 5.09375 9.9375C5.11198 9.9375 5.12109 9.9375 5.12109 9.9375L6.48828 17.5391C6.63411 17.9766 6.93489 18.2135 7.39062 18.25H16.414C16.888 18.2135 17.1796 17.9766 17.289 17.5391L18.6562 9.9375C18.6744 9.9375 18.6835 9.9375 18.6835 9.9375C18.9934 9.9375 19.2487 9.82812 19.4492 9.60938C19.6679 9.40885 19.7773 9.15365 19.7773 8.84375C19.7773 8.53385 19.6679 8.27865 19.4492 8.07812C19.2487 7.85938 18.9934 7.75 18.6835 7.75ZM16.0585 16.9375H7.74609L6.8164 11.8516L7.60937 12.4805C8.01041 12.7904 8.46614 12.9453 8.97656 12.9453C9.86979 12.9271 10.526 12.526 10.9453 11.7422L11.9023 9.80078L12.8594 11.7422C13.2968 12.526 13.9531 12.9271 14.8281 12.9453C15.3385 12.9453 15.7942 12.7904 16.1953 12.4805L16.9882 11.8516L16.0585 16.9375Z"
        fill="#555A62" />
</svg>
