<?xml version="1.0" encoding="utf-8"?>
<!-- Generator: Adobe Illustrator 24.3.0, SVG Export Plug-In . SVG Version: 6.00 Build 0)  -->
<svg version="1.1" id="Layer_1" xmlns="http://www.w3.org/2000/svg" xmlns:xlink="http://www.w3.org/1999/xlink" x="0px" y="0px"
	 viewBox="0 0 65 59" style="enable-background:new 0 0 65 59;" xml:space="preserve">
<style type="text/css">
	.st0{filter:url(#Adobe_OpacityMaskFilter);}
	.st1{fill-rule:evenodd;clip-rule:evenodd;fill:#FFFFFF;}
	.st2{mask:url(#word_bubbles-b_1_);}
	.st3{fill-rule:evenodd;clip-rule:evenodd;fill:#0291DB;}
</style>
<g transform="translate(-7 -10)">
	<defs>
		<filter id="Adobe_OpacityMaskFilter" filterUnits="userSpaceOnUse" x="0" y="0" width="79" height="79">
			<feColorMatrix  type="matrix" values="1 0 0 0 0  0 1 0 0 0  0 0 1 0 0  0 0 0 1 0"/>
		</filter>
	</defs>
	<mask maskUnits="userSpaceOnUse" x="0" y="0" width="79" height="79" id="word_bubbles-b_1_">
		<g class="st0">
			<path id="word_bubbles-a_1_" class="st1" d="M34,10.5c3.5-0.1,7,0.6,10.3,1.9c3.1,1.3,6,3.1,8.4,5.4c2.4,2.3,4.3,5,5.6,8.1
				c0.4,0.9,0.7,1.8,1,2.7l-0.4-0.2c2.3,1.1,4.4,2.5,6.2,4.4c3.8,3.9,6,9.1,5.9,14.6c0,3-0.7,6-2,8.8l2.6,7.6c0.5,1.4,0.1,3-0.9,4.1
				c-0.7,0.7-1.7,1.2-2.8,1.2c-0.4,0-0.9-0.1-1.3-0.2L59,66.1c-2.7,1.3-5.7,2-8.8,2h0c-5.5,0-10.6-2.1-14.5-6
				c-0.6-0.6-1.2-1.2-1.7-1.9c-3.7-0.1-7.3-0.9-10.6-2.4l0,0L13.7,61c-0.5,0.2-1,0.2-1.5,0.2l0,0l-0.2,0c-1.1-0.1-2.2-0.5-3-1.3
				c-1.3-1.2-1.7-3-1.1-4.7l0,0l3.3-9.3C9.5,42.7,8.6,39,8.6,35.4c0-6.6,2.6-12.8,7.4-17.4C20.8,13.3,27.2,10.6,34,10.5z M59.8,31.3
				l0,0.1c0,0.1,0,0.3,0.1,0.4L59.8,31.3c0,0.3,0.1,0.5,0.1,0.8c0,0.1,0,0.2,0,0.3c0,0.1,0,0.2,0,0.2c0,0.1,0,0.2,0,0.4
				c0,0.1,0,0.2,0,0.3c0,0.1,0,0.2,0,0.4c0,0.1,0,0.2,0,0.3c0,0.1,0,0.2,0,0.2c0,0.1,0,0.2,0,0.3c0,0.1,0,0.2,0,0.3
				c0,0.3,0,0.6,0,0.9c-0.1,5.4-2,10.5-5.3,14.7c-0.1,0.2-0.3,0.4-0.4,0.5c-0.6,0.7-1.2,1.4-1.9,2l0,0c-0.1,0.1-0.2,0.2-0.4,0.3
				l0.4-0.3c-0.4,0.4-0.9,0.8-1.3,1.2c-0.1,0-0.1,0.1-0.2,0.1c-0.1,0.1-0.1,0.1-0.2,0.2c-0.1,0-0.1,0.1-0.2,0.1
				c-0.1,0.1-0.2,0.1-0.2,0.2c0,0-0.1,0.1-0.1,0.1c-0.1,0.1-0.1,0.1-0.2,0.2c-0.1,0-0.1,0.1-0.2,0.1c-0.1,0.1-0.2,0.1-0.3,0.2
				c0,0-0.1,0.1-0.1,0.1c-0.1,0.1-0.2,0.1-0.3,0.2c-0.1,0.1-0.2,0.1-0.2,0.2c0,0-0.1,0.1-0.1,0.1c-0.1,0-0.1,0.1-0.2,0.1
				c-0.2,0.2-0.5,0.3-0.7,0.4c-0.1,0.1-0.2,0.1-0.4,0.2c0,0,0,0,0,0c-0.3,0.2-0.6,0.3-0.8,0.5c0,0-0.1,0-0.1,0.1
				c-0.1,0.1-0.2,0.1-0.3,0.2c0,0-0.1,0-0.1,0.1c-0.1,0-0.2,0.1-0.3,0.1c-0.1,0-0.1,0.1-0.2,0.1c-0.1,0-0.2,0.1-0.2,0.1
				c-0.1,0-0.1,0-0.2,0.1c-0.3,0.1-0.5,0.2-0.8,0.3c0,0-0.1,0-0.1,0c-0.1,0-0.2,0.1-0.3,0.1c-0.1,0-0.1,0-0.2,0.1
				c-0.2,0.1-0.5,0.2-0.7,0.3c-0.1,0-0.2,0.1-0.3,0.1c-0.1,0-0.2,0.1-0.4,0.1c0,0,0,0,0,0c-0.1,0-0.3,0.1-0.4,0.1c0,0-0.1,0-0.1,0
				c-0.1,0-0.2,0.1-0.3,0.1c-0.1,0-0.1,0-0.2,0.1c-0.1,0-0.2,0-0.3,0.1c-0.1,0-0.1,0-0.2,0.1c-0.1,0-0.2,0-0.3,0.1
				c-0.1,0-0.2,0-0.2,0.1c-0.1,0-0.1,0-0.2,0c-0.1,0-0.1,0-0.2,0c-0.1,0-0.3,0.1-0.4,0.1c0,0-0.1,0-0.1,0c-0.1,0-0.2,0-0.3,0.1
				c-0.1,0-0.1,0-0.2,0c-0.1,0-0.1,0-0.2,0c-0.2,0-0.4,0.1-0.6,0.1c-0.2,0-0.4,0.1-0.7,0.1c0,0-0.1,0-0.1,0c-0.1,0-0.2,0-0.4,0
				c0,0,0,0,0,0c0.2,0.2,0.3,0.3,0.5,0.5c3.5,3.5,8.1,5.4,13,5.4l0,0c2.8,0,5.7-0.7,8.2-1.9l0.4-0.2l0.4,0.1l8,2.8
				c0.2,0.1,0.4,0.1,0.6,0.1c0.5,0,0.9-0.2,1.3-0.5c0.5-0.5,0.7-1.2,0.4-1.9l-2.9-8.5l0.2-0.4c1.3-2.5,1.9-5.4,1.9-8.2
				c0-4.9-1.9-9.6-5.3-13.1C62.3,33.1,61.1,32.1,59.8,31.3z M34.6,12.6l-0.6,0c-6.2,0.1-12.1,2.5-16.5,6.8
				c-4.4,4.3-6.8,9.9-6.8,15.9c0,3.5,0.8,6.9,2.4,10l0,0l0.2,0.4L9.8,56c-0.3,0.9-0.1,1.8,0.6,2.4c0.5,0.5,1.1,0.7,1.8,0.7l0,0
				l0.2,0c0.2,0,0.4-0.1,0.6-0.1l0,0l10.1-3.3l0.4-0.1l0.4,0.2c3.2,1.5,6.8,2.4,10.5,2.4l0,0l0.2,0l0.4,0c0.1,0,0.2,0,0.4,0
				c0,0,0.1,0,0.1,0l-0.1,0c0.1,0,0.2,0,0.3,0l-0.3,0c0.3,0,0.7,0,1-0.1c0.1,0,0.1,0,0.2,0l-0.2,0c0.1,0,0.3,0,0.4,0l-0.3,0
				c0.2,0,0.4,0,0.6-0.1l-0.3,0c0.2,0,0.3,0,0.5,0l-0.2,0c0.1,0,0.3,0,0.4,0l-0.2,0c0.2,0,0.3,0,0.5-0.1l-0.3,0c0.2,0,0.4,0,0.5-0.1
				l-0.3,0c0.1,0,0.3,0,0.4-0.1l-0.1,0c0.5-0.1,1-0.2,1.5-0.3c0,0,0.1,0,0.1,0l-0.1,0c0.1,0,0.2,0,0.3-0.1l-0.3,0.1
				c0.2,0,0.3-0.1,0.5-0.1l-0.2,0.1c0.1,0,0.3-0.1,0.4-0.1l-0.2,0c0.2,0,0.3-0.1,0.5-0.1l-0.3,0.1c0.2,0,0.3-0.1,0.5-0.1l-0.2,0
				c0.1,0,0.3-0.1,0.4-0.1l-0.3,0.1c0.2,0,0.3-0.1,0.5-0.1l-0.2,0.1c0.2,0,0.3-0.1,0.5-0.1l-0.3,0.1c0.1,0,0.3-0.1,0.4-0.1l-0.1,0
				c0.1,0,0.3-0.1,0.4-0.1L41.5,57c0.2-0.1,0.3-0.1,0.5-0.2l-0.2,0.1c0.1,0,0.3-0.1,0.4-0.1l-0.2,0.1c0.5-0.2,0.9-0.3,1.4-0.5
				c0,0,0.1,0,0.1-0.1l-0.1,0.1c0.2-0.1,0.3-0.1,0.5-0.2l-0.4,0.1c0.1-0.1,0.3-0.1,0.4-0.2l-0.1,0c0.4-0.2,0.9-0.4,1.3-0.6
				c0,0,0,0,0,0l0,0c0.1,0,0.1-0.1,0.2-0.1l-0.2,0.1c0.2-0.1,0.4-0.2,0.5-0.3c0.2-0.1,0.3-0.2,0.5-0.3c0.3-0.2,0.7-0.4,1-0.6
				c0.7-0.5,1.5-1,2.2-1.5c0.4-0.4,0.9-0.7,1.3-1.1l0.2-0.2c4.5-4.2,7-9.8,7.1-15.8c0-0.5,0-1,0-1.5c0-0.2,0-0.5,0-0.7
				c0-0.5-0.1-1-0.2-1.5c0,0,0-0.1,0-0.1l0,0.1c0-0.1,0-0.3-0.1-0.4l0,0.3c0-0.2-0.1-0.4-0.1-0.6l0.1,0.3c0-0.2-0.1-0.4-0.1-0.6
				l0.1,0.3c0-0.2-0.1-0.3-0.1-0.5l0,0.2c0-0.2-0.1-0.3-0.1-0.5l0.1,0.2c0-0.2-0.1-0.4-0.1-0.6l0.1,0.3c0-0.2-0.1-0.4-0.1-0.6
				l0.1,0.2c0-0.2-0.1-0.3-0.1-0.5l0.1,0.2c-0.3-1.1-0.7-2.2-1.1-3.3c-1.2-2.8-2.9-5.2-5.1-7.4c-2.2-2.1-4.8-3.8-7.7-4.9
				c-3-1.2-6.2-1.8-9.4-1.7L34.6,12.6z M25.1,32.3c1.7,0,3.1,1.4,3.1,3.1c0,1.7-1.4,3.1-3.1,3.1c-1.7,0-3.1-1.4-3.1-3.1
				C22,33.6,23.4,32.3,25.1,32.3z M35.4,32.3c1.7,0,3.1,1.4,3.1,3.1c0,1.7-1.4,3.1-3.1,3.1s-3.1-1.4-3.1-3.1
				C32.3,33.6,33.7,32.3,35.4,32.3z M44.7,32.3c1.7,0,3.1,1.4,3.1,3.1c0,1.7-1.4,3.1-3.1,3.1c-1.7,0-3.1-1.4-3.1-3.1
				C41.6,33.6,42.9,32.3,44.7,32.3z"/>
		</g>
	</mask>
	<g class="st2">
		<rect class="st3" width="79" height="79"/>
	</g>
</g>
</svg>
