<svg width="336" height="336" viewBox="0 0 336 336" fill="none" xmlns="http://www.w3.org/2000/svg">
<g clip-path="url(#clip0_5618_37566)">
<rect width="336" height="336" fill="white"/>
<rect width="336" height="336" fill="url(#paint0_radial_5618_37566)"/>
<g filter="url(#filter0_di_5618_37566)">
<circle cx="168" cy="168" r="124" fill="url(#paint1_radial_5618_37566)"/>
<circle cx="168" cy="168" r="130" stroke="#0085D9" stroke-width="12"/>
</g>
<mask id="mask0_5618_37566" style="mask-type:luminance" maskUnits="userSpaceOnUse" x="32" y="32" width="272" height="272">
<circle cx="168" cy="168" r="130" fill="white" stroke="white" stroke-width="12"/>
</mask>
<g mask="url(#mask0_5618_37566)">
<path d="M55.8774 246.549C53.8894 247.184 52.5502 248.948 52.3849 250.959L50.1497 278.16C48.3834 299.656 65.715 318 87.1999 318C108.304 318 125.488 300.274 124.308 279.124L122.742 251.078C122.627 249.015 121.275 247.187 119.244 246.537C116.698 245.722 110.887 243.905 104.73 242.289C98.6993 240.706 91.9213 239.2 87.6364 239.2C83.3253 239.2 76.4994 240.714 70.432 242.302C64.2385 243.923 58.4025 245.743 55.8774 246.549Z" fill="#EBEBEB" stroke="#17191C" stroke-width="6"/>
<path d="M85.1656 256.661L86.8818 257.858L88.5981 256.661L96.02 251.484C97.6429 250.352 98.6101 248.498 98.6101 246.519V221.328C98.6101 214.851 93.3592 209.6 86.8818 209.6C80.4045 209.6 75.1536 214.851 75.1536 221.328V246.519C75.1536 248.498 76.1207 250.352 77.7437 251.484L85.1656 256.661Z" fill="#FFF3F7" stroke="#17191C" stroke-width="6"/>
<rect x="77.3601" y="207.8" width="19.0435" height="39.2" rx="9.52174" fill="black" fill-opacity="0.314368"/>
<path d="M86.4851 242C92.5817 242 97.8637 238.671 101.516 233.761C105.169 228.851 107.338 222.208 107.338 215C107.338 207.792 105.169 201.149 101.516 196.239C97.8637 191.329 92.5817 188 86.4851 188C80.3884 188 75.1065 191.329 71.4539 196.239C67.8013 201.149 65.6318 207.792 65.6318 215C65.6318 222.208 67.8013 228.851 71.4539 233.761C75.1065 238.671 80.3884 242 86.4851 242Z" fill="#FFF3F7" stroke="#17191C" stroke-width="6"/>
<mask id="path-9-outside-1_5618_37566" maskUnits="userSpaceOnUse" x="173" y="99" width="148" height="120" fill="black">
<rect fill="white" x="173" y="99" width="148" height="120"/>
<path fill-rule="evenodd" clip-rule="evenodd" d="M283.549 184.837C302.46 177.145 315 163.66 315 148.309C315 124.39 284.555 105 247 105C209.445 105 179 124.39 179 148.309C179 172.228 209.445 191.618 247 191.618C251.436 191.618 255.773 191.348 259.972 190.831C261.598 193.116 263.089 195.402 263.973 197.205C266.372 202.1 267.888 212.757 267.888 212.757L283.549 184.837Z"/>
</mask>
<path fill-rule="evenodd" clip-rule="evenodd" d="M283.549 184.837C302.46 177.145 315 163.66 315 148.309C315 124.39 284.555 105 247 105C209.445 105 179 124.39 179 148.309C179 172.228 209.445 191.618 247 191.618C251.436 191.618 255.773 191.348 259.972 190.831C261.598 193.116 263.089 195.402 263.973 197.205C266.372 202.1 267.888 212.757 267.888 212.757L283.549 184.837Z" fill="white"/>
<path d="M283.549 184.837L281.288 179.279C280.029 179.791 278.981 180.716 278.316 181.902L283.549 184.837ZM259.972 190.831L264.86 187.352C263.583 185.558 261.426 184.607 259.24 184.876L259.972 190.831ZM263.973 197.205L269.36 194.564L263.973 197.205ZM267.888 212.757L261.948 213.602C262.311 216.149 264.256 218.182 266.785 218.655C269.314 219.128 271.863 217.936 273.121 215.692L267.888 212.757ZM309 148.309C309 160.097 299.2 171.994 281.288 179.279L285.809 190.395C305.721 182.297 321 167.223 321 148.309H309ZM247 111C264.812 111 280.656 115.61 291.86 122.746C303.135 129.926 309 139.11 309 148.309H321C321 133.589 311.643 121.118 298.306 112.624C284.899 104.085 266.743 99 247 99V111ZM185 148.309C185 139.11 190.865 129.926 202.14 122.746C213.344 115.61 229.188 111 247 111V99C227.257 99 209.101 104.085 195.694 112.624C182.357 121.118 173 133.589 173 148.309H185ZM247 185.618C229.188 185.618 213.344 181.008 202.14 173.873C190.865 166.692 185 157.508 185 148.309H173C173 163.029 182.357 175.5 195.694 183.994C209.101 192.533 227.257 197.618 247 197.618V185.618ZM259.24 184.876C255.285 185.363 251.193 185.618 247 185.618V197.618C251.68 197.618 256.261 197.333 260.705 196.786L259.24 184.876ZM255.084 194.31C256.673 196.543 257.926 198.502 258.585 199.846L269.36 194.564C268.251 192.302 266.523 189.688 264.86 187.352L255.084 194.31ZM258.585 199.846C259.414 201.538 260.273 204.743 260.955 208.034C261.275 209.577 261.526 210.983 261.696 212.004C261.781 212.512 261.845 212.921 261.888 213.199C261.909 213.337 261.925 213.443 261.935 213.512C261.94 213.546 261.944 213.571 261.946 213.586C261.947 213.594 261.948 213.599 261.948 213.602C261.948 213.603 261.948 213.604 261.948 213.604C261.948 213.604 261.948 213.604 261.948 213.603C261.948 213.603 261.948 213.603 261.948 213.603C261.948 213.602 261.948 213.602 267.888 212.757C273.829 211.912 273.828 211.911 273.828 211.911C273.828 211.911 273.828 211.91 273.828 211.91C273.828 211.909 273.828 211.908 273.828 211.906C273.827 211.904 273.827 211.901 273.826 211.897C273.825 211.889 273.824 211.879 273.822 211.866C273.818 211.841 273.813 211.806 273.807 211.761C273.793 211.671 273.774 211.543 273.749 211.38C273.7 211.056 273.627 210.594 273.532 210.027C273.343 208.896 273.065 207.332 272.706 205.599C272.03 202.338 270.931 197.767 269.36 194.564L258.585 199.846ZM273.121 215.692L288.782 187.772L278.316 181.902L262.655 209.822L273.121 215.692Z" fill="#191D21" mask="url(#path-9-outside-1_5618_37566)"/>
</g>
<mask id="path-11-outside-2_5618_37566" maskUnits="userSpaceOnUse" x="78" y="110" width="74" height="64" fill="black">
<rect fill="white" x="78" y="110" width="74" height="64"/>
<path fill-rule="evenodd" clip-rule="evenodd" d="M92.7203 156.389C87.322 152.102 84 146.261 84 139.824C84 126.666 97.8792 116 115 116C132.121 116 146 126.666 146 139.824C146 152.982 132.121 163.648 115 163.648C109.392 163.648 104.132 162.504 99.5938 160.502L92.1902 167.852C92.1902 167.852 93.3082 162.087 93.0981 159.099C93.0444 158.335 92.9051 157.394 92.7203 156.389Z"/>
</mask>
<path fill-rule="evenodd" clip-rule="evenodd" d="M92.7203 156.389C87.322 152.102 84 146.261 84 139.824C84 126.666 97.8792 116 115 116C132.121 116 146 126.666 146 139.824C146 152.982 132.121 163.648 115 163.648C109.392 163.648 104.132 162.504 99.5938 160.502L92.1902 167.852C92.1902 167.852 93.3082 162.087 93.0981 159.099C93.0444 158.335 92.9051 157.394 92.7203 156.389Z" fill="white"/>
<path d="M92.7203 156.389L96.4518 151.691C97.5879 152.593 98.3586 153.877 98.6212 155.303L92.7203 156.389ZM99.5938 160.502L95.3666 156.244C97.1183 154.505 99.7563 154.017 102.015 155.013L99.5938 160.502ZM92.1902 167.852L96.4174 172.11C94.5485 173.966 91.6882 174.386 89.3649 173.146C87.0417 171.905 85.7986 169.295 86.2999 166.71L92.1902 167.852ZM93.0981 159.099L99.0833 158.678V158.678L93.0981 159.099ZM90 139.824C90 144.063 92.1716 148.292 96.4518 151.691L88.9888 161.088C82.4723 155.913 78 148.459 78 139.824H90ZM115 122C107.647 122 101.21 124.297 96.7358 127.735C92.2684 131.169 90 135.495 90 139.824H78C78 130.996 82.6712 123.41 89.4235 118.221C96.1696 113.036 105.232 110 115 110V122ZM140 139.824C140 135.495 137.732 131.169 133.264 127.735C128.79 124.297 122.353 122 115 122V110C124.768 110 133.83 113.036 140.576 118.221C147.329 123.41 152 130.996 152 139.824H140ZM115 157.648C122.353 157.648 128.79 155.351 133.264 151.913C137.732 148.48 140 144.153 140 139.824H152C152 148.652 147.329 156.238 140.576 161.428C133.83 166.612 124.768 169.648 115 169.648V157.648ZM102.015 155.013C105.768 156.668 110.201 157.648 115 157.648V169.648C108.583 169.648 102.496 168.34 97.1728 165.992L102.015 155.013ZM87.963 163.594L95.3666 156.244L103.821 164.76L96.4174 172.11L87.963 163.594ZM99.0833 158.678C99.2373 160.868 98.9173 163.62 98.6654 165.425C98.5276 166.413 98.3834 167.294 98.2739 167.927C98.2189 168.245 98.1721 168.504 98.1383 168.687C98.1214 168.779 98.1077 168.852 98.0979 168.904C98.093 168.93 98.089 168.95 98.0861 168.966C98.0846 168.973 98.0834 168.979 98.0825 168.984C98.082 168.987 98.0816 168.989 98.0813 168.99C98.0811 168.991 98.081 168.992 98.0808 168.993C98.0808 168.993 98.0807 168.994 98.0807 168.994C98.0806 168.994 98.0805 168.995 92.1902 167.852C86.2999 166.71 86.2999 166.71 86.2998 166.711C86.2998 166.711 86.2997 166.711 86.2997 166.711C86.2996 166.712 86.2996 166.712 86.2996 166.712C86.2995 166.712 86.2995 166.712 86.2996 166.712C86.2997 166.711 86.3001 166.709 86.3007 166.706C86.302 166.699 86.3043 166.687 86.3076 166.67C86.314 166.636 86.3242 166.582 86.3374 166.51C86.364 166.366 86.4028 166.152 86.4494 165.883C86.5429 165.342 86.6651 164.594 86.7805 163.767C87.0351 161.942 87.169 160.318 87.1129 159.519L99.0833 158.678ZM98.6212 155.303C98.8225 156.397 99.0068 157.589 99.0833 158.678L87.1129 159.519C87.082 159.08 86.9877 158.39 86.8194 157.475L98.6212 155.303Z" fill="#191D21" mask="url(#path-11-outside-2_5618_37566)"/>
<g filter="url(#filter1_d_5618_37566)">
<path d="M71.3118 200.247L140.448 118.955" stroke="#FF6D7F" stroke-width="13"/>
</g>
<g filter="url(#filter2_d_5618_37566)">
<circle cx="105.5" cy="161.5" r="53" stroke="#FF6D7F" stroke-width="11" shape-rendering="crispEdges"/>
</g>
<mask id="path-15-outside-3_5618_37566" maskUnits="userSpaceOnUse" x="117" y="53" width="122" height="93" fill="black">
<rect fill="white" x="117" y="53" width="122" height="93"/>
<path fill-rule="evenodd" clip-rule="evenodd" d="M220.359 119.695C228.14 113.285 232.811 105.082 232.811 96.1406C232.811 75.6284 208.229 59 177.906 59C147.582 59 123 75.6284 123 96.1406C123 116.653 147.582 133.281 177.906 133.281C188.883 133.281 199.108 131.102 207.687 127.348C209.079 128.101 210.344 128.851 211.305 129.54C215.104 132.262 220.693 139.574 220.693 139.574L220.359 119.695Z"/>
</mask>
<path fill-rule="evenodd" clip-rule="evenodd" d="M220.359 119.695C228.14 113.285 232.811 105.082 232.811 96.1406C232.811 75.6284 208.229 59 177.906 59C147.582 59 123 75.6284 123 96.1406C123 116.653 147.582 133.281 177.906 133.281C188.883 133.281 199.108 131.102 207.687 127.348C209.079 128.101 210.344 128.851 211.305 129.54C215.104 132.262 220.693 139.574 220.693 139.574L220.359 119.695Z" fill="white"/>
<path d="M220.359 119.695L216.544 115.064C215.133 116.226 214.329 117.968 214.36 119.796L220.359 119.695ZM207.687 127.348L210.542 122.071C208.916 121.191 206.976 121.11 205.282 121.851L207.687 127.348ZM211.305 129.54L214.799 124.663L214.799 124.663L211.305 129.54ZM220.693 139.574L215.926 143.218C217.5 145.277 220.217 146.093 222.664 145.241C225.112 144.39 226.736 142.064 226.693 139.473L220.693 139.574ZM226.811 96.1406C226.811 102.842 223.329 109.475 216.544 115.064L224.174 124.326C232.952 117.095 238.811 107.322 238.811 96.1406H226.811ZM177.906 65C192.03 65 204.55 68.8833 213.368 74.848C222.22 80.8359 226.811 88.4741 226.811 96.1406H238.811C238.811 83.2949 231.112 72.3628 220.092 64.9085C209.037 57.4309 194.105 53 177.906 53V65ZM129 96.1406C129 88.4741 133.591 80.8359 142.443 74.848C151.261 68.8833 163.781 65 177.906 65V53C161.707 53 146.774 57.4309 135.72 64.9085C124.7 72.3628 117 83.2949 117 96.1406H129ZM177.906 127.281C163.781 127.281 151.261 123.398 142.443 117.433C133.591 111.445 129 103.807 129 96.1406H117C117 108.986 124.7 119.918 135.72 127.373C146.774 134.85 161.707 139.281 177.906 139.281V127.281ZM205.282 121.851C197.507 125.253 188.107 127.281 177.906 127.281V139.281C189.66 139.281 200.71 136.951 210.092 132.845L205.282 121.851ZM204.832 132.625C206.133 133.329 207.147 133.942 207.811 134.418L214.799 124.663C213.54 123.761 212.024 122.873 210.542 122.071L204.832 132.625ZM207.811 134.418C209.066 135.317 211.002 137.321 212.883 139.499C213.759 140.514 214.528 141.454 215.078 142.141C215.353 142.483 215.57 142.759 215.716 142.947C215.79 143.041 215.845 143.112 215.88 143.158C215.898 143.181 215.911 143.198 215.919 143.208C215.923 143.213 215.925 143.217 215.927 143.218C215.927 143.219 215.928 143.219 215.927 143.219C215.927 143.219 215.927 143.219 215.927 143.219C215.927 143.219 215.927 143.219 215.927 143.218C215.927 143.218 215.926 143.218 220.693 139.574C225.46 135.931 225.46 135.93 225.46 135.93C225.46 135.93 225.459 135.929 225.459 135.929C225.459 135.928 225.458 135.928 225.457 135.927C225.456 135.925 225.454 135.923 225.452 135.92C225.448 135.914 225.442 135.907 225.436 135.898C225.422 135.881 225.403 135.856 225.379 135.825C225.331 135.763 225.262 135.674 225.175 135.563C225.001 135.34 224.752 135.023 224.443 134.638C223.827 133.868 222.961 132.81 221.965 131.657C220.102 129.498 217.343 126.485 214.799 124.663L207.811 134.418ZM226.693 139.473L226.358 119.594L214.36 119.796L214.694 139.675L226.693 139.473Z" fill="#191D21" mask="url(#path-15-outside-3_5618_37566)"/>
<mask id="path-17-outside-4_5618_37566" maskUnits="userSpaceOnUse" x="117" y="163" width="135" height="112" fill="black">
<rect fill="white" x="117" y="163" width="135" height="112"/>
<path fill-rule="evenodd" clip-rule="evenodd" d="M226.737 240.813C238.584 233.231 245.975 222.496 245.975 210.593C245.975 187.622 218.446 169 184.488 169C150.529 169 123 187.622 123 210.593C123 233.564 150.529 252.186 184.488 252.186C192.331 252.186 199.831 251.193 206.728 249.382C208.676 251.304 210.508 253.257 211.676 254.836C214.788 259.044 218.228 268.76 218.228 268.76L226.737 240.813Z"/>
</mask>
<path fill-rule="evenodd" clip-rule="evenodd" d="M226.737 240.813C238.584 233.231 245.975 222.496 245.975 210.593C245.975 187.622 218.446 169 184.488 169C150.529 169 123 187.622 123 210.593C123 233.564 150.529 252.186 184.488 252.186C192.331 252.186 199.831 251.193 206.728 249.382C208.676 251.304 210.508 253.257 211.676 254.836C214.788 259.044 218.228 268.76 218.228 268.76L226.737 240.813Z" fill="white"/>
<path d="M226.737 240.813L223.502 235.759C222.301 236.528 221.412 237.7 220.997 239.065L226.737 240.813ZM206.728 249.382L210.943 245.111C209.435 243.623 207.254 243.04 205.205 243.578L206.728 249.382ZM211.676 254.836L206.852 258.404H206.852L211.676 254.836ZM218.228 268.76L212.572 270.762C213.437 273.205 215.772 274.816 218.362 274.758C220.953 274.7 223.213 272.986 223.968 270.507L218.228 268.76ZM239.975 210.593C239.975 219.807 234.248 228.882 223.502 235.759L229.971 245.866C242.92 237.58 251.975 225.184 251.975 210.593H239.975ZM184.488 175C200.43 175 214.595 179.382 224.604 186.152C234.647 192.946 239.975 201.697 239.975 210.593H251.975C251.975 196.518 243.539 184.473 231.328 176.213C219.083 167.929 202.504 163 184.488 163V175ZM129 210.593C129 201.697 134.328 192.946 144.371 186.152C154.38 179.382 168.545 175 184.488 175V163C166.471 163 149.893 167.929 137.648 176.213C125.437 184.473 117 196.518 117 210.593H129ZM184.488 246.186C168.545 246.186 154.38 241.804 144.371 235.034C134.328 228.24 129 219.489 129 210.593H117C117 224.668 125.437 236.713 137.648 244.973C149.893 253.257 166.471 258.186 184.488 258.186V246.186ZM205.205 243.578C198.815 245.256 191.828 246.186 184.488 246.186V258.186C192.834 258.186 200.847 257.129 208.252 255.185L205.205 243.578ZM202.514 253.652C204.42 255.534 205.975 257.217 206.852 258.404L216.5 251.268C215.042 249.296 212.932 247.074 210.943 245.111L202.514 253.652ZM206.852 258.404C207.937 259.871 209.339 262.745 210.593 265.712C211.182 267.105 211.681 268.38 212.033 269.307C212.209 269.769 212.347 270.142 212.439 270.394C212.485 270.521 212.52 270.617 212.543 270.68C212.554 270.711 212.562 270.734 212.567 270.748C212.57 270.755 212.571 270.759 212.572 270.762C212.573 270.763 212.573 270.764 212.573 270.764C212.573 270.764 212.573 270.764 212.573 270.763C212.573 270.763 212.573 270.763 212.572 270.763C212.572 270.763 212.572 270.762 218.228 268.76C223.884 266.757 223.884 266.757 223.884 266.757C223.884 266.756 223.884 266.756 223.883 266.755C223.883 266.755 223.883 266.754 223.882 266.752C223.882 266.75 223.881 266.747 223.879 266.744C223.877 266.737 223.874 266.728 223.87 266.716C223.861 266.693 223.85 266.661 223.835 266.62C223.806 266.538 223.763 266.421 223.71 266.274C223.602 265.979 223.446 265.559 223.251 265.045C222.861 264.019 222.306 262.602 221.646 261.04C220.402 258.097 218.528 254.009 216.5 251.268L206.852 258.404ZM223.968 270.507L232.476 242.56L220.997 239.065L212.488 267.012L223.968 270.507Z" fill="#191D21" mask="url(#path-17-outside-4_5618_37566)"/>
</g>
<g filter="url(#filter3_di_5618_37566)">
<circle cx="168" cy="168" r="130" stroke="#FF6072" stroke-width="12"/>
</g>
<defs>
<filter id="filter0_di_5618_37566" x="32" y="32" width="272" height="284" filterUnits="userSpaceOnUse" color-interpolation-filters="sRGB">
<feFlood flood-opacity="0" result="BackgroundImageFix"/>
<feColorMatrix in="SourceAlpha" type="matrix" values="0 0 0 0 0 0 0 0 0 0 0 0 0 0 0 0 0 0 127 0" result="hardAlpha"/>
<feOffset dy="12"/>
<feColorMatrix type="matrix" values="0 0 0 0 0 0 0 0 0 0 0 0 0 0 0 0 0 0 0.18 0"/>
<feBlend mode="normal" in2="BackgroundImageFix" result="effect1_dropShadow_5618_37566"/>
<feBlend mode="normal" in="SourceGraphic" in2="effect1_dropShadow_5618_37566" result="shape"/>
<feColorMatrix in="SourceAlpha" type="matrix" values="0 0 0 0 0 0 0 0 0 0 0 0 0 0 0 0 0 0 127 0" result="hardAlpha"/>
<feMorphology radius="12" operator="erode" in="SourceAlpha" result="effect2_innerShadow_5618_37566"/>
<feOffset dy="6"/>
<feComposite in2="hardAlpha" operator="arithmetic" k2="-1" k3="1"/>
<feColorMatrix type="matrix" values="0 0 0 0 0 0 0 0 0 0 0 0 0 0 0 0 0 0 0.18 0"/>
<feBlend mode="normal" in2="shape" result="effect2_innerShadow_5618_37566"/>
</filter>
<filter id="filter1_d_5618_37566" x="66.3604" y="114.744" width="79.0393" height="93.7143" filterUnits="userSpaceOnUse" color-interpolation-filters="sRGB">
<feFlood flood-opacity="0" result="BackgroundImageFix"/>
<feColorMatrix in="SourceAlpha" type="matrix" values="0 0 0 0 0 0 0 0 0 0 0 0 0 0 0 0 0 0 127 0" result="hardAlpha"/>
<feOffset dy="4"/>
<feColorMatrix type="matrix" values="0 0 0 0 0 0 0 0 0 0 0 0 0 0 0 0 0 0 0.2 0"/>
<feBlend mode="normal" in2="BackgroundImageFix" result="effect1_dropShadow_5618_37566"/>
<feBlend mode="normal" in="SourceGraphic" in2="effect1_dropShadow_5618_37566" result="shape"/>
</filter>
<filter id="filter2_d_5618_37566" x="47" y="103" width="117" height="121" filterUnits="userSpaceOnUse" color-interpolation-filters="sRGB">
<feFlood flood-opacity="0" result="BackgroundImageFix"/>
<feColorMatrix in="SourceAlpha" type="matrix" values="0 0 0 0 0 0 0 0 0 0 0 0 0 0 0 0 0 0 127 0" result="hardAlpha"/>
<feOffset dy="4"/>
<feComposite in2="hardAlpha" operator="out"/>
<feColorMatrix type="matrix" values="0 0 0 0 0 0 0 0 0 0 0 0 0 0 0 0 0 0 0.2 0"/>
<feBlend mode="normal" in2="BackgroundImageFix" result="effect1_dropShadow_5618_37566"/>
<feBlend mode="normal" in="SourceGraphic" in2="effect1_dropShadow_5618_37566" result="shape"/>
</filter>
<filter id="filter3_di_5618_37566" x="32" y="32" width="272" height="284" filterUnits="userSpaceOnUse" color-interpolation-filters="sRGB">
<feFlood flood-opacity="0" result="BackgroundImageFix"/>
<feColorMatrix in="SourceAlpha" type="matrix" values="0 0 0 0 0 0 0 0 0 0 0 0 0 0 0 0 0 0 127 0" result="hardAlpha"/>
<feOffset dy="12"/>
<feColorMatrix type="matrix" values="0 0 0 0 0 0 0 0 0 0 0 0 0 0 0 0 0 0 0.18 0"/>
<feBlend mode="normal" in2="BackgroundImageFix" result="effect1_dropShadow_5618_37566"/>
<feBlend mode="normal" in="SourceGraphic" in2="effect1_dropShadow_5618_37566" result="shape"/>
<feColorMatrix in="SourceAlpha" type="matrix" values="0 0 0 0 0 0 0 0 0 0 0 0 0 0 0 0 0 0 127 0" result="hardAlpha"/>
<feMorphology radius="12" operator="erode" in="SourceAlpha" result="effect2_innerShadow_5618_37566"/>
<feOffset dy="6"/>
<feComposite in2="hardAlpha" operator="arithmetic" k2="-1" k3="1"/>
<feColorMatrix type="matrix" values="0 0 0 0 0 0 0 0 0 0 0 0 0 0 0 0 0 0 0.18 0"/>
<feBlend mode="normal" in2="shape" result="effect2_innerShadow_5618_37566"/>
</filter>
<radialGradient id="paint0_radial_5618_37566" cx="0" cy="0" r="1" gradientUnits="userSpaceOnUse" gradientTransform="translate(168 152.556) rotate(90) scale(195.679)">
<stop stop-color="#FFE6DB"/>
<stop offset="1" stop-color="#FFDCA8"/>
</radialGradient>
<radialGradient id="paint1_radial_5618_37566" cx="0" cy="0" r="1" gradientUnits="userSpaceOnUse" gradientTransform="translate(168 168) rotate(90) scale(124)">
<stop stop-color="#F7FCFF"/>
<stop offset="1" stop-color="#DCF2FF"/>
</radialGradient>
<clipPath id="clip0_5618_37566">
<rect width="336" height="336" fill="white"/>
</clipPath>
</defs>
</svg>
