<svg width="84" height="84" viewBox="0 0 84 84" xmlns="http://www.w3.org/2000/svg"><title>twitterI</title><g fill="none" fill-rule="evenodd"><path d="M0 84h84V0H0v84z" fill="#00ACED"/><path d="M70.875 25.126a23.127 23.127 0 0 1-6.65 1.826 11.632 11.632 0 0 0 5.09-6.417 23.15 23.15 0 0 1-7.352 2.815 11.555 11.555 0 0 0-8.452-3.663c-6.394 0-11.579 5.193-11.579 11.597 0 .909.103 1.794.3 2.643-9.623-.484-18.155-5.1-23.865-12.117a11.555 11.555 0 0 0-1.568 5.83c0 4.024 2.044 7.573 5.15 9.653a11.52 11.52 0 0 1-5.244-1.45v.145a11.6 11.6 0 0 0 9.288 11.372 11.586 11.586 0 0 1-5.23.199c1.474 4.606 5.75 7.96 10.817 8.053a23.207 23.207 0 0 1-14.38 4.964c-.935 0-1.857-.054-2.762-.162a32.735 32.735 0 0 0 17.749 5.211c21.297 0 32.944-17.671 32.944-32.996 0-.503-.011-1.003-.034-1.5a23.546 23.546 0 0 0 5.778-6.003" fill="#FFF"/></g></svg>