<svg width="252" height="165" viewBox="0 0 252 165" xmlns="http://www.w3.org/2000/svg"><title>Theme_Place_Holder</title><g fill="none" fill-rule="evenodd"><path d="M0 28l1-1v137.007C1 164 250.998 164 250.998 164c.006 0 .002-137 .002-137l1 1H0zm252-1v137.007a.994.994 0 0 1-1.002.993H1.002A.999.999 0 0 1 0 164.007V27h252z" fill="#555A62" opacity=".35"/><path fill="#555A62" opacity=".348" d="M221 41h11v1h-11z"/><path d="M194.384 43.009a2.19 2.19 0 0 0 2.193-2.187 2.19 2.19 0 0 0-2.193-2.186 2.19 2.19 0 0 0-2.193 2.186 2.19 2.19 0 0 0 2.193 2.187zm0-.271a1.918 1.918 0 0 0 1.921-1.916c0-1.058-.86-1.915-1.921-1.915a1.918 1.918 0 0 0-1.921 1.915c0 1.058.86 1.916 1.921 1.916z" fill="#747474" opacity=".348"/><path d="M195.542 40.822c0-.636-.518-1.153-1.158-1.153-.64 0-1.158.517-1.158 1.153 0 .637.518 1.153 1.158 1.153.64 0 1.158-.516 1.158-1.153zm-2.816 0c0-.913.742-1.653 1.658-1.653.916 0 1.658.74 1.658 1.653s-.742 1.653-1.658 1.653c-.916 0-1.658-.74-1.658-1.653zm3.087 1.85l1.52 1.52a.233.233 0 0 0 .333.004l.076-.075a.24.24 0 0 0-.004-.333l-1.52-1.521-.405.405zm-.354-.354l.405-.405.353-.353.354.353 1.52 1.521a.74.74 0 0 1 .004 1.04l-.075.076a.733.733 0 0 1-1.04-.004l-1.521-1.52-.354-.354.354-.354z" fill="#747474" opacity=".348"/><rect fill="#D4D4D4" width="252" height="14" rx="1.741"/><ellipse fill="#E1E1E1" cx="6.344" cy="6.855" rx="1.866" ry="1.869"/><path d="M12.065 8.724c1.03 0 1.866-.837 1.866-1.87a1.867 1.867 0 0 0-1.866-1.869c-1.03 0-1.866.837-1.866 1.87 0 1.032.836 1.87 1.866 1.87z" fill="#E1E1E1"/><ellipse fill="#E1E1E1" cx="17.787" cy="6.855" rx="1.866" ry="1.869"/><path fill="#FFF" opacity=".85" d="M24.13 3.49h224.387v6.73H24.13z"/><path fill="#555A62" opacity=".348" d="M0 27h252V14H0z"/><ellipse fill="#555A62" opacity=".348" cx="246.03" cy="20.689" rx="1.99" ry="1.994"/><rect fill="#555A62" opacity=".348" x="3.731" y="16.701" width="7.712" height="7.727" rx="1"/><path fill="#555A62" opacity=".348" d="M14.677 18.695h28.111v3.739H14.677zm218.417 1.495h9.453v1.246h-9.453z"/><rect fill="#555A62" opacity=".192" x="7.712" y="34.647" width="42.29" height="65.058" rx="1"/><path fill="#555A62" opacity=".348" d="M14.677 43.621h28.111v2.243H14.677zm0 7.478h23.384v2.243H14.677zm0 7.478h17.911v2.243H14.677z"/><path d="M7.712 104.935a.996.996 0 0 1 1.003-.993h40.283a.998.998 0 0 1 1.004.993v33.075a.996.996 0 0 1-1.004.992H8.715a.998.998 0 0 1-1.003-.992v-33.075z" fill="#555A62" opacity=".192"/><path fill="#555A62" opacity=".348" d="M14.677 112.916h28.111v2.243H14.677zm0 7.478h23.384v2.243H14.677zm0 7.478h17.911v2.243H14.677zm0-61.817h28.111v2.243H14.677zm0 7.477h23.135v2.243H14.677zm0 7.478h28.111v2.243H14.677zm0 7.478H36.32v2.243H14.677z"/><path d="M94.07 46.36h102.953a4.86 4.86 0 0 0 4.864-4.858 4.865 4.865 0 0 0-4.864-4.857H94.07a4.86 4.86 0 0 0-4.865 4.857 4.865 4.865 0 0 0 4.865 4.858zm0-10.715h102.953a5.865 5.865 0 0 1 5.864 5.857 5.86 5.86 0 0 1-5.864 5.858H94.07a5.865 5.865 0 0 1-5.865-5.858 5.86 5.86 0 0 1 5.865-5.857z" fill="#555A62" opacity=".35"/><path d="M63 69.43h8.43V61H63v8.43zM63 60h8.43a1 1 0 0 1 1 1v8.43a1 1 0 0 1-1 1H63a1 1 0 0 1-1-1V61a1 1 0 0 1 1-1zm3.995 7.062c.535 0 .865-.326 1.152-.829.765.318 1.286 1.099 1.255 2.022l-.075 2.174h-4.73l-.005-2.174a2.173 2.173 0 0 1 1.265-1.997c.286.49.611.804 1.138.804zm-1.72 1.191l.05 1.509 3.341-.024.052-1.508c.021-.606-.394-1.06-.394-1.06s-.784.598-1.33.598c-.523 0-.938-.192-1.286-.554-.044-.045-.434.448-.432 1.039zm1.72-2.276c.285 0 .48-.159.75-.648l.155-.278c.186-.335.263-.541.263-.71 0-.931-.558-1.635-1.168-1.635-.611 0-1.168.704-1.168 1.635 0 .176.08.39.27.73l.154.27c.271.482.462.636.744.636zm-1.852-1.636c0-1.293.829-2.341 1.852-2.341 1.022 0 1.851 1.048 1.851 2.341 0 .497-.298.958-.507 1.336-.334.608-.715 1.006-1.344 1.006-.624 0-1-.39-1.335-.988-.215-.382-.517-.85-.517-1.354zM208 69.43h8.43V61H208v8.43zm0-9.43h8.43a1 1 0 0 1 1 1v8.43a1 1 0 0 1-1 1H208a1 1 0 0 1-1-1V61a1 1 0 0 1 1-1zm3.995 7.062c.535 0 .865-.326 1.152-.829.765.318 1.286 1.099 1.255 2.022l-.075 2.174h-4.73l-.005-2.174a2.173 2.173 0 0 1 1.265-1.997c.286.49.611.804 1.138.804zm-1.72 1.191l.05 1.509 3.341-.024.052-1.508c.021-.606-.394-1.06-.394-1.06s-.784.598-1.33.598c-.523 0-.938-.192-1.286-.554-.044-.045-.434.448-.432 1.039zm1.72-2.276c.285 0 .48-.159.75-.648l.155-.278c.186-.335.263-.541.263-.71 0-.931-.558-1.635-1.168-1.635-.611 0-1.168.704-1.168 1.635 0 .176.08.39.27.73l.154.27c.271.482.462.636.744.636zm-1.852-1.636c0-1.293.829-2.341 1.852-2.341 1.022 0 1.851 1.048 1.851 2.341 0 .497-.298.958-.507 1.336-.334.608-.715 1.006-1.344 1.006-.624 0-1-.39-1.335-.988-.215-.382-.517-.85-.517-1.354zM63 88.43h8.43V80H63v8.43zM63 79h8.43a1 1 0 0 1 1 1v8.43a1 1 0 0 1-1 1H63a1 1 0 0 1-1-1V80a1 1 0 0 1 1-1zm3.995 7.062c.535 0 .865-.326 1.152-.829.765.318 1.286 1.099 1.255 2.022l-.075 2.174h-4.73l-.005-2.174a2.173 2.173 0 0 1 1.265-1.997c.286.49.611.804 1.138.804zm-1.72 1.191l.05 1.509 3.341-.024.052-1.508c.021-.606-.394-1.06-.394-1.06s-.784.598-1.33.598c-.523 0-.938-.192-1.286-.554-.044-.045-.434.448-.432 1.039zm1.72-2.276c.285 0 .48-.159.75-.648l.155-.278c.186-.335.263-.541.263-.71 0-.931-.558-1.635-1.168-1.635-.611 0-1.168.704-1.168 1.635 0 .176.08.39.27.73l.154.27c.271.482.462.636.744.636zm-1.852-1.636c0-1.293.829-2.341 1.852-2.341 1.022 0 1.851 1.048 1.851 2.341 0 .497-.298.958-.507 1.336-.334.608-.715 1.006-1.344 1.006-.624 0-1-.39-1.335-.988-.215-.382-.517-.85-.517-1.354zM208 88.43h8.43V80H208v8.43zm0-9.43h8.43a1 1 0 0 1 1 1v8.43a1 1 0 0 1-1 1H208a1 1 0 0 1-1-1V80a1 1 0 0 1 1-1zm3.995 7.062c.535 0 .865-.326 1.152-.829.765.318 1.286 1.099 1.255 2.022l-.075 2.174h-4.73l-.005-2.174a2.173 2.173 0 0 1 1.265-1.997c.286.49.611.804 1.138.804zm-1.72 1.191l.05 1.509 3.341-.024.052-1.508c.021-.606-.394-1.06-.394-1.06s-.784.598-1.33.598c-.523 0-.938-.192-1.286-.554-.044-.045-.434.448-.432 1.039zm1.72-2.276c.285 0 .48-.159.75-.648l.155-.278c.186-.335.263-.541.263-.71 0-.931-.558-1.635-1.168-1.635-.611 0-1.168.704-1.168 1.635 0 .176.08.39.27.73l.154.27c.271.482.462.636.744.636zm-1.852-1.636c0-1.293.829-2.341 1.852-2.341 1.022 0 1.851 1.048 1.851 2.341 0 .497-.298.958-.507 1.336-.334.608-.715 1.006-1.344 1.006-.624 0-1-.39-1.335-.988-.215-.382-.517-.85-.517-1.354zM63 108.43h8.43V100H63v8.43zM63 99h8.43a1 1 0 0 1 1 1v8.43a1 1 0 0 1-1 1H63a1 1 0 0 1-1-1V100a1 1 0 0 1 1-1zm3.995 7.062c.535 0 .865-.326 1.152-.829.765.318 1.286 1.099 1.255 2.022l-.075 2.174h-4.73l-.005-2.174a2.173 2.173 0 0 1 1.265-1.997c.286.49.611.804 1.138.804zm-1.72 1.191l.05 1.509 3.341-.024.052-1.508c.021-.606-.394-1.06-.394-1.06s-.784.598-1.33.598c-.523 0-.938-.192-1.286-.554-.044-.045-.434.448-.432 1.039zm1.72-2.276c.285 0 .48-.159.75-.648l.155-.278c.186-.335.263-.541.263-.71 0-.931-.558-1.635-1.168-1.635-.611 0-1.168.704-1.168 1.635 0 .176.08.39.27.73l.154.27c.271.482.462.636.744.636zm-1.852-1.636c0-1.293.829-2.341 1.852-2.341 1.022 0 1.851 1.048 1.851 2.341 0 .497-.298.958-.507 1.336-.334.608-.715 1.006-1.344 1.006-.624 0-1-.39-1.335-.988-.215-.382-.517-.85-.517-1.354zM208 108.43h8.43V100H208v8.43zm0-9.43h8.43a1 1 0 0 1 1 1v8.43a1 1 0 0 1-1 1H208a1 1 0 0 1-1-1V100a1 1 0 0 1 1-1zm3.995 7.062c.535 0 .865-.326 1.152-.829.765.318 1.286 1.099 1.255 2.022l-.075 2.174h-4.73l-.005-2.174a2.173 2.173 0 0 1 1.265-1.997c.286.49.611.804 1.138.804zm-1.72 1.191l.05 1.509 3.341-.024.052-1.508c.021-.606-.394-1.06-.394-1.06s-.784.598-1.33.598c-.523 0-.938-.192-1.286-.554-.044-.045-.434.448-.432 1.039zm1.72-2.276c.285 0 .48-.159.75-.648l.155-.278c.186-.335.263-.541.263-.71 0-.931-.558-1.635-1.168-1.635-.611 0-1.168.704-1.168 1.635 0 .176.08.39.27.73l.154.27c.271.482.462.636.744.636zm-1.852-1.636c0-1.293.829-2.341 1.852-2.341 1.022 0 1.851 1.048 1.851 2.341 0 .497-.298.958-.507 1.336-.334.608-.715 1.006-1.344 1.006-.624 0-1-.39-1.335-.988-.215-.382-.517-.85-.517-1.354zM63 128.43h8.43V120H63v8.43zm0-9.43h8.43a1 1 0 0 1 1 1v8.43a1 1 0 0 1-1 1H63a1 1 0 0 1-1-1V120a1 1 0 0 1 1-1zm3.995 7.062c.535 0 .865-.326 1.152-.829.765.318 1.286 1.099 1.255 2.022l-.075 2.174h-4.73l-.005-2.174a2.173 2.173 0 0 1 1.265-1.997c.286.49.611.804 1.138.804zm-1.72 1.191l.05 1.509 3.341-.024.052-1.508c.021-.606-.394-1.06-.394-1.06s-.784.598-1.33.598c-.523 0-.938-.192-1.286-.554-.044-.045-.434.448-.432 1.039zm1.72-2.276c.285 0 .48-.159.75-.648l.155-.278c.186-.335.263-.541.263-.71 0-.931-.558-1.635-1.168-1.635-.611 0-1.168.704-1.168 1.635 0 .176.08.39.27.73l.154.27c.271.482.462.636.744.636zm-1.852-1.636c0-1.293.829-2.341 1.852-2.341 1.022 0 1.851 1.048 1.851 2.341 0 .497-.298.958-.507 1.336-.334.608-.715 1.006-1.344 1.006-.624 0-1-.39-1.335-.988-.215-.382-.517-.85-.517-1.354zM208 128.43h8.43V120H208v8.43zm0-9.43h8.43a1 1 0 0 1 1 1v8.43a1 1 0 0 1-1 1H208a1 1 0 0 1-1-1V120a1 1 0 0 1 1-1zm3.995 7.062c.535 0 .865-.326 1.152-.829.765.318 1.286 1.099 1.255 2.022l-.075 2.174h-4.73l-.005-2.174a2.173 2.173 0 0 1 1.265-1.997c.286.49.611.804 1.138.804zm-1.72 1.191l.05 1.509 3.341-.024.052-1.508c.021-.606-.394-1.06-.394-1.06s-.784.598-1.33.598c-.523 0-.938-.192-1.286-.554-.044-.045-.434.448-.432 1.039zm1.72-2.276c.285 0 .48-.159.75-.648l.155-.278c.186-.335.263-.541.263-.71 0-.931-.558-1.635-1.168-1.635-.611 0-1.168.704-1.168 1.635 0 .176.08.39.27.73l.154.27c.271.482.462.636.744.636zm-1.852-1.636c0-1.293.829-2.341 1.852-2.341 1.022 0 1.851 1.048 1.851 2.341 0 .497-.298.958-.507 1.336-.334.608-.715 1.006-1.344 1.006-.624 0-1-.39-1.335-.988-.215-.382-.517-.85-.517-1.354zM63 148.43h8.43V140H63v8.43zm0-9.43h8.43a1 1 0 0 1 1 1v8.43a1 1 0 0 1-1 1H63a1 1 0 0 1-1-1V140a1 1 0 0 1 1-1zm3.995 7.062c.535 0 .865-.326 1.152-.829.765.318 1.286 1.099 1.255 2.022l-.075 2.174h-4.73l-.005-2.174a2.173 2.173 0 0 1 1.265-1.997c.286.49.611.804 1.138.804zm-1.72 1.191l.05 1.509 3.341-.024.052-1.508c.021-.606-.394-1.06-.394-1.06s-.784.598-1.33.598c-.523 0-.938-.192-1.286-.554-.044-.045-.434.448-.432 1.039zm1.72-2.276c.285 0 .48-.159.75-.648l.155-.278c.186-.335.263-.541.263-.71 0-.931-.558-1.635-1.168-1.635-.611 0-1.168.704-1.168 1.635 0 .176.08.39.27.73l.154.27c.271.482.462.636.744.636zm-1.852-1.636c0-1.293.829-2.341 1.852-2.341 1.022 0 1.851 1.048 1.851 2.341 0 .497-.298.958-.507 1.336-.334.608-.715 1.006-1.344 1.006-.624 0-1-.39-1.335-.988-.215-.382-.517-.85-.517-1.354zM208 148.43h8.43V140H208v8.43zm0-9.43h8.43a1 1 0 0 1 1 1v8.43a1 1 0 0 1-1 1H208a1 1 0 0 1-1-1V140a1 1 0 0 1 1-1zm3.995 7.062c.535 0 .865-.326 1.152-.829.765.318 1.286 1.099 1.255 2.022l-.075 2.174h-4.73l-.005-2.174a2.173 2.173 0 0 1 1.265-1.997c.286.49.611.804 1.138.804zm-1.72 1.191l.05 1.509 3.341-.024.052-1.508c.021-.606-.394-1.06-.394-1.06s-.784.598-1.33.598c-.523 0-.938-.192-1.286-.554-.044-.045-.434.448-.432 1.039zm1.72-2.276c.285 0 .48-.159.75-.648l.155-.278c.186-.335.263-.541.263-.71 0-.931-.558-1.635-1.168-1.635-.611 0-1.168.704-1.168 1.635 0 .176.08.39.27.73l.154.27c.271.482.462.636.744.636zm-1.852-1.636c0-1.293.829-2.341 1.852-2.341 1.022 0 1.851 1.048 1.851 2.341 0 .497-.298.958-.507 1.336-.334.608-.715 1.006-1.344 1.006-.624 0-1-.39-1.335-.988-.215-.382-.517-.85-.517-1.354z" fill="#555A62" opacity=".348"/><path d="M217 46.824a.251.251 0 0 0-.245-.258h19.01a.252.252 0 0 0-.245.258V36.741c0 .148.113.259.245.259h-19.01a.252.252 0 0 0 .245-.259v10.083zM216.755 36h19.01a.75.75 0 0 1 .755.741v10.083a.75.75 0 0 1-.755.742h-19.01a.75.75 0 0 1-.755-.742V36.741c0-.41.339-.741.755-.741z" fill="#555A62" opacity=".35"/><path fill="#555A62" opacity=".348" d="M66 41h7v1h-7z"/><path d="M63 46.824a.254.254 0 0 0-.25-.258h13.618a.259.259 0 0 0-.25.258V36.741c0 .147.113.259.25.259H62.75c.133 0 .25-.117.25-.259v10.083zM62.75 36h13.618c.414 0 .75.334.75.741v10.083c0 .41-.33.742-.75.742H62.75a.747.747 0 0 1-.75-.742V36.741c0-.41.33-.741.75-.741z" fill="#555A62" opacity=".35"/><path fill="#555A62" opacity=".348" d="M76.888 61.069h58.211v2.493H76.888zm0 4.986h8.458v1.246h-8.458zM62 74h175v.5H62zm0-18h175v.5H62zm0 38h175v.5H62zm0 20h175v.5H62zm0 20h175v.5H62zm0 20h175v.5H62zm27.327-87.945h5.97v1.246h-5.97zm12.438 0h4.229v1.246h-4.229zM62.124 54.374h174.42M77 81h58.211v2.493H77zm0 5h8.458v1.246H77zm12 0h5.97v1.246H89zm13 0h4.229v1.246H102zm-25 15h58.211v2.493H77zm0 5h8.458v1.246H77zm12 0h5.97v1.246H89zm13 0h4.229v1.246H102zm-25 15h58.211v2.493H77zm0 5h8.458v1.246H77zm143.888-59.945h8.458v1.246h-8.458zm0 20.19h8.458v1.246h-8.458zm0 19.941h8.458v1.246h-8.458zm0 19.941h8.458v1.246h-8.458zm0-64.072h15.46v1.246h-15.46zm-41 2h7.46v1.246h-7.46zm-15 0h7.46v1.246h-7.46zm15 20h7.46v1.246h-7.46zm-15 0h7.46v1.246h-7.46zm15 20h7.46v1.246h-7.46zm-15 0h7.46v1.246h-7.46zm15 20h7.46v1.246h-7.46zm-15 0h7.46v1.246h-7.46zm56-41.81h15.46v1.246h-15.46zm0 19.941h15.46v1.246h-15.46zm0 19.941h15.46v1.246h-15.46zM89 126h5.97v1.246H89zm13 0h4.229v1.246H102zm-25 15h58.211v2.493H77zm0 5h8.458v1.246H77zm143.888.127h8.458v1.246h-8.458zm-41-2.072h7.46v1.246h-7.46zm-15 0h7.46v1.246h-7.46zm56-1.928h15.46v1.246h-15.46zM89 146h5.97v1.246H89zm13 0h4.229v1.246H102z"/></g></svg>