<svg width="232" height="169" viewBox="0 0 232 169" fill="none" xmlns="http://www.w3.org/2000/svg">
<rect width="232" height="169" fill="white"/>
<ellipse cx="7.29698" cy="5.04006" rx="1.30968" ry="1.30667" fill="#D8D8D8"/>
<ellipse cx="12.1612" cy="5.04006" rx="1.30968" ry="1.30667" fill="#D8D8D8"/>
<ellipse cx="17.0265" cy="5.04006" rx="1.30968" ry="1.30667" fill="#D8D8D8"/>
<rect y="9.70673" width="232" height="7.46667" fill="#0291DB"/>
<rect x="102.213" y="12.6934" width="11.9742" height="1.49333" fill="white"/>
<rect x="120.174" y="12.6934" width="11.9742" height="1.49333" fill="white"/>
<rect x="138.174" y="12.6934" width="11.9742" height="1.49333" fill="white"/>
<rect x="85" y="12.6934" width="11.9742" height="1.49333" fill="white"/>
<rect x="36" y="21.8699" width="25.4451" height="2.98225" fill="#ADB2BB"/>
<rect y="17.5001" width="30" height="151" fill="#EFF2F5"/>
<rect x="6" y="29.8225" width="14.9677" height="1.49334" fill="#ADB2BB"/>
<rect x="6" y="38.7826" width="14.9677" height="1.49333" fill="#ADB2BB"/>
<rect x="6" y="47.7426" width="14.9677" height="1.49333" fill="#ADB2BB"/>
<rect x="6" y="56.7025" width="13.471" height="1.49333" fill="#ADB2BB"/>
<rect x="6" y="52.2225" width="17.9613" height="1.49333" fill="#ADB2BB"/>
<rect x="6" y="34.3025" width="19.4581" height="1.49333" fill="#ADB2BB"/>
<rect x="6" y="43.2626" width="13.471" height="1.49333" fill="#ADB2BB"/>
<rect x="204.25" y="20.25" width="19.5" height="6.5" rx="1.75" stroke="#297FCA" stroke-width="0.5"/>
<path d="M30 30H232" stroke="#D5D5D7" stroke-width="0.5"/>
<g opacity="0.52413">
<path fill-rule="evenodd" clip-rule="evenodd" d="M49.9997 108.824C52.3009 108.824 54.1663 107.028 54.1663 104.813C54.1663 102.598 52.3009 100.802 49.9997 100.802C47.6985 100.802 45.833 102.598 45.833 104.813C45.833 107.028 47.6985 108.824 49.9997 108.824ZM53.5413 104.813C53.5413 105.741 53.1559 106.583 52.5307 107.198C52.2235 106.756 51.7546 106.426 51.2054 106.288C50.8551 106.497 50.442 106.618 49.9997 106.618C49.5573 106.618 49.1442 106.497 48.794 106.288C48.2448 106.426 47.7759 106.756 47.4686 107.198C46.8434 106.583 46.458 105.741 46.458 104.813C46.458 102.93 48.0437 101.404 49.9997 101.404C51.9557 101.404 53.5413 102.93 53.5413 104.813ZM49.9997 108.222C50.7483 108.222 51.4594 107.999 52.0512 107.593C51.8686 107.303 51.5935 107.073 51.2664 106.942C50.8755 107.123 50.4445 107.22 49.9997 107.22C49.5549 107.22 49.1238 107.123 48.733 106.942C48.4059 107.073 48.1307 107.303 47.9481 107.593C48.5399 107.999 49.2511 108.222 49.9997 108.222ZM49.9997 106.016C49.0792 106.016 48.333 105.298 48.333 104.412C48.333 103.526 49.0792 102.808 49.9997 102.808C50.9201 102.808 51.6663 103.526 51.6663 104.412C51.6663 105.298 50.9201 106.016 49.9997 106.016ZM49.9997 105.415C50.575 105.415 51.0413 104.966 51.0413 104.412C51.0413 103.858 50.575 103.409 49.9997 103.409C49.4244 103.409 48.958 103.858 48.958 104.412C48.958 104.966 49.4244 105.415 49.9997 105.415Z" fill="#777A80"/>
</g>
<g opacity="0.52413">
<path fill-rule="evenodd" clip-rule="evenodd" d="M49.9997 59.8241C52.3009 59.8241 54.1663 58.0283 54.1663 55.8131C54.1663 53.5979 52.3009 51.8022 49.9997 51.8022C47.6985 51.8022 45.833 53.5979 45.833 55.8131C45.833 58.0283 47.6985 59.8241 49.9997 59.8241ZM53.5413 55.8131C53.5413 56.7414 53.1559 57.5831 52.5307 58.1979C52.2235 57.7557 51.7546 57.4265 51.2054 57.2884C50.8551 57.4974 50.442 57.6181 49.9997 57.6181C49.5573 57.6181 49.1442 57.4974 48.794 57.2884C48.2448 57.4265 47.7759 57.7557 47.4686 58.1979C46.8434 57.5831 46.458 56.7414 46.458 55.8131C46.458 53.9302 48.0437 52.4038 49.9997 52.4038C51.9557 52.4038 53.5413 53.9302 53.5413 55.8131ZM49.9997 59.2224C50.7483 59.2224 51.4594 58.9985 52.0512 58.5927C51.8686 58.3029 51.5935 58.0732 51.2664 57.9417C50.8755 58.1233 50.4445 58.2197 49.9997 58.2197C49.5549 58.2197 49.1238 58.1233 48.733 57.9417C48.4059 58.0732 48.1307 58.3029 47.9481 58.5927C48.5399 58.9985 49.2511 59.2224 49.9997 59.2224ZM49.9997 57.0164C49.0792 57.0164 48.333 56.2981 48.333 55.412C48.333 54.526 49.0792 53.8077 49.9997 53.8077C50.9201 53.8077 51.6663 54.526 51.6663 55.412C51.6663 56.2981 50.9201 57.0164 49.9997 57.0164ZM49.9997 56.4148C50.575 56.4148 51.0413 55.9658 51.0413 55.412C51.0413 54.8582 50.575 54.4093 49.9997 54.4093C49.4244 54.4093 48.958 54.8582 48.958 55.412C48.958 55.9658 49.4244 56.4148 49.9997 56.4148Z" fill="#777A80"/>
</g>
<rect x="57" y="53" width="16" height="3" fill="#ADB2BB"/>
<rect x="46" y="36" width="56" height="6" fill="#ADB2BB"/>
<rect x="46" y="90" width="22" height="4" fill="#ADB2BB"/>
<rect x="46" y="145" width="36" height="4" fill="#ADB2BB"/>
<rect x="185.026" y="105.427" width="14.1962" height="2.98666" fill="#ADB2BB"/>
<rect x="57" y="59" width="44" height="1" fill="#ADB2BB"/>
<rect x="57" y="66" width="44" height="1" fill="#ADB2BB"/>
<rect x="104" y="66" width="65" height="1" fill="#ADB2BB"/>
<rect x="57" y="122" width="65" height="1" fill="#ADB2BB"/>
<rect x="57" y="73" width="90" height="1" fill="#ADB2BB"/>
<rect x="57" y="115" width="90" height="1" fill="#ADB2BB"/>
<rect x="114" y="59" width="45" height="1" fill="#ADB2BB"/>
<rect x="113" y="108" width="19" height="1" fill="#ADB2BB"/>
<rect x="185.026" y="52.4133" width="23.8755" height="2.98666" fill="#ADB2BB"/>
<path d="M45.3226 47.56H168.572" stroke="#ADB2BB" stroke-width="0.5" stroke-linecap="square"/>
<rect x="57" y="102" width="16" height="3" fill="#ADB2BB"/>
<rect x="57" y="108" width="25" height="1" fill="#ADB2BB"/>
<rect x="85" y="108" width="25" height="1" fill="#ADB2BB"/>
<rect x="144" y="135" width="25" height="1" fill="#ADB2BB"/>
<path d="M45.3226 80.3733H168.572" stroke="#ADB2BB" stroke-width="0.5" stroke-linecap="square"/>
<path d="M45.3226 128.373H168.572" stroke="#ADB2BB" stroke-width="0.5" stroke-linecap="square"/>
<path d="M45.3226 97.3733H168.572" stroke="#ADB2BB" stroke-width="0.5" stroke-linecap="square"/>
<rect x="185.026" y="111.4" width="8.38868" height="2.98666" rx="1" stroke="#979797" stroke-width="0.4"/>
<rect x="185" y="38" width="28" height="9" rx="4.5" fill="#ADB2BB"/>
<rect x="104" y="58" width="8" height="2" rx="1" stroke="#979797" stroke-width="0.4"/>
<rect x="194.706" y="111.4" width="8.38867" height="2.98666" rx="1" stroke="#979797" stroke-width="0.4"/>
<rect x="204.385" y="111.4" width="7.09811" height="2.98666" rx="1" stroke="#979797" stroke-width="0.4"/>
<rect x="198.577" y="115.88" width="7.09812" height="2.98666" rx="1" stroke="#979797" stroke-width="0.4"/>
<rect x="185.026" y="115.88" width="12.2604" height="2.98666" rx="1" stroke="#979797" stroke-width="0.4"/>
<rect x="96" y="133" width="24" height="4" rx="1" stroke="#979797" stroke-width="0.4"/>
<rect x="185.026" y="59.1333" width="27.7472" height="1.49334" fill="#ADB2BB"/>
<rect x="185.026" y="63.6133" width="16.1321" height="1.49333" fill="#ADB2BB"/>
<rect x="185.026" y="68.0933" width="23.8755" height="1.49333" fill="#ADB2BB"/>
<rect x="185.026" y="72.5732" width="30.9736" height="1.49333" fill="#ADB2BB"/>
<rect x="185.026" y="77.0532" width="21.2943" height="1.49333" fill="#ADB2BB"/>
<rect x="185.026" y="81.5334" width="20.6491" height="1.49333" fill="#ADB2BB"/>
<rect x="185.026" y="86.0134" width="24.5208" height="1.49333" fill="#ADB2BB"/>
<rect x="185.026" y="90.4934" width="20.6491" height="1.49333" fill="#ADB2BB"/>
<rect x="185.026" y="94.9734" width="23.2302" height="1.49333" fill="#ADB2BB"/>
<path d="M169 169V153C169 152.448 168.552 152 168 152H47C46.4477 152 46 152.448 46 153V169" stroke="#979797" stroke-width="0.4"/>
<rect x="160" y="38" width="9" height="1" fill="#ADB2BB"/>
<ellipse cx="192.748" cy="23.7467" rx="0.748387" ry="0.746667" fill="#ADB2BB"/>
<ellipse cx="195.742" cy="23.7467" rx="0.748387" ry="0.746667" fill="#ADB2BB"/>
<ellipse cx="198.736" cy="23.7467" rx="0.748387" ry="0.746667" fill="#ADB2BB"/>
</svg>
