<svg width="232" height="169" fill="none" xmlns="http://www.w3.org/2000/svg"><ellipse cx="7.297" cy="5.04" rx="1.31" ry="1.307" fill="#D8D8D8"/><ellipse cx="12.161" cy="5.04" rx="1.31" ry="1.307" fill="#D8D8D8"/><ellipse cx="17.026" cy="5.04" rx="1.31" ry="1.307" fill="#D8D8D8"/><path fill="#0291DB" d="M0 9.707h232v7.467H0z"/><path fill="#fff" d="M102.213 12.693h11.974v1.493h-11.974zM120.174 12.693h11.974v1.493h-11.974zM138.174 12.693h11.974v1.493h-11.974zM85 12.693h11.974v1.493H85z"/><path fill="#ADB2BB" d="M36 21.87h25.445v2.982H36zM175 21.87h25.445v2.982H175z"/><path fill="#EFF2F5" d="M0 17.5h30v151H0z"/><path fill="#ADB2BB" d="M6 29.823h14.968v1.493H6zM6 38.783h14.968v1.493H6zM6 47.743h14.968v1.493H6zM6 56.703h13.471v1.493H6zM6 52.223h17.961v1.493H6zM6 34.303h19.458v1.493H6zM6 43.263h13.471v1.493H6z"/><rect x="204.25" y="20.25" width="19.5" height="6.5" rx="1.75" stroke="#297FCA" stroke-width=".5"/><path d="M30 30h202" stroke="#D5D5D7" stroke-width=".5"/><path fill="#0291DB" d="M30 29.822h202v39.513H30z"/><path fill="#555A62" d="M30 29.822h202V36.3H30z"/><path fill="#fff" d="M61.929 32.413h10.426v1.296H61.929zM77.568 32.413h10.426v1.296H77.568zM95.161 47.959h71.677v2.591H95.161z"/><g clip-path="url(#a)"><path d="M84.084 58.961c0-.71.575-1.285 1.285-1.285h77.126v5.57H85.369c-.71 0-1.285-.576-1.285-1.286V58.96Z" fill="#fff"/></g><path d="M162.552 57.826h14.058c.627 0 1.135.508 1.135 1.135v2.98c0 .627-.508 1.136-1.135 1.136h-14.058v-5.251Z" fill="#000" fill-opacity=".1" stroke="#fff" stroke-width=".3"/><path fill="#fff" d="M165.535 59.943h9.123v1.296h-9.123zM46.942 32.413h10.426v1.296H46.942z"/><g filter="url(#b)"><rect x="47" y="76.544" width="49.41" height="29.041" rx="1.8" fill="#fff"/></g><path fill="#ADB2BB" d="M51.324 95.366H91.47v1.581H51.324zM53.176 99.378h37.058v1.581H53.176z"/><ellipse cx="71.772" cy="86.734" rx="5.125" ry="5.095" stroke="#F5296D" stroke-width=".8"/><g filter="url(#c)"><rect x="106.795" y="76.544" width="49.41" height="29.041" rx="1.8" fill="#fff"/></g><path fill="#ADB2BB" d="M111.119 95.366h40.146v1.581h-40.146zM112.971 99.378h37.058v1.581h-37.058z"/><ellipse cx="131.567" cy="86.734" rx="5.125" ry="5.095" stroke="#F5296D" stroke-width=".8"/><g filter="url(#d)"><rect x="166.589" y="76.544" width="49.41" height="29.041" rx="1.8" fill="#fff"/></g><path fill="#ADB2BB" d="M170.913 95.366h40.146v1.581h-40.146zM172.765 99.378h37.058v1.581h-37.058z"/><ellipse cx="191.361" cy="86.734" rx="5.125" ry="5.095" stroke="#F5296D" stroke-width=".8"/><path fill="#ADB2BB" d="M58.537 127.56h16.531v2.528H58.537zM47.636 115.55h16.531v2.528H47.636zM184.974 157.065h13.988v2.528h-13.988zM58.537 132.616h44.508v1.264H58.537zM116.397 132.616h19.075v1.264h-19.075zM114.489 148.417h19.075v1.264h-19.075zM184.974 115.313H208.5v2.528h-23.526z"/><path d="M47.318 122.819H168.76" stroke="#ADB2BB" stroke-width=".5" stroke-linecap="square"/><path fill="#ADB2BB" d="M58.537 143.361h16.531v2.528H58.537zM58.537 148.417H83.97v1.264H58.537zM86.514 148.417h25.433v1.264H86.514z"/><path d="M47.318 138.621H168.76" stroke="#ADB2BB" stroke-width=".5" stroke-linecap="square"/><path fill="#ADB2BB" d="M58.537 159.163h16.531v2.528H58.537zM58.537 164.219h51.502v1.264H58.537z"/><path d="M47.318 154.422H168.76" stroke="#ADB2BB" stroke-width=".5" stroke-linecap="square"/><rect x="184.974" y="162.122" width="8.266" height="2.528" rx="1" stroke="#979797" stroke-width=".4"/><rect x="105.589" y="131.984" width="8.266" height="2.528" rx="1" stroke="#979797" stroke-width=".4"/><rect x="194.511" y="162.122" width="8.266" height="2.528" rx="1" stroke="#979797" stroke-width=".4"/><rect x="204.049" y="162.122" width="6.994" height="2.528" rx="1" stroke="#979797" stroke-width=".4"/><path fill="#ADB2BB" d="M184.974 121.002h27.34v1.264h-27.34zM184.974 124.794h15.896v1.264h-15.896zM184.974 128.587H208.5v1.264h-23.526zM184.974 132.379h30.52v1.264h-30.52zM184.974 136.171h20.982v1.264h-20.982zM184.974 139.964h20.346v1.264h-20.346zM184.974 143.756h24.161v1.264h-24.161zM184.974 147.549h20.346v1.264h-20.346zM184.974 151.341h22.89v1.264h-22.89z"/><path fill-rule="evenodd" clip-rule="evenodd" d="M52 134.079c2.301 0 4.167-1.796 4.167-4.011 0-2.216-1.866-4.011-4.167-4.011-2.301 0-4.167 1.795-4.167 4.011 0 2.215 1.866 4.011 4.167 4.011Zm3.542-4.011c0 .928-.386 1.77-1.011 2.384a2.294 2.294 0 0 0-1.325-.909c-.35.209-.764.33-1.206.33-.443 0-.855-.121-1.206-.33a2.294 2.294 0 0 0-1.325.909 3.332 3.332 0 0 1-1.01-2.384c0-1.883 1.585-3.41 3.54-3.41 1.957 0 3.543 1.527 3.543 3.41ZM52 133.477c.748 0 1.46-.224 2.051-.63a1.66 1.66 0 0 0-.784-.651c-.391.182-.822.278-1.267.278-.445 0-.876-.096-1.267-.278a1.66 1.66 0 0 0-.785.651c.592.406 1.303.63 2.052.63Zm0-2.206c-.92 0-1.667-.718-1.667-1.605 0-.886.746-1.604 1.667-1.604.92 0 1.667.718 1.667 1.604 0 .887-.747 1.605-1.667 1.605Zm0-.602c.575 0 1.042-.449 1.042-1.003 0-.553-.467-1.002-1.042-1.002s-1.042.449-1.042 1.002c0 .554.467 1.003 1.042 1.003ZM52 149.984c2.301 0 4.167-1.796 4.167-4.011S54.3 141.962 52 141.962c-2.301 0-4.167 1.796-4.167 4.011s1.866 4.011 4.167 4.011Zm3.542-4.011c0 .928-.386 1.77-1.011 2.385a2.291 2.291 0 0 0-1.325-.91c-.35.209-.764.33-1.206.33-.443 0-.855-.121-1.206-.33a2.291 2.291 0 0 0-1.325.91 3.336 3.336 0 0 1-1.01-2.385c0-1.883 1.585-3.409 3.54-3.409 1.957 0 3.543 1.526 3.543 3.409ZM52 149.382c.748 0 1.46-.224 2.051-.63a1.666 1.666 0 0 0-.784-.651c-.391.182-.822.278-1.267.278-.445 0-.876-.096-1.267-.278a1.666 1.666 0 0 0-.785.651c.592.406 1.303.63 2.052.63Zm0-2.206c-.92 0-1.667-.718-1.667-1.604 0-.886.746-1.605 1.667-1.605.92 0 1.667.719 1.667 1.605s-.747 1.604-1.667 1.604Zm0-.601c.575 0 1.042-.449 1.042-1.003 0-.554-.467-1.003-1.042-1.003s-1.042.449-1.042 1.003c0 .554.467 1.003 1.042 1.003ZM52 165.889c2.301 0 4.167-1.796 4.167-4.011S54.3 157.867 52 157.867c-2.301 0-4.167 1.796-4.167 4.011s1.866 4.011 4.167 4.011Zm3.542-4.011c0 .928-.386 1.77-1.011 2.385a2.296 2.296 0 0 0-1.325-.91c-.35.209-.764.33-1.206.33-.443 0-.855-.121-1.206-.33a2.296 2.296 0 0 0-1.325.91 3.336 3.336 0 0 1-1.01-2.385c0-1.883 1.585-3.409 3.54-3.409 1.957 0 3.543 1.526 3.543 3.409ZM52 165.287c.748 0 1.46-.223 2.051-.629a1.655 1.655 0 0 0-.784-.651c-.391.181-.822.278-1.267.278-.445 0-.876-.097-1.267-.278a1.654 1.654 0 0 0-.785.651 3.616 3.616 0 0 0 2.052.629Zm0-2.206c-.92 0-1.667-.718-1.667-1.604 0-.886.746-1.604 1.667-1.604.92 0 1.667.718 1.667 1.604 0 .886-.747 1.604-1.667 1.604Zm0-.601c.575 0 1.042-.449 1.042-1.003 0-.554-.467-1.003-1.042-1.003s-1.042.449-1.042 1.003c0 .554.467 1.003 1.042 1.003Z" fill="#777A80" opacity=".524"/><defs><filter id="b" x="44" y="74.544" width="55.41" height="35.041" filterUnits="userSpaceOnUse" color-interpolation-filters="sRGB"><feFlood flood-opacity="0" result="BackgroundImageFix"/><feColorMatrix in="SourceAlpha" values="0 0 0 0 0 0 0 0 0 0 0 0 0 0 0 0 0 0 127 0" result="hardAlpha"/><feOffset dy="1"/><feGaussianBlur stdDeviation="1.5"/><feColorMatrix values="0 0 0 0 0.333333 0 0 0 0 0.352941 0 0 0 0 0.384314 0 0 0 0.30466 0"/><feBlend in2="BackgroundImageFix" result="effect1_dropShadow_421_3863"/><feBlend in="SourceGraphic" in2="effect1_dropShadow_421_3863" result="shape"/></filter><filter id="c" x="103.795" y="74.544" width="55.41" height="35.041" filterUnits="userSpaceOnUse" color-interpolation-filters="sRGB"><feFlood flood-opacity="0" result="BackgroundImageFix"/><feColorMatrix in="SourceAlpha" values="0 0 0 0 0 0 0 0 0 0 0 0 0 0 0 0 0 0 127 0" result="hardAlpha"/><feOffset dy="1"/><feGaussianBlur stdDeviation="1.5"/><feColorMatrix values="0 0 0 0 0.333333 0 0 0 0 0.352941 0 0 0 0 0.384314 0 0 0 0.30466 0"/><feBlend in2="BackgroundImageFix" result="effect1_dropShadow_421_3863"/><feBlend in="SourceGraphic" in2="effect1_dropShadow_421_3863" result="shape"/></filter><filter id="d" x="163.589" y="74.544" width="55.41" height="35.041" filterUnits="userSpaceOnUse" color-interpolation-filters="sRGB"><feFlood flood-opacity="0" result="BackgroundImageFix"/><feColorMatrix in="SourceAlpha" values="0 0 0 0 0 0 0 0 0 0 0 0 0 0 0 0 0 0 127 0" result="hardAlpha"/><feOffset dy="1"/><feGaussianBlur stdDeviation="1.5"/><feColorMatrix values="0 0 0 0 0.333333 0 0 0 0 0.352941 0 0 0 0 0.384314 0 0 0 0.30466 0"/><feBlend in2="BackgroundImageFix" result="effect1_dropShadow_421_3863"/><feBlend in="SourceGraphic" in2="effect1_dropShadow_421_3863" result="shape"/></filter><clipPath id="a"><path fill="#fff" transform="translate(84.084 57.676)" d="M0 0h78.845v5.83H0z"/></clipPath></defs></svg>