<svg width="232" height="169" fill="none" xmlns="http://www.w3.org/2000/svg"><rect width="232" height="169" rx="2" fill="#fff"/><ellipse cx="7.297" cy="5.07" rx="1.31" ry="1.314" fill="#D8D8D8"/><ellipse cx="12.161" cy="5.07" rx="1.31" ry="1.314" fill="#D8D8D8"/><ellipse cx="17.026" cy="5.07" rx="1.31" ry="1.314" fill="#D8D8D8"/><path fill="#0291DB" d="M0 9.764h232v7.511H0z"/><path fill="#fff" d="M102.213 12.769h11.974v1.502h-11.974zM120.174 12.769h11.974v1.502h-11.974zM138.174 12.769h11.974v1.502h-11.974zM85 12.769h11.974v1.502H85z"/><path fill="#ADB2BB" d="M36 22h25.445v3H36zM175 22h25.445v3H175z"/><path fill="#EFF2F5" d="M0 17.5h30v151H0z"/><path fill="#ADB2BB" d="M6 30h14.968v1.502H6zM6 39.013h14.968v1.502H6zM6 48.027h14.968v1.502H6zM6 57.04h13.471v1.502H6zM6 52.533h17.961v1.502H6zM6 34.507h19.458v1.502H6zM6 43.52h13.471v1.502H6z"/><rect x="204.25" y="20.25" width="19.5" height="6.5" rx="1.75" stroke="#297FCA" stroke-width=".5"/><path d="M30 30h202" stroke="#D5D5D7" stroke-width=".5"/><path fill="#0291DB" d="M30 30h202v39.748H30z"/><path fill="#555A62" d="M30 30h202v6.516H30z"/><path fill="#fff" d="M61.93 32.606h10.426v1.303H61.93zM77.567 32.606h10.426v1.303H77.567zM95.161 48.245h71.677v2.606H95.161z"/><g clip-path="url(#a)"><path d="M84.084 59.305c0-.71.575-1.286 1.285-1.286h77.126v5.57H85.369c-.71 0-1.285-.576-1.285-1.285v-3Z" fill="#fff"/></g><path d="M162.552 58.17h14.058c.627 0 1.136.508 1.136 1.135v3.013c0 .627-.509 1.135-1.136 1.135h-14.058V58.17Z" fill="#000" fill-opacity=".1" stroke="#fff" stroke-width=".3"/><path fill="#fff" d="M165.535 60.3h9.123v1.303h-9.123zM46.941 32.606h10.426v1.303H46.941z"/><g filter="url(#b)"><rect x="47" y="77" width="49.41" height="29.214" rx="1.8" fill="#fff"/></g><path fill="#ADB2BB" d="M51.324 95.934H91.47v1.591H51.324zM53.176 99.969h37.058v1.591H53.176z"/><circle cx="71.772" cy="87.251" r="5.125" stroke="#F5296D" stroke-width=".8"/><g filter="url(#c)"><rect x="106.795" y="77" width="49.41" height="29.214" rx="1.8" fill="#fff"/></g><path fill="#ADB2BB" d="M111.119 95.934h40.146v1.591h-40.146zM112.971 99.969h37.058v1.591h-37.058z"/><circle cx="131.567" cy="87.251" r="5.125" stroke="#F5296D" stroke-width=".8"/><g filter="url(#d)"><rect x="166.589" y="77" width="49.41" height="29.214" rx="1.8" fill="#fff"/></g><path fill="#ADB2BB" d="M170.913 95.934h40.146v1.591h-40.146zM172.765 99.969h37.058v1.591h-37.058z"/><circle cx="191.362" cy="87.251" r="5.125" stroke="#F5296D" stroke-width=".8"/><path fill="#ADB2BB" d="M58.537 128.319h16.531v2.543H58.537zM47.636 116.238h16.531v2.543H47.636zM184.974 158h13.988v2.543h-13.988zM58.537 133.406h44.508v1.272H58.537zM116.397 133.406h19.075v1.272h-19.075zM114.489 149.301h19.075v1.272h-19.075zM184.974 116H208.5v2.543h-23.526z"/><path d="M47.318 123.55H168.76" stroke="#ADB2BB" stroke-width=".5" stroke-linecap="square"/><path fill="#ADB2BB" d="M58.537 144.215h16.531v2.543H58.537zM58.537 149.301H83.97v1.272H58.537zM86.514 149.301h25.433v1.272H86.514z"/><path d="M47.318 139.446H168.76" stroke="#ADB2BB" stroke-width=".5" stroke-linecap="square"/><path fill="#ADB2BB" d="M58.537 160.11h16.531v2.543H58.537zM58.537 165.197h51.502v1.272H58.537z"/><path d="M47.318 155.342H168.76" stroke="#ADB2BB" stroke-width=".5" stroke-linecap="square"/><rect x="184.974" y="163.087" width="8.266" height="2.543" rx="1" stroke="#979797" stroke-width=".4"/><rect x="105.589" y="132.77" width="8.266" height="2.543" rx="1" stroke="#979797" stroke-width=".4"/><rect x="194.511" y="163.087" width="8.266" height="2.543" rx="1" stroke="#979797" stroke-width=".4"/><rect x="204.049" y="163.087" width="6.994" height="2.543" rx="1" stroke="#979797" stroke-width=".4"/><path fill="#ADB2BB" d="M184.974 121.722h27.34v1.272h-27.34zM184.974 125.537h15.896v1.272h-15.896zM184.974 129.352H208.5v1.272h-23.526zM184.974 133.167h30.52v1.272h-30.52zM184.974 136.982h20.982v1.272h-20.982zM184.974 140.797h20.346v1.272h-20.346zM184.974 144.612h24.161v1.272h-24.161zM184.974 148.427h20.346v1.272h-20.346zM184.974 152.242h22.89v1.272h-22.89z"/><path fill-rule="evenodd" clip-rule="evenodd" d="M52 134.877c2.3 0 4.166-1.807 4.166-4.035 0-2.229-1.865-4.035-4.166-4.035s-4.167 1.806-4.167 4.035c0 2.228 1.866 4.035 4.167 4.035Zm3.541-4.035c0 .934-.385 1.78-1.01 2.399a2.293 2.293 0 0 0-1.326-.915c-.35.21-.763.331-1.205.331-.443 0-.856-.121-1.206-.331-.55.139-1.018.47-1.325.915a3.364 3.364 0 0 1-1.011-2.399c0-1.894 1.586-3.43 3.542-3.43 1.956 0 3.541 1.536 3.541 3.43ZM52 134.271c.748 0 1.46-.225 2.051-.633a1.657 1.657 0 0 0-.785-.655c-.39.183-.822.28-1.266.28-.445 0-.876-.097-1.267-.28a1.657 1.657 0 0 0-.785.655 3.605 3.605 0 0 0 2.052.633Zm0-2.219c-.92 0-1.667-.722-1.667-1.614 0-.891.746-1.614 1.667-1.614.92 0 1.666.723 1.666 1.614 0 .892-.746 1.614-1.666 1.614Zm0-.605c.575 0 1.041-.452 1.041-1.009 0-.557-.466-1.008-1.041-1.008-.576 0-1.042.451-1.042 1.008 0 .557.466 1.009 1.042 1.009ZM52 150.877c2.3 0 4.166-1.807 4.166-4.035 0-2.229-1.865-4.035-4.166-4.035s-4.167 1.806-4.167 4.035c0 2.228 1.866 4.035 4.167 4.035Zm3.541-4.035c0 .934-.385 1.78-1.01 2.399a2.293 2.293 0 0 0-1.326-.915c-.35.21-.763.331-1.205.331-.443 0-.856-.121-1.206-.331-.55.139-1.018.47-1.325.915a3.364 3.364 0 0 1-1.011-2.399c0-1.894 1.586-3.43 3.542-3.43 1.956 0 3.541 1.536 3.541 3.43ZM52 150.271c.748 0 1.46-.225 2.051-.633a1.657 1.657 0 0 0-.785-.655c-.39.183-.822.28-1.266.28-.445 0-.876-.097-1.267-.28a1.657 1.657 0 0 0-.785.655 3.605 3.605 0 0 0 2.052.633Zm0-2.219c-.92 0-1.667-.722-1.667-1.614 0-.891.746-1.614 1.667-1.614.92 0 1.666.723 1.666 1.614 0 .892-.746 1.614-1.666 1.614Zm0-.605c.575 0 1.041-.452 1.041-1.009 0-.557-.466-1.008-1.041-1.008-.576 0-1.042.451-1.042 1.008 0 .557.466 1.009 1.042 1.009ZM52 166.877c2.3 0 4.166-1.807 4.166-4.035 0-2.229-1.865-4.035-4.166-4.035s-4.167 1.806-4.167 4.035c0 2.228 1.866 4.035 4.167 4.035Zm3.541-4.035c0 .934-.385 1.78-1.01 2.399a2.293 2.293 0 0 0-1.326-.915c-.35.21-.763.331-1.205.331-.443 0-.856-.121-1.206-.331-.55.139-1.018.47-1.325.915a3.364 3.364 0 0 1-1.011-2.399c0-1.894 1.586-3.43 3.542-3.43 1.956 0 3.541 1.536 3.541 3.43ZM52 166.271c.748 0 1.46-.225 2.051-.633a1.657 1.657 0 0 0-.785-.655c-.39.183-.822.28-1.266.28-.445 0-.876-.097-1.267-.28a1.657 1.657 0 0 0-.785.655 3.605 3.605 0 0 0 2.052.633Zm0-2.219c-.92 0-1.667-.722-1.667-1.614 0-.891.746-1.614 1.667-1.614.92 0 1.666.723 1.666 1.614 0 .892-.746 1.614-1.666 1.614Zm0-.605c.575 0 1.041-.452 1.041-1.009 0-.557-.466-1.008-1.041-1.008-.576 0-1.042.451-1.042 1.008 0 .557.466 1.009 1.042 1.009Z" fill="#777A80" opacity=".524"/><path fill-rule="evenodd" clip-rule="evenodd" d="M0 22v19h50l-7.217-10L50 22H0Z" fill="#F5296D"/><path d="M10.037 28.148h2.33c1.082 0 1.863.157 2.342.472.484.315.726.813.726 1.493 0 .459-.119.84-.355 1.144-.236.305-.576.496-1.02.575v.054c.551.104.956.31 1.213.617.262.305.393.718.393 1.241 0 .706-.248 1.259-.742 1.66-.49.397-1.174.596-2.051.596h-2.836v-7.852Zm1.283 3.244h1.236c.537 0 .929-.084 1.176-.253.247-.172.37-.462.37-.87 0-.369-.134-.635-.402-.8-.265-.165-.688-.247-1.268-.247H11.32v2.17Zm0 1.042v2.486h1.365c.537 0 .941-.102 1.213-.306.276-.207.414-.533.414-.977 0-.409-.14-.711-.419-.908-.28-.197-.704-.295-1.273-.295h-1.3ZM21.74 36h-4.442v-7.852h4.442v1.084h-3.158v2.138h2.96v1.074h-2.96v2.466h3.158V36Zm4.415 0h-1.283v-6.752h-2.31v-1.1h5.903v1.1h-2.31V36Zm8.39 0-.784-2.18h-3.003L29.99 36h-1.353l2.938-7.885h1.396L35.91 36h-1.364Zm-1.123-3.287-.735-2.138a16.171 16.171 0 0 1-.419-1.354c-.097.441-.239.923-.425 1.445l-.709 2.047h2.288Z" fill="#fff"/><defs><filter id="b" x="44" y="75" width="55.41" height="35.214" filterUnits="userSpaceOnUse" color-interpolation-filters="sRGB"><feFlood flood-opacity="0" result="BackgroundImageFix"/><feColorMatrix in="SourceAlpha" values="0 0 0 0 0 0 0 0 0 0 0 0 0 0 0 0 0 0 127 0" result="hardAlpha"/><feOffset dy="1"/><feGaussianBlur stdDeviation="1.5"/><feColorMatrix values="0 0 0 0 0.333333 0 0 0 0 0.352941 0 0 0 0 0.384314 0 0 0 0.30466 0"/><feBlend in2="BackgroundImageFix" result="effect1_dropShadow_423_5616"/><feBlend in="SourceGraphic" in2="effect1_dropShadow_423_5616" result="shape"/></filter><filter id="c" x="103.795" y="75" width="55.41" height="35.214" filterUnits="userSpaceOnUse" color-interpolation-filters="sRGB"><feFlood flood-opacity="0" result="BackgroundImageFix"/><feColorMatrix in="SourceAlpha" values="0 0 0 0 0 0 0 0 0 0 0 0 0 0 0 0 0 0 127 0" result="hardAlpha"/><feOffset dy="1"/><feGaussianBlur stdDeviation="1.5"/><feColorMatrix values="0 0 0 0 0.333333 0 0 0 0 0.352941 0 0 0 0 0.384314 0 0 0 0.30466 0"/><feBlend in2="BackgroundImageFix" result="effect1_dropShadow_423_5616"/><feBlend in="SourceGraphic" in2="effect1_dropShadow_423_5616" result="shape"/></filter><filter id="d" x="163.589" y="75" width="55.41" height="35.214" filterUnits="userSpaceOnUse" color-interpolation-filters="sRGB"><feFlood flood-opacity="0" result="BackgroundImageFix"/><feColorMatrix in="SourceAlpha" values="0 0 0 0 0 0 0 0 0 0 0 0 0 0 0 0 0 0 127 0" result="hardAlpha"/><feOffset dy="1"/><feGaussianBlur stdDeviation="1.5"/><feColorMatrix values="0 0 0 0 0.333333 0 0 0 0 0.352941 0 0 0 0 0.384314 0 0 0 0.30466 0"/><feBlend in2="BackgroundImageFix" result="effect1_dropShadow_423_5616"/><feBlend in="SourceGraphic" in2="effect1_dropShadow_423_5616" result="shape"/></filter><clipPath id="a"><path fill="#fff" transform="translate(84.084 58.02)" d="M0 0h78.845v5.865H0z"/></clipPath></defs></svg>