<svg width="238" height="180" viewBox="0 0 238 180" fill="none" xmlns="http://www.w3.org/2000/svg">
<g filter="url(#filter0_d_48:3245)">
<rect x="3" y="2" width="232" height="168" rx="2" fill="white"/>
</g>
<ellipse cx="10.2967" cy="7.04006" rx="1.30968" ry="1.30667" fill="#D8D8D8"/>
<ellipse cx="15.1612" cy="7.04006" rx="1.30968" ry="1.30667" fill="#D8D8D8"/>
<ellipse cx="20.0257" cy="7.04006" rx="1.30968" ry="1.30667" fill="#D8D8D8"/>
<rect x="3" y="11.7068" width="232" height="7.46667" fill="#0291DB"/>
<rect x="105.213" y="14.6934" width="11.9742" height="1.49333" fill="white"/>
<rect x="123.174" y="14.6934" width="11.9742" height="1.49333" fill="white"/>
<rect x="141.174" y="14.6934" width="11.9742" height="1.49333" fill="white"/>
<rect x="88" y="14.6934" width="11.9742" height="1.49333" fill="white"/>
<rect x="39" y="23.8699" width="25.4451" height="2.98225" fill="#ADB2BB"/>
<rect x="178" y="23.8699" width="25.4451" height="2.98225" fill="#ADB2BB"/>
<rect x="3" y="19.5" width="30" height="151" fill="#EFF2F5"/>
<rect x="9" y="31.8225" width="14.9677" height="1.49334" fill="#ADB2BB"/>
<rect x="9" y="40.7825" width="14.9677" height="1.49333" fill="#ADB2BB"/>
<rect x="9" y="49.7424" width="14.9677" height="1.49334" fill="#ADB2BB"/>
<rect x="9" y="58.7024" width="13.471" height="1.49333" fill="#ADB2BB"/>
<rect x="9" y="54.2224" width="17.9613" height="1.49333" fill="#ADB2BB"/>
<rect x="9" y="36.3025" width="19.4581" height="1.49333" fill="#ADB2BB"/>
<rect x="9" y="45.2625" width="13.471" height="1.49333" fill="#ADB2BB"/>
<rect x="207.25" y="22.25" width="19.5" height="6.5" rx="1.75" stroke="#297FCA" stroke-width="0.5"/>
<rect x="39" y="38" width="90" height="59.5402" rx="2" stroke="#ADB2BB" stroke-width="0.5"/>
<rect x="45.9231" y="87.3333" width="76.1538" height="1.70115" fill="#DDDEE0"/>
<rect x="56.3076" y="91.5862" width="13.8462" height="0.850578" fill="#DDDEE0"/>
<rect x="77.0769" y="91.5862" width="13.8462" height="0.850578" fill="#DDDEE0"/>
<rect x="97.8462" y="91.5862" width="13.8462" height="0.850578" fill="#DDDEE0"/>
<rect x="47.6538" y="43.1035" width="45.931" height="1.73077" transform="rotate(90 47.6538 43.1035)" fill="#DDDEE0"/>
<rect x="57.1731" y="51.6091" width="12.1154" height="35.7241" fill="#0291DB"/>
<rect x="77.9424" y="60.115" width="12.1154" height="27.2184" fill="#0291DB"/>
<rect x="98.7114" y="47.3562" width="12.1154" height="39.977" fill="#0291DB"/>
<rect x="137" y="38" width="90" height="59.5402" rx="2" stroke="#ADB2BB" stroke-width="0.5"/>
<rect x="143.923" y="87.3333" width="76.1538" height="1.70115" rx="0.850576" fill="#DDDEE0"/>
<rect x="154.308" y="91.5862" width="13.8462" height="0.850578" rx="0.425289" fill="#DDDEE0"/>
<rect x="175.077" y="91.5862" width="13.8462" height="0.850578" rx="0.425289" fill="#DDDEE0"/>
<rect x="195.846" y="91.5862" width="13.8462" height="0.850578" rx="0.425289" fill="#DDDEE0"/>
<rect x="145.654" y="43.1035" width="45.931" height="1.73077" rx="0.865385" transform="rotate(90 145.654 43.1035)" fill="#DDDEE0"/>
<path d="M147.817 67.3448L167.721 52.4597L181.567 63.5172L190.654 57.1379L202.337 68.1953L215.317 53.3103" stroke="#0291DB" stroke-width="2"/>
<path fill-rule="evenodd" clip-rule="evenodd" d="M147.817 67.7701V87.3333H215.75V52.4597L202.769 68.1953L190.654 57.1379L181.567 63.5172L168.154 52.4597L147.817 67.7701Z" fill="#0291DB" fill-opacity="0.1"/>
<ellipse cx="147.817" cy="67.3447" rx="0.865385" ry="0.850575" fill="#0291DB"/>
<ellipse cx="215.75" cy="52.885" rx="0.865379" ry="0.850574" fill="#0291DB"/>
<rect x="39" y="106" width="90" height="59.5402" rx="2" stroke="#ADB2BB" stroke-width="0.5"/>
<rect opacity="0.10104" x="73.1826" y="110.253" width="21.6346" height="51.0345" rx="2" fill="#0291DB"/>
<rect x="45.9231" y="117.483" width="76.1538" height="1.70115" rx="0.850575" fill="#DDDEE0"/>
<rect x="56.3076" y="114.931" width="13.8462" height="0.850574" rx="0.425287" fill="#DDDEE0"/>
<rect x="77.0769" y="114.931" width="13.8462" height="0.850574" rx="0.425287" fill="#DDDEE0"/>
<rect x="97.8462" y="114.931" width="13.8462" height="0.850574" rx="0.425287" fill="#DDDEE0"/>
<rect x="97.8462" y="154.908" width="13.8462" height="0.850574" rx="0.425287" fill="#DDDEE0"/>
<rect x="77.0769" y="154.908" width="13.8462" height="0.850574" rx="0.425287" fill="#DDDEE0"/>
<rect x="56.3076" y="154.908" width="13.8462" height="0.850574" rx="0.425287" fill="#DDDEE0"/>
<rect x="97.8462" y="147.253" width="13.8462" height="0.850574" rx="0.425287" fill="#DDDEE0"/>
<rect x="77.0769" y="147.253" width="13.8462" height="0.850574" rx="0.425287" fill="#DDDEE0"/>
<rect x="56.3076" y="147.253" width="13.8462" height="0.850574" rx="0.425287" fill="#DDDEE0"/>
<rect x="97.8462" y="139.598" width="13.8462" height="0.850578" rx="0.425289" fill="#DDDEE0"/>
<rect x="77.0769" y="139.598" width="13.8462" height="0.850578" rx="0.425289" fill="#DDDEE0"/>
<rect x="56.3076" y="139.598" width="13.8462" height="0.850578" rx="0.425289" fill="#DDDEE0"/>
<rect x="97.8462" y="131.943" width="13.8462" height="0.850574" rx="0.425287" fill="#DDDEE0"/>
<rect x="77.0769" y="131.943" width="13.8462" height="0.850574" rx="0.425287" fill="#DDDEE0"/>
<rect x="56.3076" y="131.943" width="13.8462" height="0.850574" rx="0.425287" fill="#DDDEE0"/>
<rect x="97.8462" y="124.287" width="13.8462" height="0.850574" rx="0.425287" fill="#DDDEE0"/>
<rect x="77.0769" y="124.287" width="13.8462" height="0.850574" rx="0.425287" fill="#DDDEE0"/>
<rect x="56.3076" y="124.287" width="13.8462" height="0.850574" rx="0.425287" fill="#DDDEE0"/>
<rect x="137" y="105.385" width="90" height="59.1879" rx="2" stroke="#ADB2BB" stroke-width="0.5"/>
<rect x="143.924" y="153.101" width="76.1538" height="1.6911" rx="0.845551" fill="#DDDEE0"/>
<rect x="195.846" y="157.979" width="13.8461" height="0.845551" rx="0.422775" fill="#DDDEE0"/>
<rect x="175.076" y="157.979" width="13.8461" height="0.845551" rx="0.422775" fill="#DDDEE0"/>
<rect x="154.308" y="157.979" width="13.8462" height="0.845551" rx="0.422775" fill="#DDDEE0"/>
<path d="M33 32H235" stroke="#D5D5D7" stroke-width="0.5"/>
<circle cx="181.5" cy="131.5" r="12.5" stroke="#0291DB" stroke-width="10"/>
<path d="M174 132.5H164C163.5 121.5 171.667 116.167 175.5 115L179 124.5C174.5 126 174 130.333 174 132.5Z" fill="#E6F4FB"/>
<path fill-rule="evenodd" clip-rule="evenodd" d="M3 24L3 43L53 43L45.7835 33L53 24L3 24Z" fill="#F5296D"/>
<path d="M13.0366 30.1475H15.3677C16.4491 30.1475 17.2297 30.305 17.7095 30.6201C18.1929 30.9352 18.4346 31.4329 18.4346 32.1133C18.4346 32.5716 18.3164 32.953 18.0801 33.2573C17.8438 33.5617 17.5036 33.7533 17.0596 33.832V33.8857C17.611 33.9896 18.0156 34.1955 18.2734 34.5034C18.5348 34.8078 18.6655 35.2214 18.6655 35.7441C18.6655 36.4495 18.4185 37.0028 17.9243 37.4038C17.4338 37.8013 16.7498 38 15.8726 38H13.0366V30.1475ZM14.3203 33.3916H15.5557C16.0928 33.3916 16.4849 33.3075 16.7319 33.1392C16.979 32.9673 17.1025 32.6772 17.1025 32.269C17.1025 31.9002 16.9683 31.6335 16.6997 31.4688C16.4347 31.304 16.0122 31.2217 15.4321 31.2217H14.3203V33.3916ZM14.3203 34.4336V36.9204H15.6846C16.2217 36.9204 16.6263 36.8184 16.8984 36.6143C17.1742 36.4066 17.312 36.0807 17.312 35.6367C17.312 35.2285 17.1724 34.9259 16.8931 34.729C16.6138 34.5321 16.1895 34.4336 15.6201 34.4336H14.3203ZM24.7402 38H20.2983V30.1475H24.7402V31.2324H21.582V33.3701H24.5415V34.4443H21.582V36.9097H24.7402V38ZM29.1553 38H27.8716V31.2485H25.562V30.1475H31.4648V31.2485H29.1553V38ZM37.5449 38L36.7607 35.8193H33.7583L32.9902 38H31.6367L34.5747 30.1152H35.9712L38.9092 38H37.5449ZM36.4224 34.7129L35.6865 32.5752C35.6328 32.432 35.5576 32.2064 35.4609 31.8984C35.3678 31.5905 35.3034 31.3649 35.2676 31.2217C35.1709 31.6621 35.0295 32.1437 34.8433 32.6665L34.1343 34.7129H36.4224Z" fill="white"/>
<defs>
<filter id="filter0_d_48:3245" x="0" y="0" width="238" height="174" filterUnits="userSpaceOnUse" color-interpolation-filters="sRGB">
<feFlood flood-opacity="0" result="BackgroundImageFix"/>
<feColorMatrix in="SourceAlpha" type="matrix" values="0 0 0 0 0 0 0 0 0 0 0 0 0 0 0 0 0 0 127 0" result="hardAlpha"/>
<feOffset dy="1"/>
<feGaussianBlur stdDeviation="1.5"/>
<feColorMatrix type="matrix" values="0 0 0 0 0.333333 0 0 0 0 0.352941 0 0 0 0 0.384314 0 0 0 0.30466 0"/>
<feBlend mode="normal" in2="BackgroundImageFix" result="effect1_dropShadow_48:3245"/>
<feBlend mode="normal" in="SourceGraphic" in2="effect1_dropShadow_48:3245" result="shape"/>
</filter>
</defs>
</svg>
