<svg version="1.1" id="Layer_1" xmlns="http://www.w3.org/2000/svg" x="0px" y="0px"
	 viewBox="0 0 232 168.5" style="enable-background:new 0 0 232 168.5;" xml:space="preserve">
<style type="text/css">
	.st0{fill:#FFFFFF;}
	.st1{fill:#D8D8D8;}
	.st2{fill:#0291DB;}
	.st3{fill:#ADB2BB;}
	.st4{fill:#EFF2F5;}
	.st5{fill:none;stroke:#297FCA;stroke-width:0.5;}
	.st6{fill:none;stroke:#ADB2BB;stroke-width:0.5;}
	.st7{fill:#DDDEE0;}
	.st8{fill:none;stroke:#0291DB;stroke-width:2;}
	.st9{fill-rule:evenodd;clip-rule:evenodd;fill:#0291DB;fill-opacity:0.1;}
	.st10{opacity:0.101;fill:#0291DB;enable-background:new    ;}
	.st11{fill:none;stroke:#D5D5D7;stroke-width:0.5;}
	.st12{fill:none;stroke:#0291DB;stroke-width:10;}
	.st13{fill:#E6F4FB;}
	.st14{fill-rule:evenodd;clip-rule:evenodd;fill:#F5296D;}
</style>
<g>
	<path class="st0" d="M2,0h228c1.1,0,2,0.9,2,2v164c0,1.1-0.9,2-2,2H2c-1.1,0-2-0.9-2-2V2C0,0.9,0.9,0,2,0z"/>
</g>
<ellipse class="st1" cx="7.3" cy="5" rx="1.3" ry="1.3"/>
<ellipse class="st1" cx="12.2" cy="5" rx="1.3" ry="1.3"/>
<ellipse class="st1" cx="17" cy="5" rx="1.3" ry="1.3"/>
<rect y="9.7" class="st2" width="232" height="7.5"/>
<rect x="102.2" y="12.7" class="st0" width="12" height="1.5"/>
<rect x="120.2" y="12.7" class="st0" width="12" height="1.5"/>
<rect x="138.2" y="12.7" class="st0" width="12" height="1.5"/>
<rect x="85" y="12.7" class="st0" width="12" height="1.5"/>
<rect x="36" y="21.9" class="st3" width="25.4" height="3"/>
<rect x="175" y="21.9" class="st3" width="25.4" height="3"/>
<rect y="17.5" class="st4" width="30" height="151"/>
<rect x="6" y="29.8" class="st3" width="15" height="1.5"/>
<rect x="6" y="38.8" class="st3" width="15" height="1.5"/>
<rect x="6" y="47.7" class="st3" width="15" height="1.5"/>
<rect x="6" y="56.7" class="st3" width="13.5" height="1.5"/>
<rect x="6" y="52.2" class="st3" width="18" height="1.5"/>
<rect x="6" y="34.3" class="st3" width="19.5" height="1.5"/>
<rect x="6" y="43.3" class="st3" width="13.5" height="1.5"/>
<path class="st5" d="M206,20.2h16c1,0,1.8,0.8,1.8,1.8v3c0,1-0.8,1.8-1.8,1.8h-16c-1,0-1.8-0.8-1.8-1.8v-3
	C204.2,21,205,20.2,206,20.2z"/>
<path class="st6" d="M38,36h86c1.1,0,2,0.9,2,2v55.5c0,1.1-0.9,2-2,2H38c-1.1,0-2-0.9-2-2V38C36,36.9,36.9,36,38,36z"/>
<rect x="42.9" y="85.3" class="st7" width="76.2" height="1.7"/>
<rect x="53.3" y="89.6" class="st7" width="13.8" height="0.9"/>
<rect x="74.1" y="89.6" class="st7" width="13.8" height="0.9"/>
<rect x="94.8" y="89.6" class="st7" width="13.8" height="0.9"/>
<rect x="42.9" y="41.1" class="st7" width="1.7" height="45.9"/>
<rect x="54.2" y="49.6" class="st2" width="12.1" height="35.7"/>
<rect x="74.9" y="58.1" class="st2" width="12.1" height="27.2"/>
<rect x="95.7" y="45.4" class="st2" width="12.1" height="40"/>
<path class="st6" d="M136,36h86c1.1,0,2,0.9,2,2v55.5c0,1.1-0.9,2-2,2h-86c-1.1,0-2-0.9-2-2V38C134,36.9,134.9,36,136,36z"/>
<path class="st7" d="M141.8,85.3h74.5c0.5,0,0.9,0.4,0.9,0.9v0c0,0.5-0.4,0.9-0.9,0.9h-74.5c-0.5,0-0.9-0.4-0.9-0.9v0
	C140.9,85.7,141.3,85.3,141.8,85.3z"/>
<path class="st7" d="M151.7,89.6h13c0.2,0,0.4,0.2,0.4,0.4v0c0,0.2-0.2,0.4-0.4,0.4h-13c-0.2,0-0.4-0.2-0.4-0.4v0
	C151.3,89.8,151.5,89.6,151.7,89.6z"/>
<path class="st7" d="M172.5,89.6h13c0.2,0,0.4,0.2,0.4,0.4v0c0,0.2-0.2,0.4-0.4,0.4h-13c-0.2,0-0.4-0.2-0.4-0.4v0
	C172.1,89.8,172.3,89.6,172.5,89.6z"/>
<path class="st7" d="M193.3,89.6h13c0.2,0,0.4,0.2,0.4,0.4v0c0,0.2-0.2,0.4-0.4,0.4h-13c-0.2,0-0.4-0.2-0.4-0.4v0
	C192.8,89.8,193,89.6,193.3,89.6z"/>
<path class="st7" d="M142.7,42v44.2c0,0.5-0.4,0.9-0.9,0.9l0,0c-0.5,0-0.9-0.4-0.9-0.9V42c0-0.5,0.4-0.9,0.9-0.9l0,0
	C142.3,41.1,142.7,41.5,142.7,42z"/>
<path class="st8" d="M144.8,65.3l19.9-14.9l13.8,11.1l9.1-6.4l11.7,11.1l13-14.9"/>
<path class="st9" d="M144.8,65.8v19.6h67.9V50.5l-13,15.7l-12.1-11.1l-9.1,6.4l-13.4-11.1L144.8,65.8z"/>
<ellipse class="st2" cx="144.8" cy="65.3" rx="0.9" ry="0.9"/>
<ellipse class="st2" cx="212.8" cy="50.9" rx="0.9" ry="0.9"/>
<path class="st6" d="M38,104h86c1.1,0,2,0.9,2,2v55.5c0,1.1-0.9,2-2,2H38c-1.1,0-2-0.9-2-2V106C36,104.9,36.9,104,38,104z"/>
<path class="st10" d="M72.2,108.3h17.6c1.1,0,2,0.9,2,2v47c0,1.1-0.9,2-2,2H72.2c-1.1,0-2-0.9-2-2v-47
	C70.2,109.1,71.1,108.3,72.2,108.3z"/>
<path class="st7" d="M43.8,115.5h74.5c0.5,0,0.9,0.4,0.9,0.9v0c0,0.5-0.4,0.9-0.9,0.9H43.8c-0.5,0-0.9-0.4-0.9-0.9v0
	C42.9,115.9,43.3,115.5,43.8,115.5z"/>
<path class="st7" d="M53.7,112.9h13c0.2,0,0.4,0.2,0.4,0.4l0,0c0,0.2-0.2,0.4-0.4,0.4h-13c-0.2,0-0.4-0.2-0.4-0.4l0,0
	C53.3,113.1,53.5,112.9,53.7,112.9z"/>
<path class="st7" d="M74.5,112.9h13c0.2,0,0.4,0.2,0.4,0.4l0,0c0,0.2-0.2,0.4-0.4,0.4h-13c-0.2,0-0.4-0.2-0.4-0.4l0,0
	C74.1,113.1,74.3,112.9,74.5,112.9z"/>
<path class="st7" d="M95.3,112.9h13c0.2,0,0.4,0.2,0.4,0.4l0,0c0,0.2-0.2,0.4-0.4,0.4h-13c-0.2,0-0.4-0.2-0.4-0.4l0,0
	C94.8,113.1,95,112.9,95.3,112.9z"/>
<path class="st7" d="M95.3,152.9h13c0.2,0,0.4,0.2,0.4,0.4v0c0,0.2-0.2,0.4-0.4,0.4h-13c-0.2,0-0.4-0.2-0.4-0.4v0
	C94.8,153.1,95,152.9,95.3,152.9z"/>
<path class="st7" d="M74.5,152.9h13c0.2,0,0.4,0.2,0.4,0.4v0c0,0.2-0.2,0.4-0.4,0.4h-13c-0.2,0-0.4-0.2-0.4-0.4v0
	C74.1,153.1,74.3,152.9,74.5,152.9z"/>
<path class="st7" d="M53.7,152.9h13c0.2,0,0.4,0.2,0.4,0.4v0c0,0.2-0.2,0.4-0.4,0.4h-13c-0.2,0-0.4-0.2-0.4-0.4v0
	C53.3,153.1,53.5,152.9,53.7,152.9z"/>
<path class="st7" d="M95.3,145.3h13c0.2,0,0.4,0.2,0.4,0.4v0c0,0.2-0.2,0.4-0.4,0.4h-13c-0.2,0-0.4-0.2-0.4-0.4v0
	C94.8,145.4,95,145.3,95.3,145.3z"/>
<path class="st7" d="M74.5,145.3h13c0.2,0,0.4,0.2,0.4,0.4v0c0,0.2-0.2,0.4-0.4,0.4h-13c-0.2,0-0.4-0.2-0.4-0.4v0
	C74.1,145.4,74.3,145.3,74.5,145.3z"/>
<path class="st7" d="M53.7,145.3h13c0.2,0,0.4,0.2,0.4,0.4v0c0,0.2-0.2,0.4-0.4,0.4h-13c-0.2,0-0.4-0.2-0.4-0.4v0
	C53.3,145.4,53.5,145.3,53.7,145.3z"/>
<path class="st7" d="M95.3,137.6h13c0.2,0,0.4,0.2,0.4,0.4v0c0,0.2-0.2,0.4-0.4,0.4h-13c-0.2,0-0.4-0.2-0.4-0.4v0
	C94.8,137.8,95,137.6,95.3,137.6z"/>
<path class="st7" d="M74.5,137.6h13c0.2,0,0.4,0.2,0.4,0.4v0c0,0.2-0.2,0.4-0.4,0.4h-13c-0.2,0-0.4-0.2-0.4-0.4v0
	C74.1,137.8,74.3,137.6,74.5,137.6z"/>
<path class="st7" d="M53.7,137.6h13c0.2,0,0.4,0.2,0.4,0.4v0c0,0.2-0.2,0.4-0.4,0.4h-13c-0.2,0-0.4-0.2-0.4-0.4v0
	C53.3,137.8,53.5,137.6,53.7,137.6z"/>
<path class="st7" d="M95.3,129.9h13c0.2,0,0.4,0.2,0.4,0.4v0c0,0.2-0.2,0.4-0.4,0.4h-13c-0.2,0-0.4-0.2-0.4-0.4v0
	C94.8,130.1,95,129.9,95.3,129.9z"/>
<path class="st7" d="M74.5,129.9h13c0.2,0,0.4,0.2,0.4,0.4v0c0,0.2-0.2,0.4-0.4,0.4h-13c-0.2,0-0.4-0.2-0.4-0.4v0
	C74.1,130.1,74.3,129.9,74.5,129.9z"/>
<path class="st7" d="M53.7,129.9h13c0.2,0,0.4,0.2,0.4,0.4v0c0,0.2-0.2,0.4-0.4,0.4h-13c-0.2,0-0.4-0.2-0.4-0.4v0
	C53.3,130.1,53.5,129.9,53.7,129.9z"/>
<path class="st7" d="M95.3,122.3h13c0.2,0,0.4,0.2,0.4,0.4l0,0c0,0.2-0.2,0.4-0.4,0.4h-13c-0.2,0-0.4-0.2-0.4-0.4l0,0
	C94.8,122.5,95,122.3,95.3,122.3z"/>
<path class="st7" d="M74.5,122.3h13c0.2,0,0.4,0.2,0.4,0.4l0,0c0,0.2-0.2,0.4-0.4,0.4h-13c-0.2,0-0.4-0.2-0.4-0.4l0,0
	C74.1,122.5,74.3,122.3,74.5,122.3z"/>
<path class="st7" d="M53.7,122.3h13c0.2,0,0.4,0.2,0.4,0.4l0,0c0,0.2-0.2,0.4-0.4,0.4h-13c-0.2,0-0.4-0.2-0.4-0.4l0,0
	C53.3,122.5,53.5,122.3,53.7,122.3z"/>
<path class="st6" d="M136,103.4h86c1.1,0,2,0.9,2,2v55.2c0,1.1-0.9,2-2,2h-86c-1.1,0-2-0.9-2-2v-55.2
	C134,104.3,134.9,103.4,136,103.4z"/>
<path class="st7" d="M141.8,151.1h74.5c0.5,0,0.8,0.4,0.8,0.8l0,0c0,0.5-0.4,0.8-0.8,0.8h-74.5c-0.5,0-0.8-0.4-0.8-0.8l0,0
	C140.9,151.5,141.3,151.1,141.8,151.1z"/>
<path class="st7" d="M193.3,156h13c0.2,0,0.4,0.2,0.4,0.4l0,0c0,0.2-0.2,0.4-0.4,0.4h-13c-0.2,0-0.4-0.2-0.4-0.4l0,0
	C192.8,156.2,193,156,193.3,156z"/>
<path class="st7" d="M172.5,156h13c0.2,0,0.4,0.2,0.4,0.4l0,0c0,0.2-0.2,0.4-0.4,0.4h-13c-0.2,0-0.4-0.2-0.4-0.4l0,0
	C172.1,156.2,172.3,156,172.5,156z"/>
<path class="st7" d="M151.7,156h13c0.2,0,0.4,0.2,0.4,0.4l0,0c0,0.2-0.2,0.4-0.4,0.4h-13c-0.2,0-0.4-0.2-0.4-0.4l0,0
	C151.3,156.2,151.5,156,151.7,156z"/>
<path class="st11" d="M30,30h202"/>
<circle class="st12" cx="178.5" cy="129.5" r="12.5"/>
<path class="st13" d="M171,130.5h-10c-0.5-11,7.7-16.3,11.5-17.5l3.5,9.5C171.5,124,171,128.3,171,130.5z"/>
<path class="st14" d="M0,22v19h50l-7.2-10l7.2-9H0z"/>
<path class="st0" d="M10,28.1h2.3c1.1,0,1.9,0.2,2.3,0.5c0.5,0.3,0.7,0.8,0.7,1.5c0,0.5-0.1,0.8-0.4,1.1c-0.2,0.3-0.6,0.5-1,0.6v0.1
	c0.6,0.1,1,0.3,1.2,0.6c0.3,0.3,0.4,0.7,0.4,1.2c0,0.7-0.2,1.3-0.7,1.7c-0.5,0.4-1.2,0.6-2.1,0.6H10V28.1z M11.3,31.4h1.2
	c0.5,0,0.9-0.1,1.2-0.3c0.2-0.2,0.4-0.5,0.4-0.9c0-0.4-0.1-0.6-0.4-0.8c-0.3-0.2-0.7-0.2-1.3-0.2h-1.1V31.4z M11.3,32.4v2.5h1.4
	c0.5,0,0.9-0.1,1.2-0.3c0.3-0.2,0.4-0.5,0.4-1c0-0.4-0.1-0.7-0.4-0.9c-0.3-0.2-0.7-0.3-1.3-0.3H11.3z M21.7,36h-4.4v-7.9h4.4v1.1
	h-3.2v2.1h3v1.1h-3v2.5h3.2V36z M26.2,36h-1.3v-6.8h-2.3v-1.1h5.9v1.1h-2.3V36z M34.5,36l-0.8-2.2h-3L30,36h-1.4l2.9-7.9H33l2.9,7.9
	H34.5z M33.4,32.7l-0.7-2.1c-0.1-0.1-0.1-0.4-0.2-0.7c-0.1-0.3-0.2-0.5-0.2-0.7c-0.1,0.4-0.2,0.9-0.4,1.4l-0.7,2H33.4z"/>
</svg>
