<svg width="238" height="180" viewBox="0 0 238 180" fill="none" xmlns="http://www.w3.org/2000/svg">
<g filter="url(#filter0_d_48_4017)">
<rect x="3" y="2" width="232" height="169" rx="2" fill="white"/>
</g>
<ellipse cx="10.297" cy="7.07" rx="1.30968" ry="1.31444" fill="#D8D8D8"/>
<ellipse cx="15.1612" cy="7.07" rx="1.30968" ry="1.31444" fill="#D8D8D8"/>
<ellipse cx="20.0265" cy="7.07" rx="1.30968" ry="1.31444" fill="#D8D8D8"/>
<rect x="3" y="11.7645" width="232" height="7.51111" fill="#0291DB"/>
<rect x="105.213" y="14.7689" width="11.9742" height="1.50222" fill="white"/>
<rect x="123.174" y="14.7689" width="11.9742" height="1.50222" fill="white"/>
<rect x="141.174" y="14.7689" width="11.9742" height="1.50222" fill="white"/>
<rect x="88" y="14.7689" width="11.9742" height="1.50222" fill="white"/>
<rect x="39" y="24" width="25.4451" height="3" fill="#ADB2BB"/>
<rect x="178" y="24" width="25.4451" height="3" fill="#ADB2BB"/>
<rect x="3" y="19.5" width="30" height="151" fill="#EFF2F5"/>
<rect x="9" y="32" width="14.9677" height="1.50222" fill="#ADB2BB"/>
<rect x="9" y="41.0134" width="14.9677" height="1.50222" fill="#ADB2BB"/>
<rect x="9" y="50.0267" width="14.9677" height="1.50222" fill="#ADB2BB"/>
<rect x="9" y="59.04" width="13.471" height="1.50222" fill="#ADB2BB"/>
<rect x="9" y="54.5333" width="17.9613" height="1.50222" fill="#ADB2BB"/>
<rect x="9" y="36.5067" width="19.4581" height="1.50222" fill="#ADB2BB"/>
<rect x="9" y="45.52" width="13.471" height="1.50222" fill="#ADB2BB"/>
<rect x="207.25" y="22.25" width="19.5" height="6.5" rx="1.75" stroke="#297FCA" stroke-width="0.5"/>
<rect x="39" y="38" width="90" height="59.5402" rx="2" stroke="#ADB2BB" stroke-width="0.5"/>
<rect x="45.9229" y="87.3333" width="76.1538" height="1.70115" fill="#DDDEE0"/>
<rect x="56.3076" y="91.5862" width="13.8462" height="0.850578" fill="#DDDEE0"/>
<rect x="77.0771" y="91.5862" width="13.8462" height="0.850578" fill="#DDDEE0"/>
<rect x="97.8457" y="91.5862" width="13.8462" height="0.850578" fill="#DDDEE0"/>
<rect x="47.6543" y="43.1035" width="45.931" height="1.73077" transform="rotate(90 47.6543 43.1035)" fill="#DDDEE0"/>
<rect x="57.1729" y="51.6092" width="12.1154" height="35.7241" fill="#0291DB"/>
<rect x="77.9424" y="60.1149" width="12.1154" height="27.2184" fill="#0291DB"/>
<rect x="98.7119" y="47.3563" width="12.1154" height="39.977" fill="#0291DB"/>
<rect x="137" y="38" width="90" height="59.5402" rx="2" stroke="#ADB2BB" stroke-width="0.5"/>
<rect x="143.923" y="87.3333" width="76.1538" height="1.70115" rx="0.850576" fill="#DDDEE0"/>
<rect x="154.308" y="91.5862" width="13.8462" height="0.850578" rx="0.425289" fill="#DDDEE0"/>
<rect x="175.077" y="91.5862" width="13.8462" height="0.850578" rx="0.425289" fill="#DDDEE0"/>
<rect x="195.846" y="91.5862" width="13.8462" height="0.850578" rx="0.425289" fill="#DDDEE0"/>
<rect x="145.654" y="43.1035" width="45.931" height="1.73077" rx="0.865385" transform="rotate(90 145.654 43.1035)" fill="#DDDEE0"/>
<path d="M147.817 67.3448L167.721 52.4598L181.567 63.5172L190.654 57.1379L202.337 68.1954L215.317 53.3104" stroke="#0291DB" stroke-width="2"/>
<path fill-rule="evenodd" clip-rule="evenodd" d="M147.817 67.7701V87.3333H215.75V52.4598L202.769 68.1954L190.654 57.1379L181.567 63.5172L168.154 52.4598L147.817 67.7701Z" fill="#0291DB" fill-opacity="0.1"/>
<ellipse cx="147.818" cy="67.3448" rx="0.865385" ry="0.850575" fill="#0291DB"/>
<ellipse cx="215.75" cy="52.8851" rx="0.865379" ry="0.850574" fill="#0291DB"/>
<rect x="39" y="106" width="90" height="59.5402" rx="2" stroke="#ADB2BB" stroke-width="0.5"/>
<rect opacity="0.10104" x="73.1826" y="110.253" width="21.6346" height="51.0345" rx="2" fill="#0291DB"/>
<rect x="45.9229" y="117.483" width="76.1538" height="1.70115" rx="0.850575" fill="#DDDEE0"/>
<rect x="56.3076" y="114.931" width="13.8462" height="0.850574" rx="0.425287" fill="#DDDEE0"/>
<rect x="77.0771" y="114.931" width="13.8462" height="0.850574" rx="0.425287" fill="#DDDEE0"/>
<rect x="97.8457" y="114.931" width="13.8462" height="0.850574" rx="0.425287" fill="#DDDEE0"/>
<rect x="97.8457" y="154.908" width="13.8462" height="0.850574" rx="0.425287" fill="#DDDEE0"/>
<rect x="77.0771" y="154.908" width="13.8462" height="0.850574" rx="0.425287" fill="#DDDEE0"/>
<rect x="56.3076" y="154.908" width="13.8462" height="0.850574" rx="0.425287" fill="#DDDEE0"/>
<rect x="97.8457" y="147.253" width="13.8462" height="0.850574" rx="0.425287" fill="#DDDEE0"/>
<rect x="77.0771" y="147.253" width="13.8462" height="0.850574" rx="0.425287" fill="#DDDEE0"/>
<rect x="56.3076" y="147.253" width="13.8462" height="0.850574" rx="0.425287" fill="#DDDEE0"/>
<rect x="97.8457" y="139.598" width="13.8462" height="0.850578" rx="0.425289" fill="#DDDEE0"/>
<rect x="77.0771" y="139.598" width="13.8462" height="0.850578" rx="0.425289" fill="#DDDEE0"/>
<rect x="56.3076" y="139.598" width="13.8462" height="0.850578" rx="0.425289" fill="#DDDEE0"/>
<rect x="97.8457" y="131.943" width="13.8462" height="0.850574" rx="0.425287" fill="#DDDEE0"/>
<rect x="77.0771" y="131.943" width="13.8462" height="0.850574" rx="0.425287" fill="#DDDEE0"/>
<rect x="56.3076" y="131.943" width="13.8462" height="0.850574" rx="0.425287" fill="#DDDEE0"/>
<rect x="97.8457" y="124.287" width="13.8462" height="0.850574" rx="0.425287" fill="#DDDEE0"/>
<rect x="77.0771" y="124.287" width="13.8462" height="0.850574" rx="0.425287" fill="#DDDEE0"/>
<rect x="56.3076" y="124.287" width="13.8462" height="0.850574" rx="0.425287" fill="#DDDEE0"/>
<rect x="137" y="106" width="90" height="59.5402" rx="2" stroke="#ADB2BB" stroke-width="0.5"/>
<rect x="143.924" y="154" width="76.1538" height="1.70115" rx="0.850575" fill="#DDDEE0"/>
<rect x="195.846" y="158.908" width="13.8462" height="0.850574" rx="0.425287" fill="#DDDEE0"/>
<rect x="175.076" y="158.908" width="13.8462" height="0.850574" rx="0.425287" fill="#DDDEE0"/>
<rect x="154.308" y="158.908" width="13.8462" height="0.850574" rx="0.425287" fill="#DDDEE0"/>
<path d="M33 32H235" stroke="#D5D5D7" stroke-width="0.5"/>
<circle cx="181.5" cy="131.5" r="12.5" stroke="#0291DB" stroke-width="10"/>
<path d="M174 132.5H164C163.5 121.5 171.667 116.167 175.5 115L179 124.5C174.5 126 174 130.333 174 132.5Z" fill="#E6F4FB"/>
<defs>
<filter id="filter0_d_48_4017" x="0" y="0" width="238" height="175" filterUnits="userSpaceOnUse" color-interpolation-filters="sRGB">
<feFlood flood-opacity="0" result="BackgroundImageFix"/>
<feColorMatrix in="SourceAlpha" type="matrix" values="0 0 0 0 0 0 0 0 0 0 0 0 0 0 0 0 0 0 127 0" result="hardAlpha"/>
<feOffset dy="1"/>
<feGaussianBlur stdDeviation="1.5"/>
<feColorMatrix type="matrix" values="0 0 0 0 0.333333 0 0 0 0 0.352941 0 0 0 0 0.384314 0 0 0 0.30466 0"/>
<feBlend mode="normal" in2="BackgroundImageFix" result="effect1_dropShadow_48_4017"/>
<feBlend mode="normal" in="SourceGraphic" in2="effect1_dropShadow_48_4017" result="shape"/>
</filter>
</defs>
</svg>
