<svg width="238" height="175" viewBox="0 0 238 175" fill="none" xmlns="http://www.w3.org/2000/svg">
<g filter="url(#filter0_d_1305_4900)">
<rect x="3" y="2" width="232" height="169" rx="2" fill="white"/>
</g>
<g clip-path="url(#clip0_1305_4900)">
<g filter="url(#filter1_d_1305_4900)">
<rect x="3" y="2" width="232" height="169" rx="2" fill="white"/>
</g>
<rect x="3" y="2" width="232" height="169" rx="2" fill="white"/>
<ellipse cx="10.297" cy="7.07" rx="1.30968" ry="1.31444" fill="#D8D8D8"/>
<ellipse cx="15.1612" cy="7.07" rx="1.30968" ry="1.31444" fill="#D8D8D8"/>
<ellipse cx="20.0265" cy="7.07" rx="1.30968" ry="1.31444" fill="#D8D8D8"/>
<rect x="39" y="24" width="25.4451" height="3" fill="#ADB2BB"/>
<rect x="3" y="19" width="30" height="153" fill="#EFF2F5"/>
<rect x="9" y="32" width="14.9677" height="1.50222" fill="#ADB2BB"/>
<rect x="9" y="41.0134" width="14.9677" height="1.50222" fill="#ADB2BB"/>
<rect x="9" y="50.0267" width="14.9677" height="1.50222" fill="#ADB2BB"/>
<rect x="9" y="59.04" width="13.471" height="1.50222" fill="#ADB2BB"/>
<rect x="9" y="54.5333" width="17.9613" height="1.50222" fill="#ADB2BB"/>
<rect x="9" y="36.5067" width="19.4581" height="1.50222" fill="#ADB2BB"/>
<rect x="9" y="45.52" width="13.471" height="1.50222" fill="#ADB2BB"/>
<rect x="3" y="11.7645" width="232" height="7.51111" fill="#0291DB"/>
<rect x="105.213" y="14.7689" width="11.9742" height="1.50222" fill="white"/>
<rect x="123.174" y="14.7689" width="11.9742" height="1.50222" fill="white"/>
<rect x="141.174" y="14.7689" width="11.9742" height="1.50222" fill="white"/>
<rect x="88" y="14.7689" width="11.9742" height="1.50222" fill="white"/>
<path d="M33 32H235" stroke="#D5D5D7" stroke-width="0.5"/>
<rect x="49.9414" y="34.6064" width="10.4258" height="1.30323" fill="white"/>
<rect x="54" y="57.6191" width="16.5314" height="2.5433" fill="#ADB2BB"/>
<rect x="44.5" y="57.5" width="2" height="1" transform="rotate(90 44.5 57.5)" fill="#ADB2BB"/>
<rect x="42" y="47" width="130" height="6" fill="#E6F4FB"/>
<rect x="54" y="63" width="40" height="1" fill="#ADB2BB"/>
<rect x="54" y="65" width="31" height="1" fill="#ADB2BB"/>
<rect x="54" y="67" width="37" height="1" fill="#ADB2BB"/>
<rect x="54" y="69" width="34" height="1" fill="#ADB2BB"/>
<rect x="121" y="64" width="9" height="1" fill="#ADB2BB"/>
<rect x="108" y="64" width="9" height="1" fill="#ADB2BB"/>
<rect x="187.974" y="36" width="23.5255" height="2.5433" fill="#ADB2BB"/>
<path d="M42.3389 75H171.662" stroke="#ADB2BB" stroke-width="0.5" stroke-linecap="square"/>
<rect x="151" y="63" width="3" height="3" rx="1" stroke="#979797" stroke-width="0.4"/>
<rect x="155" y="63" width="3" height="3" rx="1" stroke="#979797" stroke-width="0.4"/>
<rect x="159" y="63" width="3" height="3" rx="1" stroke="#979797" stroke-width="0.4"/>
<rect x="187.974" y="41.7224" width="27.3405" height="1.27165" fill="#ADB2BB"/>
<rect x="187.974" y="45.5374" width="15.8956" height="1.27165" fill="#ADB2BB"/>
<rect x="146" y="25" width="24" height="2" fill="#0291DB"/>
<g clip-path="url(#clip1_1305_4900)">
<path d="M44.2854 35.2678H102.143V41.7322H44.2854C43.7234 41.7322 43.2678 41.2766 43.2678 40.7146V36.2854C43.2678 35.7234 43.7234 35.2678 44.2854 35.2678Z" fill="white" stroke="#ADB2BB" stroke-width="0.5356"/>
</g>
<path d="M103.15 35.15H115.715C116.342 35.15 116.85 35.6584 116.85 36.2854V40.7146C116.85 41.3416 116.342 41.85 115.715 41.85H103.15V35.15Z" fill="#0291DB" stroke="#0291DB" stroke-width="0.3"/>
<rect x="106" y="37" width="8" height="3" fill="white"/>
<rect x="120" y="35" width="7" height="7" rx="1" fill="#0291DB"/>
<rect x="144" y="23" width="28" height="6" rx="1" stroke="#0291DB" stroke-width="0.4"/>
<path d="M139 64H142V65H139V64Z" fill="#0291DB"/>
<rect x="135" y="63" width="8" height="3" rx="1" stroke="#0291DB" stroke-width="0.4"/>
<path d="M139 116H142V117H139V116Z" fill="#0291DB"/>
<rect x="135" y="115" width="8" height="3" rx="1" stroke="#0291DB" stroke-width="0.4"/>
<rect x="43" y="116" width="2" height="1" fill="#ADB2BB"/>
<rect x="121" y="116" width="9" height="1" fill="#ADB2BB"/>
<rect x="108" y="116" width="9" height="1" fill="#ADB2BB"/>
<rect x="53.5371" y="115.515" width="16.5314" height="2.5433" fill="#ADB2BB"/>
<path d="M42.3385 122.5H171.661" stroke="#ADB2BB" stroke-width="0.5" stroke-linecap="square"/>
<path d="M139 80H142V81H139V80Z" fill="#0291DB"/>
<rect x="135" y="79" width="8" height="3" rx="1" stroke="#0291DB" stroke-width="0.4"/>
<rect x="43" y="80" width="2" height="1" fill="#ADB2BB"/>
<rect x="121" y="80" width="9" height="1" fill="#ADB2BB"/>
<rect x="108" y="80" width="9" height="1" fill="#ADB2BB"/>
<rect x="53.5371" y="79.5148" width="16.5314" height="2.5433" fill="#ADB2BB"/>
<path d="M42.3385 86.5H171.661" stroke="#ADB2BB" stroke-width="0.5" stroke-linecap="square"/>
<rect x="151" y="79" width="3" height="3" rx="1" stroke="#979797" stroke-width="0.4"/>
<rect x="155" y="79" width="3" height="3" rx="1" stroke="#979797" stroke-width="0.4"/>
<rect x="159" y="79" width="3" height="3" rx="1" stroke="#979797" stroke-width="0.4"/>
<rect x="151" y="115" width="3" height="3" rx="1" stroke="#979797" stroke-width="0.4"/>
<rect x="155" y="115" width="3" height="3" rx="1" stroke="#979797" stroke-width="0.4"/>
<rect x="159" y="115" width="3" height="3" rx="1" stroke="#979797" stroke-width="0.4"/>
<rect x="43" y="92" width="2" height="1" fill="#ADB2BB"/>
<rect x="121" y="92" width="9" height="1" fill="#ADB2BB"/>
<rect x="108" y="92" width="9" height="1" fill="#ADB2BB"/>
<rect x="53.5371" y="91.5148" width="16.5314" height="2.5433" fill="#ADB2BB"/>
<path d="M42.3385 98.5H171.661" stroke="#ADB2BB" stroke-width="0.5" stroke-linecap="square"/>
<rect x="151" y="91" width="3" height="3" rx="1" stroke="#979797" stroke-width="0.4"/>
<rect x="155" y="91" width="3" height="3" rx="1" stroke="#979797" stroke-width="0.4"/>
<rect x="159" y="91" width="3" height="3" rx="1" stroke="#979797" stroke-width="0.4"/>
<path d="M136 92H139V93H136V92Z" fill="#ADB2BB"/>
<rect x="135" y="91" width="8" height="3" rx="1" stroke="#ADB2BB" stroke-width="0.4"/>
<rect x="43" y="104" width="2" height="1" fill="#ADB2BB"/>
<rect x="121" y="104" width="9" height="1" fill="#ADB2BB"/>
<rect x="108" y="104" width="9" height="1" fill="#ADB2BB"/>
<rect x="53.5371" y="103.515" width="16.5314" height="2.5433" fill="#ADB2BB"/>
<path d="M42.3385 110.5H171.661" stroke="#ADB2BB" stroke-width="0.5" stroke-linecap="square"/>
<rect x="151" y="103" width="3" height="3" rx="1" stroke="#979797" stroke-width="0.4"/>
<rect x="155" y="103" width="3" height="3" rx="1" stroke="#979797" stroke-width="0.4"/>
<rect x="159" y="103" width="3" height="3" rx="1" stroke="#979797" stroke-width="0.4"/>
<path d="M136 104H139V105H136V104Z" fill="#ADB2BB"/>
<rect x="135" y="103" width="8" height="3" rx="1" stroke="#ADB2BB" stroke-width="0.4"/>
<rect x="54" y="49" width="13" height="2" fill="#ADB2BB"/>
<rect x="107" y="49" width="8" height="2" fill="#ADB2BB"/>
<rect x="120" y="49" width="8" height="2" fill="#ADB2BB"/>
<rect x="135" y="49" width="8" height="2" fill="#ADB2BB"/>
<mask id="path-91-outside-1_1305_4900" maskUnits="userSpaceOnUse" x="178" y="118" width="86" height="86" fill="black">
<rect fill="white" x="178" y="118" width="86" height="86"/>
<path fill-rule="evenodd" clip-rule="evenodd" d="M233.039 130.711L233.176 124.109C233.187 123.611 232.806 123.114 232.327 122.993L228.662 122.073C228.183 121.953 227.614 122.214 227.392 122.657L224.435 128.551C222.212 128.313 220.004 128.317 217.842 128.543L214.867 122.613C214.644 122.169 214.076 121.909 213.597 122.029L209.931 122.95C209.452 123.07 209.072 123.57 209.082 124.066L209.22 130.709C207.182 131.54 205.236 132.58 203.415 133.811L198.052 129.86C197.653 129.565 197.03 129.594 196.657 129.92L193.806 132.415C193.433 132.741 193.32 133.36 193.553 133.798L196.762 139.825C195.404 141.456 194.198 143.235 193.173 145.145L186.422 144.166C185.932 144.095 185.396 144.414 185.219 144.879L183.865 148.43C183.688 148.894 183.876 149.494 184.286 149.77L190.058 153.662C189.613 155.746 189.381 157.829 189.349 159.888L182.738 162.285C182.272 162.454 181.947 162.989 182.007 163.483L182.468 167.258C182.528 167.752 182.974 168.193 183.464 168.243L190.514 168.964C191.068 170.96 191.813 172.892 192.732 174.732L187.852 179.965C187.513 180.328 187.465 180.954 187.741 181.366L189.854 184.519C190.13 184.932 190.726 185.12 191.185 184.941L197.975 182.29C199.332 183.746 200.829 185.079 202.453 186.267L200.552 193.314C200.422 193.795 200.671 194.371 201.108 194.604L204.443 196.39C204.879 196.623 205.494 196.508 205.816 196.132L210.595 190.558C211.52 190.884 212.468 191.17 213.438 191.414C214.408 191.657 215.379 191.853 216.348 192.002L217.969 199.183C218.078 199.669 218.567 200.059 219.061 200.059H222.838C223.332 200.059 223.821 199.667 223.93 199.183L225.538 192.062C227.525 191.781 229.469 191.311 231.346 190.668L236.104 196.218C236.428 196.595 237.041 196.708 237.477 196.475L240.812 194.689C241.249 194.456 241.497 193.879 241.368 193.4L239.499 186.472C241.169 185.282 242.726 183.929 244.147 182.429L250.708 185.124C251.166 185.312 251.763 185.133 252.047 184.726L254.213 181.61C254.497 181.203 254.458 180.574 254.127 180.207L249.408 174.965C250.338 173.132 251.105 171.183 251.684 169.132L258.595 168.425C259.088 168.375 259.532 167.934 259.592 167.44L260.052 163.665C260.112 163.172 259.785 162.635 259.322 162.467L252.904 160.14C252.89 157.969 252.655 155.829 252.216 153.747L257.86 149.942C258.272 149.665 258.458 149.066 258.281 148.601L256.928 145.05C256.751 144.586 256.212 144.267 255.724 144.338L249.146 145.292C248.112 143.344 246.879 141.505 245.467 139.808L248.686 134.008C248.928 133.573 248.824 132.954 248.457 132.621L245.65 130.076C245.283 129.743 244.659 129.705 244.256 129.991L238.864 133.82C237.061 132.599 235.113 131.552 233.039 130.711V130.711ZM215.65 182.106C227.583 185.102 239.669 177.79 242.644 165.775C245.62 153.759 238.358 141.59 226.424 138.594C214.491 135.598 202.405 142.91 199.43 154.926C196.454 166.941 203.716 179.111 215.65 182.106V182.106Z"/>
</mask>
<path fill-rule="evenodd" clip-rule="evenodd" d="M233.039 130.711L233.176 124.109C233.187 123.611 232.806 123.114 232.327 122.993L228.662 122.073C228.183 121.953 227.614 122.214 227.392 122.657L224.435 128.551C222.212 128.313 220.004 128.317 217.842 128.543L214.867 122.613C214.644 122.169 214.076 121.909 213.597 122.029L209.931 122.95C209.452 123.07 209.072 123.57 209.082 124.066L209.22 130.709C207.182 131.54 205.236 132.58 203.415 133.811L198.052 129.86C197.653 129.565 197.03 129.594 196.657 129.92L193.806 132.415C193.433 132.741 193.32 133.36 193.553 133.798L196.762 139.825C195.404 141.456 194.198 143.235 193.173 145.145L186.422 144.166C185.932 144.095 185.396 144.414 185.219 144.879L183.865 148.43C183.688 148.894 183.876 149.494 184.286 149.77L190.058 153.662C189.613 155.746 189.381 157.829 189.349 159.888L182.738 162.285C182.272 162.454 181.947 162.989 182.007 163.483L182.468 167.258C182.528 167.752 182.974 168.193 183.464 168.243L190.514 168.964C191.068 170.96 191.813 172.892 192.732 174.732L187.852 179.965C187.513 180.328 187.465 180.954 187.741 181.366L189.854 184.519C190.13 184.932 190.726 185.12 191.185 184.941L197.975 182.29C199.332 183.746 200.829 185.079 202.453 186.267L200.552 193.314C200.422 193.795 200.671 194.371 201.108 194.604L204.443 196.39C204.879 196.623 205.494 196.508 205.816 196.132L210.595 190.558C211.52 190.884 212.468 191.17 213.438 191.414C214.408 191.657 215.379 191.853 216.348 192.002L217.969 199.183C218.078 199.669 218.567 200.059 219.061 200.059H222.838C223.332 200.059 223.821 199.667 223.93 199.183L225.538 192.062C227.525 191.781 229.469 191.311 231.346 190.668L236.104 196.218C236.428 196.595 237.041 196.708 237.477 196.475L240.812 194.689C241.249 194.456 241.497 193.879 241.368 193.4L239.499 186.472C241.169 185.282 242.726 183.929 244.147 182.429L250.708 185.124C251.166 185.312 251.763 185.133 252.047 184.726L254.213 181.61C254.497 181.203 254.458 180.574 254.127 180.207L249.408 174.965C250.338 173.132 251.105 171.183 251.684 169.132L258.595 168.425C259.088 168.375 259.532 167.934 259.592 167.44L260.052 163.665C260.112 163.172 259.785 162.635 259.322 162.467L252.904 160.14C252.89 157.969 252.655 155.829 252.216 153.747L257.86 149.942C258.272 149.665 258.458 149.066 258.281 148.601L256.928 145.05C256.751 144.586 256.212 144.267 255.724 144.338L249.146 145.292C248.112 143.344 246.879 141.505 245.467 139.808L248.686 134.008C248.928 133.573 248.824 132.954 248.457 132.621L245.65 130.076C245.283 129.743 244.659 129.705 244.256 129.991L238.864 133.82C237.061 132.599 235.113 131.552 233.039 130.711V130.711ZM215.65 182.106C227.583 185.102 239.669 177.79 242.644 165.775C245.62 153.759 238.358 141.59 226.424 138.594C214.491 135.598 202.405 142.91 199.43 154.926C196.454 166.941 203.716 179.111 215.65 182.106V182.106Z" fill="#F4FBFF"/>
<path d="M233.176 124.109L236.536 124.179L236.536 124.179L233.176 124.109ZM232.327 122.993L231.509 126.252L231.509 126.252L232.327 122.993ZM228.662 122.073L229.48 118.814L229.48 118.814L228.662 122.073ZM227.392 122.657L224.389 121.15L224.389 121.15L227.392 122.657ZM224.435 128.551L224.078 131.892L226.394 132.139L227.438 130.057L224.435 128.551ZM217.842 128.543L214.839 130.05L215.881 132.127L218.192 131.885L217.842 128.543ZM214.867 122.613L217.87 121.106L217.87 121.106L214.867 122.613ZM213.597 122.029L212.778 118.771L212.778 118.771L213.597 122.029ZM209.931 122.95L210.749 126.208L210.749 126.208L209.931 122.95ZM209.082 124.066L205.723 124.135L205.723 124.135L209.082 124.066ZM209.22 130.709L210.489 133.82L212.627 132.948L212.579 130.639L209.22 130.709ZM203.415 133.811L201.422 136.516L203.331 137.923L205.296 136.595L203.415 133.811ZM198.052 129.86L196.059 132.565L198.052 129.86ZM196.657 129.92L198.87 132.448L198.87 132.448L196.657 129.92ZM193.806 132.415L191.593 129.887L193.806 132.415ZM193.553 133.798L190.587 135.377L193.553 133.798ZM196.762 139.825L199.343 141.976L200.789 140.24L199.728 138.246L196.762 139.825ZM193.173 145.145L192.691 148.47L195.021 148.808L196.134 146.733L193.173 145.145ZM186.422 144.166L185.94 147.491L185.94 147.491L186.422 144.166ZM185.219 144.879L188.358 146.076L188.358 146.076L185.219 144.879ZM183.865 148.43L180.725 147.233L180.725 147.233L183.865 148.43ZM184.286 149.77L182.407 152.556L184.286 149.77ZM190.058 153.662L193.344 154.364L193.819 152.144L191.937 150.876L190.058 153.662ZM189.349 159.888L190.494 163.047L192.671 162.257L192.708 159.941L189.349 159.888ZM182.738 162.285L183.883 165.444L182.738 162.285ZM182.007 163.483L185.342 163.076L185.342 163.076L182.007 163.483ZM182.468 167.258L179.132 167.665L179.132 167.665L182.468 167.258ZM183.464 168.243L183.806 164.9L183.464 168.243ZM190.514 168.964L193.751 168.065L193.137 165.855L190.856 165.622L190.514 168.964ZM192.732 174.732L195.189 177.023L196.78 175.317L195.738 173.23L192.732 174.732ZM187.852 179.965L185.394 177.673L185.394 177.673L187.852 179.965ZM187.741 181.366L184.95 183.236L184.95 183.236L187.741 181.366ZM189.854 184.519L192.645 182.649L192.645 182.649L189.854 184.519ZM191.185 184.941L189.963 181.811L189.963 181.811L191.185 184.941ZM197.975 182.29L200.433 179.999L198.878 178.331L196.753 179.16L197.975 182.29ZM202.453 186.267L205.697 187.142L206.297 184.916L204.437 183.555L202.453 186.267ZM200.552 193.314L197.308 192.439L197.308 192.439L200.552 193.314ZM201.108 194.604L202.693 191.642L202.693 191.642L201.108 194.604ZM204.443 196.39L202.857 199.352L202.857 199.352L204.443 196.39ZM205.816 196.132L203.265 193.945L205.816 196.132ZM210.595 190.558L211.711 187.389L209.542 186.625L208.044 188.371L210.595 190.558ZM213.438 191.414L212.62 194.673L213.438 191.414ZM216.348 192.002L219.625 191.263L219.122 189.031L216.86 188.682L216.348 192.002ZM217.969 199.183L221.246 198.444L221.246 198.444L217.969 199.183ZM223.93 199.183L220.653 198.444L220.653 198.444L223.93 199.183ZM225.538 192.062L225.067 188.736L222.771 189.061L222.26 191.323L225.538 192.062ZM231.346 190.668L233.896 188.481L232.412 186.749L230.255 187.489L231.346 190.668ZM236.104 196.218L233.554 198.405L233.554 198.405L236.104 196.218ZM237.477 196.475L239.063 199.437L239.063 199.437L237.477 196.475ZM240.812 194.689L239.227 191.727L239.227 191.727L240.812 194.689ZM241.368 193.4L238.124 194.275L238.124 194.275L241.368 193.4ZM239.499 186.472L237.549 183.737L235.647 185.092L236.255 187.347L239.499 186.472ZM244.147 182.429L245.424 179.321L243.292 178.445L241.707 180.119L244.147 182.429ZM250.708 185.124L251.984 182.016L251.984 182.016L250.708 185.124ZM252.047 184.726L249.288 182.807L249.288 182.807L252.047 184.726ZM254.213 181.61L256.972 183.528L256.972 183.528L254.213 181.61ZM254.127 180.207L256.624 177.959L256.624 177.959L254.127 180.207ZM249.408 174.965L246.412 173.444L245.368 175.5L246.911 177.214L249.408 174.965ZM251.684 169.132L251.341 165.79L249.07 166.022L248.45 168.22L251.684 169.132ZM258.595 168.425L258.253 165.082L258.253 165.083L258.595 168.425ZM259.592 167.44L256.257 167.034L256.257 167.034L259.592 167.44ZM260.052 163.665L263.388 164.072L263.388 164.072L260.052 163.665ZM259.322 162.467L258.177 165.626L258.177 165.626L259.322 162.467ZM252.904 160.14L249.545 160.162L249.56 162.502L251.759 163.299L252.904 160.14ZM252.216 153.747L250.338 150.961L248.461 152.226L248.929 154.44L252.216 153.747ZM257.86 149.942L255.982 147.156L255.982 147.156L257.86 149.942ZM258.281 148.601L261.421 147.404L261.421 147.404L258.281 148.601ZM256.928 145.05L253.788 146.247L253.788 146.247L256.928 145.05ZM255.724 144.338L255.242 141.013L255.242 141.013L255.724 144.338ZM249.146 145.292L246.179 146.868L247.288 148.956L249.629 148.617L249.146 145.292ZM245.467 139.808L242.529 138.178L241.413 140.189L242.884 141.957L245.467 139.808ZM248.686 134.008L251.624 135.638L251.624 135.638L248.686 134.008ZM248.457 132.621L250.714 130.132L250.714 130.132L248.457 132.621ZM245.65 130.076L243.393 132.565L243.393 132.565L245.65 130.076ZM244.256 129.991L242.31 127.252L242.31 127.252L244.256 129.991ZM238.864 133.82L236.98 136.602L238.909 137.91L240.81 136.56L238.864 133.82ZM236.399 130.78L236.536 124.179L229.817 124.04L229.68 130.641L236.399 130.78ZM236.536 124.179C236.578 122.121 235.15 120.238 233.145 119.735L231.509 126.252C230.905 126.101 230.501 125.758 230.263 125.446C230.024 125.133 229.804 124.655 229.817 124.04L236.536 124.179ZM233.145 119.735L229.48 118.814L227.844 125.332L231.509 126.252L233.145 119.735ZM229.48 118.814C227.468 118.309 225.314 119.306 224.389 121.15L230.395 124.164C230.116 124.72 229.694 125.041 229.334 125.207C228.975 125.372 228.453 125.485 227.844 125.332L229.48 118.814ZM224.389 121.15L221.432 127.044L227.438 130.057L230.395 124.164L224.389 121.15ZM224.791 125.21C222.331 124.947 219.887 124.951 217.492 125.201L218.192 131.885C220.121 131.683 222.092 131.68 224.078 131.892L224.791 125.21ZM220.845 127.036L217.87 121.106L211.863 124.12L214.839 130.05L220.845 127.036ZM217.87 121.106C216.942 119.257 214.787 118.266 212.778 118.771L214.415 125.288C213.81 125.44 213.288 125.33 212.926 125.163C212.563 124.996 212.141 124.674 211.863 124.12L217.87 121.106ZM212.778 118.771L209.113 119.691L210.749 126.208L214.415 125.288L212.778 118.771ZM209.113 119.691C207.105 120.195 205.68 122.083 205.723 124.135L212.441 123.996C212.454 124.614 212.233 125.091 211.997 125.401C211.761 125.711 211.357 126.056 210.749 126.208L209.113 119.691ZM205.723 124.135L205.861 130.778L212.579 130.639L212.441 123.996L205.723 124.135ZM207.951 127.597C205.698 128.516 203.547 129.667 201.534 131.027L205.296 136.595C206.926 135.494 208.667 134.563 210.489 133.82L207.951 127.597ZM205.408 131.106L200.045 127.155L196.059 132.565L201.422 136.516L205.408 131.106ZM200.045 127.155C198.368 125.919 195.996 126.033 194.444 127.391L198.87 132.448C198.404 132.856 197.892 132.996 197.491 133.014C197.09 133.031 196.563 132.936 196.059 132.565L200.045 127.155ZM194.444 127.391L191.593 129.887L196.019 134.943L198.87 132.448L194.444 127.391ZM191.593 129.887C190.045 131.241 189.621 133.562 190.587 135.377L196.518 132.219C196.81 132.766 196.827 133.291 196.757 133.67C196.688 134.05 196.486 134.535 196.019 134.943L191.593 129.887ZM190.587 135.377L193.796 141.404L199.728 138.246L196.518 132.219L190.587 135.377ZM194.18 137.675C192.678 139.477 191.345 141.445 190.212 143.557L196.134 146.733C197.051 145.025 198.129 143.434 199.343 141.976L194.18 137.675ZM193.655 141.82L186.904 140.841L185.94 147.491L192.691 148.47L193.655 141.82ZM186.904 140.841C184.836 140.541 182.808 141.769 182.079 143.682L188.358 146.076C188.14 146.647 187.759 147.009 187.417 147.212C187.074 147.415 186.564 147.582 185.94 147.491L186.904 140.841ZM182.079 143.682L180.725 147.233L187.004 149.627L188.358 146.076L182.079 143.682ZM180.725 147.233C179.997 149.143 180.691 151.399 182.407 152.556L186.164 146.984C186.684 147.335 186.945 147.796 187.061 148.164C187.177 148.533 187.223 149.052 187.004 149.627L180.725 147.233ZM182.407 152.556L188.18 156.448L191.937 150.876L186.164 146.984L182.407 152.556ZM186.773 152.96C186.281 155.259 186.025 157.559 185.989 159.834L192.708 159.941C192.737 158.099 192.945 156.233 193.344 154.364L186.773 152.96ZM188.203 156.729L181.592 159.126L183.883 165.444L190.494 163.047L188.203 156.729ZM181.592 159.126C179.635 159.836 178.425 161.865 178.672 163.89L185.342 163.076C185.416 163.681 185.249 164.174 185.045 164.509C184.841 164.844 184.473 165.23 183.883 165.444L181.592 159.126ZM178.672 163.89L179.132 167.665L185.803 166.851L185.342 163.076L178.672 163.89ZM179.132 167.665C179.38 169.696 181.051 171.373 183.122 171.585L183.806 164.9C184.436 164.965 184.888 165.252 185.166 165.526C185.445 165.802 185.729 166.242 185.803 166.851L179.132 167.665ZM183.122 171.585L190.172 172.307L190.856 165.622L183.806 164.9L183.122 171.585ZM187.276 169.864C187.889 172.069 188.711 174.201 189.726 176.233L195.738 173.23C194.915 171.582 194.248 169.852 193.751 168.065L187.276 169.864ZM190.274 172.44L185.394 177.673L190.309 182.256L195.189 177.023L190.274 172.44ZM185.394 177.673C183.984 179.186 183.811 181.537 184.95 183.236L190.533 179.496C190.874 180.006 190.946 180.522 190.916 180.909C190.885 181.297 190.733 181.802 190.309 182.256L185.394 177.673ZM184.95 183.236L187.062 186.389L192.645 182.649L190.533 179.496L184.95 183.236ZM187.062 186.389C188.207 188.099 190.467 188.829 192.408 188.071L189.963 181.811C190.552 181.581 191.087 181.629 191.465 181.749C191.844 181.869 192.301 182.135 192.645 182.649L187.062 186.389ZM192.408 188.071L199.197 185.42L196.753 179.16L189.963 181.811L192.408 188.071ZM195.517 184.581C197.017 186.19 198.673 187.665 200.469 188.979L204.437 183.555C202.986 182.494 201.647 181.302 200.433 179.999L195.517 184.581ZM199.209 185.392L197.308 192.439L203.796 194.189L205.697 187.142L199.209 185.392ZM197.308 192.439C196.772 194.427 197.706 196.594 199.522 197.566L202.693 191.642C203.24 191.935 203.548 192.362 203.702 192.72C203.857 193.079 203.956 193.595 203.796 194.189L197.308 192.439ZM199.522 197.566L202.857 199.352L206.029 193.427L202.693 191.642L199.522 197.566ZM202.857 199.352C204.684 200.33 207.018 199.892 208.366 198.319L203.265 193.945C203.672 193.471 204.162 193.26 204.553 193.187C204.944 193.114 205.477 193.132 206.029 193.427L202.857 199.352ZM208.366 198.319L213.146 192.745L208.044 188.371L203.265 193.945L208.366 198.319ZM209.478 193.727C210.501 194.088 211.549 194.404 212.62 194.673L214.256 188.155C213.387 187.937 212.539 187.681 211.711 187.389L209.478 193.727ZM212.62 194.673C213.691 194.941 214.764 195.158 215.835 195.323L216.86 188.682C215.994 188.548 215.125 188.373 214.256 188.155L212.62 194.673ZM213.07 192.742L214.691 199.923L221.246 198.444L219.625 191.263L213.07 192.742ZM214.691 199.923C215.145 201.935 216.99 203.419 219.061 203.419V196.699C219.685 196.699 220.163 196.934 220.472 197.181C220.781 197.43 221.111 197.842 221.246 198.444L214.691 199.923ZM219.061 203.419H222.838V196.699H219.061V203.419ZM222.838 203.419C224.913 203.419 226.755 201.93 227.208 199.923L220.653 198.444C220.789 197.84 221.119 197.428 221.426 197.182C221.732 196.936 222.21 196.699 222.838 196.699V203.419ZM227.208 199.923L228.815 192.802L222.26 191.323L220.653 198.444L227.208 199.923ZM226.008 195.389C228.209 195.078 230.36 194.558 232.436 193.846L230.255 187.489C228.578 188.065 226.841 188.484 225.067 188.736L226.008 195.389ZM228.795 192.855L233.554 198.405L238.655 194.031L233.896 188.481L228.795 192.855ZM233.554 198.405C234.905 199.981 237.24 200.413 239.063 199.437L235.891 193.513C236.439 193.219 236.971 193.199 237.365 193.272C237.76 193.346 238.25 193.558 238.655 194.031L233.554 198.405ZM239.063 199.437L242.398 197.652L239.227 191.727L235.891 193.513L239.063 199.437ZM242.398 197.652C244.218 196.678 245.147 194.507 244.612 192.525L238.124 194.275C237.963 193.678 238.063 193.163 238.217 192.807C238.37 192.451 238.676 192.022 239.227 191.727L242.398 197.652ZM244.612 192.525L242.743 185.597L236.255 187.347L238.124 194.275L244.612 192.525ZM241.45 189.208C243.295 187.893 245.017 186.397 246.587 184.739L241.707 180.119C240.436 181.461 239.042 182.671 237.549 183.737L241.45 189.208ZM242.87 185.537L249.431 188.232L251.984 182.016L245.424 179.321L242.87 185.537ZM249.431 188.232C251.363 189.025 253.632 188.331 254.805 186.644L249.288 182.807C249.639 182.302 250.099 182.042 250.483 181.928C250.867 181.814 251.403 181.777 251.984 182.016L249.431 188.232ZM254.805 186.644L256.972 183.528L251.455 179.692L249.288 182.807L254.805 186.644ZM256.972 183.528C258.142 181.846 258.004 179.491 256.624 177.959L251.63 182.455C251.213 181.992 251.071 181.484 251.047 181.1C251.023 180.715 251.102 180.198 251.455 179.692L256.972 183.528ZM256.624 177.959L251.904 172.717L246.911 177.214L251.63 182.455L256.624 177.959ZM252.403 176.487C253.433 174.46 254.279 172.307 254.917 170.045L248.45 168.22C247.931 170.059 247.244 171.804 246.412 173.444L252.403 176.487ZM252.026 172.475L258.937 171.768L258.253 165.083L251.341 165.79L252.026 172.475ZM258.937 171.768C261.014 171.555 262.68 169.874 262.927 167.847L256.257 167.034C256.33 166.428 256.612 165.988 256.893 165.71C257.173 165.432 257.627 165.147 258.253 165.082L258.937 171.768ZM262.927 167.847L263.388 164.072L256.717 163.259L256.257 167.034L262.927 167.847ZM263.388 164.072C263.635 162.043 262.42 160.016 260.467 159.308L258.177 165.626C257.584 165.411 257.217 165.025 257.015 164.693C256.812 164.361 256.643 163.867 256.717 163.259L263.388 164.072ZM260.467 159.308L254.05 156.982L251.759 163.299L258.177 165.626L260.467 159.308ZM256.264 160.119C256.249 157.719 255.989 155.353 255.504 153.053L248.929 154.44C249.322 156.304 249.532 158.219 249.545 160.162L256.264 160.119ZM254.094 156.533L259.739 152.728L255.982 147.156L250.338 150.961L254.094 156.533ZM259.739 152.728C261.459 151.568 262.148 149.312 261.421 147.404L255.142 149.798C254.924 149.228 254.969 148.709 255.085 148.337C255.202 147.965 255.464 147.505 255.982 147.156L259.739 152.728ZM261.421 147.404L260.067 143.853L253.788 146.247L255.142 149.798L261.421 147.404ZM260.067 143.853C259.336 141.937 257.304 140.713 255.242 141.013L256.206 147.663C255.58 147.754 255.07 147.586 254.731 147.385C254.39 147.183 254.007 146.823 253.788 146.247L260.067 143.853ZM255.242 141.013L248.664 141.966L249.629 148.617L256.206 147.663L255.242 141.013ZM252.114 143.715C250.971 141.565 249.61 139.534 248.05 137.66L242.884 141.957C244.148 143.476 245.252 145.123 246.179 146.868L252.114 143.715ZM248.405 141.439L251.624 135.638L245.748 132.377L242.529 138.178L248.405 141.439ZM251.624 135.638C252.625 133.835 252.234 131.51 250.714 130.132L246.2 135.11C245.743 134.696 245.549 134.21 245.485 133.827C245.421 133.443 245.448 132.918 245.748 132.377L251.624 135.638ZM250.714 130.132L247.906 127.587L243.393 132.565L246.2 135.11L250.714 130.132ZM247.906 127.587C246.376 126.199 244.005 126.049 242.31 127.252L246.201 132.731C245.689 133.095 245.159 133.18 244.762 133.156C244.365 133.131 243.854 132.983 243.393 132.565L247.906 127.587ZM242.31 127.252L236.919 131.081L240.81 136.56L246.201 132.731L242.31 127.252ZM240.749 131.039C238.753 129.687 236.597 128.528 234.303 127.597L231.776 133.824C233.629 134.576 235.369 135.511 236.98 136.602L240.749 131.039ZM214.832 185.365C228.588 188.819 242.488 180.385 245.906 166.582L239.383 164.967C236.85 175.196 226.579 181.386 216.468 178.848L214.832 185.365ZM245.906 166.582C249.322 152.788 240.99 138.786 227.243 135.335L225.606 141.853C235.725 144.393 241.918 154.73 239.383 164.967L245.906 166.582ZM227.243 135.335C213.486 131.882 199.586 140.316 196.168 154.118L202.691 155.733C205.224 145.504 215.495 139.315 225.606 141.853L227.243 135.335ZM196.168 154.118C192.752 167.912 201.084 181.914 214.832 185.365L216.468 178.848C206.349 176.307 200.156 165.97 202.691 155.733L196.168 154.118Z" fill="#EFF2F5" mask="url(#path-91-outside-1_1305_4900)"/>
<path d="M248.068 161.03C248.068 175.929 236.066 187.998 221.272 187.998C206.478 187.998 194.476 175.929 194.476 161.03C194.476 146.13 206.478 134.061 221.272 134.061C236.066 134.061 248.068 146.13 248.068 161.03Z" stroke="#EFF2F5" stroke-width="1.68"/>
<mask id="path-94-outside-2_1305_4900" maskUnits="userSpaceOnUse" x="97.3981" y="132.499" width="95.9952" height="95.9952" fill="black">
<rect fill="white" x="97.3981" y="132.499" width="95.9952" height="95.9952"/>
<path fill-rule="evenodd" clip-rule="evenodd" d="M167.704 169.111L171.141 165.395C171.401 165.115 171.436 164.636 171.222 164.323L169.588 161.93C169.375 161.617 168.916 161.478 168.563 161.619L163.868 163.494C162.714 162.227 161.446 161.106 160.091 160.135L161.402 155.221C161.5 154.852 161.307 154.414 160.97 154.24L158.4 152.902C158.064 152.727 157.592 152.821 157.345 153.11L154.044 156.99C152.453 156.43 150.807 156.037 149.136 155.816L148.071 150.821C147.992 150.449 147.62 150.148 147.24 150.146L144.336 150.126C143.956 150.123 143.576 150.421 143.487 150.79L142.261 155.88C140.652 156.124 139.055 156.531 137.495 157.105L134.122 153.108C133.877 152.818 133.407 152.728 133.069 152.905L130.486 154.252C130.148 154.429 129.951 154.869 130.045 155.235L131.376 160.405C130.06 161.373 128.867 162.45 127.801 163.614L122.789 161.625C122.437 161.485 121.978 161.627 121.761 161.94L120.104 164.34C119.887 164.654 119.919 165.133 120.175 165.412L123.85 169.412C123.153 170.839 122.597 172.326 122.188 173.849L116.727 174.367C116.348 174.403 116.001 174.737 115.95 175.114L115.557 177.998C115.506 178.375 115.752 178.786 116.106 178.917L121.349 180.851C121.387 182.377 121.567 183.903 121.894 185.411L117.218 188.485C116.899 188.695 116.749 189.152 116.88 189.508L117.884 192.229C118.016 192.585 118.427 192.831 118.803 192.78L124.38 192.015C124.745 192.672 125.143 193.319 125.575 193.952C126.008 194.585 126.465 195.191 126.945 195.77L124.22 200.713C124.036 201.048 124.118 201.52 124.401 201.771L126.567 203.693C126.851 203.945 127.33 203.969 127.639 203.747L132.184 200.48C133.467 201.33 134.821 202.05 136.225 202.636L136.13 208.24C136.124 208.621 136.418 208.998 136.787 209.086L139.608 209.759C139.977 209.847 140.414 209.643 140.583 209.302L143.036 204.379C144.599 204.545 146.181 204.562 147.759 204.424L150.15 209.308C150.317 209.649 150.751 209.851 151.121 209.761L153.949 209.077C154.319 208.987 154.616 208.607 154.613 208.228L154.574 202.821C156.04 202.243 157.472 201.515 158.847 200.633L163.171 203.745C163.479 203.966 163.958 203.939 164.243 203.687L166.428 201.756C166.714 201.504 166.799 201.03 166.619 200.697L164.122 196.098C165.219 194.845 166.174 193.498 166.981 192.081L172.154 192.77C172.531 192.82 172.943 192.572 173.077 192.216L174.108 189.49C174.243 189.134 174.096 188.677 173.78 188.469L169.522 185.669C169.92 184.026 170.149 182.344 170.202 180.653L175 178.964C175.36 178.837 175.615 178.429 175.574 178.052L175.259 175.164C175.218 174.786 174.879 174.447 174.503 174.406L169.462 173.859C169.05 172.24 168.465 170.649 167.704 169.111V169.111ZM131.579 189.739C136.899 197.53 147.551 199.486 155.371 194.108C163.191 188.731 165.219 178.057 159.899 170.267C154.579 162.477 143.927 160.521 136.107 165.898C128.287 171.275 126.26 181.949 131.579 189.739V189.739Z"/>
</mask>
<path fill-rule="evenodd" clip-rule="evenodd" d="M167.704 169.111L171.141 165.395C171.401 165.115 171.436 164.636 171.222 164.323L169.588 161.93C169.375 161.617 168.916 161.478 168.563 161.619L163.868 163.494C162.714 162.227 161.446 161.106 160.091 160.135L161.402 155.221C161.5 154.852 161.307 154.414 160.97 154.24L158.4 152.902C158.064 152.727 157.592 152.821 157.345 153.11L154.044 156.99C152.453 156.43 150.807 156.037 149.136 155.816L148.071 150.821C147.992 150.449 147.62 150.148 147.24 150.146L144.336 150.126C143.956 150.123 143.576 150.421 143.487 150.79L142.261 155.88C140.652 156.124 139.055 156.531 137.495 157.105L134.122 153.108C133.877 152.818 133.407 152.728 133.069 152.905L130.486 154.252C130.148 154.429 129.951 154.869 130.045 155.235L131.376 160.405C130.06 161.373 128.867 162.45 127.801 163.614L122.789 161.625C122.437 161.485 121.978 161.627 121.761 161.94L120.104 164.34C119.887 164.654 119.919 165.133 120.175 165.412L123.85 169.412C123.153 170.839 122.597 172.326 122.188 173.849L116.727 174.367C116.348 174.403 116.001 174.737 115.95 175.114L115.557 177.998C115.506 178.375 115.752 178.786 116.106 178.917L121.349 180.851C121.387 182.377 121.567 183.903 121.894 185.411L117.218 188.485C116.899 188.695 116.749 189.152 116.88 189.508L117.884 192.229C118.016 192.585 118.427 192.831 118.803 192.78L124.38 192.015C124.745 192.672 125.143 193.319 125.575 193.952C126.008 194.585 126.465 195.191 126.945 195.77L124.22 200.713C124.036 201.048 124.118 201.52 124.401 201.771L126.567 203.693C126.851 203.945 127.33 203.969 127.639 203.747L132.184 200.48C133.467 201.33 134.821 202.05 136.225 202.636L136.13 208.24C136.124 208.621 136.418 208.998 136.787 209.086L139.608 209.759C139.977 209.847 140.414 209.643 140.583 209.302L143.036 204.379C144.599 204.545 146.181 204.562 147.759 204.424L150.15 209.308C150.317 209.649 150.751 209.851 151.121 209.761L153.949 209.077C154.319 208.987 154.616 208.607 154.613 208.228L154.574 202.821C156.04 202.243 157.472 201.515 158.847 200.633L163.171 203.745C163.479 203.966 163.958 203.939 164.243 203.687L166.428 201.756C166.714 201.504 166.799 201.03 166.619 200.697L164.122 196.098C165.219 194.845 166.174 193.498 166.981 192.081L172.154 192.77C172.531 192.82 172.943 192.572 173.077 192.216L174.108 189.49C174.243 189.134 174.096 188.677 173.78 188.469L169.522 185.669C169.92 184.026 170.149 182.344 170.202 180.653L175 178.964C175.36 178.837 175.615 178.429 175.574 178.052L175.259 175.164C175.218 174.786 174.879 174.447 174.503 174.406L169.462 173.859C169.05 172.24 168.465 170.649 167.704 169.111V169.111ZM131.579 189.739C136.899 197.53 147.551 199.486 155.371 194.108C163.191 188.731 165.219 178.057 159.899 170.267C154.579 162.477 143.927 160.521 136.107 165.898C128.287 171.275 126.26 181.949 131.579 189.739V189.739Z" fill="#F4FBFF"/>
<path d="M171.141 165.395L173.608 167.677L173.608 167.677L171.141 165.395ZM171.222 164.323L168.447 166.218L168.447 166.218L171.222 164.323ZM169.588 161.93L172.363 160.036L172.363 160.036L169.588 161.93ZM168.563 161.619L167.316 158.499L167.316 158.499L168.563 161.619ZM163.868 163.494L161.384 165.757L162.952 167.478L165.115 166.615L163.868 163.494ZM160.091 160.135L156.844 159.269L156.246 161.514L158.135 162.867L160.091 160.135ZM161.402 155.221L164.648 156.087L164.648 156.087L161.402 155.221ZM160.97 154.24L162.521 151.259L162.521 151.259L160.97 154.24ZM158.4 152.902L156.849 155.883L156.849 155.883L158.4 152.902ZM157.345 153.11L154.786 150.933L154.786 150.933L157.345 153.11ZM154.044 156.99L152.929 160.16L155.107 160.926L156.603 159.168L154.044 156.99ZM149.136 155.816L145.85 156.516L146.345 158.836L148.695 159.147L149.136 155.816ZM148.071 150.821L144.785 151.521L148.071 150.821ZM147.24 150.146L147.218 153.505L147.218 153.505L147.24 150.146ZM144.336 150.126L144.358 146.766L144.336 150.126ZM143.487 150.79L140.22 150.003L143.487 150.79ZM142.261 155.88L142.764 159.202L144.998 158.863L145.527 156.667L142.261 155.88ZM137.495 157.105L134.928 159.272L136.447 161.071L138.656 160.258L137.495 157.105ZM134.122 153.108L131.554 155.276L131.554 155.276L134.122 153.108ZM133.069 152.905L134.623 155.884L134.623 155.884L133.069 152.905ZM130.486 154.252L128.932 151.273L128.932 151.273L130.486 154.252ZM130.045 155.235L126.791 156.073L130.045 155.235ZM131.376 160.405L133.368 163.11L135.195 161.765L134.63 159.567L131.376 160.405ZM127.801 163.614L126.561 166.737L128.714 167.592L130.278 165.884L127.801 163.614ZM122.789 161.625L121.55 164.748L122.789 161.625ZM121.761 161.94L124.526 163.85L124.526 163.85L121.761 161.94ZM120.104 164.34L117.339 162.431L117.339 162.431L120.104 164.34ZM120.175 165.412L122.649 163.138L120.175 165.412ZM123.85 169.412L126.869 170.888L127.876 168.828L126.325 167.139L123.85 169.412ZM122.188 173.849L122.506 177.194L124.828 176.973L125.433 174.721L122.188 173.849ZM116.727 174.367L116.409 171.022L116.409 171.022L116.727 174.367ZM115.95 175.114L112.621 174.661L112.621 174.661L115.95 175.114ZM115.557 177.998L118.886 178.451L118.886 178.451L115.557 177.998ZM116.106 178.917L117.269 175.765L117.269 175.765L116.106 178.917ZM121.349 180.851L124.708 180.769L124.652 178.489L122.512 177.699L121.349 180.851ZM121.894 185.411L123.74 188.218L125.666 186.952L125.177 184.699L121.894 185.411ZM117.218 188.485L115.372 185.678L115.372 185.678L117.218 188.485ZM116.88 189.508L120.032 188.344L120.032 188.344L116.88 189.508ZM117.884 192.229L114.732 193.392L114.732 193.392L117.884 192.229ZM118.803 192.78L118.346 189.451L118.803 192.78ZM124.38 192.015L127.318 190.385L126.203 188.373L123.923 188.686L124.38 192.015ZM125.575 193.952L122.801 195.847L125.575 193.952ZM126.945 195.77L129.887 197.392L130.992 195.388L129.532 193.626L126.945 195.77ZM124.22 200.713L127.163 202.335L127.163 202.335L124.22 200.713ZM124.401 201.771L126.631 199.258L124.401 201.771ZM126.567 203.693L124.337 206.207L126.567 203.693ZM127.639 203.747L125.679 201.018L125.679 201.018L127.639 203.747ZM132.184 200.48L134.04 197.679L132.107 196.399L130.224 197.752L132.184 200.48ZM136.225 202.636L139.585 202.693L139.623 200.413L137.519 199.535L136.225 202.636ZM136.13 208.24L132.771 208.183L132.771 208.183L136.13 208.24ZM136.787 209.086L136.007 212.355L136.007 212.355L136.787 209.086ZM139.608 209.759L140.388 206.491L140.388 206.491L139.608 209.759ZM140.583 209.302L137.576 207.804L137.576 207.804L140.583 209.302ZM143.036 204.379L143.393 201.037L141.07 200.79L140.029 202.88L143.036 204.379ZM147.759 204.424L150.777 202.947L149.763 200.876L147.467 201.077L147.759 204.424ZM150.15 209.308L153.168 207.831L153.168 207.831L150.15 209.308ZM151.121 209.761L150.331 206.495L150.331 206.495L151.121 209.761ZM153.949 209.077L154.739 212.342L154.739 212.342L153.949 209.077ZM154.613 208.228L157.973 208.203L157.973 208.203L154.613 208.228ZM154.574 202.821L153.342 199.694L151.197 200.539L151.214 202.845L154.574 202.821ZM158.847 200.633L160.809 197.906L158.956 196.572L157.033 197.805L158.847 200.633ZM163.171 203.745L165.133 201.017L165.133 201.017L163.171 203.745ZM164.243 203.687L162.018 201.169L162.018 201.169L164.243 203.687ZM166.428 201.756L168.653 204.274L168.653 204.274L166.428 201.756ZM166.619 200.697L163.666 202.3L163.666 202.3L166.619 200.697ZM164.122 196.098L161.595 193.884L160.053 195.644L161.169 197.7L164.122 196.098ZM166.981 192.081L167.425 188.75L165.182 188.451L164.061 190.417L166.981 192.081ZM172.154 192.77L172.598 189.44L172.598 189.44L172.154 192.77ZM173.077 192.216L176.22 193.404L176.22 193.404L173.077 192.216ZM174.108 189.49L170.965 188.302L170.965 188.302L174.108 189.49ZM173.78 188.469L175.626 185.662L175.626 185.662L173.78 188.469ZM169.522 185.669L166.257 184.879L165.701 187.178L167.676 188.477L169.522 185.669ZM170.202 180.653L169.087 177.483L166.917 178.247L166.844 180.546L170.202 180.653ZM175 178.964L176.116 182.133L176.116 182.133L175 178.964ZM175.574 178.052L178.914 177.687L178.914 177.687L175.574 178.052ZM175.259 175.164L171.919 175.528L171.919 175.528L175.259 175.164ZM174.503 174.406L174.866 171.066L174.866 171.066L174.503 174.406ZM169.462 173.859L166.206 174.689L166.782 176.947L169.099 177.199L169.462 173.859ZM170.171 171.393L173.608 167.677L168.675 163.114L165.237 166.83L170.171 171.393ZM173.608 167.677C174.927 166.25 175.097 164.04 173.997 162.428L168.447 166.218C168.064 165.656 167.975 165.071 168.009 164.621C168.042 164.169 168.217 163.608 168.675 163.114L173.608 167.677ZM173.997 162.428L172.363 160.036L166.814 163.825L168.447 166.218L173.997 162.428ZM172.363 160.036C171.258 158.417 169.125 157.776 167.316 158.499L169.809 164.739C169.178 164.991 168.587 164.952 168.152 164.82C167.717 164.688 167.2 164.391 166.814 163.825L172.363 160.036ZM167.316 158.499L162.622 160.374L165.115 166.615L169.809 164.739L167.316 158.499ZM166.352 161.232C165.037 159.788 163.592 158.51 162.047 157.404L158.135 162.867C159.3 163.702 160.391 164.666 161.384 165.757L166.352 161.232ZM163.338 161.001L164.648 156.087L158.155 154.355L156.844 159.269L163.338 161.001ZM164.648 156.087C165.151 154.2 164.256 152.162 162.521 151.259L159.42 157.22C158.815 156.906 158.458 156.43 158.274 156.011C158.089 155.592 157.981 155.009 158.155 154.355L164.648 156.087ZM162.521 151.259L159.951 149.922L156.849 155.883L159.42 157.22L162.521 151.259ZM159.951 149.922C158.217 149.019 156.042 149.457 154.786 150.933L159.904 155.288C159.466 155.802 158.93 156.042 158.489 156.129C158.049 156.215 157.457 156.199 156.849 155.883L159.951 149.922ZM154.786 150.933L151.485 154.813L156.603 159.168L159.904 155.288L154.786 150.933ZM155.16 153.821C153.349 153.183 151.477 152.736 149.577 152.485L148.695 159.147C150.137 159.337 151.557 159.677 152.929 160.16L155.16 153.821ZM152.422 155.115L151.357 150.12L144.785 151.521L145.85 156.516L152.422 155.115ZM151.357 150.12C150.947 148.196 149.21 146.799 147.263 146.786L147.218 153.505C146.541 153.501 146.008 153.243 145.651 152.953C145.293 152.663 144.928 152.19 144.785 151.521L151.357 150.12ZM147.263 146.786L144.358 146.766L144.313 153.486L147.218 153.505L147.263 146.786ZM144.358 146.766C142.417 146.753 140.675 148.116 140.22 150.003L146.753 151.577C146.595 152.236 146.223 152.691 145.873 152.965C145.522 153.239 144.992 153.49 144.313 153.486L144.358 146.766ZM140.22 150.003L138.994 155.093L145.527 156.667L146.753 151.577L140.22 150.003ZM141.757 152.558C139.926 152.835 138.109 153.298 136.335 153.952L138.656 160.258C140.001 159.763 141.377 159.412 142.764 159.202L141.757 152.558ZM140.063 154.938L136.689 150.941L131.554 155.276L134.928 159.272L140.063 154.938ZM136.689 150.941C135.416 149.432 133.227 149.032 131.515 149.926L134.623 155.884C134.029 156.193 133.443 156.217 132.994 156.131C132.545 156.044 131.998 155.801 131.554 155.276L136.689 150.941ZM131.515 149.926L128.932 151.273L132.04 157.231L134.623 155.884L131.515 149.926ZM128.932 151.273C127.221 152.166 126.304 154.18 126.791 156.073L133.299 154.398C133.47 155.061 133.352 155.64 133.169 156.047C132.987 156.454 132.636 156.92 132.04 157.231L128.932 151.273ZM126.791 156.073L128.122 161.242L134.63 159.567L133.299 154.398L126.791 156.073ZM129.384 157.699C127.891 158.798 126.536 160.021 125.323 161.344L130.278 165.884C131.198 164.879 132.229 163.949 133.368 163.11L129.384 157.699ZM129.04 160.491L124.029 158.502L121.55 164.748L126.561 166.737L129.04 160.491ZM124.029 158.502C122.201 157.776 120.089 158.448 118.996 160.031L124.526 163.85C124.146 164.399 123.643 164.692 123.211 164.824C122.78 164.957 122.187 165.001 121.55 164.748L124.029 158.502ZM118.996 160.031L117.339 162.431L122.869 166.249L124.526 163.85L118.996 160.031ZM117.339 162.431C116.243 164.018 116.369 166.236 117.7 167.685L122.649 163.138C123.116 163.646 123.285 164.219 123.315 164.668C123.345 165.119 123.251 165.696 122.869 166.249L117.339 162.431ZM117.7 167.685L121.376 171.686L126.325 167.139L122.649 163.138L117.7 167.685ZM120.832 167.937C120.039 169.558 119.408 171.247 118.943 172.977L125.433 174.721C125.787 173.405 126.267 172.12 126.869 170.888L120.832 167.937ZM121.871 170.504L116.409 171.022L117.044 177.712L122.506 177.194L121.871 170.504ZM116.409 171.022C114.466 171.206 112.881 172.749 112.621 174.661L119.279 175.568C119.189 176.233 118.87 176.721 118.547 177.032C118.224 177.343 117.72 177.648 117.044 177.712L116.409 171.022ZM112.621 174.661L112.228 177.544L118.886 178.451L119.279 175.568L112.621 174.661ZM112.228 177.544C111.966 179.468 113.097 181.388 114.943 182.069L117.269 175.765C117.916 176.003 118.33 176.435 118.564 176.826C118.798 177.218 118.978 177.781 118.886 178.451L112.228 177.544ZM114.943 182.069L120.186 184.004L122.512 177.699L117.269 175.765L114.943 182.069ZM117.99 180.934C118.033 182.669 118.238 184.406 118.61 186.123L125.177 184.699C124.896 183.401 124.741 182.085 124.708 180.769L117.99 180.934ZM120.048 182.603L115.372 185.678L119.064 191.293L123.74 188.218L120.048 182.603ZM115.372 185.678C113.749 186.745 113.055 188.847 113.728 190.671L120.032 188.344C120.267 188.98 120.212 189.566 120.071 189.993C119.93 190.421 119.627 190.922 119.064 191.293L115.372 185.678ZM113.728 190.671L114.732 193.392L121.037 191.065L120.032 188.344L113.728 190.671ZM114.732 193.392C115.41 195.227 117.322 196.374 119.259 196.108L118.346 189.451C119.023 189.358 119.589 189.541 119.98 189.776C120.372 190.011 120.8 190.424 121.037 191.065L114.732 193.392ZM119.259 196.108L124.837 195.343L123.923 188.686L118.346 189.451L119.259 196.108ZM121.442 193.644C121.857 194.393 122.31 195.128 122.801 195.847L128.35 192.057C127.977 191.51 127.633 190.952 127.318 190.385L121.442 193.644ZM122.801 195.847C123.292 196.566 123.811 197.255 124.357 197.914L129.532 193.626C129.118 193.127 128.724 192.604 128.35 192.057L122.801 195.847ZM124.002 194.148L121.278 199.092L127.163 202.335L129.887 197.392L124.002 194.148ZM121.278 199.092C120.338 200.796 120.708 202.987 122.171 204.285L126.631 199.258C127.141 199.71 127.37 200.258 127.447 200.706C127.524 201.156 127.489 201.744 127.163 202.335L121.278 199.092ZM122.171 204.285L124.337 206.207L128.797 201.18L126.631 199.258L122.171 204.285ZM124.337 206.207C125.803 207.507 128.024 207.608 129.6 206.475L125.679 201.018C126.228 200.623 126.808 200.519 127.26 200.542C127.712 200.564 128.284 200.725 128.797 201.18L124.337 206.207ZM129.6 206.475L134.145 203.209L130.224 197.752L125.679 201.018L129.6 206.475ZM130.329 203.282C131.791 204.25 133.333 205.07 134.932 205.737L137.519 199.535C136.309 199.03 135.144 198.411 134.04 197.679L130.329 203.282ZM132.866 202.579L132.771 208.183L139.49 208.297L139.585 202.693L132.866 202.579ZM132.771 208.183C132.738 210.144 134.108 211.902 136.007 212.355L137.566 205.818C138.227 205.976 138.689 206.349 138.971 206.712C139.254 207.075 139.501 207.617 139.49 208.297L132.771 208.183ZM136.007 212.355L138.829 213.028L140.388 206.491L137.566 205.818L136.007 212.355ZM138.829 213.028C140.724 213.48 142.727 212.535 143.59 210.801L137.576 207.804C137.877 207.199 138.34 206.839 138.745 206.649C139.149 206.46 139.725 206.333 140.388 206.491L138.829 213.028ZM143.59 210.801L146.044 205.877L140.029 202.88L137.576 207.804L143.59 210.801ZM142.68 207.72C144.457 207.909 146.256 207.928 148.051 207.771L147.467 201.077C146.106 201.196 144.741 201.181 143.393 201.037L142.68 207.72ZM144.741 205.902L147.133 210.786L153.168 207.831L150.777 202.947L144.741 205.902ZM147.133 210.786C148 212.558 150.027 213.483 151.911 213.027L150.331 206.495C150.985 206.337 151.562 206.456 151.979 206.65C152.395 206.844 152.866 207.214 153.168 207.831L147.133 210.786ZM151.911 213.027L154.739 212.342L153.159 205.811L150.331 206.495L151.911 213.027ZM154.739 212.342C156.619 211.888 157.988 210.15 157.973 208.203L151.253 208.253C151.248 207.571 151.501 207.04 151.775 206.69C152.049 206.339 152.502 205.97 153.159 205.811L154.739 212.342ZM157.973 208.203L157.934 202.796L151.214 202.845L151.253 208.253L157.973 208.203ZM155.805 205.947C157.474 205.29 159.1 204.462 160.66 203.462L157.033 197.805C155.843 198.568 154.607 199.196 153.342 199.694L155.805 205.947ZM156.884 203.361L161.208 206.472L165.133 201.017L160.809 197.906L156.884 203.361ZM161.208 206.472C162.809 207.624 165.025 207.48 166.468 206.205L162.018 201.169C162.519 200.727 163.079 200.563 163.533 200.538C163.987 200.514 164.575 200.616 165.133 201.017L161.208 206.472ZM166.468 206.205L168.653 204.274L164.203 199.238L162.018 201.169L166.468 206.205ZM168.653 204.274C170.098 202.997 170.508 200.819 169.572 199.095L163.666 202.3C163.338 201.695 163.312 201.101 163.392 200.661C163.471 200.22 163.7 199.683 164.203 199.238L168.653 204.274ZM169.572 199.095L167.076 194.495L161.169 197.7L163.666 202.3L169.572 199.095ZM166.65 198.311C167.897 196.887 168.983 195.355 169.9 193.744L164.061 190.417C163.364 191.641 162.541 192.803 161.595 193.884L166.65 198.311ZM166.537 195.411L171.71 196.101L172.598 189.44L167.425 188.75L166.537 195.411ZM171.71 196.101C173.652 196.36 175.539 195.205 176.22 193.404L169.935 191.027C170.171 190.402 170.59 189.997 170.975 189.766C171.36 189.535 171.921 189.349 172.598 189.44L171.71 196.101ZM176.22 193.404L177.251 190.678L170.965 188.302L169.935 191.027L176.22 193.404ZM177.251 190.678C177.935 188.868 177.272 186.744 175.626 185.662L171.934 191.277C171.357 190.897 171.052 190.382 170.914 189.951C170.775 189.518 170.727 188.932 170.965 188.302L177.251 190.678ZM175.626 185.662L171.369 182.862L167.676 188.477L171.934 191.277L175.626 185.662ZM172.788 186.46C173.24 184.593 173.5 182.682 173.561 180.759L166.844 180.546C166.798 182.006 166.6 183.459 166.257 184.879L172.788 186.46ZM171.318 183.822L176.116 182.133L173.884 175.794L169.087 177.483L171.318 183.822ZM176.116 182.133C177.951 181.487 179.124 179.613 178.914 177.687L172.234 178.416C172.161 177.746 172.354 177.193 172.593 176.814C172.831 176.434 173.247 176.019 173.884 175.794L176.116 182.133ZM178.914 177.687L178.599 174.799L171.919 175.528L172.234 178.416L178.914 177.687ZM178.599 174.799C178.388 172.861 176.817 171.278 174.866 171.066L174.14 177.746C173.458 177.672 172.951 177.355 172.628 177.032C172.305 176.709 171.993 176.204 171.919 175.528L178.599 174.799ZM174.866 171.066L169.825 170.518L169.099 177.199L174.14 177.746L174.866 171.066ZM172.718 173.028C172.248 171.185 171.582 169.372 170.715 167.621L164.693 170.602C165.348 171.926 165.851 173.296 166.206 174.689L172.718 173.028ZM128.805 191.634C135.184 200.976 147.938 203.297 157.275 196.877L153.467 191.34C147.164 195.674 138.614 194.083 134.354 187.845L128.805 191.634ZM157.275 196.877C166.605 190.462 169.048 177.707 162.674 168.372L157.124 172.162C161.389 178.407 159.778 187.001 153.467 191.34L157.275 196.877ZM162.674 168.372C156.294 159.03 143.54 156.709 134.203 163.129L138.011 168.666C144.314 164.332 152.864 165.923 157.124 172.162L162.674 168.372ZM134.203 163.129C124.873 169.545 122.43 182.299 128.805 191.634L134.354 187.845C130.089 181.599 131.7 173.005 138.011 168.666L134.203 163.129Z" fill="#EFF2F5" mask="url(#path-94-outside-2_1305_4900)"/>
<path d="M160.749 194.017C153.239 202.482 140.339 203.288 131.936 195.833C123.533 188.378 122.797 175.473 130.307 167.008C137.817 158.543 150.718 157.737 159.12 165.192C167.523 172.647 168.259 185.552 160.749 194.017Z" stroke="#EFF2F5" stroke-width="1.68"/>
</g>
<defs>
<filter id="filter0_d_1305_4900" x="0" y="0" width="238" height="175" filterUnits="userSpaceOnUse" color-interpolation-filters="sRGB">
<feFlood flood-opacity="0" result="BackgroundImageFix"/>
<feColorMatrix in="SourceAlpha" type="matrix" values="0 0 0 0 0 0 0 0 0 0 0 0 0 0 0 0 0 0 127 0" result="hardAlpha"/>
<feOffset dy="1"/>
<feGaussianBlur stdDeviation="1.5"/>
<feColorMatrix type="matrix" values="0 0 0 0 0.333333 0 0 0 0 0.352941 0 0 0 0 0.384314 0 0 0 0.30466 0"/>
<feBlend mode="normal" in2="BackgroundImageFix" result="effect1_dropShadow_1305_4900"/>
<feBlend mode="normal" in="SourceGraphic" in2="effect1_dropShadow_1305_4900" result="shape"/>
</filter>
<filter id="filter1_d_1305_4900" x="0" y="0" width="238" height="175" filterUnits="userSpaceOnUse" color-interpolation-filters="sRGB">
<feFlood flood-opacity="0" result="BackgroundImageFix"/>
<feColorMatrix in="SourceAlpha" type="matrix" values="0 0 0 0 0 0 0 0 0 0 0 0 0 0 0 0 0 0 127 0" result="hardAlpha"/>
<feOffset dy="1"/>
<feGaussianBlur stdDeviation="1.5"/>
<feColorMatrix type="matrix" values="0 0 0 0 0.333333 0 0 0 0 0.352941 0 0 0 0 0.384314 0 0 0 0.30466 0"/>
<feBlend mode="normal" in2="BackgroundImageFix" result="effect1_dropShadow_1305_4900"/>
<feBlend mode="normal" in="SourceGraphic" in2="effect1_dropShadow_1305_4900" result="shape"/>
</filter>
<clipPath id="clip0_1305_4900">
<rect width="232" height="169" fill="white" transform="translate(3 2)"/>
</clipPath>
<clipPath id="clip1_1305_4900">
<rect width="60" height="7" fill="white" transform="translate(43 35)"/>
</clipPath>
</defs>
</svg>
