<svg width="232px" height="168px" viewBox="0 0 232 168" version="1.1" xmlns="http://www.w3.org/2000/svg" xmlns:xlink="http://www.w3.org/1999/xlink">
    <g id="Page-1" stroke="none" stroke-width="1" fill="none" fill-rule="evenodd">
        <g id="Group-2">
            <g id="Group" fill-rule="nonzero">
                <g id="4s25ft4zob-link" fill="#000000">
                    <rect id="4s25ft4zob" x="0" y="0" width="232" height="168" rx="1.497"></rect>
                </g>
                <g id="4s25ft4zob-link" fill="#FFFFFF">
                    <rect id="4s25ft4zob" x="0" y="0" width="232" height="168" rx="1.497"></rect>
                </g>
            </g>
            <g id="Group" transform="translate(5.987000, 3.733000)" fill="#D8D8D8" fill-rule="nonzero">
                <ellipse id="Oval" cx="1.31" cy="1.307" rx="1.31" ry="1.307"></ellipse>
                <ellipse id="Oval" cx="6.174" cy="1.307" rx="1.31" ry="1.307"></ellipse>
                <ellipse id="Oval" cx="11.039" cy="1.307" rx="1.31" ry="1.307"></ellipse>
            </g>
            <g id="Group" transform="translate(0.000000, 9.000000)" fill-rule="nonzero">
                <polygon id="Path" fill="#0291DB" points="0 0.707 232 0.707 232 46.254 0 46.254"></polygon>
                <polygon id="Path" fill="#555A62" points="0 0.707 232 0.707 232 8.174 0 8.174"></polygon>
                <path d="M36.671,3.694 L48.645,3.694 L48.645,5.187 L36.671,5.187 L36.671,3.694 Z M54.632,3.694 L66.606,3.694 L66.606,5.187 L54.632,5.187 L54.632,3.694 Z M74.839,21.614 L157.162,21.614 L157.162,24.601 L74.839,24.601 L74.839,21.614 Z" id="Shape" fill="#FFFFFF"></path>
                <g transform="translate(62.000000, 32.000000)" id="Path">
                    <g fill="#FFFFFF">
                        <path d="M0.116,1.786 C0.116,1.249 0.538,0.814 1.082,0.814 L90.23,0.814 L90.23,7.211 L1.082,7.211 C0.549,7.211 0.116,6.771 0.116,6.24 L0.116,1.786 Z"></path>
                    </g>
                    <path d="M90.316,1.064 L106.899,1.064 C107.095,1.064 107.273,1.144 107.402,1.273 C107.532,1.401 107.611,1.579 107.611,1.776 L107.611,1.776 L107.611,6.251 C107.611,6.447 107.531,6.625 107.402,6.754 C107.273,6.883 107.095,6.963 106.899,6.963 L106.899,6.963 L90.316,6.963 L90.316,1.064 Z" stroke="#FFFFFF" stroke-width="0.5" fill-opacity="0.1" fill="#000000"></path>
                    <polygon fill="#FFFFFF" points="93.664 3.427 104.141 3.427 104.141 4.92 93.664 4.92"></polygon>
                </g>
                <polygon id="Path" fill="#FFFFFF" points="19.458 3.694 31.432 3.694 31.432 5.187 19.458 5.187"></polygon>
            </g>
            <path d="M30.684,85.12 L50.142,85.12 L50.142,88.107 L30.684,88.107 L30.684,85.12 Z M20.206,70.934 L39.664,70.934 L39.664,73.921 L20.206,73.921 L20.206,70.934 Z M181.858,132.907 L198.323,132.907 L198.323,135.894 L181.858,135.894 L181.858,132.907 Z M30.684,91.094 L83.071,91.094 L83.071,92.587 L30.684,92.587 L30.684,91.094 Z M98.787,91.094 L121.239,91.094 L121.239,92.587 L98.787,92.587 L98.787,91.094 Z M98.787,147.094 L121.239,147.094 L121.239,148.587 L98.787,148.587 L98.787,147.094 Z M96.542,109.76 L118.994,109.76 L118.994,111.253 L96.542,111.253 L96.542,109.76 Z M181.858,77.654 L209.548,77.654 L209.548,80.641 L181.858,80.641 L181.858,77.654 Z" id="Shape" fill="#ADB2BB" fill-rule="nonzero"></path>
            <line x1="19.832" y1="79.52" x2="162.774" y2="79.52" id="Path" stroke="#ADB2BB" stroke-width="0.5" stroke-linecap="square"></line>
            <path d="M30.684,141.12 L50.142,141.12 L50.142,144.107 L30.684,144.107 L30.684,141.12 Z M30.684,147.094 L83.071,147.094 L83.071,148.587 L30.684,148.587 L30.684,147.094 Z" id="Shape" fill="#ADB2BB" fill-rule="nonzero"></path>
            <line x1="19.832" y1="135.52" x2="162.774" y2="135.52" id="Path" stroke="#ADB2BB" stroke-width="0.5" stroke-linecap="square"></line>
            <path d="M30.684,103.787 L50.142,103.787 L50.142,106.774 L30.684,106.774 L30.684,103.787 Z M30.684,109.76 L60.619,109.76 L60.619,111.253 L30.684,111.253 L30.684,109.76 Z M63.613,109.76 L93.548,109.76 L93.548,111.253 L63.613,111.253 L63.613,109.76 Z" id="Shape" fill="#ADB2BB" fill-rule="nonzero"></path>
            <line x1="19.832" y1="98.187" x2="162.774" y2="98.187" id="Path" stroke="#ADB2BB" stroke-width="0.5" stroke-linecap="square"></line>
            <path d="M30.684,122.454 L50.142,122.454 L50.142,125.441 L30.684,125.441 L30.684,122.454 Z M30.684,128.427 L91.303,128.427 L91.303,129.92 L30.684,129.92 L30.684,128.427 Z" id="Shape" fill="#ADB2BB" fill-rule="nonzero"></path>
            <line x1="19.832" y1="116.854" x2="162.774" y2="116.854" id="Path" stroke="#ADB2BB" stroke-width="0.5" stroke-linecap="square"></line>
            <rect id="Rectangle" stroke="#979797" stroke-width="0.5" x="181.858" y="138.88" width="9.729" height="2.987" rx="0.748"></rect>
            <rect id="Rectangle" stroke="#979797" stroke-width="0.5" x="86.064" y="90.347" width="9.729" height="2.987" rx="0.748"></rect>
            <g id="Group" transform="translate(120.116000, 67.947000)" stroke="#ADB2BB" stroke-width="0.5">
                <rect id="Rectangle" x="0.374" y="0" width="41.91" height="5.973" rx="0.748"></rect>
                <path d="M7.858,0.149 L7.858,5.899 M16.839,0.149 L16.839,5.899 M25.819,0.149 L25.819,5.899 M34.8,0.149 L34.8,5.899" id="Shape" stroke-linecap="square"></path>
            </g>
            <rect id="Rectangle" stroke="#979797" stroke-width="0.5" x="86.064" y="146.347" width="9.729" height="2.987" rx="0.748"></rect>
            <rect id="Rectangle" stroke="#979797" stroke-width="0.5" x="193.084" y="138.88" width="9.729" height="2.987" rx="0.748"></rect>
            <rect id="Rectangle" stroke="#979797" stroke-width="0.5" x="204.31" y="138.88" width="8.232" height="2.987" rx="0.748"></rect>
            <rect id="Rectangle" stroke="#979797" stroke-width="0.5" x="197.574" y="143.36" width="8.232" height="2.987" rx="0.748"></rect>
            <rect id="Rectangle" stroke="#979797" stroke-width="0.5" x="181.858" y="143.36" width="14.219" height="2.987" rx="0.748"></rect>
            <g id="Group" transform="translate(177.458000, 63.947000)" fill-rule="nonzero">
                <g id="1oq5c86oxd-link" transform="translate(0.542000, 0.053000)" fill="#000000">
                    <rect id="1oq5c86oxd" x="0.289" y="0.2526875" width="42.658" height="12.5376875" rx="1.347"></rect>
                </g>
                <g id="1oq5c86oxd-link" transform="translate(0.542000, 0.053000)" fill="#FFFFFF" stroke="#0291DB" stroke-width="0.674">
                    <rect id="1oq5c86oxd" x="0.289" y="0.2526875" width="42.658" height="12.5376875" rx="1.347"></rect>
                </g>
            </g>
            <g id="Rectangle-2" transform="translate(181.110000, 67.947000)" fill="#0291DB" fill-rule="nonzero">
                <rect id="Rectangle" x="-7.10542736e-15" y="6.66133815e-15" width="37.419" height="5.973" rx="1.497"></rect>
            </g>
            <path d="M181.858,86.614 L214.039,86.614 L214.039,88.107 L181.858,88.107 L181.858,86.614 Z M181.858,91.094 L200.568,91.094 L200.568,92.587 L181.858,92.587 L181.858,91.094 Z M181.858,95.574 L209.548,95.574 L209.548,97.067 L181.858,97.067 L181.858,95.574 Z M181.858,100.054 L217.781,100.054 L217.781,101.547 L181.858,101.547 L181.858,100.054 Z M181.858,104.534 L206.555,104.534 L206.555,106.027 L181.858,106.027 L181.858,104.534 Z M181.858,109.014 L205.806,109.014 L205.806,110.507 L181.858,110.507 L181.858,109.014 Z M181.858,113.494 L210.297,113.494 L210.297,114.987 L181.858,114.987 L181.858,113.494 Z M181.858,117.974 L205.806,117.974 L205.806,119.467 L181.858,119.467 L181.858,117.974 Z M181.858,122.454 L208.8,122.454 L208.8,123.947 L181.858,123.947 L181.858,122.454 Z" id="Shape" fill="#ADB2BB" fill-rule="nonzero"></path>
            <g id="Group" transform="translate(152.420000, 82.627000)" fill="#ADB2BB" fill-rule="nonzero">
                <circle id="Oval" cx="1.748" cy="1.747" r="1"></circle>
                <circle id="Oval" cx="4.742" cy="1.747" r="1"></circle>
                <circle id="Oval" cx="7.735" cy="1.747" r="1"></circle>
            </g>
            <g id="Group" transform="translate(152.420000, 101.293000)" fill="#ADB2BB" fill-rule="nonzero">
                <circle id="Oval" cx="1.748" cy="1.747" r="1"></circle>
                <circle id="Oval" cx="4.742" cy="1.747" r="1"></circle>
                <circle id="Oval" cx="7.735" cy="1.747" r="1"></circle>
            </g>
            <g id="Group" transform="translate(152.420000, 119.960000)" fill="#ADB2BB" fill-rule="nonzero">
                <circle id="Oval" cx="1.748" cy="1.747" r="1"></circle>
                <circle id="Oval" cx="4.742" cy="1.747" r="1"></circle>
                <circle id="Oval" cx="7.735" cy="1.747" r="1"></circle>
            </g>
            <g id="Group" transform="translate(152.420000, 138.627000)" fill="#ADB2BB" fill-rule="nonzero">
                <circle id="Oval" cx="1.748" cy="1.747" r="1"></circle>
                <circle id="Oval" cx="4.742" cy="1.747" r="1"></circle>
                <circle id="Oval" cx="7.735" cy="1.747" r="1"></circle>
            </g>
            <g id="Group" opacity="0.524" transform="translate(20.000000, 140.000000)" fill="#777A80" fill-rule="nonzero">
                <path d="M4.322,0.756 C6.217,0.756 7.752,2.239 7.752,4.07 C7.752,5.9 6.217,7.384 4.322,7.384 C2.428,7.384 0.892,5.9 0.892,4.07 C0.892,2.24 2.428,0.756 4.322,0.756 Z M5.366,5.828 C5.044,5.978 4.689,6.058 4.323,6.058 C3.957,6.058 3.603,5.978 3.28,5.828 C3.011,5.938 2.785,6.127 2.634,6.366 C3.121,6.702 3.707,6.886 4.324,6.886 C4.939,6.886 5.524,6.702 6.012,6.366 C5.862,6.126 5.635,5.937 5.366,5.828 L5.366,5.828 Z M4.322,1.253 C2.712,1.253 1.407,2.514 1.407,4.07 C1.407,4.837 1.724,5.533 2.239,6.04 C2.492,5.674 2.878,5.403 3.329,5.289 C3.618,5.461 3.958,5.561 4.322,5.561 C4.686,5.561 5.026,5.461 5.315,5.289 C5.767,5.403 6.152,5.674 6.405,6.041 C6.92,5.533 7.238,4.837 7.238,4.07 C7.238,2.514 5.932,1.253 4.322,1.253 Z M4.322,2.413 C5.08,2.413 5.694,3.006 5.694,3.738 C5.694,4.47 5.08,5.064 4.322,5.064 C3.564,5.064 2.95,4.47 2.95,3.738 C2.95,3.006 3.564,2.413 4.322,2.413 Z M4.322,2.91 C3.849,2.91 3.465,3.28 3.465,3.738 C3.465,4.196 3.849,4.567 4.322,4.567 C4.796,4.567 5.18,4.196 5.18,3.738 C5.18,3.281 4.796,2.91 4.322,2.91 Z" id="Shape"></path>
            </g>
            <g id="Group" opacity="0.524" transform="translate(20.000000, 121.000000)" fill="#777A80" fill-rule="nonzero">
                <path d="M4.322,0.866 C6.217,0.866 7.752,2.349 7.752,4.18 C7.752,6.01 6.217,7.494 4.322,7.494 C2.428,7.494 0.892,6.01 0.892,4.18 C0.892,2.35 2.428,0.866 4.322,0.866 Z M5.366,5.938 C5.044,6.088 4.689,6.168 4.323,6.168 C3.957,6.168 3.603,6.088 3.28,5.938 C3.011,6.048 2.785,6.237 2.634,6.476 C3.121,6.812 3.707,6.996 4.324,6.996 C4.939,6.996 5.524,6.812 6.012,6.476 C5.862,6.236 5.635,6.047 5.366,5.938 L5.366,5.938 Z M4.322,1.363 C2.712,1.363 1.407,2.624 1.407,4.18 C1.407,4.947 1.724,5.643 2.239,6.15 C2.492,5.784 2.878,5.513 3.329,5.399 C3.618,5.571 3.958,5.671 4.322,5.671 C4.686,5.671 5.026,5.571 5.315,5.399 C5.767,5.513 6.152,5.784 6.405,6.151 C6.92,5.643 7.238,4.947 7.238,4.18 C7.238,2.624 5.932,1.363 4.322,1.363 Z M4.322,2.523 C5.08,2.523 5.694,3.116 5.694,3.848 C5.694,4.58 5.08,5.174 4.322,5.174 C3.564,5.174 2.95,4.58 2.95,3.848 C2.95,3.116 3.564,2.523 4.322,2.523 Z M4.322,3.02 C3.849,3.02 3.465,3.39 3.465,3.848 C3.465,4.306 3.849,4.677 4.322,4.677 C4.796,4.677 5.18,4.306 5.18,3.848 C5.18,3.391 4.796,3.02 4.322,3.02 Z" id="Shape"></path>
            </g>
            <g id="Group" opacity="0.524" transform="translate(20.000000, 102.000000)" fill="#777A80" fill-rule="nonzero">
                <path d="M4.322,0.977 C6.217,0.977 7.752,2.46 7.752,4.291 C7.752,6.121 6.217,7.605 4.322,7.605 C2.428,7.605 0.892,6.121 0.892,4.291 C0.892,2.461 2.428,0.977 4.322,0.977 Z M5.366,6.049 C5.044,6.199 4.689,6.279 4.323,6.279 C3.957,6.279 3.603,6.199 3.28,6.049 C3.011,6.159 2.785,6.348 2.634,6.587 C3.121,6.923 3.707,7.107 4.324,7.107 C4.939,7.107 5.524,6.923 6.012,6.587 C5.862,6.347 5.635,6.158 5.366,6.049 L5.366,6.049 Z M4.322,1.474 C2.712,1.474 1.407,2.735 1.407,4.291 C1.407,5.058 1.724,5.754 2.239,6.261 C2.492,5.895 2.878,5.624 3.329,5.51 C3.618,5.682 3.958,5.782 4.322,5.782 C4.686,5.782 5.026,5.682 5.315,5.51 C5.767,5.624 6.152,5.895 6.405,6.262 C6.92,5.754 7.238,5.058 7.238,4.291 C7.238,2.735 5.932,1.474 4.322,1.474 Z M4.322,2.634 C5.08,2.634 5.694,3.227 5.694,3.959 C5.694,4.691 5.08,5.285 4.322,5.285 C3.564,5.285 2.95,4.691 2.95,3.959 C2.95,3.227 3.564,2.634 4.322,2.634 Z M4.322,3.131 C3.849,3.131 3.465,3.501 3.465,3.959 C3.465,4.417 3.849,4.788 4.322,4.788 C4.796,4.788 5.18,4.417 5.18,3.959 C5.18,3.502 4.796,3.131 4.322,3.131 Z" id="Shape"></path>
            </g>
            <g id="Group" opacity="0.524" transform="translate(20.000000, 84.000000)" fill="#777A80" fill-rule="nonzero">
                <path d="M4.322,0.088 C6.217,0.088 7.752,1.571 7.752,3.402 C7.752,5.232 6.217,6.716 4.322,6.716 C2.428,6.716 0.892,5.232 0.892,3.402 C0.892,1.572 2.428,0.088 4.322,0.088 Z M5.366,5.16 C5.044,5.31 4.689,5.39 4.323,5.39 C3.957,5.39 3.603,5.31 3.28,5.16 C3.011,5.27 2.785,5.459 2.634,5.698 C3.121,6.034 3.707,6.218 4.324,6.218 C4.939,6.218 5.524,6.034 6.012,5.698 C5.862,5.458 5.635,5.269 5.366,5.16 L5.366,5.16 Z M4.322,0.585 C2.712,0.585 1.407,1.846 1.407,3.402 C1.407,4.169 1.724,4.865 2.239,5.372 C2.492,5.006 2.878,4.735 3.329,4.621 C3.618,4.793 3.958,4.893 4.322,4.893 C4.686,4.893 5.026,4.793 5.315,4.621 C5.767,4.735 6.152,5.006 6.405,5.373 C6.92,4.865 7.238,4.169 7.238,3.402 C7.238,1.846 5.932,0.585 4.322,0.585 Z M4.322,1.745 C5.08,1.745 5.694,2.338 5.694,3.07 C5.694,3.802 5.08,4.396 4.322,4.396 C3.564,4.396 2.95,3.802 2.95,3.07 C2.95,2.338 3.564,1.745 4.322,1.745 Z M4.322,2.242 C3.849,2.242 3.465,2.612 3.465,3.07 C3.465,3.528 3.849,3.899 4.322,3.899 C4.796,3.899 5.18,3.528 5.18,3.07 C5.18,2.613 4.796,2.242 4.322,2.242 Z" id="Shape"></path>
            </g>
        </g>
    </g>
</svg>