<svg xmlns="http://www.w3.org/2000/svg" xmlns:xlink="http://www.w3.org/1999/xlink" width="232" height="168" viewBox="0 0 232 168">
    <defs>
        <filter id="9rvui0xf0a" width="103%" height="104.2%" x="-1.5%" y="-1.5%" filterUnits="objectBoundingBox">
            <feOffset dy="1" in="SourceAlpha" result="shadowOffsetOuter1"/>
            <feGaussianBlur in="shadowOffsetOuter1" result="shadowBlurOuter1" stdDeviation="1"/>
            <feColorMatrix in="shadowBlurOuter1" values="0 0 0 0 0.333333333 0 0 0 0 0.352941176 0 0 0 0 0.384313725 0 0 0 0.304660184 0"/>
        </filter>
        <filter id="ygco66459c" width="118%" height="116.6%" x="-9%" y="-6.1%" filterUnits="objectBoundingBox">
            <feMorphology in="SourceAlpha" operator="dilate" radius=".337" result="shadowSpreadOuter1"/>
            <feOffset dy="1" in="shadowSpreadOuter1" result="shadowOffsetOuter1"/>
            <feGaussianBlur in="shadowOffsetOuter1" result="shadowBlurOuter1" stdDeviation="1"/>
            <feComposite in="shadowBlurOuter1" in2="SourceAlpha" operator="out" result="shadowBlurOuter1"/>
            <feColorMatrix in="shadowBlurOuter1" values="0 0 0 0 0.333333333 0 0 0 0 0.352941176 0 0 0 0 0.384313725 0 0 0 0.304660184 0"/>
        </filter>
        <rect id="4s25ft4zob" width="232" height="168" x="0" y="0" rx="1.497"/>
        <rect id="1oq5c86oxd" width="42.658" height="46.293" x="159.289" y="14.933" rx="1.347"/>
    </defs>
    <g fill="none" fill-rule="evenodd">
        <g>
            <g>
                <g transform="translate(-295 -630) translate(295 630)">
                    <use fill="#000" filter="url(#9rvui0xf0a)" xlink:href="#4s25ft4zob"/>
                    <use fill="#FFF" xlink:href="#4s25ft4zob"/>
                </g>
                <g fill="#D8D8D8" transform="translate(-295 -630) translate(295 630) translate(5.987 3.733)">
                    <ellipse cx="1.31" cy="1.307" rx="1.31" ry="1.307"/>
                    <ellipse cx="6.174" cy="1.307" rx="1.31" ry="1.307"/>
                    <ellipse cx="11.039" cy="1.307" rx="1.31" ry="1.307"/>
                </g>
                <g>
                    <path fill="#0291DB" d="M0 0H232V45.547H0z" transform="translate(-295 -630) translate(295 630) translate(0 9.707)"/>
                    <path fill="#555A62" d="M0 0H232V7.467H0z" transform="translate(-295 -630) translate(295 630) translate(0 9.707)"/>
                    <path fill="#FFF" d="M36.671 2.987H48.644999999999996V4.48H36.671zM54.632 2.987H66.606V4.48H54.632zM74.839 20.907H157.16199999999998V23.894H74.839z" transform="translate(-295 -630) translate(295 630) translate(0 9.707)"/>
                    <g>
                        <g fill="#FFF">
                            <path d="M0 .972C0 .435.422 0 .966 0h89.148v6.397H.966c-.533 0-.966-.44-.966-.971V.972z" transform="translate(-295 -630) translate(295 630) translate(0 9.707) translate(62.116 32.107)"/>
                        </g>
                        <path fill="#000" fill-opacity=".1" stroke="#FFF" stroke-width=".5" d="M90.2.25h16.583c.196 0 .374.08.503.209.13.128.209.306.209.503h0v4.475c0 .196-.08.374-.209.503s-.307.209-.503.209h0H90.2V.25z" transform="translate(-295 -630) translate(295 630) translate(0 9.707) translate(62.116 32.107)"/>
                        <path fill="#FFF" d="M93.548 2.613H104.025V4.106H93.548z" transform="translate(-295 -630) translate(295 630) translate(0 9.707) translate(62.116 32.107)"/>
                    </g>
                    <path fill="#FFF" d="M19.458 2.987H31.432V4.48H19.458z" transform="translate(-295 -630) translate(295 630) translate(0 9.707)"/>
                </g>
                <g transform="translate(-295 -630) translate(295 630) translate(19.458 67.947)">
                    <path fill="#ADB2BB" d="M11.226 17.173H30.683999999999997V20.159999999999997H11.226zM.748 2.987H20.206V5.974H.748zM162.4 64.96H178.865V67.94699999999999H162.4zM11.226 23.147H63.613V24.639999999999997H11.226zM79.329 23.147H101.78099999999999V24.639999999999997H79.329zM79.329 79.147H101.78099999999999V80.64H79.329zM77.084 41.813H99.536V43.306000000000004H77.084zM162.4 9.707H190.09V12.694H162.4z"/>
                    <path stroke="#ADB2BB" stroke-linecap="square" stroke-width=".5" d="M0.374 11.573L143.316 11.573"/>
                    <path fill="#ADB2BB" d="M11.226 73.173H30.683999999999997V76.16H11.226zM11.226 79.147H63.613V80.64H11.226z"/>
                    <path stroke="#ADB2BB" stroke-linecap="square" stroke-width=".5" d="M0.374 67.573L143.316 67.573"/>
                    <path fill="#ADB2BB" d="M11.226 35.84H30.683999999999997V38.827000000000005H11.226zM11.226 41.813H41.161V43.306000000000004H11.226zM44.155 41.813H74.09V43.306000000000004H44.155z"/>
                    <path stroke="#ADB2BB" stroke-linecap="square" stroke-width=".5" d="M0.374 30.24L143.316 30.24"/>
                    <path fill="#ADB2BB" d="M11.226 54.507H30.683999999999997V57.494H11.226zM11.226 60.48H71.845V61.973H11.226z"/>
                    <path stroke="#ADB2BB" stroke-linecap="square" stroke-width=".5" d="M0.374 48.907L143.316 48.907"/>
                    <rect width="37.419" height="5.973" x="161.652" fill="#E8E8EA" rx="1.497"/>
                    <rect width="9.729" height="2.987" x="162.4" y="70.933" stroke="#979797" stroke-width=".5" rx=".748"/>
                    <rect width="9.729" height="2.987" x="66.606" y="22.4" stroke="#979797" stroke-width=".5" rx=".748"/>
                    <g stroke="#ADB2BB" stroke-width=".5" transform="translate(100.658)">
                        <rect width="41.91" height="5.973" x=".374" rx=".748"/>
                        <path stroke-linecap="square" d="M7.858.149L7.858 5.899M16.839.149L16.839 5.899M25.819.149L25.819 5.899M34.8.149L34.8 5.899"/>
                    </g>
                    <rect width="9.729" height="2.987" x="66.606" y="78.4" stroke="#979797" stroke-width=".5" rx=".748"/>
                    <rect width="9.729" height="2.987" x="173.626" y="70.933" stroke="#979797" stroke-width=".5" rx=".748"/>
                    <rect width="8.232" height="2.987" x="184.852" y="70.933" stroke="#979797" stroke-width=".5" rx=".748"/>
                    <rect width="8.232" height="2.987" x="178.116" y="75.413" stroke="#979797" stroke-width=".5" rx=".748"/>
                    <rect width="14.219" height="2.987" x="162.4" y="75.413" stroke="#979797" stroke-width=".5" rx=".748"/>
                    <g>
                        <use fill="#000" filter="url(#ygco66459c)" xlink:href="#1oq5c86oxd"/>
                        <use fill="#FFF" stroke="#0291DB" stroke-width=".674" xlink:href="#1oq5c86oxd"/>
                    </g>
                    <path fill="#ADB2BB" d="M162.4 18.667H194.58100000000002V20.16H162.4zM162.4 23.147H181.11V24.639999999999997H162.4zM162.4 27.627H190.09V29.119999999999997H162.4zM162.4 32.107H198.323V33.6H162.4zM162.4 36.587H187.097V38.080000000000005H162.4zM162.4 41.067H186.348V42.56H162.4zM162.4 45.547H190.839V47.04H162.4zM162.4 50.027H186.348V51.52H162.4zM162.4 54.507H189.342V56H162.4z"/>
                </g>
                <g fill="#ADB2BB" transform="translate(-295 -630) translate(295 630) translate(153.42 83.627)">
                    <circle cx=".748" cy=".747" r="1"/>
                    <circle cx="3.742" cy=".747" r="1"/>
                    <circle cx="6.735" cy=".747" r="1"/>
                </g>
                <g fill="#ADB2BB" transform="translate(-295 -630) translate(295 630) translate(153.42 102.293)">
                    <circle cx=".748" cy=".747" r="1"/>
                    <circle cx="3.742" cy=".747" r="1"/>
                    <circle cx="6.735" cy=".747" r="1"/>
                </g>
                <g fill="#ADB2BB" transform="translate(-295 -630) translate(295 630) translate(153.42 120.96)">
                    <circle cx=".748" cy=".747" r="1"/>
                    <circle cx="3.742" cy=".747" r="1"/>
                    <circle cx="6.735" cy=".747" r="1"/>
                </g>
                <g fill="#ADB2BB" transform="translate(-295 -630) translate(295 630) translate(153.42 139.627)">
                    <circle cx=".748" cy=".747" r="1"/>
                    <circle cx="3.742" cy=".747" r="1"/>
                    <circle cx="6.735" cy=".747" r="1"/>
                </g>
                <g fill="#777A80" opacity=".524">
                    <path d="M4.116.663c1.895 0 3.43 1.483 3.43 3.314 0 1.83-1.535 3.314-3.43 3.314-1.894 0-3.43-1.484-3.43-3.314S2.222.663 4.116.663zM5.16 5.735c-.322.15-.677.23-1.043.23-.366 0-.72-.08-1.043-.23-.269.11-.495.299-.646.538.487.336 1.073.52 1.69.52.615 0 1.2-.184 1.688-.52-.15-.24-.377-.429-.646-.538zM4.116 1.16c-1.61 0-2.915 1.261-2.915 2.817 0 .767.317 1.463.832 1.97.253-.366.639-.637 1.09-.751.289.172.629.272.993.272s.704-.1.993-.272c.452.114.837.385 1.09.752.515-.508.833-1.204.833-1.971 0-1.556-1.306-2.817-2.916-2.817zm0 1.16c.758 0 1.372.593 1.372 1.325s-.614 1.326-1.372 1.326c-.758 0-1.372-.594-1.372-1.326 0-.732.614-1.325 1.372-1.325zm0 .497c-.473 0-.857.37-.857.828 0 .458.384.829.857.829.474 0 .858-.371.858-.829 0-.457-.384-.828-.858-.828z" transform="translate(-295 -630) translate(295 630) translate(20.206 140.093)"/>
                </g>
                <g fill="#777A80" opacity=".524">
                    <path d="M4.116.663c1.895 0 3.43 1.483 3.43 3.314 0 1.83-1.535 3.314-3.43 3.314-1.894 0-3.43-1.484-3.43-3.314S2.222.663 4.116.663zM5.16 5.735c-.322.15-.677.23-1.043.23-.366 0-.72-.08-1.043-.23-.269.11-.495.299-.646.538.487.336 1.073.52 1.69.52.615 0 1.2-.184 1.688-.52-.15-.24-.377-.429-.646-.538zM4.116 1.16c-1.61 0-2.915 1.261-2.915 2.817 0 .767.317 1.463.832 1.97.253-.366.639-.637 1.09-.751.289.172.629.272.993.272s.704-.1.993-.272c.452.114.837.385 1.09.752.515-.508.833-1.204.833-1.971 0-1.556-1.306-2.817-2.916-2.817zm0 1.16c.758 0 1.372.593 1.372 1.325s-.614 1.326-1.372 1.326c-.758 0-1.372-.594-1.372-1.326 0-.732.614-1.325 1.372-1.325zm0 .497c-.473 0-.857.37-.857.828 0 .458.384.829.857.829.474 0 .858-.371.858-.829 0-.457-.384-.828-.858-.828z" transform="translate(-295 -630) translate(295 630) translate(20.206 121.203)"/>
                </g>
                <g fill="#777A80" opacity=".524">
                    <path d="M4.116.663c1.895 0 3.43 1.483 3.43 3.314 0 1.83-1.535 3.314-3.43 3.314-1.894 0-3.43-1.484-3.43-3.314S2.222.663 4.116.663zM5.16 5.735c-.322.15-.677.23-1.043.23-.366 0-.72-.08-1.043-.23-.269.11-.495.299-.646.538.487.336 1.073.52 1.69.52.615 0 1.2-.184 1.688-.52-.15-.24-.377-.429-.646-.538zM4.116 1.16c-1.61 0-2.915 1.261-2.915 2.817 0 .767.317 1.463.832 1.97.253-.366.639-.637 1.09-.751.289.172.629.272.993.272s.704-.1.993-.272c.452.114.837.385 1.09.752.515-.508.833-1.204.833-1.971 0-1.556-1.306-2.817-2.916-2.817zm0 1.16c.758 0 1.372.593 1.372 1.325s-.614 1.326-1.372 1.326c-.758 0-1.372-.594-1.372-1.326 0-.732.614-1.325 1.372-1.325zm0 .497c-.473 0-.857.37-.857.828 0 .458.384.829.857.829.474 0 .858-.371.858-.829 0-.457-.384-.828-.858-.828z" transform="translate(-295 -630) translate(295 630) translate(20.206 102.314)"/>
                </g>
                <g fill="#777A80" opacity=".524">
                    <path d="M4.116.663c1.895 0 3.43 1.483 3.43 3.314 0 1.83-1.535 3.314-3.43 3.314-1.894 0-3.43-1.484-3.43-3.314S2.222.663 4.116.663zM5.16 5.735c-.322.15-.677.23-1.043.23-.366 0-.72-.08-1.043-.23-.269.11-.495.299-.646.538.487.336 1.073.52 1.69.52.615 0 1.2-.184 1.688-.52-.15-.24-.377-.429-.646-.538zM4.116 1.16c-1.61 0-2.915 1.261-2.915 2.817 0 .767.317 1.463.832 1.97.253-.366.639-.637 1.09-.751.289.172.629.272.993.272s.704-.1.993-.272c.452.114.837.385 1.09.752.515-.508.833-1.204.833-1.971 0-1.556-1.306-2.817-2.916-2.817zm0 1.16c.758 0 1.372.593 1.372 1.325s-.614 1.326-1.372 1.326c-.758 0-1.372-.594-1.372-1.326 0-.732.614-1.325 1.372-1.325zm0 .497c-.473 0-.857.37-.857.828 0 .458.384.829.857.829.474 0 .858-.371.858-.829 0-.457-.384-.828-.858-.828z" transform="translate(-295 -630) translate(295 630) translate(20.206 83.425)"/>
                </g>
            </g>
        </g>
    </g>
</svg>
