<svg width="232" height="169" viewBox="0 0 232 169" fill="none" xmlns="http://www.w3.org/2000/svg">
<g filter="url(#filter0_d_1005_3973)">
<rect x="0" y="0" width="232" height="169" rx="" fill="white"/>
</g>
<ellipse cx="10.297" cy="7.07006" rx="1.30968" ry="1.31444" fill="#D8D8D8"/>
<ellipse cx="15.1612" cy="7.07006" rx="1.30968" ry="1.31444" fill="#D8D8D8"/>
<ellipse cx="20.0265" cy="7.07006" rx="1.30968" ry="1.31444" fill="#D8D8D8"/>
<rect x="39" y="24" width="25.4451" height="3" fill="#ADB2BB"/>
<rect x="0" y="19.5" width="30" height="151" fill="#EFF2F5"/>
<rect x="9" y="32" width="14.9677" height="1.50222" fill="#ADB2BB"/>
<rect x="9" y="41.0134" width="14.9677" height="1.50222" fill="#ADB2BB"/>
<rect x="6" y="50.0266" width="14.9677" height="1.50222" fill="#ADB2BB"/>
<rect x="6" y="59.04" width="13.471" height="1.50222" fill="#ADB2BB"/>
<rect x="6" y="54.5333" width="17.9613" height="1.50222" fill="#ADB2BB"/>
<rect x="9" y="36.5066" width="19.4581" height="1.50222" fill="#ADB2BB"/>
<rect x="6" y="45.52" width="13.471" height="1.50222" fill="#ADB2BB"/>
<rect x="0" y="11.7644" width="232" height="7.51111" fill="#0291DB"/>
<rect x="105.213" y="14.7688" width="11.9742" height="1.50222" fill="white"/>
<rect x="123.174" y="14.7688" width="11.9742" height="1.50222" fill="white"/>
<rect x="141.174" y="14.7688" width="11.9742" height="1.50222" fill="white"/>
<rect x="88" y="14.7688" width="11.9742" height="1.50222" fill="white"/>
<rect x="53" y="54" width="25" height="4" fill="#ADB2BB"/>
<rect width="38" height="2" transform="matrix(1 0 0 -1 40 41)" fill="#EFF2F5"/>
<rect x="53" y="62" width="29" height="2" fill="#ADB2BB"/>
<rect x="53" y="43" width="12" height="2" fill="#ADB2BB"/>
<rect x="42" y="43" width="12" height="2" fill="#ADB2BB"/>
<rect x="96" y="43" width="12" height="2" fill="#ADB2BB"/>
<rect x="140" y="43" width="12" height="2" fill="#ADB2BB"/>
<rect x="160" y="43" width="12" height="2" fill="#ADB2BB"/>
<rect x="180" y="43" width="12" height="2" fill="#ADB2BB"/>
<circle cx="45" cy="82" r="3" fill="#DADDE1"/>
<circle cx="45" cy="107" r="3" fill="#DADDE1"/>
<circle cx="45" cy="132" r="3" fill="#DADDE1"/>
<circle cx="45" cy="57" r="3" fill="#DADDE1"/>
<path d="M39.4818 46.5H223.518" stroke="#ADB2BB" stroke-width="0.5" stroke-linecap="square"/>
<rect x="53" y="129" width="25" height="4" fill="#ADB2BB"/>
<rect x="53" y="137" width="20" height="2" fill="#ADB2BB"/>
<path d="M39.4818 121.5H223.518" stroke="#ADB2BB" stroke-width="0.5" stroke-linecap="square"/>
<rect x="53" y="79" width="25" height="4" fill="#ADB2BB"/>
<rect x="53" y="87" width="33" height="2" fill="#ADB2BB"/>
<rect x="53" y="110" width="14" height="2" fill="#ADB2BB"/>
<rect x="96" y="79" width="39" height="4" fill="#ADB2BB"/>
<rect x="96" y="104" width="39" height="4" fill="#ADB2BB"/>
<rect x="96" y="129" width="39" height="4" fill="#ADB2BB"/>
<rect x="96" y="154" width="39" height="4" fill="#ADB2BB"/>
<rect x="96" y="54" width="39" height="4" fill="#ADB2BB"/>
<rect x="140" y="79" width="16" height="4" fill="#ADB2BB"/>
<rect x="140" y="104" width="16" height="4" fill="#ADB2BB"/>
<rect x="140" y="129" width="16" height="4" fill="#ADB2BB"/>
<rect x="140" y="154" width="16" height="4" fill="#ADB2BB"/>
<rect x="140" y="54" width="16" height="4" fill="#ADB2BB"/>
<rect x="160" y="79" width="16" height="4" fill="#ADB2BB"/>
<rect x="160" y="104" width="16" height="4" fill="#ADB2BB"/>
<rect x="160" y="129" width="16" height="4" fill="#ADB2BB"/>
<rect x="160" y="154" width="16" height="4" fill="#ADB2BB"/>
<rect x="160" y="54" width="16" height="4" fill="#ADB2BB"/>
<rect x="180" y="79" width="16" height="4" fill="#ADB2BB"/>
<rect x="180" y="104" width="16" height="4" fill="#ADB2BB"/>
<rect x="180" y="129" width="16" height="4" fill="#ADB2BB"/>
<rect x="180" y="154" width="16" height="4" fill="#ADB2BB"/>
<rect x="180" y="54" width="16" height="4" fill="#ADB2BB"/>
<path d="M39.4818 71.5H223.518" stroke="#ADB2BB" stroke-width="0.5" stroke-linecap="square"/>
<rect x="53" y="154" width="25" height="4" fill="#ADB2BB"/>
<rect x="53" y="162" width="31" height="2" fill="#ADB2BB"/>
<circle cx="45" cy="157" r="3" fill="#DADDE1"/>
<path d="M39.4818 146.5H223.518" stroke="#ADB2BB" stroke-width="0.5" stroke-linecap="square"/>
<path d="M39.4818 171.5H223.518" stroke="#ADB2BB" stroke-width="0.5" stroke-linecap="square"/>
<rect x="53" y="104" width="25" height="4" fill="#ADB2BB"/>
<path d="M39.4818 96.5H223.518" stroke="#ADB2BB" stroke-width="0.5" stroke-linecap="square"/>
<circle cx="212" cy="56" r="1" fill="#ADB2BB"/>
<circle cx="216" cy="56" r="1" fill="#ADB2BB"/>
<circle cx="220" cy="56" r="1" fill="#ADB2BB"/>
<circle cx="212" cy="81" r="1" fill="#ADB2BB"/>
<circle cx="216" cy="81" r="1" fill="#ADB2BB"/>
<circle cx="220" cy="81" r="1" fill="#ADB2BB"/>
<circle cx="212" cy="106" r="1" fill="#ADB2BB"/>
<circle cx="216" cy="106" r="1" fill="#ADB2BB"/>
<circle cx="220" cy="106" r="1" fill="#ADB2BB"/>
<circle cx="212" cy="131" r="1" fill="#ADB2BB"/>
<circle cx="216" cy="131" r="1" fill="#ADB2BB"/>
<circle cx="220" cy="131" r="1" fill="#ADB2BB"/>
<circle cx="212" cy="156" r="1" fill="#ADB2BB"/>
<circle cx="216" cy="156" r="1" fill="#ADB2BB"/>
<circle cx="220" cy="156" r="1" fill="#ADB2BB"/>
<rect x="185" y="32" width="24" height="2" fill="#ADB2BB"/>
<rect x="198" y="25" width="24" height="2" fill="#0291DB"/>
<rect x="213" y="32" width="11" height="2" fill="#ADB2BB"/>
<g clip-path="url(#clip0_1005_3973)">
<path d="M40.2678 30.9854C40.2678 30.4234 40.7234 29.9678 41.2854 29.9678H110.143V36.0018H41.2854C40.7234 36.0018 40.2678 35.5461 40.2678 34.9841V30.9854Z" fill="white" stroke="#ADB2BB" stroke-width="0.5356"/>
</g>
<path d="M111.15 30.15H123.715C124.342 30.15 124.85 30.6584 124.85 31.2854V34.7146C124.85 35.3416 124.342 35.85 123.715 35.85H111.15V30.15Z" fill="#0291DB" stroke="#0291DB" stroke-width="0.3"/>
<rect x="114" y="32" width="8" height="2" fill="white"/>
<rect x="40" y="24" width="13" height="3" fill="#ADB2BB"/>
<path fill-rule="evenodd" clip-rule="evenodd" d="M0 24L0 43L53 43L45.7835 33L53 24L3 24Z" fill="#F5296D"/>
<path d="M13.0366 30.1475H15.3677C16.4491 30.1475 17.2297 30.305 17.7095 30.6201C18.1929 30.9352 18.4346 31.4329 18.4346 32.1133C18.4346 32.5716 18.3164 32.953 18.0801 33.2573C17.8438 33.5617 17.5036 33.7533 17.0596 33.832V33.8857C17.611 33.9896 18.0156 34.1955 18.2734 34.5034C18.5348 34.8078 18.6655 35.2214 18.6655 35.7441C18.6655 36.4495 18.4185 37.0028 17.9243 37.4038C17.4338 37.8013 16.7498 38 15.8726 38H13.0366V30.1475ZM14.3203 33.3916H15.5557C16.0928 33.3916 16.4849 33.3075 16.7319 33.1392C16.979 32.9673 17.1025 32.6772 17.1025 32.269C17.1025 31.9002 16.9683 31.6335 16.6997 31.4688C16.4347 31.304 16.0122 31.2217 15.4321 31.2217H14.3203V33.3916ZM14.3203 34.4336V36.9204H15.6846C16.2217 36.9204 16.6263 36.8184 16.8984 36.6143C17.1742 36.4066 17.312 36.0807 17.312 35.6367C17.312 35.2285 17.1724 34.9259 16.8931 34.729C16.6138 34.5321 16.1895 34.4336 15.6201 34.4336H14.3203ZM24.7402 38H20.2983V30.1475H24.7402V31.2324H21.582V33.3701H24.5415V34.4443H21.582V36.9097H24.7402V38ZM29.1553 38H27.8716V31.2485H25.562V30.1475H31.4648V31.2485H29.1553V38ZM37.5449 38L36.7607 35.8193H33.7583L32.9902 38H31.6367L34.5747 30.1152H35.9712L38.9092 38H37.5449ZM36.4224 34.7129L35.6865 32.5752C35.6328 32.432 35.5576 32.2064 35.4609 31.8984C35.3678 31.5905 35.3034 31.3649 35.2676 31.2217C35.1709 31.6621 35.0295 32.1437 34.8433 32.6665L34.1343 34.7129H36.4224Z" fill="white"/>
<rect x="128" y="30" width="7" height="6" rx="1" fill="#0291DB"/>
<rect x="196" y="23" width="28" height="6" rx="1" stroke="#0291DB" stroke-width="0.4"/>
<defs>
<filter id="filter0_d_1005_3973" x="0" y="0" width="238" height="175" filterUnits="userSpaceOnUse" color-interpolation-filters="sRGB">
<feFlood flood-opacity="0" result="BackgroundImageFix"/>
<feColorMatrix in="SourceAlpha" type="matrix" values="0 0 0 0 0 0 0 0 0 0 0 0 0 0 0 0 0 0 127 0" result="hardAlpha"/>
<feOffset dy="1"/>
<feGaussianBlur stdDeviation="1.5"/>
<feColorMatrix type="matrix" values="0 0 0 0 0.333333 0 0 0 0 0.352941 0 0 0 0 0.384314 0 0 0 0.30466 0"/>
<feBlend mode="normal" in2="BackgroundImageFix" result="effect1_dropShadow_1005_3973"/>
<feBlend mode="normal" in="SourceGraphic" in2="effect1_dropShadow_1005_3973" result="shape"/>
</filter>
<clipPath id="clip0_1005_3973">
<rect width="71.3056" height="7.30005" fill="white" transform="translate(40 29.7)"/>
</clipPath>
</defs>
</svg>
