<svg width="238" height="175" viewBox="0 0 238 175" fill="none" xmlns="http://www.w3.org/2000/svg">
<g filter="url(#filter0_d_1005_3973)">
<rect x="3" y="2" width="232" height="169" rx="2" fill="white"/>
</g>
<ellipse cx="10.297" cy="7.07006" rx="1.30968" ry="1.31444" fill="#D8D8D8"/>
<ellipse cx="15.1612" cy="7.07006" rx="1.30968" ry="1.31444" fill="#D8D8D8"/>
<ellipse cx="20.0265" cy="7.07006" rx="1.30968" ry="1.31444" fill="#D8D8D8"/>
<rect x="39" y="24" width="25.4451" height="3" fill="#ADB2BB"/>
<rect x="3" y="19.5" width="30" height="151" fill="#EFF2F5"/>
<rect x="9" y="32" width="14.9677" height="1.50222" fill="#ADB2BB"/>
<rect x="9" y="41.0134" width="14.9677" height="1.50222" fill="#ADB2BB"/>
<rect x="9" y="50.0266" width="14.9677" height="1.50222" fill="#ADB2BB"/>
<rect x="9" y="59.04" width="13.471" height="1.50222" fill="#ADB2BB"/>
<rect x="9" y="54.5333" width="17.9613" height="1.50222" fill="#ADB2BB"/>
<rect x="9" y="36.5066" width="19.4581" height="1.50222" fill="#ADB2BB"/>
<rect x="9" y="45.52" width="13.471" height="1.50222" fill="#ADB2BB"/>
<rect x="3" y="11.7644" width="232" height="7.51111" fill="#0291DB"/>
<rect x="105.213" y="14.7688" width="11.9742" height="1.50222" fill="white"/>
<rect x="123.174" y="14.7688" width="11.9742" height="1.50222" fill="white"/>
<rect x="141.174" y="14.7688" width="11.9742" height="1.50222" fill="white"/>
<rect x="88" y="14.7688" width="11.9742" height="1.50222" fill="white"/>
<rect x="53" y="54" width="25" height="4" fill="#ADB2BB"/>
<rect width="38" height="2" transform="matrix(1 0 0 -1 40 41)" fill="#EFF2F5"/>
<rect x="53" y="62" width="29" height="2" fill="#ADB2BB"/>
<rect x="53" y="43" width="12" height="2" fill="#ADB2BB"/>
<rect x="42" y="43" width="12" height="2" fill="#ADB2BB"/>
<rect x="96" y="43" width="12" height="2" fill="#ADB2BB"/>
<rect x="140" y="43" width="12" height="2" fill="#ADB2BB"/>
<rect x="160" y="43" width="12" height="2" fill="#ADB2BB"/>
<rect x="180" y="43" width="12" height="2" fill="#ADB2BB"/>
<circle cx="45" cy="82" r="3" fill="#DADDE1"/>
<circle cx="45" cy="107" r="3" fill="#DADDE1"/>
<circle cx="45" cy="132" r="3" fill="#DADDE1"/>
<circle cx="45" cy="57" r="3" fill="#DADDE1"/>
<path d="M39.4818 46.5H223.518" stroke="#ADB2BB" stroke-width="0.5" stroke-linecap="square"/>
<rect x="53" y="129" width="25" height="4" fill="#ADB2BB"/>
<rect x="53" y="137" width="20" height="2" fill="#ADB2BB"/>
<path d="M39.4818 121.5H223.518" stroke="#ADB2BB" stroke-width="0.5" stroke-linecap="square"/>
<rect x="53" y="79" width="25" height="4" fill="#ADB2BB"/>
<rect x="53" y="87" width="33" height="2" fill="#ADB2BB"/>
<rect x="53" y="110" width="14" height="2" fill="#ADB2BB"/>
<rect x="96" y="79" width="39" height="4" fill="#ADB2BB"/>
<rect x="96" y="104" width="39" height="4" fill="#ADB2BB"/>
<rect x="96" y="129" width="39" height="4" fill="#ADB2BB"/>
<rect x="96" y="154" width="39" height="4" fill="#ADB2BB"/>
<rect x="96" y="54" width="39" height="4" fill="#ADB2BB"/>
<rect x="140" y="79" width="16" height="4" fill="#ADB2BB"/>
<rect x="140" y="104" width="16" height="4" fill="#ADB2BB"/>
<rect x="140" y="129" width="16" height="4" fill="#ADB2BB"/>
<rect x="140" y="154" width="16" height="4" fill="#ADB2BB"/>
<rect x="140" y="54" width="16" height="4" fill="#ADB2BB"/>
<rect x="160" y="79" width="16" height="4" fill="#ADB2BB"/>
<rect x="160" y="104" width="16" height="4" fill="#ADB2BB"/>
<rect x="160" y="129" width="16" height="4" fill="#ADB2BB"/>
<rect x="160" y="154" width="16" height="4" fill="#ADB2BB"/>
<rect x="160" y="54" width="16" height="4" fill="#ADB2BB"/>
<rect x="180" y="79" width="16" height="4" fill="#ADB2BB"/>
<rect x="180" y="104" width="16" height="4" fill="#ADB2BB"/>
<rect x="180" y="129" width="16" height="4" fill="#ADB2BB"/>
<rect x="180" y="154" width="16" height="4" fill="#ADB2BB"/>
<rect x="180" y="54" width="16" height="4" fill="#ADB2BB"/>
<path d="M39.4818 71.5H223.518" stroke="#ADB2BB" stroke-width="0.5" stroke-linecap="square"/>
<rect x="53" y="154" width="25" height="4" fill="#ADB2BB"/>
<rect x="53" y="162" width="31" height="2" fill="#ADB2BB"/>
<circle cx="45" cy="157" r="3" fill="#DADDE1"/>
<path d="M39.4818 146.5H223.518" stroke="#ADB2BB" stroke-width="0.5" stroke-linecap="square"/>
<path d="M39.4818 171.5H223.518" stroke="#ADB2BB" stroke-width="0.5" stroke-linecap="square"/>
<rect x="53" y="104" width="25" height="4" fill="#ADB2BB"/>
<path d="M39.4818 96.5H223.518" stroke="#ADB2BB" stroke-width="0.5" stroke-linecap="square"/>
<circle cx="212" cy="56" r="1" fill="#ADB2BB"/>
<circle cx="216" cy="56" r="1" fill="#ADB2BB"/>
<circle cx="220" cy="56" r="1" fill="#ADB2BB"/>
<circle cx="212" cy="81" r="1" fill="#ADB2BB"/>
<circle cx="216" cy="81" r="1" fill="#ADB2BB"/>
<circle cx="220" cy="81" r="1" fill="#ADB2BB"/>
<circle cx="212" cy="106" r="1" fill="#ADB2BB"/>
<circle cx="216" cy="106" r="1" fill="#ADB2BB"/>
<circle cx="220" cy="106" r="1" fill="#ADB2BB"/>
<circle cx="212" cy="131" r="1" fill="#ADB2BB"/>
<circle cx="216" cy="131" r="1" fill="#ADB2BB"/>
<circle cx="220" cy="131" r="1" fill="#ADB2BB"/>
<circle cx="212" cy="156" r="1" fill="#ADB2BB"/>
<circle cx="216" cy="156" r="1" fill="#ADB2BB"/>
<circle cx="220" cy="156" r="1" fill="#ADB2BB"/>
<rect x="185" y="32" width="24" height="2" fill="#ADB2BB"/>
<rect x="198" y="25" width="24" height="2" fill="#0291DB"/>
<rect x="213" y="32" width="11" height="2" fill="#ADB2BB"/>
<g clip-path="url(#clip0_1005_3973)">
<path d="M40.2678 30.9854C40.2678 30.4234 40.7234 29.9678 41.2854 29.9678H110.143V36.0018H41.2854C40.7234 36.0018 40.2678 35.5461 40.2678 34.9841V30.9854Z" fill="white" stroke="#ADB2BB" stroke-width="0.5356"/>
</g>
<path d="M111.15 30.15H123.715C124.342 30.15 124.85 30.6584 124.85 31.2854V34.7146C124.85 35.3416 124.342 35.85 123.715 35.85H111.15V30.15Z" fill="#0291DB" stroke="#0291DB" stroke-width="0.3"/>
<rect x="114" y="32" width="8" height="2" fill="white"/>
<rect x="40" y="24" width="13" height="3" fill="#ADB2BB"/>
<rect x="128" y="30" width="7" height="6" rx="1" fill="#0291DB"/>
<rect x="196" y="23" width="28" height="6" rx="1" stroke="#0291DB" stroke-width="0.4"/>
<defs>
<filter id="filter0_d_1005_3973" x="0" y="0" width="238" height="175" filterUnits="userSpaceOnUse" color-interpolation-filters="sRGB">
<feFlood flood-opacity="0" result="BackgroundImageFix"/>
<feColorMatrix in="SourceAlpha" type="matrix" values="0 0 0 0 0 0 0 0 0 0 0 0 0 0 0 0 0 0 127 0" result="hardAlpha"/>
<feOffset dy="1"/>
<feGaussianBlur stdDeviation="1.5"/>
<feColorMatrix type="matrix" values="0 0 0 0 0.333333 0 0 0 0 0.352941 0 0 0 0 0.384314 0 0 0 0.30466 0"/>
<feBlend mode="normal" in2="BackgroundImageFix" result="effect1_dropShadow_1005_3973"/>
<feBlend mode="normal" in="SourceGraphic" in2="effect1_dropShadow_1005_3973" result="shape"/>
</filter>
<clipPath id="clip0_1005_3973">
<rect width="71.3056" height="7.30005" fill="white" transform="translate(40 29.7)"/>
</clipPath>
</defs>
</svg>
