<svg width="336" height="336" viewBox="0 0 336 336" fill="none" xmlns="http://www.w3.org/2000/svg">
<g clip-path="url(#clip0_5558_3967)">
<rect width="336" height="336" fill="white"/>
<rect width="336" height="336" fill="url(#paint0_radial_5558_3967)"/>
<g filter="url(#filter0_di_5558_3967)">
<circle cx="168" cy="168" r="124" fill="url(#paint1_radial_5558_3967)"/>
<circle cx="168" cy="168" r="130" stroke="#252525" stroke-width="12"/>
</g>
<ellipse cx="167.5" cy="266" rx="53.5" ry="6" fill="#D1D1D1"/>
<circle cx="113" cy="208" r="38" fill="white"/>
<path d="M112.622 171.843C99.6633 171.843 87.984 178.723 81.5844 189.762C75.0248 200.961 75.0248 214.561 81.5844 225.6C87.984 236.799 99.6633 243.519 112.622 243.519C125.422 243.519 137.101 236.799 143.501 225.6C150.06 214.561 150.06 200.961 143.501 189.762C137.101 178.723 125.422 171.843 112.622 171.843ZM112.622 248.638C97.9034 248.638 84.4642 240.959 77.1046 228.16C69.7451 215.52 69.7451 200.001 77.1046 187.202C84.4642 174.563 97.9034 166.723 112.622 166.723C127.182 166.723 140.621 174.563 147.98 187.202C155.34 200.001 155.34 215.52 147.98 228.16C140.621 240.959 127.182 248.638 112.622 248.638ZM125.742 230.08C124.782 231.04 123.182 231.04 122.222 229.92C120.302 227.84 117.102 225.6 112.622 225.6C107.983 225.6 104.783 227.84 102.863 229.92C102.063 231.04 100.303 231.04 99.3433 230.08C98.2234 229.12 98.2234 227.52 99.1833 226.56C101.743 223.68 106.223 220.48 112.622 220.48C118.862 220.48 123.342 223.68 125.902 226.56C126.862 227.52 126.862 229.12 125.742 230.08ZM99.8233 208.961C97.7434 208.961 95.9835 207.361 95.9835 205.121C95.9835 203.841 96.6235 202.721 97.5834 202.081L91.1838 200.001C89.9039 199.521 89.2639 198.082 89.5839 196.642C90.0638 195.362 91.5038 194.722 92.9437 195.042L108.303 200.161C109.583 200.641 110.223 202.081 109.903 203.521C109.423 204.801 107.983 205.441 106.543 205.121L103.503 204.001C103.663 204.321 103.663 204.801 103.663 205.121C103.663 207.361 101.903 208.961 99.8233 208.961ZM129.261 205.121C129.261 207.361 127.502 208.961 125.422 208.961C123.342 208.961 121.582 207.361 121.582 205.121C121.582 204.801 121.582 204.321 121.742 204.001L118.542 205.121C117.102 205.441 115.662 204.801 115.182 203.521C114.862 202.081 115.502 200.641 116.942 200.161L132.301 195.042C133.581 194.722 135.021 195.362 135.501 196.642C135.981 198.082 135.181 199.521 133.901 200.001L127.662 202.081C128.622 202.721 129.261 203.841 129.261 205.121Z" fill="#D0021B"/>
<circle cx="111" cy="138" r="38" fill="white"/>
<g clip-path="url(#clip1_5558_3967)">
<path d="M69.7234 137.681C69.7234 123.048 77.5426 109.532 90.2022 102.197C102.862 94.8617 118.5 94.8989 131.16 102.197C143.819 109.495 151.638 123.048 151.638 137.681C151.638 152.314 143.819 165.83 131.16 173.165C118.5 180.5 102.862 180.463 90.2022 173.165C77.5426 165.867 69.7234 152.314 69.7234 137.681ZM146.5 137.681C146.5 124.872 139.686 113.032 128.591 106.628C117.495 100.223 103.83 100.223 92.7713 106.628C81.6755 113.032 74.8617 124.872 74.8617 137.681C74.8617 150.489 81.6755 162.33 92.7713 168.734C103.867 175.138 117.532 175.138 128.591 168.734C139.686 162.33 146.5 150.489 146.5 137.681ZM125.388 159.835C122.521 156.521 117.644 153.021 110.681 153.021C103.718 153.021 98.8405 156.521 95.9734 159.835C95.0426 160.915 93.4415 161.027 92.3617 160.096C91.2819 159.165 91.1702 157.564 92.1011 156.484C95.6383 152.388 101.856 147.92 110.681 147.92C119.505 147.92 125.686 152.388 129.261 156.484C130.192 157.564 130.08 159.165 129 160.096C127.92 161.027 126.319 160.915 125.388 159.835ZM94.1117 130.011C94.1117 127.888 95.8245 126.176 97.9469 126.176C100.069 126.176 101.782 127.888 101.782 130.011C101.782 132.133 100.069 133.846 97.9469 133.846C95.8245 133.846 94.1117 132.133 94.1117 130.011ZM123.527 126.176C125.649 126.176 127.362 127.888 127.362 130.011C127.362 132.133 125.649 133.846 123.527 133.846C121.404 133.846 119.692 132.133 119.692 130.011C119.692 127.888 121.404 126.176 123.527 126.176Z" fill="#D0021B"/>
</g>
<circle cx="168" cy="103" r="38" fill="white"/>
<path d="M203.484 83.5212C210.782 96.1808 210.782 111.819 203.484 124.479C196.187 137.138 182.633 144.958 168 144.958C153.367 144.958 139.851 137.138 132.516 124.479C125.181 111.819 125.218 96.1808 132.516 83.5212C139.814 70.8616 153.367 63.0425 168 63.0425C182.633 63.0425 196.149 70.8616 203.484 83.5212ZM185.91 72.9467C174.814 66.5425 161.149 66.5425 150.091 72.9467C138.995 79.351 132.181 91.1915 132.181 104C132.181 116.809 138.995 128.649 150.091 135.053C161.186 141.458 174.851 141.458 185.91 135.053C197.006 128.649 203.82 116.809 203.82 104C203.82 91.1915 197.006 79.351 185.91 72.9467ZM151.431 96.3298C151.431 94.2074 153.144 92.4946 155.266 92.4946C157.389 92.4946 159.101 94.2074 159.101 96.3298C159.101 98.4521 157.389 100.165 155.266 100.165C153.144 100.165 151.431 98.4521 151.431 96.3298ZM180.809 116.809C182.224 116.809 183.378 117.963 183.378 119.378C183.378 120.793 182.224 121.947 180.809 121.947H155.192C153.777 121.947 152.623 120.793 152.623 119.378C152.623 117.963 153.777 116.809 155.192 116.809H180.809ZM180.846 100.165C178.724 100.165 177.011 98.4521 177.011 96.3298C177.011 94.2074 178.724 92.4946 180.846 92.4946C182.968 92.4946 184.681 94.2074 184.681 96.3298C184.681 98.4521 182.968 100.165 180.846 100.165Z" fill="#555A62"/>
<circle cx="225" cy="138" r="38" fill="white"/>
<path d="M185.042 138C185.042 123.367 192.862 109.851 205.521 102.516C218.181 95.1807 233.819 95.218 246.479 102.516C259.138 109.814 266.958 123.367 266.958 138C266.958 152.633 259.138 166.149 246.479 173.484C233.819 180.819 218.181 180.782 205.521 173.484C192.862 166.186 185.042 152.633 185.042 138ZM261.819 138C261.819 125.191 255.005 113.351 243.91 106.947C232.814 100.542 219.149 100.542 208.09 106.947C196.995 113.351 190.181 125.191 190.181 138C190.181 150.809 196.995 162.649 208.09 169.053C219.186 175.458 232.851 175.458 243.91 169.053C255.005 162.649 261.819 150.809 261.819 138ZM211.293 149.133C214.16 152.447 219.037 155.947 226 155.947C232.963 155.947 237.84 152.447 240.707 149.133C241.638 148.053 243.239 147.942 244.319 148.872C245.399 149.803 245.511 151.404 244.58 152.484C241.005 156.58 234.825 161.048 226 161.048C217.176 161.048 210.995 156.58 207.42 152.484C206.489 151.404 206.601 149.803 207.681 148.872C208.761 147.942 210.362 148.053 211.293 149.133ZM209.431 130.33C209.431 128.207 211.144 126.495 213.266 126.495C215.388 126.495 217.101 128.207 217.101 130.33C217.101 132.452 215.388 134.165 213.266 134.165C211.144 134.165 209.431 132.452 209.431 130.33ZM238.846 126.495C240.968 126.495 242.681 128.207 242.681 130.33C242.681 132.452 240.968 134.165 238.846 134.165C236.723 134.165 235.011 132.452 235.011 130.33C235.011 128.207 236.723 126.495 238.846 126.495Z" fill="#38853D"/>
<circle cx="225" cy="208" r="38" fill="white"/>
<path d="M184.042 208C184.042 193.367 191.862 179.851 204.521 172.516C217.181 165.181 232.819 165.218 245.479 172.516C258.138 179.814 265.958 193.367 265.958 208C265.958 222.633 258.138 236.149 245.479 243.484C232.819 250.819 217.181 250.782 204.521 243.484C191.862 236.186 184.042 222.633 184.042 208ZM260.819 208C260.819 195.191 254.005 183.351 242.91 176.947C231.814 170.542 218.149 170.542 207.09 176.947C195.995 183.351 189.181 195.191 189.181 208C189.181 220.809 195.995 232.649 207.09 239.053C218.186 245.458 231.851 245.458 242.91 239.053C254.005 232.649 260.819 220.809 260.819 208ZM204.298 213.138H245.739C248.011 213.138 249.798 215.112 249.239 217.309C246.335 228.181 236.617 236.186 225.037 236.186C213.457 236.186 203.739 228.181 200.835 217.309C200.277 215.112 202.064 213.138 204.335 213.138H204.298ZM209.064 197.202C208.058 198.356 207.351 199.883 207.016 201.261C206.681 202.638 205.303 203.457 203.926 203.122C202.548 202.787 201.729 201.41 202.064 200.032C202.585 198.021 203.628 195.713 205.229 193.851C206.83 191.989 209.176 190.425 212.191 190.425C215.207 190.425 217.553 192.027 219.191 193.851C220.793 195.675 221.872 197.984 222.356 200.032C222.692 201.41 221.872 202.787 220.495 203.122C219.117 203.457 217.739 202.638 217.404 201.261C217.069 199.883 216.324 198.356 215.356 197.202C214.351 196.085 213.309 195.527 212.229 195.527C211.149 195.527 210.069 196.085 209.101 197.202H209.064ZM232.633 201.261C232.298 202.638 230.92 203.457 229.543 203.122C228.165 202.787 227.346 201.41 227.681 200.032C228.202 198.021 229.245 195.713 230.846 193.851C232.447 191.989 234.793 190.425 237.809 190.425C240.825 190.425 243.17 192.027 244.809 193.851C246.41 195.675 247.489 197.984 247.973 200.032C248.309 201.41 247.489 202.787 246.112 203.122C244.734 203.457 243.356 202.638 243.021 201.261C242.686 199.883 241.942 198.356 240.973 197.202C239.968 196.085 238.926 195.527 237.846 195.527C236.766 195.527 235.686 196.085 234.718 197.202C233.713 198.356 233.005 199.883 232.67 201.261H232.633Z" fill="#38853D"/>
</g>
<defs>
<filter id="filter0_di_5558_3967" x="32" y="32" width="272" height="284" filterUnits="userSpaceOnUse" color-interpolation-filters="sRGB">
<feFlood flood-opacity="0" result="BackgroundImageFix"/>
<feColorMatrix in="SourceAlpha" type="matrix" values="0 0 0 0 0 0 0 0 0 0 0 0 0 0 0 0 0 0 127 0" result="hardAlpha"/>
<feOffset dy="12"/>
<feColorMatrix type="matrix" values="0 0 0 0 0 0 0 0 0 0 0 0 0 0 0 0 0 0 0.18 0"/>
<feBlend mode="normal" in2="BackgroundImageFix" result="effect1_dropShadow_5558_3967"/>
<feBlend mode="normal" in="SourceGraphic" in2="effect1_dropShadow_5558_3967" result="shape"/>
<feColorMatrix in="SourceAlpha" type="matrix" values="0 0 0 0 0 0 0 0 0 0 0 0 0 0 0 0 0 0 127 0" result="hardAlpha"/>
<feMorphology radius="12" operator="erode" in="SourceAlpha" result="effect2_innerShadow_5558_3967"/>
<feOffset dy="6"/>
<feComposite in2="hardAlpha" operator="arithmetic" k2="-1" k3="1"/>
<feColorMatrix type="matrix" values="0 0 0 0 0 0 0 0 0 0 0 0 0 0 0 0 0 0 0.18 0"/>
<feBlend mode="normal" in2="shape" result="effect2_innerShadow_5558_3967"/>
</filter>
<radialGradient id="paint0_radial_5558_3967" cx="0" cy="0" r="1" gradientUnits="userSpaceOnUse" gradientTransform="translate(168 152.556) rotate(90) scale(195.679)">
<stop stop-color="white"/>
<stop offset="1" stop-color="#D7D9E0"/>
</radialGradient>
<radialGradient id="paint1_radial_5558_3967" cx="0" cy="0" r="1" gradientUnits="userSpaceOnUse" gradientTransform="translate(168 168) rotate(90) scale(124)">
<stop stop-color="#F7FCFF"/>
<stop offset="1" stop-color="white"/>
</radialGradient>
<clipPath id="clip0_5558_3967">
<rect width="336" height="336" fill="white"/>
</clipPath>
<clipPath id="clip1_5558_3967">
<rect width="81.9151" height="81.9151" fill="white" transform="translate(69.7234 96.7234)"/>
</clipPath>
</defs>
</svg>
