<svg xmlns="http://www.w3.org/2000/svg" xmlns:xlink="http://www.w3.org/1999/xlink" width="232" height="169" viewBox="0 0 232 169">
    <defs>
        <filter id="okqp8ht5ga" width="103%" height="104.2%" x="-1.5%" y="-1.5%" filterUnits="objectBoundingBox">
            <feOffset dy="1" in="SourceAlpha" result="shadowOffsetOuter1"/>
            <feGaussianBlur in="shadowOffsetOuter1" result="shadowBlurOuter1" stdDeviation="1"/>
            <feColorMatrix in="shadowBlurOuter1" values="0 0 0 0 0.333333333 0 0 0 0 0.352941176 0 0 0 0 0.384313725 0 0 0 0.304660184 0"/>
        </filter>
        <filter id="lwyrrqbioc" width="113.9%" height="111.4%" x="-6.9%" y="-4.2%" filterUnits="objectBoundingBox">
            <feMorphology in="SourceAlpha" operator="dilate" radius=".389" result="shadowSpreadOuter1"/>
            <feOffset dy="1" in="shadowSpreadOuter1" result="shadowOffsetOuter1"/>
            <feGaussianBlur in="shadowOffsetOuter1" result="shadowBlurOuter1" stdDeviation="1"/>
            <feComposite in="shadowBlurOuter1" in2="SourceAlpha" operator="out" result="shadowBlurOuter1"/>
            <feColorMatrix in="shadowBlurOuter1" values="0 0 0 0 0.333333333 0 0 0 0 0.352941176 0 0 0 0 0.384313725 0 0 0 0.304660184 0"/>
        </filter>
        <rect id="mi0c6c8krb" width="232" height="168" x="0" y="0" rx="1.497"/>
        <rect id="thq7c9tgmd" width="56" height="68" x="0" y="0" rx="1.556"/>
    </defs>
    <g fill="none" fill-rule="evenodd">
        <g>
            <g>
                <g>
                    <g>
                        <g transform="translate(-295 -229) translate(295 229)">
                            <use fill="#000" filter="url(#okqp8ht5ga)" xlink:href="#mi0c6c8krb"/>
                            <use fill="#FFF" xlink:href="#mi0c6c8krb"/>
                        </g>
                        <g fill="#D8D8D8" transform="translate(-295 -229) translate(295 229) translate(5.987 3.733)">
                            <ellipse cx="1.31" cy="1.307" rx="1.31" ry="1.307"/>
                            <ellipse cx="6.174" cy="1.307" rx="1.31" ry="1.307"/>
                            <ellipse cx="11.039" cy="1.307" rx="1.31" ry="1.307"/>
                        </g>
                        <g>
                            <path fill="#0291DB" d="M0 0H232V45.547H0z" transform="translate(-295 -229) translate(295 229) translate(0 9.707)"/>
                            <path fill="#555A62" d="M0 0H232V7.467H0z" transform="translate(-295 -229) translate(295 229) translate(0 9.707)"/>
                            <path fill="#FFF" d="M36.671 2.987H48.644999999999996V4.48H36.671zM54.632 2.987H66.606V4.48H54.632zM74.839 20.907H157.16199999999998V23.894H74.839z" transform="translate(-295 -229) translate(295 229) translate(0 9.707)"/>
                            <g>
                                <g fill="#FFF">
                                    <path d="M0 .972C0 .435.422 0 .966 0h89.148v6.397H.966c-.533 0-.966-.44-.966-.971V.972z" transform="translate(-295 -229) translate(295 229) translate(0 9.707) translate(62.116 32.107)"/>
                                </g>
                                <path fill="#000" fill-opacity=".1" stroke="#FFF" stroke-width=".5" d="M90.2.25h16.583c.196 0 .374.08.503.209.13.128.209.306.209.503h0v4.475c0 .196-.08.374-.209.503s-.307.209-.503.209h0H90.2V.25z" transform="translate(-295 -229) translate(295 229) translate(0 9.707) translate(62.116 32.107)"/>
                                <path fill="#FFF" d="M93.548 2.613H104.025V4.106H93.548z" transform="translate(-295 -229) translate(295 229) translate(0 9.707) translate(62.116 32.107)"/>
                            </g>
                            <path fill="#FFF" d="M19.458 2.987H31.432V4.48H19.458z" transform="translate(-295 -229) translate(295 229) translate(0 9.707)"/>
                        </g>
                        <g transform="translate(-295 -229) translate(295 229) translate(19.458 67.947)">
                            <path fill="#ADB2BB" d="M11.226 17.173H30.683999999999997V20.159999999999997H11.226zM.748 2.987H20.206V5.974H.748zM162.4 54.507H178.865V57.494H162.4zM162.4 73.173H178.865V76.16H162.4zM11.226 23.147H31.226V24.639999999999997H11.226zM47.226 23.147H63.226V24.639999999999997H47.226z"/>
                            <path fill="#0291DB" d="M33.226 23.147H45.226V24.639999999999997H33.226z"/>
                            <path fill="#ADB2BB" d="M79.329 23.147H101.78099999999999V24.639999999999997H79.329zM79.329 79.147H101.78099999999999V80.64H79.329zM77.084 41.813H99.536V43.306000000000004H77.084zM162.4 9.707H190.09V12.694H162.4zM162.4 16.427H194.58100000000002V17.919999999999998H162.4zM162.4 20.907H181.11V22.4H162.4zM162.4 25.387H190.09V26.88H162.4zM162.4 29.867H199.071V31.36H162.4zM162.4 34.347H187.097V35.84H162.4zM162.4 38.827H186.348V40.32H162.4zM162.4 43.307H190.839V44.800000000000004H162.4zM162.4 47.787H186.348V49.28H162.4z"/>
                            <path stroke="#ADB2BB" stroke-linecap="square" stroke-width=".5" d="M0.374 11.573L143.316 11.573"/>
                            <path fill="#ADB2BB" d="M11.226 73.173H30.683999999999997V76.16H11.226zM11.226 79.147H63.613V80.64H11.226z"/>
                            <path stroke="#ADB2BB" stroke-linecap="square" stroke-width=".5" d="M0.374 67.573L143.316 67.573"/>
                            <path fill="#ADB2BB" d="M11.226 35.84H30.683999999999997V38.827000000000005H11.226zM11.226 41.813H41.161V43.306000000000004H11.226zM44.155 41.813H74.09V43.306000000000004H44.155z"/>
                            <path stroke="#ADB2BB" stroke-linecap="square" stroke-width=".5" d="M0.374 30.24L143.316 30.24"/>
                            <path fill="#ADB2BB" d="M11.226 54.507H30.683999999999997V57.494H11.226zM11.226 60.48H71.845V61.973H11.226z"/>
                            <path stroke="#ADB2BB" stroke-linecap="square" stroke-width=".5" d="M0.374 48.907L143.316 48.907"/>
                            <rect width="37.419" height="5.973" x="161.652" fill="#0291DB" rx="1.497"/>
                            <rect width="9.729" height="2.987" x="162.4" y="60.48" stroke="#979797" stroke-width=".5" rx=".748"/>
                            <rect width="9.729" height="2.987" x="66.606" y="22.4" stroke="#979797" stroke-width=".5" rx=".748"/>
                            <g stroke="#ADB2BB" stroke-width=".5" transform="translate(100.658)">
                                <rect width="41.91" height="5.973" x=".374" rx=".748"/>
                                <path stroke-linecap="square" d="M7.858.149L7.858 5.899M16.839.149L16.839 5.899M25.819.149L25.819 5.899M34.8.149L34.8 5.899"/>
                            </g>
                            <rect width="9.729" height="2.987" x="66.606" y="78.4" stroke="#979797" stroke-width=".5" rx=".748"/>
                            <rect width="9.729" height="2.987" x="173.626" y="60.48" stroke="#979797" stroke-width=".5" rx=".748"/>
                            <rect width="8.232" height="2.987" x="184.852" y="60.48" stroke="#979797" stroke-width=".5" rx=".748"/>
                            <rect width="8.232" height="2.987" x="178.116" y="64.96" stroke="#979797" stroke-width=".5" rx=".748"/>
                            <rect width="14.219" height="2.987" x="162.4" y="64.96" stroke="#979797" stroke-width=".5" rx=".748"/>
                        </g>
                    </g>
                    <g fill="#ADB2BB" transform="translate(-295 -229) translate(295 229) translate(153.42 83.627)">
                        <circle cx=".748" cy=".747" r="1"/>
                        <circle cx="3.742" cy=".747" r="1"/>
                        <circle cx="6.735" cy=".747" r="1"/>
                    </g>
                    <g fill="#ADB2BB" transform="translate(-295 -229) translate(295 229) translate(153.42 102.293)">
                        <circle cx=".748" cy=".747" r="1"/>
                        <circle cx="3.742" cy=".747" r="1"/>
                        <circle cx="6.735" cy=".747" r="1"/>
                    </g>
                    <g fill="#ADB2BB" transform="translate(-295 -229) translate(295 229) translate(153.42 120.96)">
                        <circle cx=".748" cy=".747" r="1"/>
                        <circle cx="3.742" cy=".747" r="1"/>
                        <circle cx="6.735" cy=".747" r="1"/>
                    </g>
                    <g fill="#ADB2BB" transform="translate(-295 -229) translate(295 229) translate(153.42 139.627)">
                        <circle cx=".748" cy=".747" r="1"/>
                        <circle cx="3.742" cy=".747" r="1"/>
                        <circle cx="6.735" cy=".747" r="1"/>
                    </g>
                </g>
                <g>
                    <g transform="translate(-295 -229) translate(295 229) translate(53 90)">
                        <g>
                            <use fill="#000" filter="url(#lwyrrqbioc)" xlink:href="#thq7c9tgmd"/>
                            <use fill="#FFF" stroke="#0291DB" stroke-width=".778" xlink:href="#thq7c9tgmd"/>
                        </g>
                        <path fill="#ADB2BB" d="M17.636 23.235H38.364000000000004V26.432H17.636zM9.333 32.841H21.777V34.386H9.333zM34.222 32.841H46.666000000000004V34.386H34.222zM4.025 55.263H22.692V56.861999999999995H4.025zM7.136 46.763H19.580000000000002V51.399H7.136z"/>
                        <rect width="21.778" height="6.182" x="4.667" y="30.536" stroke="#ADB2BB" stroke-width=".5" rx=".778"/>
                        <rect width="21.778" height="6.182" x="29.556" y="30.536" stroke="#ADB2BB" stroke-width=".5" rx=".778"/>
                        <path fill="#ADB2BB" d="M36.692 46.763H49.136V51.399H36.692zM33.581 55.263H52.248000000000005V56.861999999999995H33.581zM4.861 63.097H52.693999999999996V64.256H4.861z"/>
                    </g>
                    <path stroke="#D8D8D8" stroke-width=".5" d="M0 41.727h56M0 60.273h56M28 42.5L28 59.5" transform="translate(-295 -229) translate(295 229) translate(53 90)"/>
                    <g fill="#777A80">
                        <path d="M9.333 1.545c4.296 0 7.778 3.46 7.778 7.728C17.111 13.54 13.63 17 9.333 17c-4.295 0-7.777-3.46-7.777-7.727 0-4.268 3.482-7.728 7.777-7.728zm2.365 11.828c-.73.35-1.534.536-2.365.536-.83 0-1.635-.186-2.364-.536-.61.254-1.124.696-1.465 1.255 1.104.782 2.432 1.213 3.83 1.213 1.397 0 2.724-.431 3.829-1.213-.34-.559-.855-1.001-1.465-1.255zM9.333 2.705c-3.65 0-6.61 2.94-6.61 6.568 0 1.789.719 3.41 1.886 4.594.573-.852 1.449-1.486 2.474-1.752.653.403 1.425.635 2.25.635.826 0 1.597-.232 2.251-.635 1.025.266 1.9.9 2.473 1.753 1.168-1.185 1.887-2.806 1.887-4.595 0-3.628-2.96-6.568-6.61-6.568zm0 2.704c1.719 0 3.111 1.384 3.111 3.091 0 1.707-1.392 3.09-3.11 3.09-1.719 0-3.112-1.383-3.112-3.09 0-1.707 1.393-3.09 3.111-3.09zm0 1.16c-1.074 0-1.944.864-1.944 1.931 0 1.067.87 1.932 1.944 1.932 1.074 0 1.945-.865 1.945-1.932s-.87-1.932-1.945-1.932z" transform="translate(-295 -229) translate(295 229) translate(53 90) translate(18.667 3.864)"/>
                    </g>
                </g>
                <g fill="#777A80" opacity=".524">
                    <path d="M4 .667C5.84.667 7.333 2.159 7.333 4c0 1.84-1.492 3.333-3.333 3.333C2.16 7.333.667 5.841.667 4 .667 2.16 2.159.667 4 .667zm1.013 5.102C4.701 5.919 4.356 6 4 6c-.356 0-.7-.08-1.013-.231-.262.11-.482.3-.628.541.473.337 1.042.523 1.641.523s1.168-.186 1.641-.523c-.146-.24-.366-.432-.628-.541zM4 1.167C2.435 1.167 1.167 2.435 1.167 4c0 .772.308 1.471.809 1.981.245-.367.62-.64 1.06-.755.28.174.61.274.964.274s.684-.1.965-.274c.439.115.814.388 1.059.757.5-.511.81-1.211.81-1.983 0-1.565-1.27-2.833-2.834-2.833zm0 1.166c.736 0 1.333.597 1.333 1.334C5.333 4.403 4.736 5 4 5s-1.333-.597-1.333-1.333c0-.737.597-1.334 1.333-1.334zm0 .5c-.46 0-.833.373-.833.834 0 .46.373.833.833.833.46 0 .833-.373.833-.833 0-.46-.373-.834-.833-.834z" transform="translate(-295 -229) translate(295 229) translate(20 141)"/>
                </g>
                <g fill="#777A80" opacity=".524">
                    <path d="M3 .5C4.38.5 5.5 1.62 5.5 3S4.38 5.5 3 5.5.5 4.38.5 3 1.62.5 3 .5zm.76 3.827c-.234.113-.493.173-.76.173s-.526-.06-.76-.173c-.196.082-.361.225-.47.405.354.253.78.393 1.23.393.45 0 .876-.14 1.23-.393-.109-.18-.274-.323-.47-.405zM3 .875C1.826.875.875 1.826.875 3c0 .58.232 1.104.607 1.486.184-.275.465-.48.795-.566.21.13.458.205.723.205.265 0 .513-.075.723-.205.33.086.61.29.795.567.375-.383.607-.908.607-1.487C5.125 1.826 4.174.875 3 .875zm0 .875c.552 0 1 .448 1 1s-.448 1-1 1-1-.448-1-1 .448-1 1-1zm0 .375c-.345 0-.625.28-.625.625s.28.625.625.625.625-.28.625-.625-.28-.625-.625-.625z" transform="translate(-295 -229) translate(295 229) translate(181 146)"/>
                </g>
                <g fill="#777A80" opacity=".524">
                    <path d="M3 .5C4.38.5 5.5 1.62 5.5 3S4.38 5.5 3 5.5.5 4.38.5 3 1.62.5 3 .5zm.76 3.827c-.234.113-.493.173-.76.173s-.526-.06-.76-.173c-.196.082-.361.225-.47.405.354.253.78.393 1.23.393.45 0 .876-.14 1.23-.393-.109-.18-.274-.323-.47-.405zM3 .875C1.826.875.875 1.826.875 3c0 .58.232 1.104.607 1.486.184-.275.465-.48.795-.566.21.13.458.205.723.205.265 0 .513-.075.723-.205.33.086.61.29.795.567.375-.383.607-.908.607-1.487C5.125 1.826 4.174.875 3 .875zm0 .875c.552 0 1 .448 1 1s-.448 1-1 1-1-.448-1-1 .448-1 1-1zm0 .375c-.345 0-.625.28-.625.625s.28.625.625.625.625-.28.625-.625-.28-.625-.625-.625z" transform="translate(-295 -229) translate(295 229) translate(188 146)"/>
                </g>
                <g fill="#777A80" opacity=".524">
                    <path d="M3 .5C4.38.5 5.5 1.62 5.5 3S4.38 5.5 3 5.5.5 4.38.5 3 1.62.5 3 .5zm.76 3.827c-.234.113-.493.173-.76.173s-.526-.06-.76-.173c-.196.082-.361.225-.47.405.354.253.78.393 1.23.393.45 0 .876-.14 1.23-.393-.109-.18-.274-.323-.47-.405zM3 .875C1.826.875.875 1.826.875 3c0 .58.232 1.104.607 1.486.184-.275.465-.48.795-.566.21.13.458.205.723.205.265 0 .513-.075.723-.205.33.086.61.29.795.567.375-.383.607-.908.607-1.487C5.125 1.826 4.174.875 3 .875zm0 .875c.552 0 1 .448 1 1s-.448 1-1 1-1-.448-1-1 .448-1 1-1zm0 .375c-.345 0-.625.28-.625.625s.28.625.625.625.625-.28.625-.625-.28-.625-.625-.625z" transform="translate(-295 -229) translate(295 229) translate(195 146)"/>
                </g>
                <g fill="#777A80" opacity=".524">
                    <path d="M4 .667C5.84.667 7.333 2.159 7.333 4c0 1.84-1.492 3.333-3.333 3.333C2.16 7.333.667 5.841.667 4 .667 2.16 2.159.667 4 .667zm1.013 5.102C4.701 5.919 4.356 6 4 6c-.356 0-.7-.08-1.013-.231-.262.11-.482.3-.628.541.473.337 1.042.523 1.641.523s1.168-.186 1.641-.523c-.146-.24-.366-.432-.628-.541zM4 1.167C2.435 1.167 1.167 2.435 1.167 4c0 .772.308 1.471.809 1.981.245-.367.62-.64 1.06-.755.28.174.61.274.964.274s.684-.1.965-.274c.439.115.814.388 1.059.757.5-.511.81-1.211.81-1.983 0-1.565-1.27-2.833-2.834-2.833zm0 1.166c.736 0 1.333.597 1.333 1.334C5.333 4.403 4.736 5 4 5s-1.333-.597-1.333-1.333c0-.737.597-1.334 1.333-1.334zm0 .5c-.46 0-.833.373-.833.834 0 .46.373.833.833.833.46 0 .833-.373.833-.833 0-.46-.373-.834-.833-.834z" transform="translate(-295 -229) translate(295 229) translate(20 122)"/>
                </g>
                <g fill="#777A80" opacity=".524">
                    <path d="M4 .667C5.84.667 7.333 2.159 7.333 4c0 1.84-1.492 3.333-3.333 3.333C2.16 7.333.667 5.841.667 4 .667 2.16 2.159.667 4 .667zm1.013 5.102C4.701 5.919 4.356 6 4 6c-.356 0-.7-.08-1.013-.231-.262.11-.482.3-.628.541.473.337 1.042.523 1.641.523s1.168-.186 1.641-.523c-.146-.24-.366-.432-.628-.541zM4 1.167C2.435 1.167 1.167 2.435 1.167 4c0 .772.308 1.471.809 1.981.245-.367.62-.64 1.06-.755.28.174.61.274.964.274s.684-.1.965-.274c.439.115.814.388 1.059.757.5-.511.81-1.211.81-1.983 0-1.565-1.27-2.833-2.834-2.833zm0 1.166c.736 0 1.333.597 1.333 1.334C5.333 4.403 4.736 5 4 5s-1.333-.597-1.333-1.333c0-.737.597-1.334 1.333-1.334zm0 .5c-.46 0-.833.373-.833.834 0 .46.373.833.833.833.46 0 .833-.373.833-.833 0-.46-.373-.834-.833-.834z" transform="translate(-295 -229) translate(295 229) translate(20 103)"/>
                </g>
                <g fill="#777A80" opacity=".524">
                    <path d="M4 .667C5.84.667 7.333 2.159 7.333 4c0 1.84-1.492 3.333-3.333 3.333C2.16 7.333.667 5.841.667 4 .667 2.16 2.159.667 4 .667zm1.013 5.102C4.701 5.919 4.356 6 4 6c-.356 0-.7-.08-1.013-.231-.262.11-.482.3-.628.541.473.337 1.042.523 1.641.523s1.168-.186 1.641-.523c-.146-.24-.366-.432-.628-.541zM4 1.167C2.435 1.167 1.167 2.435 1.167 4c0 .772.308 1.471.809 1.981.245-.367.62-.64 1.06-.755.28.174.61.274.964.274s.684-.1.965-.274c.439.115.814.388 1.059.757.5-.511.81-1.211.81-1.983 0-1.565-1.27-2.833-2.834-2.833zm0 1.166c.736 0 1.333.597 1.333 1.334C5.333 4.403 4.736 5 4 5s-1.333-.597-1.333-1.333c0-.737.597-1.334 1.333-1.334zm0 .5c-.46 0-.833.373-.833.834 0 .46.373.833.833.833.46 0 .833-.373.833-.833 0-.46-.373-.834-.833-.834z" transform="translate(-295 -229) translate(295 229) translate(20 84)"/>
                </g>
            </g>
        </g>
    </g>
</svg>
