<svg width="84" height="84" viewBox="0 0 84 84" xmlns="http://www.w3.org/2000/svg"><title>vanillicon</title><g fill="none" fill-rule="evenodd"><path fill="#FC1E4C" d="M0 0h84v84H0z"/><g transform="translate(10 10)"><ellipse fill="#B4DEC4" cx="32" cy="32" rx="25.263" ry="25.263"/><g fill="#27262B"><path d="M29.957 23.324c-.543-2.874-1.996-4.798-4.727-4.798-4.676 0-8.873 4.897-9.925 9.607-.165.738-.142.924-.142.924a1.135 1.135 0 0 0 1.147 1.259h2.573c.695 0 1.326-.57 1.439-1.234 0 0-.08.171.099-.392.78-2.46 3.112-5.111 3.96-5.111.613 0 .849 0 .849.842v4.617c0 .706.564 1.278 1.258 1.278h2.572c.695 0 1.258-.572 1.256-1.266 0 0-.051-4.095-.36-5.726zM34.043 23.324c.543-2.874 1.996-4.798 4.727-4.798 4.676 0 8.873 4.897 9.925 9.607.165.738.142.924.142.924a1.135 1.135 0 0 1-1.147 1.259h-2.573c-.695 0-1.326-.57-1.439-1.234 0 0 .08.171-.099-.392-.78-2.46-3.112-5.111-3.96-5.111-.613 0-.849 0-.849.842v4.617c0 .706-.564 1.278-1.258 1.278H34.94a1.261 1.261 0 0 1-1.256-1.266s.051-4.095.36-5.726z"/></g><path d="M32 45.474a13.414 13.414 0 0 1-9.109-3.546 2.526 2.526 0 1 0-3.417 3.723A18.465 18.465 0 0 0 32 50.526c4.7 0 9.132-1.76 12.526-4.875a2.526 2.526 0 0 0-3.417-3.723A13.414 13.414 0 0 1 32 45.474z" fill="#27262B"/><path d="M57.889 13.19a4.538 4.538 0 0 0-5.658-1.422 4.554 4.554 0 0 0-1.422-5.657 4.538 4.538 0 0 0-5.82.396 4.554 4.554 0 0 0-3.1-4.94 4.538 4.538 0 0 0-5.414 2.174A4.554 4.554 0 0 0 32 0a4.538 4.538 0 0 0-4.476 3.741 4.554 4.554 0 0 0-5.413-2.175 4.538 4.538 0 0 0-3.1 4.941 4.554 4.554 0 0 0-5.82-.396 4.538 4.538 0 0 0-1.423 5.658 4.554 4.554 0 0 0-5.657 1.422 4.538 4.538 0 0 0 .396 5.82 4.554 4.554 0 0 0-4.94 3.1 4.538 4.538 0 0 0 2.174 5.414A4.554 4.554 0 0 0 0 32a4.538 4.538 0 0 0 3.741 4.476 4.554 4.554 0 0 0-2.175 5.413 4.538 4.538 0 0 0 4.941 3.1 4.554 4.554 0 0 0-.396 5.82 4.538 4.538 0 0 0 5.658 1.423 4.554 4.554 0 0 0 1.422 5.657 4.538 4.538 0 0 0 5.82-.396 4.554 4.554 0 0 0 3.1 4.94 4.538 4.538 0 0 0 5.414-2.174A4.554 4.554 0 0 0 32 64a4.538 4.538 0 0 0 4.476-3.741 4.554 4.554 0 0 0 5.413 2.175 4.538 4.538 0 0 0 3.1-4.941 4.554 4.554 0 0 0 5.82.396 4.538 4.538 0 0 0 1.423-5.658 4.554 4.554 0 0 0 5.657-1.422 4.538 4.538 0 0 0-.396-5.82 4.554 4.554 0 0 0 4.94-3.1 4.538 4.538 0 0 0-2.174-5.414A4.554 4.554 0 0 0 64 32a4.538 4.538 0 0 0-3.741-4.476 4.554 4.554 0 0 0 2.175-5.413 4.538 4.538 0 0 0-4.941-3.1 4.554 4.554 0 0 0 .396-5.82zM32 55.58c13.022 0 23.579-10.557 23.579-23.579S45.022 8.421 32 8.421 8.421 18.978 8.421 32 18.978 55.579 32 55.579z" fill="#27262B"/></g></g></svg>