<?xml version="1.0" encoding="UTF-8" standalone="no"?>
<svg width="84px" height="84px" viewBox="0 0 84 84" version="1.1" xmlns="http://www.w3.org/2000/svg" xmlns:xlink="http://www.w3.org/1999/xlink">
    <!-- Generator: Sketch 3.6.1 (26313) - http://www.bohemiancoding.com/sketch -->
    <title>vanillicon</title>
    <desc>Created with Sketch.</desc>
    <defs></defs>
    <g id="Page-1" stroke="none" stroke-width="1" fill="none" fill-rule="evenodd">
        <g id="vanillicon">
            <rect id="background" fill="#FC1E4C" x="0" y="0" width="84" height="84"></rect>
            <g id="avatar" transform="translate(8.000000, 8.000000)">
                <ellipse id="body" fill="#B4DEC4" cx="34" cy="34" rx="26.8421053" ry="26.8421053"></ellipse>
                <g id="eyes" transform="translate(16.105263, 19.684211)" fill="#27262B">
                    <path d="M15.7237262,5.09743604 C15.1470256,2.04349649 13.6034645,0 10.701213,0 C5.73291007,0 1.27437245,5.20320534 0.156351259,10.2066579 C-0.0190782019,10.9917531 0.00503965678,11.1891929 0.00503965678,11.1891929 C-0.0597436742,11.9276655 0.487012564,12.5263158 1.22423617,12.5263158 L3.95797894,12.5263158 C4.69610591,12.5263158 5.36727452,11.920175 5.48652936,11.2150911 C5.48652936,11.2150911 5.40195566,11.3971919 5.5918202,10.7985301 C6.42073795,8.18486971 8.89896695,5.36842105 9.80008978,5.36842105 C10.4512918,5.36842105 10.7012126,5.36842105 10.7012126,6.26315789 C10.7012126,7.54413991 10.7012129,11.1687433 10.7012129,11.1687433 C10.701213,11.9185099 11.3004865,12.5263158 12.0377101,12.5263158 L14.7714529,12.5263158 C15.5095799,12.5263158 16.1074809,11.9192934 16.1052571,11.1809437 C16.1052571,11.1809437 16.0509101,6.83005111 15.7237262,5.09743604 L15.7237262,5.09743604 Z" id="left_eye"></path>
                    <path d="M35.4081085,5.09743604 C34.8314078,2.04349649 33.2878466,0 30.3855952,0 C25.4172922,0 20.9587546,5.20320534 19.8407335,10.2066579 C19.6653041,10.9917531 19.6894219,11.1891929 19.6894219,11.1891929 C19.6246385,11.9276655 20.1713948,12.5263158 20.9086184,12.5263158 L23.6423612,12.5263158 C24.3804881,12.5263158 25.0516567,11.920175 25.1709116,11.2150911 C25.1709116,11.2150911 25.0863378,11.3971919 25.2762024,10.7985301 C26.1051201,8.18486971 28.5833491,5.36842105 29.4844721,5.36842105 C30.1356741,5.36842105 30.3855948,5.36842105 30.3855948,6.26315789 C30.3855948,7.54413991 30.3855952,11.1687433 30.3855952,11.1687433 C30.3855952,11.9185099 30.9848688,12.5263158 31.7220924,12.5263158 L34.4558352,12.5263158 C35.1939621,12.5263158 35.7918631,11.9192934 35.7896393,11.1809437 C35.7896393,11.1809437 35.7352924,6.83005111 35.4081085,5.09743604 L35.4081085,5.09743604 Z" id="right_eye" transform="translate(27.736928, 6.263158) scale(-1, 1) translate(-27.736928, -6.263158) "></path>
                </g>
                <g id="mouth" transform="translate(19.684211, 42.947368)" fill="#27262B">
                    <path d="M14.3157895,5.36842105 C10.6793972,5.36842105 7.26210821,4.01077652 4.63777922,1.60160015 C3.54572051,0.599072626 1.84772286,0.671651996 0.845195345,1.76371071 C-0.157332179,2.85576943 -0.0847528094,4.55376706 1.0073059,5.55629458 C4.61260676,8.86601897 9.32160316,10.7368421 14.3157895,10.7368421 C19.3099757,10.7368421 24.0189722,8.86601897 27.6242731,5.55629458 C28.7163318,4.55376706 28.7889111,2.85576943 27.7863837,1.76371071 C26.7838561,0.671651996 25.0858585,0.599072626 23.9937996,1.60160015 C21.3694708,4.01077652 17.9521818,5.36842105 14.3157895,5.36842105 L14.3157895,5.36842105 Z"></path>
                </g>
                <path d="M61.5065764,14.0153014 C60.1097567,12.0927439 57.5705855,11.4954615 55.4953236,12.5039383 C56.4946056,10.4365505 55.9019949,7.88642049 53.9846972,6.4934222 C52.0621398,5.09660242 49.4626741,5.31320007 47.8006191,6.91360973 C48.1121348,4.63861201 46.7604951,2.39642099 44.5065764,1.66407845 C42.2464745,0.929726833 39.8411683,1.93900249 38.7550138,3.97468577 C38.3482698,1.71477073 36.369909,1.20792265e-13 33.9999986,1.20792265e-13 C31.6235868,1.20792265e-13 29.647888,1.70315873 29.2439544,3.97484877 C28.1587658,1.95123264 25.7473394,0.931735893 23.4934207,1.66407845 C21.233319,2.39843006 19.8806226,4.62875481 20.1984498,6.91408278 C18.5410423,5.32485119 15.9325977,5.10042389 14.0153001,6.4934222 C12.0927426,7.89024196 11.4954601,10.429413 12.5039369,12.5046751 C10.4365491,11.5053931 7.88641913,12.0980037 6.49342082,14.0153014 C5.09660105,15.9378589 5.31319871,18.5373245 6.91360835,20.1993795 C4.63861065,19.8878639 2.39641963,21.2395036 1.66407709,23.4934222 C0.929725473,25.753524 1.93900112,28.1588304 3.9746844,29.2449849 C1.71476937,29.6517289 -1.35999999e-06,31.6300898 -1.35999999e-06,34 C-1.35999999e-06,36.3764117 1.70315737,38.3521106 3.9748474,38.7560442 C1.95123127,39.8412329 0.931734533,42.2526591 1.66407709,44.5065778 C2.39842869,46.7666797 4.62875344,48.1193759 6.9140814,47.801549 C5.32484982,49.4589564 5.10042252,52.0674008 6.49342082,53.9846986 C7.8902406,55.9072561 10.4294117,56.5045384 12.5046737,55.4960618 C11.5053917,57.5634495 12.0980024,60.1135796 14.0153001,61.5065778 C15.9378575,62.9033975 18.5373231,62.6868 20.1993782,61.0863903 C19.8878625,63.3613881 21.2395022,65.6035791 23.4934207,66.3359215 C25.7535226,67.0702732 28.158829,66.0609975 29.2449835,64.0253143 C29.6517275,66.2852293 31.6300883,68 33.9999986,68 C36.3764103,68 38.3521093,66.2968412 38.7560429,64.0251513 C39.8412315,66.0487674 42.2526579,67.0682642 44.5065764,66.3359215 C46.7666783,65.6015699 48.1193747,63.3712452 47.8015475,61.0859173 C49.458955,62.6751489 52.0673996,62.8995761 53.9846972,61.5065778 C55.9072547,60.109758 56.5045372,57.570587 55.4960603,55.4953249 C57.563448,56.4946069 60.1135781,55.9019962 61.5065764,53.9846986 C62.9033962,52.062141 62.6867985,49.4626755 61.086389,47.8006204 C63.3613866,48.1121361 65.6035776,46.7604963 66.3359201,44.5065778 C67.0702718,42.246476 66.0609961,39.8411696 64.0253129,38.7550151 C66.2852279,38.3482711 67.9999986,36.3699102 67.9999986,34 C67.9999986,31.6235883 66.29684,29.6478894 64.0251498,29.2439558 C66.0487659,28.1587671 67.0682627,25.7473409 66.3359201,23.4934222 C65.6015686,21.2333203 63.3712438,19.880624 61.0859159,20.1984511 C62.6751474,18.5410436 62.8995748,15.9325991 61.5065764,14.0153014 L61.5065764,14.0153014 Z M34,59.0526316 C47.8361864,59.0526316 59.0526316,47.8361864 59.0526316,34 C59.0526316,20.1638136 47.8361864,8.94736842 34,8.94736842 C20.1638136,8.94736842 8.94736842,20.1638136 8.94736842,34 C8.94736842,47.8361864 20.1638136,59.0526316 34,59.0526316 L34,59.0526316 Z" id="circle" fill="#27262B"></path>
            </g>
        </g>
    </g>
</svg>