<svg class="resolved2-unresolved" viewBox="0 0 16 16" fill="none" xmlns="http://www.w3.org/2000/svg">
    <circle cx="8" cy="8" r="6" fill="#FDEFD0" />
    <path fill-rule="evenodd" clip-rule="evenodd"
        d="M7.39994 9.22964H8.61994L8.87494 4.0625H7.14494L7.39994 9.22964ZM7.35 10.3667C7.2 10.5183 7.125 10.7422 7.125 11.0384C7.125 11.324 7.20167 11.5452 7.355 11.7021C7.50833 11.859 7.725 11.9375 8.005 11.9375C8.27833 11.9375 8.49167 11.8573 8.645 11.6969C8.79833 11.5364 8.875 11.3169 8.875 11.0384C8.875 10.7493 8.79917 10.5272 8.6475 10.372C8.49583 10.2169 8.28167 10.1393 8.005 10.1393C7.71833 10.1393 7.5 10.2151 7.35 10.3667Z"
        fill="#C24704" />
    <circle cx="8" cy="8" r="6.5" stroke="#C24704" />
</svg>
