<svg id="svg-user" xmlns="http://www.w3.org/2000/svg" viewBox="0 0 24 24">
  <path transform="translate(0 -1)" d="M12,11c-1.8,0-3.267-1.791-3.267-4C8.733,3.937,10.2,3,12,3s3.267.937,3.267,4C15.267,9.209,13.8,11,12,11Zm6.957,5.818a18.7,18.7,0,0,1-.151,3.783.772.772,0,0,1-.663.4H5.746a.771.771,0,0,1-.663-.4,18.735,18.735,0,0,1,.031-3.783L6.7,12.861a.85.85,0,0,1,.358-.423L9.507,11.02a.145.145,0,0,1,.168.016,3.57,3.57,0,0,0,4.72,0,.145.145,0,0,1,.168-.016l2.454,1.419a.851.851,0,0,1,.358.423Z" style="fill: currentColor;opacity: 0.6;isolation: isolate"/>
</svg>
