<svg id="svg-userPhoto-banned" xmlns="http://www.w3.org/2000/svg" viewBox="0 0 24 24">
  <rect class="svgPath-bg" width="24" height="24" fill="#fff" opacity="0.4"/>
  <path class="svgPath-person" d="M12.028,14.4c-2.4,0-4.353-2.507-4.353-5.6,0-4.288,1.949-5.6,4.353-5.6s4.353,1.311,4.353,5.6C16.382,11.891,14.432,14.4,12.028,14.4Zm5.222,7.642-4.778,1.583-5.1-1.417L3.5,19.233l1.109-2.5a1.1,1.1,0,0,1,.5-.53l3.408-1.779a.219.219,0,0,1,.234.02,5.365,5.365,0,0,0,6.556,0,.219.219,0,0,1,.234-.02l3.4,1.778a1.1,1.1,0,0,1,.5.53l1.19,2.692Z" style="fill: #999999;  "/>
  <path class="svgPath-banSymbol" d="M4.113,21.044l-.022.022L2.934,19.909l.022-.022a12,12,0,1,1,1.157,1.157Zm1.16-1.16A10.364,10.364,0,0,0,19.884,5.273ZM4.116,18.727,18.727,4.116A10.364,10.364,0,0,0,4.116,18.727Z" style="fill: #e20000"/>
</svg>
