<svg id="svg-userPhoto-jailed" xmlns="http://www.w3.org/2000/svg" viewBox="0 0 24 24">
  <rect class="svgPath-bg"  width="24" height="24" fill="#fff" opacity="0.4"/>
  <path class="svgPath-person" d="M12.046,12.907c-2.225,0-4.03-2.218-4.03-4.954C8.016,4.16,9.82,3,12.046,3s4.03,1.16,4.03,4.953C16.076,10.689,14.271,12.907,12.046,12.907Zm8.9,6.452a17.94,17.94,0,0,1-.194,4.2A1.025,1.025,0,0,1,19.9,24H3.96a1.024,1.024,0,0,1-.852-.443,17.956,17.956,0,0,1,.04-4.2l2.033-4.39a1,1,0,0,1,.46-.469L8.8,12.926a.211.211,0,0,1,.217.017,5.149,5.149,0,0,0,6.068,0,.211.211,0,0,1,.216-.017L18.452,14.5a1,1,0,0,1,.46.469Z" style="fill: #a3a3a3"/>
  <polygon class="svgPath-bar" points="1 0 1 24.195 2 24.195 2 0 1 0" style="fill: #5c5c5c"/>
  <polygon class="svgPath-bar" points="6 0 6 24.195 7 24.195 7 0 6 0" style="fill: #5c5c5c"/>
  <polygon class="svgPath-bar" points="12 0 12 24.195 13 24.195 13 0 12 0" style="fill: #5c5c5c"/>
  <polygon class="svgPath-bar-horizontal" points="24.195 20.5 0.005 20.5 0.005 21.5 24.195 21.5 24.195 20.5" style="fill: #5c5c5c"/>
  <polygon class="svgPath-bar" points="17 0 17 24.195 18 24.195 18 0 17 0" style="fill: #5c5c5c"/>
  <polygon class="svgPath-bar" points="22 0 22 24.195 23 24.195 23 0 22 0" style="fill: #5c5c5c"/>
</svg>
