<svg width="84" height="84" viewBox="0 0 84 84" xmlns="http://www.w3.org/2000/svg"><title>google</title><g fill="none" fill-rule="evenodd"><path fill="#FFF" d="M0 0h84v84H0z"/><path d="M32.36 10.805c-8.046 2.742-14.901 8.74-18.72 16.332a32.506 32.506 0 0 0-2.876 8.28c-1.457 7.15-.444 14.775 2.859 21.287a33.234 33.234 0 0 0 8.969 10.988c3.534 2.796 7.636 4.884 12.005 6.034 5.505 1.469 11.366 1.433 16.907.177 5.008-1.15 9.75-3.539 13.533-7.007 3.996-3.663 6.855-8.476 8.365-13.66 1.651-5.645 1.864-11.678.834-17.482H43.157V48.6h18.008c-.692 4.105-3.143 7.856-6.606 10.174-2.185 1.469-4.689 2.407-7.282 2.867-2.593.442-5.292.495-7.885-.018a19.594 19.594 0 0 1-7.352-3.167 20.357 20.357 0 0 1-7.566-10.104c-1.403-4.123-1.42-8.705 0-12.81a20.544 20.544 0 0 1 4.795-7.768c2.664-2.725 6.127-4.672 9.874-5.468 3.197-.672 6.571-.548 9.697.39 2.664.796 5.115 2.264 7.122 4.175l6.074-6.051c1.065-1.08 2.184-2.123 3.214-3.238-3.072-2.831-6.695-5.114-10.638-6.565-7.104-2.619-15.096-2.672-22.253-.212z" fill="#FFF"/><path d="M32.36 10.805c7.139-2.46 15.148-2.407 22.252.194 3.943 1.451 7.548 3.716 10.638 6.565-1.03 1.115-2.149 2.159-3.214 3.238l-6.074 6.052a18.006 18.006 0 0 0-7.122-4.176 19.572 19.572 0 0 0-9.697-.39c-3.73.797-7.192 2.743-9.874 5.468-2.167 2.176-3.8 4.866-4.795 7.768-3.605-2.796-7.21-5.574-10.833-8.37 3.818-7.608 10.673-13.607 18.718-16.35z" fill="#EA4335"/><path d="M10.781 35.4a32.744 32.744 0 0 1 2.877-8.281c3.606 2.796 7.21 5.574 10.834 8.37-1.421 4.122-1.421 8.705 0 12.81-3.605 2.796-7.21 5.592-10.816 8.37-3.339-6.494-4.35-14.12-2.895-21.269z" fill="#FBBC05"/><path d="M43.157 35.736h31.08c1.03 5.786.799 11.82-.835 17.482-1.51 5.185-4.37 9.998-8.365 13.66L54.54 58.757c3.463-2.318 5.914-6.07 6.607-10.175H43.139c.018-4.282.018-8.564.018-12.846z" fill="#4285F4"/><path d="M13.64 56.686c3.606-2.778 7.211-5.573 10.816-8.37 1.386 4.053 4.05 7.645 7.566 10.104a19.717 19.717 0 0 0 7.352 3.168c2.593.53 5.275.46 7.886.017 2.592-.46 5.097-1.397 7.281-2.866l10.496 8.122c-3.783 3.485-8.525 5.856-13.533 7.007-5.54 1.256-11.402 1.291-16.907-.177a32.687 32.687 0 0 1-12.005-6.034 33.16 33.16 0 0 1-8.951-10.97z" fill="#34A853"/></g></svg>