<svg width="84" height="84" viewBox="0 0 84 84" xmlns="http://www.w3.org/2000/svg"><title>sfs</title><g fill="none" fill-rule="evenodd"><path fill="#2980B9" d="M0 0h84v84H0z"/><g transform="translate(12 12)"><circle fill="#261F64" cx="30" cy="30" r="29.531"/><path d="M20.913 17.024c0-.36-.29-.68-.657-.675 0 0-2.75-.547-2.75 3.429v22.716s0 7.95 9.087 7.95h6.814c9.087 0 9.087-7.95 9.087-7.95v-16.39a.578.578 0 0 0-.65-.586S37.95 25.457 37.95 30v5.68c-6.247 0-7.383 3.407-8.519 5.678 0-2.271 1.704-6.815 7.383-7.95V15.233s0-2.271-2.272-2.271c-2.271 0-2.271 2.271-2.271 2.271v12.973a.65.65 0 0 1-.648.657h.16a.651.651 0 0 1-.648-.647v-16.39s0-2.272-2.272-2.272c-2.271 0-2.271 2.272-2.271 2.272v16.39a.645.645 0 0 1-.648.647h.16a.652.652 0 0 1-.648-.647v-13.55s0-1.704-1.704-1.704-1.704 1.703-1.704 1.703v13.551a.645.645 0 0 1-.647.647h.159a.646.646 0 0 1-.648-.654V17.024z" fill="#FFF"/></g></g></svg>