<svg xmlns="http://www.w3.org/2000/svg" viewBox="0 0 24 24"><title>GitHub</title><path d="M21 12.245A9.125 9.125 0 0 0 12 3a9.125 9.125 0 0 0-9 9.245 9.235 9.235 0 0 0 6.071 8.745.887.887 0 0 0 .464-.689c0-.508-.011-1.816-.011-1.816a6.115 6.115 0 0 1-.948.068 2.044 2.044 0 0 1-2.06-1.428A2.487 2.487 0 0 0 5.5 15.893c-.232-.154-.286-.335-.016-.387 1.243-.239 1.561 1.44 2.391 1.708a2.277 2.277 0 0 0 1.734-.142 1.844 1.844 0 0 1 .714-1.19c-2.112-.208-3.365-.957-4.014-2.162l-.069-.135-.16-.385-.048-.138a6.652 6.652 0 0 1-.293-2.094 3.625 3.625 0 0 1 .992-2.653 3.793 3.793 0 0 1 .156-2.665s.913-.191 2.642 1.074a9.375 9.375 0 0 1 4.616-.091c.725-.49 2.052-1.185 2.587-.99a3.526 3.526 0 0 1 .19 2.459 4.352 4.352 0 0 1 1.129 3.064 8.15 8.15 0 0 1-.231 1.9l-.078.272s-.045.128-.094.25l-.057.135c-.626 1.406-1.911 1.931-3.988 2.149.673.433.866.976.866 2.445s-.02 1.667-.015 2.005A.932.932 0 0 0 14.9 21a9.234 9.234 0 0 0 6.1-8.755" fill="#25292e"/></svg>