<svg xmlns="http://www.w3.org/2000/svg" viewBox="0 0 24 24">
  <title>Google</title>
  <path d="M20,12.163a8.71,8.71,0,0,0-.139-1.544H12.163v3.089h4.656a4.912,4.912,0,0,1-1.786,2.614l2.4,1.912A8.305,8.305,0,0,0,20,12.163" style="fill: #3284ff"/>
  <path d="M12.264,7.309a4.614,4.614,0,0,1,3.041,1.13l2.224-2.255A7.622,7.622,0,0,0,12.163,4,8.235,8.235,0,0,0,4.875,8.52L7.6,10.6a5,5,0,0,1,4.66-3.292" style="fill: #ff3424"/>
  <path d="M4.926,15.905l2.632-2.094A4.88,4.88,0,0,1,7.6,10.6L4.875,8.52a8.023,8.023,0,0,0,.051,7.385" style="fill: #fb0"/>
  <path d="M7.558,13.811,4.926,15.905a8.233,8.233,0,0,0,7.237,4.422,7.62,7.62,0,0,0,5.272-2.093l-2.4-1.912a4.61,4.61,0,0,1-2.769.916,5,5,0,0,1-4.706-3.427" style="fill: #26b14c"/>
</svg>
