<svg xmlns="http://www.w3.org/2000/svg" viewBox="0 0 24 24">
  <title>LinkedIn</title>
  <path d="M19.668,3H4.329A1.314,1.314,0,0,0,3,4.3H3V19.7A1.315,1.315,0,0,0,4.329,21H19.668A1.316,1.316,0,0,0,21,19.7V4.3A1.316,1.316,0,0,0,19.668,3ZM8.339,18.338H5.669V9.75h2.67ZM7,8.574H7A1.548,1.548,0,1,1,8.552,7.026,1.548,1.548,0,0,1,7,8.574Zm8.668,9.764V14.161c0-1-.018-2.278-1.387-2.278-1.389,0-1.6,1.086-1.6,2.206v4.249h-2.67V9.748h2.561v1.174h.036a2.8,2.8,0,0,1,2.526-1.387c2.7,0,3.2,1.779,3.2,4.092l0,4.711Z" style="fill: #fff"/>
</svg>
