<svg xmlns="http://www.w3.org/2000/svg" viewBox="0 0 24 24"><title>Twitter</title><path d="M21 6.732a7.362 7.362 0 0 1-2.121.581 3.708 3.708 0 0 0 1.626-2.043 7.389 7.389 0 0 1-2.345.9 3.7 3.7 0 0 0-6.294 3.369 10.484 10.484 0 0 1-7.613-3.863A3.7 3.7 0 0 0 5.4 10.607a3.674 3.674 0 0 1-1.673-.462v.047a3.7 3.7 0 0 0 2.963 3.621 3.678 3.678 0 0 1-1.668.063 3.7 3.7 0 0 0 3.45 2.565 7.409 7.409 0 0 1-4.587 1.581A7.538 7.538 0 0 1 3 17.971a10.5 10.5 0 0 0 16.17-8.85c0-.16 0-.319-.011-.477A7.5 7.5 0 0 0 21 6.732z" fill="#fff"/></svg>