<svg xmlns="http://www.w3.org/2000/svg" viewBox="0 0 24 24"><path class="svgPath-person" d="M12.046 12.907c-2.225 0-4.03-2.218-4.03-4.954C8.016 4.16 9.82 3 12.046 3s4.03 1.16 4.03 4.953c0 2.736-1.805 4.954-4.03 4.954zm8.9 6.452a17.94 17.94 0 0 1-.194 4.2A1.025 1.025 0 0 1 19.9 24H3.96a1.024 1.024 0 0 1-.852-.443 17.956 17.956 0 0 1 .04-4.2l2.033-4.39a1 1 0 0 1 .46-.469L8.8 12.926a.211.211 0 0 1 .217.017 5.149 5.149 0 0 0 6.068 0 .211.211 0 0 1 .216-.017l3.151 1.574a1 1 0 0 1 .46.469z" fill="#a3a3a3"/></svg>